<svg xmlns="http://www.w3.org/2000/svg" version="1.1" xmlns:xlink="http://www.w3.org/1999/xlink" width="512" height="512" x="0" y="0" viewBox="0 0 60 60" style="enable-background:new 0 0 512 512" xml:space="preserve" class=""><g><path d="M4 60h52a3.994 3.994 0 0 0 3.922-4.761l-5.83-30A4 4 0 0 0 50.172 22H45v-1a1.993 1.993 0 0 0-1.025-1.735C43.709 8.407 37.675 0 30 0S16.287 8.407 16.022 19.265A1.993 1.993 0 0 0 15 21v1H9.828a4 4 0 0 0-3.922 3.239l-5.831 30A3.994 3.994 0 0 0 4 60Zm-1.544-2.725a2 2 0 0 1-.418-1.655l.7-3.62H8a2 2 0 0 1 2 2v4H4a1.992 1.992 0 0 1-1.544-.725ZM6.241 34H14v4.026a5 5 0 1 0 6 0V34h33.76l3.109 16H52a4 4 0 0 0-4 4v4H12v-4a4 4 0 0 0-4-4H3.131ZM17 39a3 3 0 1 1-3 3 3 3 0 0 1 3-3Zm1-1.9a5 5 0 0 0-2 0V34h2Zm39.544 20.175A1.992 1.992 0 0 1 56 58h-6v-4a2 2 0 0 1 2-2h5.256l.7 3.621a2 2 0 0 1-.412 1.654ZM43 25h-4v-4h4Zm-22 0h-4v-4h4v4Zm1.02-5.71C22.248 12.133 25.873 6 30 6s7.751 6.133 7.979 13.29A1.994 1.994 0 0 0 37 21v1H23v-1a1.993 1.993 0 0 0-.981-1.71ZM30 2c6.5 0 11.646 7.389 11.981 17h-2C39.656 10.642 35.3 4 30 4s-9.658 6.642-9.981 15h-2C18.35 9.389 23.492 2 30 2ZM7.87 25.617A2 2 0 0 1 9.828 24H15v1a2 2 0 0 0 2 2h4a2 2 0 0 0 2-2v-1h14v1a2 2 0 0 0 2 2h4a2 2 0 0 0 2-2v-1h5.173a2 2 0 0 1 1.959 1.62L53.371 32H6.629Z" fill="#82bb31" opacity="1" data-original="#000000"></path></g></svg>