<svg xmlns="http://www.w3.org/2000/svg" version="1.1" xmlns:xlink="http://www.w3.org/1999/xlink" width="512" height="512" x="0" y="0" viewBox="0 0 173.397 173.397" style="enable-background:new 0 0 512 512" xml:space="preserve" fill-rule="evenodd" class=""><g><path d="M126.591 85.703a1.78 1.78 0 0 1-1.782-1.783V26.03a1.78 1.78 0 0 1 1.782-1.782 1.78 1.78 0 0 1 1.782 1.782v57.89a1.78 1.78 0 0 1-1.782 1.782zM22.793 85.703a1.78 1.78 0 0 1-1.782-1.783V26.03a1.78 1.78 0 0 1 1.782-1.782 1.78 1.78 0 0 1 1.782 1.782v57.89a1.78 1.78 0 0 1-1.782 1.782zM66.01 85.706a1.783 1.783 0 0 1-1.783-1.783V77.31c0-2.045-1.336-3.771-2.92-3.771H47.583c-1.609 0-2.92 1.692-2.92 3.771v6.611c0 .987-.799 1.782-1.783 1.782s-1.782-.795-1.782-1.781v-6.612c0-4.043 2.908-7.335 6.485-7.335h13.724c3.576 0 6.484 3.292 6.484 7.335v6.615c0 .983-.798 1.781-1.782 1.781zM106.537 85.706a1.783 1.783 0 0 1-1.782-1.783V77.31c0-2.045-1.337-3.771-2.92-3.771H88.114c-1.612 0-2.924 1.692-2.924 3.771v6.611c0 .987-.798 1.782-1.782 1.782s-1.782-.795-1.782-1.781v-6.612c0-4.043 2.911-7.335 6.488-7.335h13.72c3.577 0 6.485 3.292 6.485 7.335v6.615c0 .983-.798 1.781-1.782 1.781z" fill="#82bb31" opacity="1" data-original="#000000"></path><path d="M15.368 137.869c-.21 0-.52 0-.867-.056-3.204-.448-5.62-3.226-5.62-6.466v-34.87c0-7.907 4.955-14.339 11.047-14.339l109.528.003c2.955 0 5.832 1.557 7.892 4.276.594.786.44 1.903-.344 2.497a1.78 1.78 0 0 1-2.496-.344c-1.402-1.847-3.196-2.865-5.052-2.865l-109.528-.003c-4.127 0-7.484 4.836-7.484 10.776v34.87a2.972 2.972 0 0 0 2.562 2.935l.052.01c.066.012.201.012.31.012 1.345 0 2.509-.9 2.83-2.187l2.13-8.087c.478-1.86 2.177-3.165 4.126-3.165h90.359a1.782 1.782 0 0 1 0 3.564H24.454c-.328 0-.6.2-.678.501l-2.125 8.072c-.714 2.855-3.301 4.866-6.283 4.866zM126.591 40.01h-7.886c-5.39 0-10.575-2.155-15.002-6.236-4.015-3.7-9.12-5.999-13.328-5.999H58.938c-4.204 0-9.312 2.299-13.328 6.002-4.427 4.078-9.612 6.234-15.001 6.234h-7.815a1.782 1.782 0 0 1 0-3.564h7.815c4.477 0 8.83-1.828 12.585-5.293 4.647-4.282 10.68-6.943 15.744-6.943h31.439c5.064 0 11.097 2.66 15.744 6.943 3.756 3.465 8.108 5.293 12.585 5.293h7.886a1.782 1.782 0 0 1 0 3.564z" fill="#82bb31" opacity="1" data-original="#000000"></path><path d="M117.678 85.703a1.78 1.78 0 0 1-1.782-1.783V50.197H33.488V83.92c0 .987-.798 1.782-1.782 1.782s-1.782-.795-1.782-1.781V48.413a1.78 1.78 0 0 1 1.782-1.778h85.972a1.78 1.78 0 0 1 1.782 1.779V83.92a1.78 1.78 0 0 1-1.782 1.782zM135.928 109.964H10.662a1.783 1.783 0 0 1 0-3.564h125.266a1.782 1.782 0 0 1 0 3.564zM135.928 99.108H10.662a1.783 1.783 0 0 1 0-3.564h125.266a1.782 1.782 0 0 1 0 3.564zM157.5 149.186h-37.595a3.529 3.529 0 0 1-2.577-1.13 3.49 3.49 0 0 1-.932-2.62l1.557-20.096a1.78 1.78 0 1 1 3.551.275l-1.55 20.013 37.497-.006-1.55-20.007a1.779 1.779 0 0 1 1.636-1.915c.981-.08 1.84.656 1.915 1.64l1.556 20.087a3.508 3.508 0 0 1-.925 2.64 3.536 3.536 0 0 1-2.583 1.119z" fill="#82bb31" opacity="1" data-original="#000000"></path><path d="M118.457 119.69a1.934 1.934 0 0 0-1.933 1.93v.143c0 1.064.866 1.93 1.933 1.93h40.562a1.934 1.934 0 0 0 1.934-1.93v-.143c0-1.064-.867-1.93-1.934-1.93zm40.562 7.567h-40.562a5.502 5.502 0 0 1-5.497-5.494v-.143a5.502 5.502 0 0 1 5.497-5.494h40.562a5.502 5.502 0 0 1 5.498 5.494v.143a5.503 5.503 0 0 1-5.498 5.494zM129.242 149.186a1.783 1.783 0 0 1-1.782-1.782v-14.961a1.782 1.782 0 0 1 3.564 0v14.961c0 .984-.798 1.782-1.782 1.782zM138.722 149.186a1.783 1.783 0 0 1-1.782-1.782v-14.961a1.782 1.782 0 0 1 3.564 0v14.961c0 .984-.798 1.782-1.782 1.782zM148.235 149.186a1.782 1.782 0 0 1-1.782-1.782v-14.961a1.782 1.782 0 0 1 3.564 0v14.961c0 .984-.798 1.782-1.782 1.782z" fill="#82bb31" opacity="1" data-original="#000000"></path><path d="M143.495 119.69a1.783 1.783 0 0 1-1.782-1.782v-36.71c0-.542-.21-1.061-.576-1.426a2.023 2.023 0 0 0-1.426-.576 2.003 2.003 0 0 0-2.001 2.002v36.71a1.783 1.783 0 0 1-3.564 0v-36.71a5.572 5.572 0 0 1 5.565-5.566c1.48 0 2.918.59 3.948 1.618a5.625 5.625 0 0 1 1.618 3.948v36.71c0 .984-.798 1.782-1.782 1.782zM138.437 55.984h.003zm-1.253 3.146 2.314 1.717c.164.121.303.266.415.433l.835 1.232.854-1.244c.111-.16.25-.303.408-.42l2.314-1.718-2.314-1.717c-.16-.117-.3-.263-.411-.427l-.851-1.25-.83 1.238a1.77 1.77 0 0 1-.42.44zm3.552 8.325h-.007a1.785 1.785 0 0 1-1.47-.782l-2.127-3.143-4.001-2.967a1.785 1.785 0 0 1 0-2.865l3.997-2.964 2.129-3.174a1.78 1.78 0 0 1 1.472-.789h.006c.592 0 1.142.29 1.476.78l2.163 3.18 4.003 2.967a1.787 1.787 0 0 1 0 2.865l-4.006 2.97-2.166 3.15c-.331.485-.882.773-1.47.772zM152.594 78.327l2.324 1.723c.16.118.296.26.408.42l.854 1.245.835-1.232c.112-.167.254-.312.414-.433l2.324-1.723-2.333-1.751a1.775 1.775 0 0 1-.405-.427l-.835-1.231-.854 1.243c-.108.158-.245.3-.4.415zm3.598 8.331a1.78 1.78 0 0 1-1.47-.773l-2.165-3.15-4.006-2.97a1.773 1.773 0 0 1-.718-1.426 1.777 1.777 0 0 1 .711-1.429l4.01-3.01 2.169-3.153a1.78 1.78 0 0 1 1.47-.773h.005a1.784 1.784 0 0 1 1.47.783l2.131 3.149 4.004 3.004a1.78 1.78 0 0 1-.006 2.856l-4 2.966-2.13 3.144c-.33.489-.881.78-1.469.782h-.006zM152.606 42.084l2.311 1.717c.16.117.297.26.408.42l.854 1.244.835-1.231c.112-.167.254-.313.415-.433l2.314-1.717-2.314-1.714a1.89 1.89 0 0 1-.42-.44l-.83-1.24-.847 1.25c-.115.164-.254.31-.415.43zm3.586 8.325a1.78 1.78 0 0 1-1.47-.773l-2.165-3.15-4.007-2.97a1.785 1.785 0 0 1 0-2.861l4.003-2.97 2.166-3.181c.331-.489.881-.78 1.472-.78h.007a1.78 1.78 0 0 1 1.472.79l2.129 3.177 3.997 2.963a1.782 1.782 0 0 1 0 2.862l-4 2.967-2.129 3.143c-.33.49-.882.78-1.47.783h-.006z" fill="#82bb31" opacity="1" data-original="#000000"></path></g></svg>