<svg xmlns="http://www.w3.org/2000/svg" version="1.1" xmlns:xlink="http://www.w3.org/1999/xlink" width="512" height="512" x="0" y="0" viewBox="0 0 512 512" style="enable-background:new 0 0 512 512" xml:space="preserve" class=""><g><path d="M373.103 309.071a39.827 39.827 0 0 1 7.585-16.111 356.324 356.324 0 0 0 28.299-41.872 356.406 356.406 0 0 0 22.113-45.444 39.761 39.761 0 0 1 20.928-21.612c5.207-2.281 9.707-6.31 12.531-11.827 5.97-11.666 2.025-26.199-9.021-33.251a25.53 25.53 0 0 0-16.098-3.943c-9.38.846-18.78-1.26-26.606-6.499a1267.423 1267.423 0 0 0-71.277-44.344 1266.748 1266.748 0 0 0-74.04-39.555c-8.45-4.158-14.974-11.246-18.932-19.792a25.538 25.538 0 0 0-11.464-11.969c-11.63-6.04-26.188-2.19-33.306 8.813-3.366 5.204-4.605 11.116-3.977 16.766a39.76 39.76 0 0 1-8.253 28.93 355.584 355.584 0 0 0-21.711 30.916" style="stroke-width:20;stroke-linecap:round;stroke-linejoin:round;stroke-miterlimit:10;" fill="none" stroke="#82bb31" stroke-width="20" stroke-linecap="round" stroke-linejoin="round" stroke-miterlimit="10" data-original="#000000" opacity="1"></path><path d="M355.428 309.054a25.22 25.22 0 0 0 .348-3.094c.313-6.19-1.57-11.929-4.938-16.508a39.76 39.76 0 0 1-7.318-29.181 356.348 356.348 0 0 0 3.572-50.412c0-17.116-1.22-33.947-3.572-50.412a39.765 39.765 0 0 1 7.318-29.181c3.369-4.579 5.252-10.318 4.939-16.508-.663-13.088-11.345-23.702-24.438-24.285a25.535 25.535 0 0 0-15.913 4.634c-7.7 5.422-16.894 8.298-26.291 7.674a1266.488 1266.488 0 0 0-83.9-2.765c-28.477 0-56.485.944-83.898 2.765-9.397.624-18.591-2.252-26.291-7.674a25.542 25.542 0 0 0-15.913-4.634c-13.092.584-23.775 11.197-24.437 24.286-.313 6.19 1.57 11.929 4.939 16.508a39.765 39.765 0 0 1 7.318 29.181 356.348 356.348 0 0 0-3.572 50.412c0 17.116 1.22 33.947 3.572 50.413a39.765 39.765 0 0 1-7.318 29.181c-3.369 4.579-5.252 10.318-4.939 16.508.07 1.377.25 2.726.533 4.04M256 310H74c-35.346 0-64 28.654-64 64v0c0 35.346 28.654 64 64 64h332c17.673 0 32-14.327 32-32v0c0-17.673-14.327-32-32-32H99.946" style="stroke-width:20;stroke-linecap:round;stroke-linejoin:round;stroke-miterlimit:10;" fill="none" stroke="#82bb31" stroke-width="20" stroke-linecap="round" stroke-linejoin="round" stroke-miterlimit="10" data-original="#000000" opacity="1"></path><path d="M154.864 438H42c-17.673 0-32 14.327-32 32v0c0 17.673 14.327 32 32 32h364c53.019 0 96-42.981 96-96v0c0-53.019-42.981-96-96-96H256" style="stroke-width:20;stroke-linecap:round;stroke-linejoin:round;stroke-miterlimit:10;" fill="none" stroke="#82bb31" stroke-width="20" stroke-linecap="round" stroke-linejoin="round" stroke-miterlimit="10" data-original="#000000" opacity="1"></path></g></svg>