<svg xmlns="http://www.w3.org/2000/svg" version="1.1" xmlns:xlink="http://www.w3.org/1999/xlink" width="512" height="512" x="0" y="0" viewBox="0 0 128 128" style="enable-background:new 0 0 512 512" xml:space="preserve" class=""><g><path d="M91.5 44.035H78.368a1.5 1.5 0 0 1 0-3H91.5a1.5 1.5 0 0 1 0 3ZM88.109 97.014a9.076 9.076 0 0 1-4.525-1.147l-5.426-3.162a1.5 1.5 0 0 1 1.512-2.592l5.43 3.162a6.615 6.615 0 0 0 6.029 0l5.427-3.162a1.5 1.5 0 1 1 1.51 2.592l-5.426 3.162a9.072 9.072 0 0 1-4.531 1.147Z" fill="#82bb31" opacity="1" data-original="#000000" class=""></path><circle cx="66.711" cy="68.873" r="2.039" fill="#82bb31" opacity="1" data-original="#000000" class=""></circle><circle cx="66.711" cy="92.007" r="2.039" fill="#82bb31" opacity="1" data-original="#000000" class=""></circle><path d="M39.95 97.014a9.074 9.074 0 0 1-4.525-1.147L30 92.705a1.5 1.5 0 1 1 1.512-2.592l5.425 3.162a6.615 6.615 0 0 0 6.029 0l5.427-3.162a1.5 1.5 0 0 1 1.507 2.592l-5.425 3.162a9.072 9.072 0 0 1-4.525 1.147Z" fill="#82bb31" opacity="1" data-original="#000000" class=""></path><path d="M109.414 19.424a8.51 8.51 0 0 0-5.072-6.921L81.919 2.775l-1.187-1.237a2.386 2.386 0 0 0-4.191.915l-.061.247a68.119 68.119 0 0 1-24.954.023l-.058-.231a2.387 2.387 0 0 0-4.2-.95l-1.187 1.233L23.658 12.5a8.51 8.51 0 0 0-5.072 6.921l-10.225 98.6a3.5 3.5 0 0 0 3.482 3.862h11.88l-.245 1.368a3.5 3.5 0 0 0 3.445 4.118h18.4A25.023 25.023 0 0 0 64 118.424a24.914 24.914 0 0 0 18.675 8.945h18.4a3.5 3.5 0 0 0 3.445-4.118l-.245-1.368h11.88a3.5 3.5 0 0 0 3.482-3.862ZM79.18 4.253l7.229 7.537a.5.5 0 0 1-.157.8l-3.462 1.545-.23-.231a1.5 1.5 0 1 0-2.12 2.123l6.606 6.6a.482.482 0 0 1 .047.438L65.041 60.129ZM64 52.014l-9.275-36.653a82.779 82.779 0 0 0 9.254.526 81.311 81.311 0 0 0 9.3-.542Zm-.023-45.138a70.389 70.389 0 0 0 11.7-1.007l-1.611 6.366a79.856 79.856 0 0 1-20.129.012L52.329 5.89a71.572 71.572 0 0 0 11.648.986ZM45.323 124.369h-18.4a.5.5 0 0 1-.492-.589l.554-3.092v-.008l7.527-41.969a11.445 11.445 0 0 0 .017-3.955l-8.8-51.833a1.5 1.5 0 0 0-2.958.5l8.8 51.833a8.5 8.5 0 0 1-.013 2.924l-7.3 40.7H11.843a.5.5 0 0 1-.5-.553l10.224-98.6a5.5 5.5 0 0 1 3.282-4.477l15.859-6.874-1.283 1.338a3.5 3.5 0 0 0 1.1 5.62l2.409 1.072s-4.267 4.265-4.3 4.312a3.523 3.523 0 0 0-.3 3.883l22.94 38.184-.34 1.347c-.627 2.476-.663 9.566-.663 9.566-.052 10.084-.14 26.962.23 35.788a14.63 14.63 0 0 0 1.748 6.274c-3.449 5.026-10.415 8.609-16.926 8.609Zm16.989-65.683L40.94 23.119a.5.5 0 0 1 .014-.5l6.606-6.6a1.5 1.5 0 1 0-2.12-2.119l-.23.231-3.462-1.541a.5.5 0 0 1-.158-.8l7.23-7.537 13.633 53.876Zm54.216 60.032a.5.5 0 0 1-.371.165h-12.418l-7.3-40.7a8.5 8.5 0 0 1-.013-2.924l8.8-51.833a1.5 1.5 0 0 0-2.958-.5l-8.8 51.833a11.445 11.445 0 0 0 .017 3.955l7.528 41.97v.006l.554 3.093a.5.5 0 0 1-.492.589h-18.4c-8.577 0-18.823-6.556-19.178-15.008-.368-8.756-.206-39.491-.158-40.507L89.7 24.537a3.5 3.5 0 0 0-.337-3.819c-.036-.047-4.3-4.312-4.3-4.312l2.409-1.072a3.5 3.5 0 0 0 1.1-5.62L87.29 8.375l15.858 6.88a5.5 5.5 0 0 1 3.282 4.477l10.224 98.6a.5.5 0 0 1-.126.386Z" fill="#82bb31" opacity="1" data-original="#000000" class=""></path></g></svg>