<svg xmlns="http://www.w3.org/2000/svg" version="1.1" xmlns:xlink="http://www.w3.org/1999/xlink" width="512" height="512" x="0" y="0" viewBox="0 0 512 512" style="enable-background:new 0 0 512 512" xml:space="preserve" class=""><g><path d="M349.266 240.398a7.51 7.51 0 0 0-7.51 7.51v8.676a7.51 7.51 0 0 0 15.02 0v-8.676a7.51 7.51 0 0 0-7.51-7.51zM407.841 240.398a7.51 7.51 0 0 0-7.51 7.51v8.676a7.51 7.51 0 0 0 15.02 0v-8.676a7.51 7.51 0 0 0-7.51-7.51zM399.082 283.635a7.511 7.511 0 0 0-10.483 1.71c-1.475 2.05-5.154 4.118-10.046 4.118-4.892 0-8.571-2.068-10.046-4.118a7.511 7.511 0 0 0-12.193 8.773c4.671 6.491 12.985 10.366 22.239 10.366 9.255 0 17.568-3.875 22.239-10.366a7.51 7.51 0 0 0-1.71-10.483zM108.99 251.769a7.51 7.51 0 0 0-7.51 7.51v8.4a7.51 7.51 0 0 0 15.02 0v-8.4a7.51 7.51 0 0 0-7.51-7.51zM157.361 293.677a7.51 7.51 0 0 0-10.482 1.71c-1.393 1.935-4.88 3.888-9.533 3.888s-8.14-1.953-9.533-3.888a7.511 7.511 0 0 0-12.193 8.773c4.567 6.347 12.688 10.135 21.725 10.135s17.159-3.789 21.726-10.135a7.511 7.511 0 0 0-1.71-10.483zM295.476 404.379a7.51 7.51 0 0 0-7.51 7.51v14.649a7.51 7.51 0 0 0 15.02 0v-14.649a7.509 7.509 0 0 0-7.51-7.51zM288.684 13.061c-12.258 0-23.798 4.475-32.719 12.498-8.921-8.023-20.461-12.498-32.719-12.498-27.037 0-49.033 21.996-49.033 49.033-.001 23.803 13.884 46.696 40.152 66.204 19.146 14.219 38.066 21.7 38.862 22.011a7.514 7.514 0 0 0 5.474 0c.796-.311 19.715-7.792 38.862-22.011 26.269-19.509 40.154-42.401 40.154-66.204 0-27.037-21.996-49.033-49.033-49.033zm-32.721 122.095c-12.889-5.708-66.731-32.018-66.731-73.061 0-18.755 15.258-34.013 34.013-34.013 10.533 0 20.303 4.765 26.804 13.073a7.51 7.51 0 0 0 11.828 0c6.502-8.308 16.272-13.073 26.804-13.073 18.755 0 34.013 15.258 34.013 34.013 0 41.049-53.854 67.36-66.731 73.061z" fill="#82bb31" opacity="1" data-original="#000000" class=""></path><path d="m468.421 346.269-47.475-13.979a7.802 7.802 0 0 0-.689-.175l-7.449-1.497a3.819 3.819 0 0 1-3.057-3.733v-3.583c19.497-8.891 34.579-25.829 40.949-46.558h5.741c10.129 0 18.37-8.241 18.37-18.37V246.34c0-5.418-2.406-10.478-6.397-13.916v-13.246c0-43.173-35.124-78.297-78.297-78.297H366.99c-43.173 0-78.297 35.124-78.297 78.297v13.246c-3.991 3.438-6.397 8.498-6.397 13.916v12.034c0 10.129 8.241 18.37 18.37 18.37h5.741c6.224 20.252 20.753 36.9 39.6 45.947v4.465a3.82 3.82 0 0 1-3.057 3.734l-5.984 1.203-.016.003-.1.02a7.51 7.51 0 0 0-.691.175l-47.473 13.978c-16.535 4.868-29.847 16.554-37.23 31.402a56.994 56.994 0 0 0-11.826-13.491l18.299-5.795c10.481-3.319 17.357-13.314 16.723-24.304-1.128-19.541-5.882-59.123-25.047-104.665-23.81-56.579-57.938-78.25-83.323-86.366-6.483-8.985-17.033-14.849-28.934-14.849s-22.452 5.864-28.935 14.849c-25.385 8.117-59.513 29.788-83.323 86.366C5.923 274.958 1.169 314.54.041 334.08c-.635 10.99 6.242 20.985 16.723 24.304l18.298 5.795c-12.641 10.487-20.497 26.304-20.497 43.344v83.905a7.51 7.51 0 0 0 7.51 7.51l482.415-.049a7.51 7.51 0 0 0 7.51-7.51v-86.85c0-26.748-17.921-50.706-43.579-58.26zM235.759 235.242c18.293 43.47 22.824 81.127 23.896 99.704a9.005 9.005 0 0 1-6.262 9.119l-31.828 10.08a53.886 53.886 0 0 0-1.783-.558l-43.497-12.809a7.337 7.337 0 0 0-.642-.159l-6.818-1.371a2.857 2.857 0 0 1-2.288-2.793v-3.446c.289-.126.567-.271.854-.401a72.154 72.154 0 0 0 2.338-1.097c.381-.189.757-.386 1.134-.582a74.83 74.83 0 0 0 2.304-1.238 73.398 73.398 0 0 0 3.428-2.057c.235-.15.47-.298.702-.451a72.279 72.279 0 0 0 2.773-1.903c.089-.064.18-.126.269-.191 12.672-9.21 22.301-22.363 27.04-37.655h5.537c9.938 0 18.024-8.086 18.024-18.024v-11.651c0-.553-.034-1.098-.083-1.638a18.237 18.237 0 0 0-.28-1.969c-.007-.034-.017-.067-.024-.1a17.986 17.986 0 0 0-.373-1.449c-.036-.12-.072-.24-.11-.359a17.697 17.697 0 0 0-.534-1.457c-.022-.052-.047-.101-.069-.153a18.178 18.178 0 0 0-.614-1.273c-.056-.106-.111-.212-.17-.317a18.162 18.162 0 0 0-.794-1.306c-.041-.061-.085-.118-.127-.178a18.172 18.172 0 0 0-.818-1.093c-.072-.089-.142-.179-.216-.267a17.85 17.85 0 0 0-1.022-1.124c-.06-.061-.124-.118-.185-.178a18.45 18.45 0 0 0-.993-.903c-.083-.07-.164-.141-.248-.21-.393-.32-.799-.625-1.219-.912-.079-.054-.161-.104-.24-.156-.192-.127-.382-.257-.579-.377a83.961 83.961 0 0 0-.098-3.727c-.02-.45-.049-.896-.076-1.344a83.93 83.93 0 0 0-.176-2.306c-.052-.59-.101-1.181-.165-1.767-.023-.203-.053-.405-.077-.608-2.496-21.446-13.01-40.467-28.464-53.996l-.002-.002a85.122 85.122 0 0 0-4.441-3.641c-.073-.056-.144-.115-.218-.171-.467-.354-.944-.696-1.419-1.04a87.218 87.218 0 0 0-2.852-1.993 86.48 86.48 0 0 0-2.552-1.638c-.153-.094-.302-.193-.455-.286a84.872 84.872 0 0 0-3.307-1.904c-.172-.094-.346-.183-.518-.276a84.24 84.24 0 0 0-2.917-1.496c-.229-.112-.458-.224-.688-.334-.279-.133-.553-.275-.834-.406.022-.513.034-1.026.034-1.538 0-.661-.021-1.317-.057-1.97l-.003-.093c20.479 9.716 44.652 30.308 62.802 73.438zm-70.057 39.947a7.51 7.51 0 0 0 7.51-7.51v-8.4a7.47 7.47 0 0 0-1.524-4.522h23.938v11.018c0 1.039-.029 2.079-.086 3.121-.004.068-.012.135-.015.203a58.691 58.691 0 0 1-.242 2.952l-.009.071a59.27 59.27 0 0 1-.415 3.043c-.008.051-.019.101-.027.152a59.983 59.983 0 0 1-.548 2.865 58.045 58.045 0 0 1-1.083 4.204c-.12.401-.24.802-.368 1.199-.139.433-.288.861-.437 1.289a56.34 56.34 0 0 1-1.005 2.674 58.156 58.156 0 0 1-2.137 4.674l-.062.121A58.978 58.978 0 0 1 173 311.828c-.071.055-.141.112-.212.166a57.002 57.002 0 0 1-1.955 1.436 57.82 57.82 0 0 1-1.672 1.138c-.387.253-.774.505-1.167.749a59.173 59.173 0 0 1-2.52 1.481 56.37 56.37 0 0 1-3.214 1.652c-.726.345-1.458.681-2.2.996-.085.036-.171.069-.257.104a58.438 58.438 0 0 1-2.813 1.09c-.457.164-.919.315-1.381.468-.419.138-.837.281-1.258.41-.429.131-.864.248-1.297.369-.733.205-1.47.397-2.21.573-.495.118-.988.239-1.487.344-.403.085-.808.155-1.213.232-.487.092-.973.183-1.464.262-.396.064-.793.12-1.19.176a57.57 57.57 0 0 1-4.461.452c-.312.02-.623.044-.936.059-.911.043-1.826.07-2.748.07-.947 0-1.889-.027-2.825-.072-.286-.014-.571-.039-.856-.057a57.64 57.64 0 0 1-1.962-.15c-.318-.031-.635-.07-.952-.106a56.716 56.716 0 0 1-1.857-.237c-.311-.045-.621-.095-.931-.145a57.816 57.816 0 0 1-1.875-.336c-.284-.056-.568-.112-.851-.172-.66-.14-1.315-.293-1.966-.455-.238-.059-.476-.116-.713-.178a58.865 58.865 0 0 1-2.186-.622c-.146-.045-.294-.085-.44-.131a57.926 57.926 0 0 1-10.201-4.313l-.307-.168a59.186 59.186 0 0 1-2.137-1.23c-.177-.108-.351-.22-.527-.329-.478-.296-.95-.601-1.419-.911a57.902 57.902 0 0 1-1.091-.738c-.131-.09-.259-.185-.389-.276-9.247-6.55-16.521-15.732-20.718-26.288l-.082-.207a57.481 57.481 0 0 1-1.035-2.865c-.054-.163-.113-.324-.165-.488a61.599 61.599 0 0 1-.715-2.419 53.588 53.588 0 0 1-.412-1.588 54.232 54.232 0 0 1-.325-1.407 59.958 59.958 0 0 1-.538-2.81c-.011-.069-.026-.137-.037-.206a58.383 58.383 0 0 1-.407-2.988c-.004-.041-.011-.081-.016-.122a58.058 58.058 0 0 1-.238-2.909c-.005-.081-.014-.16-.018-.241a58 58 0 0 1-.085-3.118V253.7c.07-.029.136-.066.205-.095.276-.118.547-.244.814-.379.107-.054.214-.106.319-.162.357-.191.707-.393 1.046-.614l.017-.012c.333-.218.653-.453.967-.698.094-.073.185-.15.277-.226.233-.192.46-.391.68-.597.086-.081.173-.16.258-.243.58-.57 1.113-1.192 1.591-1.862.07-.098.135-.198.203-.297.172-.254.336-.514.492-.781.061-.105.124-.208.183-.315.201-.365.393-.737.563-1.123.157-.356.287-.724.387-1.101l5.537-20.785c.329-1.235 1.254-1.695 1.776-1.859.525-.164 1.55-.317 2.532.511 26.874 22.697 48.353 29.851 63.066 31.358a7.478 7.478 0 0 0-1.787 4.856v8.4a7.506 7.506 0 0 0 7.507 7.513zm44.641-2.773c.042-.454.061-.908.094-1.363.042-.591.094-1.179.122-1.774.057-1.169.089-2.338.089-3.504v-11.018h2.267a3.008 3.008 0 0 1 3.004 3.004v11.651a3.008 3.008 0 0 1-3.004 3.004h-2.572zm-93.252-112.537a20.21 20.21 0 0 1 .369-1.564c.028-.102.065-.202.095-.304.128-.43.267-.855.421-1.273.053-.143.109-.284.165-.426.159-.402.329-.798.512-1.188.048-.104.095-.208.145-.311 3.361-6.857 10.411-11.593 18.549-11.593 8.137 0 15.185 4.734 18.547 11.59.052.105.099.212.149.318.182.387.35.781.508 1.18.056.143.114.286.167.431.154.416.292.839.419 1.267.031.103.067.204.096.308.143.513.265 1.035.368 1.563.009.045.014.09.023.135a83.078 83.078 0 0 0-2.909-.656c-.251-.052-.503-.1-.755-.15a84.212 84.212 0 0 0-3.492-.625c-.091-.014-.181-.032-.273-.046a85.95 85.95 0 0 0-3.759-.479c-.246-.026-.491-.054-.737-.078a85.796 85.796 0 0 0-3.73-.285c-.225-.012-.45-.02-.675-.03-1.312-.06-2.627-.1-3.947-.1s-2.634.04-3.947.1c-.225.01-.451.018-.676.03a84.135 84.135 0 0 0-3.73.285c-.247.024-.492.052-.738.078a82.95 82.95 0 0 0-3.758.479c-.092.014-.183.032-.275.046a83.97 83.97 0 0 0-3.487.624c-.254.05-.508.098-.761.151-.972.203-1.941.418-2.906.656.008-.043.013-.089.022-.133zm-12.624 20.945c.146-.078.291-.16.438-.237a69.674 69.674 0 0 1 5.665-2.663c.22-.091.442-.177.663-.266a68.24 68.24 0 0 1 3.432-1.279 73.246 73.246 0 0 1 1.66-.549 65.62 65.62 0 0 1 3.141-.911c.496-.132.993-.26 1.492-.38a76 76 0 0 1 1.729-.391c.486-.104.972-.208 1.459-.302.609-.117 1.223-.22 1.838-.321.465-.077.93-.156 1.397-.223a67.656 67.656 0 0 1 1.979-.246c.435-.05.868-.106 1.304-.148.739-.07 1.484-.119 2.23-.166.365-.023.728-.057 1.094-.074a70.524 70.524 0 0 1 3.357-.083c1.125 0 2.243.03 3.356.083.367.017.732.051 1.099.074a67.8 67.8 0 0 1 2.224.166c.438.042.873.099 1.309.149.66.075 1.319.152 1.973.246.469.067.935.147 1.403.224a72.93 72.93 0 0 1 1.832.32c.49.094.977.198 1.465.303a69.44 69.44 0 0 1 1.723.389c.501.121 1 .25 1.498.382a70.845 70.845 0 0 1 3.141.911 66.59 66.59 0 0 1 1.653.547 69.5 69.5 0 0 1 3.441 1.282c.219.088.439.173.656.264a69.773 69.773 0 0 1 5.669 2.665c.145.076.287.156.431.233a68.514 68.514 0 0 1 4.854 2.862c.242.156.487.308.727.468a67.408 67.408 0 0 1 3.666 2.616c.295.224.592.445.883.673.562.442 1.116.894 1.664 1.353l.348.292c13.464 11.425 22.369 27.743 24.402 45.576.039.346.084.69.117 1.038.048.489.084.98.121 1.471.047.621.088 1.245.118 1.87.011.232.022.464.031.697h-40.856c-22.94 0-47.247-17.635-59.693-28.147a17.734 17.734 0 0 0-1.121-.866c-.108-.077-.216-.151-.325-.226-.306-.21-.617-.409-.933-.597-.093-.056-.184-.114-.278-.168a17.806 17.806 0 0 0-1.216-.636c-.093-.044-.188-.083-.281-.125a17.444 17.444 0 0 0-1.013-.421c-.124-.047-.247-.094-.372-.138a17.196 17.196 0 0 0-1.23-.389c-.027-.007-.053-.017-.08-.024a17.669 17.669 0 0 0-1.328-.295c-.128-.024-.257-.044-.385-.065a17.869 17.869 0 0 0-1.057-.14c-.113-.011-.226-.026-.339-.035a18.04 18.04 0 0 0-1.356-.06l-.076-.003c-.097 0-.193.01-.29.011a18.07 18.07 0 0 0-.869.033c-.15.01-.3.024-.451.038a17.118 17.118 0 0 0-2.114.324c-.129.028-.258.052-.387.082a17.602 17.602 0 0 0-13.013 12.657l-5.113 19.191H67.533a67.937 67.937 0 0 1 .15-2.569c.038-.49.073-.98.121-1.468.034-.35.079-.697.118-1.045 2.034-17.832 10.939-34.147 24.402-45.571l.347-.291a72.407 72.407 0 0 1 1.667-1.355c.287-.225.58-.443.87-.663.539-.41 1.08-.816 1.632-1.211a69.88 69.88 0 0 1 2.043-1.411c.243-.161.491-.315.736-.473a68.48 68.48 0 0 1 4.848-2.859zM21.299 344.065a9.004 9.004 0 0 1-6.263-9.119c1.073-18.578 5.603-56.234 23.896-99.704 18.15-43.129 42.323-63.722 62.806-73.436l-.003.093a34.377 34.377 0 0 0-.023 3.508c-.28.13-.553.272-.832.404-.232.111-.463.225-.694.337-.98.479-1.95.976-2.907 1.491-.176.095-.354.186-.529.282a83.783 83.783 0 0 0-3.3 1.9c-.158.096-.312.199-.47.296a84.658 84.658 0 0 0-3.711 2.426c-.564.39-1.121.788-1.674 1.192-.478.347-.959.692-1.43 1.049-.053.04-.104.083-.156.123-17.903 13.638-30.234 34.214-32.965 57.685-.024.203-.055.404-.077.608-.064.587-.113 1.177-.165 1.767a83.93 83.93 0 0 0-.176 2.306c-.027.448-.056.895-.076 1.344a83.921 83.921 0 0 0-.098 3.727c-.197.12-.387.25-.579.377-.08.053-.161.102-.24.156-.42.287-.826.592-1.219.912-.084.068-.165.14-.248.21-.342.289-.674.59-.993.903-.061.06-.125.117-.185.178-.357.36-.697.736-1.022 1.124-.073.088-.144.177-.216.267a18.28 18.28 0 0 0-.818 1.093c-.041.06-.086.118-.127.178-.284.422-.546.859-.794 1.306-.058.105-.113.211-.17.317-.22.416-.427.839-.614 1.273-.022.051-.048.101-.069.153-.2.475-.375.962-.534 1.457-.038.119-.074.239-.11.359-.142.476-.27.957-.373 1.449-.007.034-.017.067-.024.1a17.802 17.802 0 0 0-.28 1.969 18.107 18.107 0 0 0-.083 1.638v11.651c0 9.938 8.086 18.024 18.024 18.024h5.535l.016.047c.146.469.314.929.469 1.394 6.217 18.841 19.727 34.241 37.636 42.876l.285.139c.403.192.796.401 1.203.586v4.226a2.858 2.858 0 0 1-2.291 2.794l-5.583 1.124a7.838 7.838 0 0 0-.639.158L54.91 353.587a54.49 54.49 0 0 0-1.783.559l-31.828-10.081zm42.835-74.784c.027.58.078 1.154.119 1.73.034.468.054.936.096 1.404h-2.572a3.008 3.008 0 0 1-3.004-3.004V257.76a3.008 3.008 0 0 1 3.004-3.004h2.268v11.018c0 1.168.032 2.337.089 3.507zm180.975 214.637h-20.685V413.08c0-3.766-1.226-7.493-3.451-10.493-9.538-12.863-24.777-20.542-40.764-20.542-15.112 0-29.327 6.67-39.001 18.298-1.327 1.596-2.989 1.835-3.862 1.835s-2.535-.238-3.863-1.835c-9.673-11.629-23.889-18.298-39-18.298-15.987 0-31.226 7.679-40.764 20.542-2.226 3.001-3.451 6.728-3.451 10.494v13.458a7.51 7.51 0 0 0 15.02 0v-13.458c0-.566.176-1.115.496-1.547 6.818-9.195 17.279-14.469 28.699-14.469 10.636 0 20.642 4.696 27.453 12.884 3.833 4.607 9.449 7.25 15.411 7.249 5.961 0 11.577-2.642 15.409-7.249 6.811-8.188 16.817-12.884 27.454-12.884 11.42 0 21.881 5.273 28.699 14.469.319.431.495.98.495 1.546v70.838H65.288v-22.435a7.51 7.51 0 0 0-15.02 0v22.435H29.585v-76.395c0-17.461 11.258-33.164 27.617-38.894.116-.041.231-.086.347-.126.206-.07.416-.131.624-.198.327-.105.654-.215.981-.311h-.001l43.18-12.715 5.26-1.057a17.497 17.497 0 0 0 1.509-.374c.168-.049.329-.114.494-.168.321-.105.644-.207.957-.329.194-.076.38-.167.57-.249.275-.119.552-.233.819-.364.198-.098.387-.21.581-.314.248-.134.499-.264.74-.409.196-.118.382-.249.572-.374.227-.149.456-.294.676-.453.189-.137.367-.285.55-.428.208-.164.419-.324.62-.496.179-.153.347-.317.519-.477.191-.178.384-.353.567-.538.167-.169.323-.347.483-.522.174-.191.349-.379.515-.577.153-.184.297-.375.443-.564.156-.203.314-.404.461-.614.138-.196.267-.399.398-.602.139-.214.278-.428.407-.648.122-.208.235-.421.349-.635.121-.225.241-.45.352-.681.105-.218.201-.441.297-.664.102-.235.202-.47.294-.71.087-.228.165-.459.242-.69.082-.244.162-.489.233-.738.068-.235.127-.472.185-.711.062-.253.12-.506.171-.763.048-.242.087-.485.125-.729a16.574 16.574 0 0 0 .168-1.529c.009-.143.03-.283.036-.427.129.028.261.046.391.073.544.114 1.094.207 1.642.309.647.12 1.292.246 1.943.348.641.101 1.289.178 1.936.262.563.073 1.124.155 1.69.215.732.078 1.471.13 2.209.186.491.037.981.085 1.473.112.77.043 1.546.059 2.321.078.471.011.941.033 1.412.036.135.001.268.01.404.01.666 0 1.325-.033 1.987-.05.448-.012.896-.014 1.344-.034.828-.037 1.649-.102 2.47-.166.416-.033.832-.055 1.247-.095a73.664 73.664 0 0 0 2.508-.297c.394-.052.789-.093 1.181-.151.881-.13 1.752-.287 2.622-.448.284-.053.571-.09.854-.146.004.06.015.119.02.179.018.225.048.447.075.671.033.282.066.563.112.841.037.224.085.444.131.665.056.271.112.542.181.808.056.22.121.437.186.654.077.261.157.52.246.777.075.215.156.426.239.637.098.251.199.5.308.746.092.207.189.411.289.614a18.339 18.339 0 0 0 .704 1.3 18.713 18.713 0 0 0 .806 1.235c.155.216.315.428.479.637.139.178.279.354.425.526.172.204.351.401.532.597.153.165.305.33.464.489.189.19.385.372.583.553.165.152.329.304.499.449.206.176.42.342.634.508.175.136.349.275.529.404.224.161.456.31.688.461.184.119.364.243.552.355.243.145.494.277.744.411.189.101.374.208.567.303.267.131.543.246.818.363.187.08.37.168.56.242.311.121.631.223.95.326.164.053.322.116.488.164.489.143.987.268 1.495.37l6.495 1.307 43.182 12.714c.542.159 1.078.33 1.61.511.061.021.121.045.182.066 16.445 5.682 27.776 21.433 27.776 38.951v76.397zm175.753-125.505 10.241 18.083-29.753 46.083 19.512-64.166zm-38.164 22.796h-8.29l-2.932-5.08 7.078-6.462 7.077 6.461-2.933 5.081zm1.917 44.776-3.318 10.911-2.744 9.023-6.059-19.925 4.119-29.764h3.843l4.159 29.755zm-26.091-73.438a78.715 78.715 0 0 0 13.943 2.338l-15.578 14.223c-.492.449-.888.964-1.235 1.505l-6.22-20.454 9.09 2.388zm-.26-15.598a18.768 18.768 0 0 0 2.744-8.932c.719.172 1.441.332 2.166.483.218.045.438.084.656.128.916.182 1.835.347 2.758.494.225.036.449.077.675.111.993.149 1.991.271 2.99.381.329.036.656.074.986.106a76.49 76.49 0 0 0 3.963.276c.988.044 1.977.07 2.966.075.129.001.256.01.386.01.192 0 .381-.013.573-.015a75.47 75.47 0 0 0 3.083-.078c.244-.012.487-.03.731-.044a77.227 77.227 0 0 0 2.963-.226c.157-.015.315-.026.472-.042 1.112-.114 2.22-.26 3.325-.424.172-.026.345-.049.517-.076a75.313 75.313 0 0 0 3.73-.678c.279-.058.559-.111.837-.172a18.775 18.775 0 0 0 3.048 8.889l-3.068.806a63.915 63.915 0 0 1-32.424 0l-4.077-1.072zm26.376 17.936a78.613 78.613 0 0 0 13.942-2.338l9.09-2.388-6.219 20.453a7.432 7.432 0 0 0-1.235-1.504l-15.578-14.223zm69.128-94.434c.055-.721.12-1.44.155-2.167.06-1.223.093-2.446.093-3.667v-11.626h2.356l.099.003a3.22 3.22 0 0 1 .687.081c.145.033.273.087.406.134.081.03.165.045.245.081l.002.001a3.356 3.356 0 0 1 1.98 3.048v12.034a3.353 3.353 0 0 1-3.349 3.349h-2.763c.038-.423.056-.847.089-1.271zm-153.102 1.271a3.351 3.351 0 0 1-3.349-3.348V246.34c0-1.307.776-2.503 1.982-3.049a3.42 3.42 0 0 1 .599-.199c.035-.009.063-.019.101-.028.212-.045.426-.068.642-.07l.094-.003h2.356v11.626c0 1.221.033 2.444.093 3.667.035.725.099 1.441.154 2.16.033.426.051.852.091 1.278h-2.763zm12.086-56.983a7.441 7.441 0 0 0-.836.292c-.119.05-.231.112-.347.168-.146.07-.295.134-.436.213-.14.078-.27.17-.404.256-.108.07-.221.134-.326.209-.139.1-.267.213-.398.322-.09.075-.185.144-.271.223-.13.118-.248.248-.369.375-.078.082-.16.158-.234.243-.117.134-.221.278-.328.421-.067.089-.138.173-.201.265-.101.148-.19.304-.28.46-.056.096-.117.188-.169.287-.084.159-.154.326-.227.492-.038.088-.085.171-.12.261l-.04.104-.015.033-.021.061-.003.008-.015.042a75.065 75.065 0 0 0-1.089 3.194l-.023.067-.013.044a74.871 74.871 0 0 0-2.874 12.996v-6.599c0-34.89 28.385-63.276 63.276-63.276h23.126c34.89 0 63.276 28.385 63.276 63.276v6.618c-.052-.402-.116-.803-.174-1.204l-.013-.099-.1-.69-.007-.041a76.05 76.05 0 0 0-.551-3.087l-.004-.023-.167-.801-.012-.05a76.36 76.36 0 0 0-.647-2.803l-.016-.071-.069-.283-.023-.093-.004-.011a5.822 5.822 0 0 0-.029-.107c-.044-.161-.116-.307-.17-.463-.079-.227-.149-.457-.248-.673-.075-.162-.171-.31-.257-.465-.113-.206-.218-.417-.349-.61-.101-.148-.221-.279-.331-.419-.141-.179-.275-.365-.431-.53-.13-.137-.278-.254-.417-.38-.159-.145-.311-.297-.482-.428-.165-.126-.347-.228-.522-.34-.165-.105-.322-.221-.494-.313-.2-.107-.414-.186-.624-.275-.164-.069-.322-.152-.491-.209-.226-.077-.462-.123-.696-.178-.168-.04-.33-.094-.501-.122-.227-.037-.461-.042-.693-.058-.177-.013-.349-.044-.528-.044H444.255l-.176.002a7.511 7.511 0 0 0-3.746 1.049c-8.06 4.779-18.739 7.202-31.738 7.202-13.212 0-26.584-4.191-39.515-8.244-16.377-5.133-33.254-10.417-50.427-7.515-.169.029-.338.052-.508.082-.058.011-.117.024-.175.034a55.438 55.438 0 0 0-5.218 1.205zm6.749 62.734a61.383 61.383 0 0 1-.561-2.928l-.036-.198a61.086 61.086 0 0 1-.425-3.118l-.014-.11a60.902 60.902 0 0 1-.249-3.037c-.004-.077-.013-.153-.018-.23a59.259 59.259 0 0 1-.089-3.235v-19.02l.001-.117v-.006a68.011 68.011 0 0 1 .065-2.632c.009-.206.022-.412.033-.618l.01-.15.036-.506c.041-.634.083-1.267.144-1.902v-.004c.027-.283.061-.564.094-.844l.039-.331a60.66 60.66 0 0 1 .214-1.686c.059-.413.127-.823.195-1.234a60.258 60.258 0 0 1 .537-2.833c.111-.514.231-1.026.354-1.534l.029-.12c.09-.37.179-.74.279-1.115.136-.513.287-1.022.434-1.525l.036-.121c.315-.057.633-.092.949-.142.547-.086 1.093-.181 1.642-.246.69-.082 1.384-.135 2.078-.185.179-.013.357-.037.537-.048 10.276-.616 21.02 2.127 32.192 5.526 2.177.662 4.368 1.347 6.577 2.039 9.632 3.019 19.489 6.108 29.75 7.744 4.664.744 9.411 1.187 14.258 1.187 2.385 0 4.699-.089 6.969-.232a98.362 98.362 0 0 0 4.904-.421c.119-.013.243-.021.362-.035.815-.096 1.606-.219 2.404-.335.473-.069.958-.123 1.425-.199.482-.078.946-.178 1.422-.263.763-.137 1.533-.266 2.28-.422.484-.101.949-.225 1.426-.334.717-.164 1.442-.32 2.144-.502.687-.179 1.351-.385 2.024-.581.471-.137.954-.261 1.417-.407.559-.176 1.096-.377 1.645-.566.554-.19 1.119-.368 1.662-.572l.013.111c.089.888.154 1.78.204 2.673v.002l.031.643.001.019c.04.898.069 1.798.069 2.699v.005l.001.117v19.02c0 1.077-.03 2.156-.089 3.235-.004.077-.013.153-.018.23a60.804 60.804 0 0 1-.249 3.037l-.014.111a60.97 60.97 0 0 1-.425 3.115c-.011.068-.025.135-.036.203a61.254 61.254 0 0 1-.56 2.925c-4.624 21.254-20.451 38.374-40.971 44.821-.177.055-.355.105-.533.159-.725.221-1.455.43-2.192.624-.262.069-.525.131-.787.196a59.398 59.398 0 0 1-2.909.647c-.636.125-1.275.239-1.917.343-.327.053-.654.106-.982.154-.634.093-1.273.171-1.914.244-.332.038-.663.079-.996.111-.674.065-1.352.112-2.032.155-.297.018-.592.045-.889.059-.972.047-1.948.074-2.931.074-1.003 0-1.999-.027-2.99-.076-.342-.017-.681-.05-1.022-.072-.646-.043-1.292-.085-1.932-.147-.42-.041-.837-.098-1.256-.148-.552-.066-1.105-.13-1.653-.211-.469-.069-.935-.153-1.402-.233-.485-.083-.971-.165-1.453-.26-.512-.101-1.021-.216-1.531-.33-.426-.096-.852-.19-1.274-.295a59 59 0 0 1-1.638-.436c-.375-.104-.75-.208-1.122-.319a59.57 59.57 0 0 1-1.696-.538c-.35-.116-.7-.233-1.048-.355-.554-.195-1.104-.4-1.654-.612-18.759-7.231-33.029-23.556-37.379-43.552zm16.743 90.94 19.512 64.165-29.753-46.083 10.241-18.082zM468.05 483.868v-71.979a7.51 7.51 0 0 0-15.02 0v71.979H302.987v-22.386a7.51 7.51 0 0 0-15.02 0v22.386h-27.839v-79.34c0-20.133 13.488-38.165 32.802-43.851l29.728-8.754-11.176 19.733a10.15 10.15 0 0 0 .539 10.874l60.223 93.277c.011.017.025.032.036.049l.121.179c.031.044.065.086.097.13.095.13.192.26.295.384.036.043.075.083.112.126.093.107.185.215.284.316l.012.011c.06.061.125.117.187.176.055.053.11.106.167.156.147.131.3.255.458.375.036.028.07.057.107.083.029.021.055.044.084.065.019.014.04.025.059.038.206.143.422.275.645.399.047.026.092.054.14.079.043.023.089.041.133.063.071.036.139.077.212.111.082.038.166.064.248.099.116.049.233.097.351.14.057.021.112.048.169.067l.031.009c.105.035.211.057.316.088.104.029.207.061.312.086a7.515 7.515 0 0 0 .634.119c.075.011.148.027.223.036.29.034.581.054.87.054h.008c.29 0 .58-.02.87-.054.075-.009.149-.025.224-.036a9.156 9.156 0 0 0 .633-.118c.105-.025.208-.057.312-.086.109-.031.219-.054.327-.09l.013-.004c.059-.02.117-.048.176-.07.119-.043.235-.091.351-.14.082-.035.167-.061.248-.099.075-.035.144-.076.218-.113.04-.02.083-.037.123-.058.049-.026.096-.055.144-.081.223-.124.439-.255.645-.399.019-.014.04-.025.059-.038.031-.022.058-.046.089-.069l.091-.071a7.59 7.59 0 0 0 .469-.383c.057-.051.112-.104.168-.157.169-.16.33-.327.482-.501.038-.043.077-.084.114-.128a7.59 7.59 0 0 0 .302-.393c.028-.038.057-.074.084-.113.043-.061.085-.123.126-.185.011-.017.025-.032.036-.049l60.223-93.277a10.145 10.145 0 0 0 .54-10.871l-11.177-19.735 29.729 8.754c19.313 5.686 32.801 23.718 32.801 43.851v79.336H468.05z" fill="#82bb31" opacity="1" data-original="#000000" class=""></path></g></svg>