<svg xmlns="http://www.w3.org/2000/svg" version="1.1" xmlns:xlink="http://www.w3.org/1999/xlink" width="512" height="512" x="0" y="0" viewBox="0 0 511.943 511.943" style="enable-background:new 0 0 512 512" xml:space="preserve" class=""><g><path d="m369.39 82.979 9.86 2.056c15.614 3.256 31.046-6.276 35.126-21.695l11.422-43.169a17.017 17.017 0 0 1 16.451-12.665c9.398 0 17.017 7.619 17.017 17.017v123.51M436.682 179.679v-14.12c0-8.29 6.71-15 15-15h15.17c8.29 0 15 6.71 15 15v15.05M340.432 55.069l14.05 2.65c8.14 1.54 13.5 9.38 11.96 17.52l-2.81 14.92c-1.54 8.14-9.38 13.49-17.52 11.96l-13.9-2.62M352.852 233.379h-112.05M485.802 403.309l17.53 63.1c5.31 19.12-9.07 38.03-28.91 38.03h-436.9c-19.84 0-34.22-18.91-28.91-38.03l58.63-211.06c3.61-12.98 15.43-21.97 28.9-21.97h110.05M220.834 164.055l-18.992 104.164M250.584 168.787l-19.112 104.802M228.162 81.869l6.83-37.43c4.45-24.45 27.89-40.65 52.34-36.2l15.16 2.77c24.45 4.46 40.66 27.89 36.2 52.34l-5.11 28.04c-3.406 18.583-18.981 32.267-37.59 33.46-17.69 1.14-32.33 14.18-35.51 31.63-1.49 8.15-9.3 13.55-17.45 12.06l-14.93-2.72c-8.15-1.49-13.55-9.3-12.06-17.45l5.84-32.05M185.852 355.979l-18.36 21.01" style="stroke-width:15;stroke-linecap:round;stroke-linejoin:round;stroke-miterlimit:10;" fill="none" stroke="#82bb31" stroke-width="15" stroke-linecap="round" stroke-linejoin="round" stroke-miterlimit="10" data-original="#000000" opacity="1" class=""></path><path d="m215.002 361.719 30.91 73.31c4.304 9.89-2.939 21.1-13.83 21.1-4.63 0-9.25-2.11-12.24-6.23-4.415-6.085-13.403-6.404-18.23-.64-8.993 10.71-26.141 7.981-31.36-4.99-2.82-6.974-11.438-9.462-17.54-5.04-2.7 1.96-5.79 2.88-8.84 2.88-13.114 0-19.894-15.446-11.33-25.11l11.91-13.64M296.916 40.606c8.182 1.492 13.605 9.334 12.113 17.516l-4.052 22.222c-1.492 8.182-9.334 13.605-17.516 12.113-8.182-1.492-13.605-9.334-12.113-17.516l4.052-22.222c1.492-8.181 9.335-13.605 17.516-12.113zM192.99 358.413l14.93 2.722c8.15 1.486 15.961-3.916 17.447-12.066l7.452-40.868c.47-2.577.602-3.774.316-9.11l-1.658-25.503-29.629-5.402-11.287 24.914a29.998 29.998 0 0 0-2.186 6.997l-7.452 40.868c-1.485 8.151 3.917 15.962 12.067 17.448zM489.382 373.449v18.05c0 8.32-6.74 15.06-15.06 15.06-8.31 0-15.06-6.74-15.06-15.06v-14.06M399.032 377.439v14.06c0 8.32-6.74 15.06-15.06 15.06s-15.06-6.74-15.06-15.06v-18.05" style="stroke-width:15;stroke-linecap:round;stroke-linejoin:round;stroke-miterlimit:10;" fill="none" stroke="#82bb31" stroke-width="15" stroke-linecap="round" stroke-linejoin="round" stroke-miterlimit="10" data-original="#000000" opacity="1" class=""></path><path d="M504.442 252.849v93.59c0 16.57-13.43 30-30 30h-90.59c-16.57 0-30-13.43-30-30v-135.76c0-16.57 13.43-30 30-30h90.59c16.57 0 30 13.43 30 30v7.17M355.793 286.087h146.711M502.504 331.264H355.793" style="stroke-width:15;stroke-linecap:round;stroke-linejoin:round;stroke-miterlimit:10;" fill="none" stroke="#82bb31" stroke-width="15" stroke-linecap="round" stroke-linejoin="round" stroke-miterlimit="10" data-original="#000000" opacity="1" class=""></path><circle cx="429.148" cy="233.381" r="22.588" style="stroke-width:15;stroke-linecap:round;stroke-linejoin:round;stroke-miterlimit:10;" fill="none" stroke="#82bb31" stroke-width="15" stroke-linecap="round" stroke-linejoin="round" stroke-miterlimit="10" data-original="#000000" opacity="1" class=""></circle></g></svg>