<svg xmlns="http://www.w3.org/2000/svg" version="1.1" xmlns:xlink="http://www.w3.org/1999/xlink" width="512" height="512" x="0" y="0" viewBox="0 0 512 512" style="enable-background:new 0 0 512 512" xml:space="preserve" class=""><g><path d="M472.17 226.75c-12.08-15.84-29.22-24.93-47-24.93a113 113 0 0 0-14.08.93v-62.91a70.71 70.71 0 0 0-70.68-70.64H176a70.71 70.71 0 0 0-70.64 70.64v62.91a113.3 113.3 0 0 0-14.1-.93c-17.8 0-34.94 9.08-47 24.93-12.65 16.59-17.17 37.53-12.11 56 7.2 26.25 30.47 35.54 46.55 37.48v73.82a38.58 38.58 0 0 0 31 37.78v54.34a7.49 7.49 0 0 0 7.49 7.49h30.71a7.49 7.49 0 0 0 7.29-5.75l13.25-55.32H348l13.25 55.32a7.49 7.49 0 0 0 7.29 5.75h30.67a7.49 7.49 0 0 0 7.5-7.49v-54.34a38.58 38.58 0 0 0 31-37.78v-73.82c16.08-1.94 39.36-11.22 46.56-37.47 5.07-18.48.55-39.42-12.1-56.01zM176 84.19h.42a63.81 63.81 0 0 1-56.07 55.89v-.24A55.71 55.71 0 0 1 176 84.19zm8.67 26.11a79.64 79.64 0 0 0 38 38 79.7 79.7 0 0 0-38 38 79.7 79.7 0 0 0-38-38 79.64 79.64 0 0 0 38.01-38zm-64.32 46.26c31.9 3.68 56.82 30.54 56.82 63.4a7.5 7.5 0 0 0 15 0 64.2 64.2 0 0 1 64.13-64.14 7.5 7.5 0 0 0 0-15c-32.8 0-59.61-24.83-63.38-56.63h147.49a55.71 55.71 0 0 1 55.65 55.65v66c-26.17 7.93-41.52 27.29-41.52 54.4v33.22H161.88V260.2c0-27.11-15.35-46.47-41.52-54.4zm41.52 151.85h192.67v47.1H161.88zM142 478.67h-17.27v-46.08H153zm232.44 0-11-46.08h28.29v46.08zm95.38-199.88c-7.45 27.23-38.1 26.71-39.41 26.85a7.53 7.53 0 0 0-7.67 7.49v80.92a23.56 23.56 0 0 1-23.54 23.55h-282a23.57 23.57 0 0 1-23.54-23.55v-80.92a7.53 7.53 0 0 0-7.52-7.49H86c-1.25.12-31.95.37-39.41-26.85-3.85-14-.27-30.06 9.56-43 9.22-12.09 22-19 35.1-19s55.62 3.12 55.62 43.39V363a7.49 7.49 0 0 0 7.5 7.49H362a7.49 7.49 0 0 0 7.5-7.49V260.2c0-40.27 42.56-43.39 55.6-43.39s25.9 6.94 35.12 19c9.86 12.93 13.45 28.98 9.59 42.98zM68.74 112a7.5 7.5 0 1 0 15 0 35.61 35.61 0 0 1 35.56-35.61 7.5 7.5 0 0 0 0-15 35.61 35.61 0 0 1-35.57-35.56 7.5 7.5 0 0 0-15 0A35.61 35.61 0 0 1 33.18 61.4a7.5 7.5 0 0 0 0 15A35.6 35.6 0 0 1 68.74 112zm7.5-59.65A51 51 0 0 0 92.83 68.9a50.88 50.88 0 0 0-16.59 16.59A50.88 50.88 0 0 0 59.65 68.9a51 51 0 0 0 16.59-16.6z" fill="#82bb31" opacity="1" data-original="#000000"></path></g></svg>