<svg xmlns="http://www.w3.org/2000/svg" version="1.1" xmlns:xlink="http://www.w3.org/1999/xlink" width="512" height="512" x="0" y="0" viewBox="0 0 64 64" style="enable-background:new 0 0 512 512" xml:space="preserve" class=""><g><path d="m48.293 46.293 3-3 1.415 1.414-3 3zM44.292 43.293l7-7 1.414 1.415-7 7z" fill="#82bb31" opacity="1" data-original="#000000" class=""></path><path d="M62 2H2a1 1 0 0 0-1 1v4a1 1 0 0 0 1 1h1v51a1 1 0 0 0 .293.707l.879.879a8.242 8.242 0 0 0 11.656 0l.172-.172.172.172a8.253 8.253 0 0 0 2.959 1.882A.991.991 0 0 0 20 63h4a.99.99 0 0 0 .869-.532 8.253 8.253 0 0 0 2.959-1.882l.172-.172.172.172a8.242 8.242 0 0 0 11.656 0l.879-.879A1 1 0 0 0 41 59v-2h19a1 1 0 0 0 1-1V8h1a1 1 0 0 0 1-1V3a1 1 0 0 0-1-1ZM17 32v2h-7v-8h24v8h-7v-2a1 1 0 0 0-1-1h-8a1 1 0 0 0-1 1Zm2 5v-4h6v4Zm4 2v16h-2V39Zm-2 22v-4h2v4Zm17.414-1.828a6.243 6.243 0 0 1-8.828 0L29 58.586V49h-2v9.586l-.586.586A6.225 6.225 0 0 1 25 60.221V39h1a1 1 0 0 0 1-1v-2h8a1 1 0 0 0 1-1V25a1 1 0 0 0-1-1H9a1 1 0 0 0-1 1v10a1 1 0 0 0 1 1h8v2a1 1 0 0 0 1 1h1v21.221a6.225 6.225 0 0 1-1.414-1.049L17 58.586V49h-2v9.586l-.586.586a6.243 6.243 0 0 1-8.828 0L5 58.586V8h10v11h2V8h10v11h2V8h10v50.586ZM41 8h14v43H41Zm18 47H41v-2h15a1 1 0 0 0 1-1V8h2Zm2-49H3V4h58Z" fill="#82bb31" opacity="1" data-original="#000000" class=""></path></g></svg>