<svg xmlns="http://www.w3.org/2000/svg" version="1.1" xmlns:xlink="http://www.w3.org/1999/xlink" width="512" height="512" x="0" y="0" viewBox="0 0 64 64" style="enable-background:new 0 0 512 512" xml:space="preserve" class=""><g><path d="M59.464 20.751a1 1 0 1 0-1.936.5A15.081 15.081 0 0 1 58 25v36a1 1 0 0 1-1 1H7a1 1 0 0 1-1-1V25a15.017 15.017 0 0 1 15-15h10v1h-6a1 1 0 0 0-.768.359L21.616 14.5l-3.7 1.057a8.963 8.963 0 0 0-6.478 7.712l-1.015 9.645a1 1 0 0 0 .89 1.1.937.937 0 0 0 .105.006 1 1 0 0 0 .994-.9l1.015-9.645a6.969 6.969 0 0 1 5.039-6l.872-.25-.108.13a1 1 0 0 0 .321 1.536l2.987 1.493-1.372 2.057a1 1 0 0 0 0 1.11L31 38.3V56a3 3 0 0 1-3 3h-6.915a1 1 0 0 1-1-1.037L20.5 49H23a3 3 0 0 0 3-3v-2a1 1 0 0 0-1-1h-4.225l.184-4a9.012 9.012 0 0 0-.167-2.141L18.98 27.8a.983.983 0 0 0-1.025-.8 1 1 0 0 0-.949.893L14.1 55h-3.989l1.883-17.89a1 1 0 0 0-.89-1.1.989.989 0 0 0-1.1.889l-2 18.995A1 1 0 0 0 9 57h6a1 1 0 0 0 .994-.894L18.3 34.6l.532 2.659a7.035 7.035 0 0 1 .13 1.66l-.873 18.961a3 3 0 0 0 3 3.125H28a4.982 4.982 0 0 0 4-2.031A4.982 4.982 0 0 0 36 61h6.915a3 3 0 0 0 3-3.129l-.873-18.953a7.052 7.052 0 0 1 .13-1.664L45.7 34.6 48 56.111A1 1 0 0 0 49 57h6a1 1 0 0 0 1-1.1l-3.44-32.633a8.963 8.963 0 0 0-6.478-7.712l-3.7-1.057-2.616-3.139A1 1 0 0 0 39 11h-6v-1h10a15.018 15.018 0 0 1 13.125 7.733 1 1 0 0 0 1.75-.97A17.021 17.021 0 0 0 43 8h-9.842a2.352 2.352 0 0 1 .9-1.168l.668-.445A2.865 2.865 0 0 0 36 4a4 4 0 0 0-8 0v1a1 1 0 0 0 2 0V4a2 2 0 0 1 4 0 .868.868 0 0 1-.387.723l-.668.445A4.355 4.355 0 0 0 31.082 8H21A17.019 17.019 0 0 0 4 25v36a3 3 0 0 0 3 3h50a3 3 0 0 0 3-3V25a17.023 17.023 0 0 0-.536-4.249ZM24 45v1a1 1 0 0 1-1 1h-2.409l.092-2Zm18.423-27.33-2.87 1.435a1 1 0 0 0-.385 1.45L40.8 23l-6.246 9.37 4.913-18.25ZM26.305 13h2.475l-2.089 1.436Zm5.7.214 4.757 3.27L34.733 24h-5.467l-2.023-7.516ZM34.2 26 32 34.153 29.805 26Zm3.113-11.564L35.22 13h2.48Zm-12.347 5.307a1 1 0 0 0-.519-.638l-2.87-1.435 2.958-3.55 4.913 18.25L23.2 23l1.63-2.445a1 1 0 0 0 .136-.812ZM43.409 47H41a1 1 0 0 1-1-1v-1h3.317Zm2.123-29.521a6.969 6.969 0 0 1 5.039 6L53.889 55H49.9L47 27.894a1 1 0 0 0-1.974-.09l-1.812 9.057a9.029 9.029 0 0 0-.167 2.145L43.225 43H39a1 1 0 0 0-1 1v2a3 3 0 0 0 3 3h2.5l.413 8.959a1 1 0 0 1-1 1.041H36a3 3 0 0 1-3-3V38.3l9.832-14.748a1 1 0 0 0 0-1.11l-1.372-2.054 2.987-1.488a1 1 0 0 0 .321-1.536l-.108-.13Z" data-name="Layer 22" fill="#82bb31" opacity="1" data-original="#000000" class=""></path></g></svg>