<svg xmlns="http://www.w3.org/2000/svg" version="1.1" xmlns:xlink="http://www.w3.org/1999/xlink" width="512" height="512" x="0" y="0" viewBox="0 0 60 60" style="enable-background:new 0 0 512 512" xml:space="preserve" class=""><g><g fill="#000" fill-rule="nonzero"><path d="M45 0c-2.294 0-4.725 1.794-7.072 5.164L30.561.172A1 1 0 0 0 30 0H14a1 1 0 0 0-.561.172L.866 8.684a1.994 1.994 0 0 0-.651 2.543l4.164 8.337c.239.472.655.829 1.158.993.49.166 1.025.13 1.488-.1l1.975-.9V38a3 3 0 0 0 3 3h18a9.92 9.92 0 0 0 1 4.33V53h-5a3 3 0 0 1-3-3 5.006 5.006 0 0 0-5-5h-5a5.006 5.006 0 0 0-5 5 3 3 0 0 1-3 3H1a1 1 0 0 0 0 2h4a5.006 5.006 0 0 0 5-5 3 3 0 0 1 3-3h5a3 3 0 0 1 3 3 5.006 5.006 0 0 0 5 5h5a5.006 5.006 0 0 0 5 5h18a5.006 5.006 0 0 0 5-5v-9.67A9.92 9.92 0 0 0 60 41v-7c0-16.523-7.71-34-15-34zM22 12.985 15.723 2h12.554zm-8-9.969 5.28 9.24-7.92-4.62zm18.64 4.62-7.92 4.62L30 3.016zM11 38V18a1 1 0 0 0-1.416-.91l-3.419 1.573-4.174-8.325L11 4.241l-1.372 2.4a2 2 0 0 0 .728 2.719L21 15.574V39h-9a1 1 0 0 1-1-1zm12 1V15.574l10.648-6.211a2 2 0 0 0 .728-2.719l-1.37-2.4 3.835 2.6a46.385 46.385 0 0 0-4.482 10.688A60.13 60.13 0 0 0 30 34v5zm31 19H36a3 3 0 0 1-3-3v-6.871A9.963 9.963 0 0 0 40 51h10c2.62 0 5.135-1.03 7-2.871V55a3 3 0 0 1-3 3zm4-24v7a8.009 8.009 0 0 1-8 8H40a8.009 8.009 0 0 1-8-8v-7c.02-5.384.787-10.74 2.28-15.912a42.923 42.923 0 0 1 4.752-11C41.107 3.855 43.283 2 45 2c2.464 0 5.737 3.743 8.338 9.535A56.806 56.806 0 0 1 58 34z" fill="#82bb31" opacity="1" data-original="#000000" class=""></path><path d="M45 10a1 1 0 0 0 1-1V6a1 1 0 0 0-2 0v3a1 1 0 0 0 1 1zM43.707 13.293l-3-3a1 1 0 0 0-1.414 1.414l3 3a1 1 0 0 0 1.414-1.414zM46.293 14.707a1 1 0 0 0 1.414 0l3-3a1 1 0 0 0-1.414-1.414l-3 3a1 1 0 0 0 0 1.414zM37.553 18.9l4 2a1 1 0 1 0 .894-1.79l-4-2a1 1 0 0 0-.894 1.79zM47.105 20.447a1 1 0 0 0 1.342.448l4-2a1 1 0 1 0-.894-1.79l-4 2a1 1 0 0 0-.448 1.342zM35.628 24.929l5 2a1 1 0 1 0 .744-1.858l-5-2a1 1 0 0 0-.744 1.858zM48.071 26.372a1 1 0 0 0 1.301.557l5-2a1 1 0 1 0-.744-1.858l-5 2a1 1 0 0 0-.557 1.301zM42 31a1 1 0 0 0-1-1h-6a1 1 0 0 0 0 2h6a1 1 0 0 0 1-1zM49 30a1 1 0 0 0 0 2h6a1 1 0 0 0 0-2z" fill="#82bb31" opacity="1" data-original="#000000" class=""></path><circle cx="45" cy="35" r="1" fill="#82bb31" opacity="1" data-original="#000000" class=""></circle><circle cx="42" cy="39" r="1" fill="#82bb31" opacity="1" data-original="#000000" class=""></circle><circle cx="39" cy="43" r="1" fill="#82bb31" opacity="1" data-original="#000000" class=""></circle><circle cx="45" cy="43" r="1" fill="#82bb31" opacity="1" data-original="#000000" class=""></circle><circle cx="51" cy="43" r="1" fill="#82bb31" opacity="1" data-original="#000000" class=""></circle><circle cx="48" cy="39" r="1" fill="#82bb31" opacity="1" data-original="#000000" class=""></circle></g></g></svg>