<svg xmlns="http://www.w3.org/2000/svg" version="1.1" xmlns:xlink="http://www.w3.org/1999/xlink" width="512" height="512" x="0" y="0" viewBox="0 0 1000 1000" style="enable-background:new 0 0 512 512" xml:space="preserve" class=""><g><path d="M710.83 139.97c-3.71 3.97-3.97 6.36-1.59 10.59 2.65 5.3 4.77 5.56 58.27 5.56 60.66 0 55.36-1.59 59.33 16.42l1.59 7.42h-71.78c-81.05 0-81.58 0-101.71 20.4-14.3 14.3-24.1 34.43-28.34 58.53-2.65 15.1-2.38 19.34.27 22.78 3.18 3.71 16.95 4.24 119.19 4.24 121.31 0 122.1 0 122.1-11.65 0-2.91-6.09-33.9-13.51-68.86-9.01-42.11-15.1-64.89-17.75-67.28-3.18-2.39-19.86-3.18-62.77-3.18-54.56 0-59.06.27-63.3 5.03zm122.9 64.37c.26 1.85 2.91 16.16 6.36 31.78l6.35 28.6H645.15l1.59-7.42c3.97-16.95 18.01-40.79 28.6-48.47l10.86-7.68h73.9c56.94.01 73.63.8 73.63 3.19z" fill="#82bb31" opacity="1" data-original="#000000"></path><path d="M692.03 225c-7.15 7.68-2.65 19.6 7.42 20.66 9.8 1.06 15.1-3.44 15.1-12.98-.01-12.45-14.05-17.22-22.52-7.68zM742.62 223.14c-5.83 4.24-4.77 17.22 1.32 21.19 12.45 7.68 26.75-8.47 16.95-19.33-5.56-6.09-11.65-6.62-18.27-1.86zM790.03 225c-6.36 7.15-3.44 18.01 5.83 20.13 9 2.38 15.1-1.59 16.16-11.13 1.58-12.98-12.99-19.07-21.99-9zM14.77 310.02c-3.97 2.12-4.77 6.36-4.77 23.57 0 11.39.79 22.51 1.59 24.9 1.32 3.44 6.89 4.24 33.11 4.24h31.52v113.36c0 84.76.79 114.16 3.18 116.54 3.97 3.97 189.38 4.5 195.47.53 3.44-2.12 4.24-16.42 5.3-93.5l1.32-91.38 99.85 77.34c54.83 42.38 99.85 77.87 99.85 78.93.27 1.06-76.28 61.18-169.78 133.49-200.76 155.48-195.46 151.24-195.46 157.6 0 5.56 9.27 11.39 13.77 8.74 1.59-1.06 85.02-65.42 185.14-143.29C415.24 643.48 498.41 579.92 500 579.92s84.76 63.57 184.88 141.17 183.55 141.97 185.14 143.03c5.56 3.44 14.57-3.18 13.51-9.53-.53-4.24-53.24-46.62-181.96-146.47-99.85-77.34-181.7-141.7-181.96-143.03-.53-1.32 57.21-47.41 128.19-102.24L776.79 363l104.89-.27c93.5 0 105.42-.53 106.74-4.24.79-2.38 1.59-13.51 1.59-24.9 0-18.01-.79-21.45-5.03-23.84-7.16-3.7-963.86-3.7-970.21.27zm61.45 26.22v7.95H31.19v-15.9h45.02v7.95zm182.75 115.22v123.16H97.41V328.3h161.56zm709.84-115.22v7.95H280.16v-15.9H968.8v7.95zm-231.76 31.52c-12.18 11.39-233.34 181.17-236.52 181.43-2.12.26-52.18-37.35-111.77-83.17-108.06-83.17-108.33-83.43-108.33-93.5l-.27-9.8h230.96c226.2.01 230.97.01 225.93 5.04z" fill="#82bb31" opacity="1" data-original="#000000"></path></g></svg>