<svg xmlns="http://www.w3.org/2000/svg" version="1.1" xmlns:xlink="http://www.w3.org/1999/xlink" width="512" height="512" x="0" y="0" viewBox="0 0 511.971 511.971" style="enable-background:new 0 0 512 512" xml:space="preserve" class=""><g><path d="M136.103 452.071a7.5 7.5 0 0 0 7.5-7.5V249.668a7.5 7.5 0 0 0-11.584-6.29l-42.195 27.399-32.773-43.603a7.498 7.498 0 0 0-10.501-1.489 7.5 7.5 0 0 0-1.489 10.501l33.058 43.981c4.559 6.065 13.115 7.581 19.478 3.447l31.007-20.135v181.09a7.5 7.5 0 0 0 7.499 7.502zM374.868 405.252a7.5 7.5 0 0 0-7.5 7.5v84.071H143.603v-20.29a7.5 7.5 0 0 0-15 0v27.79a7.5 7.5 0 0 0 7.5 7.5h238.765a7.5 7.5 0 0 0 7.5-7.5v-91.571a7.5 7.5 0 0 0-7.5-7.5zM493.724 175.191l-48.582-36.921a7.5 7.5 0 1 0-9.076 11.942l48.18 36.616-63.099 83.949-42.195-27.399a7.498 7.498 0 0 0-11.584 6.29v52.502a7.5 7.5 0 0 0 15 0v-38.69l31.007 20.135c6.363 4.132 14.919 2.619 19.478-3.447l63.688-84.732c4.776-6.353 3.512-15.436-2.817-20.245zM511.119 4.181A7.502 7.502 0 0 0 501.001.999a530.597 530.597 0 0 1-104.763 41.143c-2.831-2.992-6.826-4.871-11.26-4.871H366.24c-8.463 0-15.355 6.813-15.507 15.241-62.905 11.442-126.591 11.442-189.496 0-.152-8.428-7.043-15.241-15.507-15.241h-18.737c-4.434 0-8.429 1.879-11.26 4.871A530.654 530.654 0 0 1 10.969.999a7.5 7.5 0 1 0-6.935 13.3c34.158 17.816 70.277 31.992 107.439 42.216v39.206c0 2.398.563 4.662 1.538 6.692l-95.764 72.778c-6.329 4.81-7.592 13.892-2.816 20.246l11.425 15.201a7.487 7.487 0 0 0 6.001 2.994 7.5 7.5 0 0 0 5.989-12.006l-11.122-14.797 99.51-75.625c.253.012.503.039.759.039h18.737c8.113 0 14.782-6.261 15.454-14.203h2.859l22.508 36.336c14.89 24.037 40.659 38.387 68.934 38.387s54.044-14.35 68.934-38.387l22.508-36.336h3.859c.672 7.942 7.341 14.203 15.454 14.203h18.548l25.824 19.625a7.466 7.466 0 0 0 4.533 1.529 7.5 7.5 0 0 0 4.544-13.471l-20.996-15.957a15.415 15.415 0 0 0 1.806-7.248V56.526a545.616 545.616 0 0 0 107.439-42.227 7.499 7.499 0 0 0 3.181-10.118zm-364.867 91.54a.522.522 0 0 1-.521.521h-18.737a.513.513 0 0 1-.188-.038l-.025-.01a.52.52 0 0 1-.309-.473V52.793c0-.288.234-.521.521-.521h18.737c.287 0 .521.234.521.521v42.928zm165.415 29.754c-12.135 19.59-33.138 31.286-56.182 31.286s-44.047-11.696-56.182-31.286l-7.315-11.81a241.71 241.71 0 0 0 126.994.001zm34.936-43.437c-5.028 0-9.61 2.552-12.257 6.826l-3.292 5.315c-48.838 17.287-102.298 17.287-151.136-.001l-3.292-5.314a14.328 14.328 0 0 0-12.257-6.826h-3.116V67.743c31.455 5.561 63.094 8.353 94.734 8.353s63.279-2.792 94.734-8.353v14.295zm19.116 13.683V52.793c0-.288.234-.521.521-.521h18.737c.287 0 .521.234.521.521v42.928a.522.522 0 0 1-.521.521H366.24a.522.522 0 0 1-.521-.521zM400.467 346.554c-6.304-3.559-11.1-8.48-14.661-15.046a13.043 13.043 0 0 0-11.479-6.855h-.122a12.949 12.949 0 0 0-11.391 7.012c-3.123 6.021-7.943 10.748-14.735 14.45-4.375 2.385-6.961 6.969-6.749 11.963.211 4.968 3.16 9.291 7.694 11.283 6.288 2.762 10.767 7.169 13.693 13.476a12.759 12.759 0 0 0 11.657 7.433c4.886 0 9.304-2.675 11.585-7.038 3.281-6.278 7.808-10.742 13.839-13.645a12.893 12.893 0 0 0 7.319-11.227c.16-4.876-2.388-9.4-6.65-11.806zm-25.947 26.475c-3.852-6.729-9.2-11.984-15.96-15.681 6.655-4.203 11.954-9.458 15.812-15.682 4.091 6.555 9.354 11.956 15.703 16.113-6.352 3.701-11.564 8.812-15.555 15.25zm18.773-16.958-.006.002.006-.002zM477.253 406.825c-5.483-3.095-9.655-7.377-12.753-13.092a12.44 12.44 0 0 0-10.949-6.537h-.116a12.357 12.357 0 0 0-10.87 6.691c-2.706 5.219-6.894 9.321-12.802 12.541-4.175 2.276-6.642 6.649-6.439 11.414.202 4.741 3.016 8.867 7.344 10.768 5.416 2.379 9.274 6.177 11.795 11.61a12.18 12.18 0 0 0 10.829 7.094c.101.002.201.004.302.004 4.661 0 8.874-2.551 11.048-6.711 2.842-5.436 6.756-9.298 11.969-11.808a12.306 12.306 0 0 0 6.985-10.715 12.432 12.432 0 0 0-6.343-11.259zm-23.505 22.76c-3.211-5.202-7.458-9.376-12.688-12.475 5.133-3.433 9.327-7.591 12.53-12.425 3.365 5.098 7.544 9.389 12.485 12.817-4.916 3.076-9.041 7.12-12.327 12.083z" fill="#82bb31" opacity="1" data-original="#000000" class=""></path><path d="M92.967 366.624c-7.04-3.974-12.394-9.468-16.367-16.794a13.599 13.599 0 0 0-12.081-7.14 13.478 13.478 0 0 0-11.858 7.3c-3.495 6.739-8.881 12.024-16.464 16.158-4.554 2.482-7.246 7.255-7.024 12.455.22 5.17 3.288 9.67 8.006 11.742 7.068 3.104 12.103 8.058 15.391 15.145a13.271 13.271 0 0 0 12.129 7.734c5.088 0 9.689-2.786 12.065-7.331 3.675-7.032 8.75-12.033 15.514-15.29a13.419 13.419 0 0 0 7.617-11.685 13.579 13.579 0 0 0-6.928-12.294zm-28.135 29.867c-4.399-8.163-10.755-14.406-18.95-18.609 8.083-4.881 14.393-11.14 18.81-18.658 4.727 7.912 10.981 14.328 18.643 19.12-7.693 4.235-13.9 10.323-18.503 18.147z" fill="#82bb31" opacity="1" data-original="#000000" class=""></path></g></svg>