<svg xmlns="http://www.w3.org/2000/svg" version="1.1" xmlns:xlink="http://www.w3.org/1999/xlink" width="512" height="512" x="0" y="0" viewBox="0 0 847 847" style="enable-background:new 0 0 512 512" xml:space="preserve" fill-rule="evenodd" class=""><g><path fill-rule="nonzero" d="M701 616c33-18 67-36 99-55l9 18c-30 22-64 39-96 56-4-7-8-13-12-19zm-269-20c-4 0-8 4-8 9 0 4 4 8 8 8 5 0 9-4 9-8 0-5-4-9-9-9zm-21-61c-5 0-9 4-9 8 0 5 4 8 9 8 4 0 8-3 8-8 0-4-4-8-8-8zm-29-60c-5 0-8 3-8 8 0 4 3 8 8 8 4 0 8-4 8-8 0-5-4-8-8-8zm196 84c-21-12-40-27-56-45-7-7-18 4-11 11 17 19 37 35 59 47 9 5 17-8 8-13zm-311 13c22-12 43-28 59-47 7-7-4-18-10-11-17 18-36 33-57 45-8 5-1 18 8 13zm355-178v-2c-12-49-18-109-8-159 8 6 16 13 22 22 21 31 38 64 56 97 36 64 70 128 102 195-33 20-67 38-101 56-23-38-45-77-66-116-2-31-4-62-5-93zM152 604c-34-18-67-38-99-58 30-64 64-127 98-190 18-33 37-67 58-98 6-10 14-18 23-25 10 50 4 110-8 159v2c-1 31-3 62-5 93-21 39-43 79-67 117zm-19 30c-32-17-65-35-95-58 3-5 5-10 8-16 32 20 65 40 98 58-4 5-7 11-11 16zm195-446c5 23 15 47 23 66 6 17 12 34 20 50l-15 6c-17-10-34-19-50-30 4-28 13-55 17-83l2-2c1-2 2-4 3-7zm93-28c26 0 53 1 79 7l-3 18c-25-7-52-8-78-8-24 0-52 0-75 9-2-6-2-12-3-18 26-8 54-8 80-8zm148 497c18-3 35-7 52-11 0 6 1 11 1 16-17 4-35 7-53 11v-16zm-88 11c24-2 49-5 73-9v16c-24 4-49 7-73 9v-16zm-189-9c24 4 48 7 72 9v16c-24-2-48-5-72-9v-16zm-67-13c17 4 34 8 51 11v15c-17-3-35-6-52-10 0-5 1-10 1-16zm233-377c-14 25-30 50-48 73-7-10-14-22-20-34-1-1-1-3-2-4-10-19-17-39-24-59-5-13-12-29-17-45 21-7 45-7 66-7 26-1 54 0 79 7-9 25-23 49-34 69zm-8 43c11 5 23 10 35 13 0 1 1 1 1 1 14 4 27 7 41 10-48 37-106 66-164 85 33-33 62-70 87-109zm87-32c-16 11-33 20-50 30-10-3-20-7-29-11 6-9 11-18 16-27 14-26 33-59 39-91 2 3 4 6 5 9 4 30 15 60 19 90zm-179 45c7-2 13-4 20-7 6 13 14 26 23 37-6 8-12 15-19 22-22-12-45-26-66-41 14-3 27-6 40-10 1 0 2 0 2-1zM234 486c2-30 4-61 5-91 13-53 19-117 7-170v-1c19-10 40-16 61-22-4 26-13 52-17 79v1c0 3 0 6 3 8 13 10 28 18 42 26-12 3-25 5-37 7-2 0-4 1-5 2-3 2-5 6-2 10l3 3c24 20 51 36 78 51-13 15-27 29-42 43h-1c-2 1-3 4-2 7v1c28 72 61 142 86 215-62-1-127-10-188-24 3-47 6-93 9-140 1-2 1-3 0-5zm190 201c-14 0-29-1-44-2v-16c15 1 30 2 44 2s28-1 42-2v16c-14 1-28 2-42 2zm183-292c1 30 3 61 5 91-1 2-1 3 0 5 3 47 6 93 9 140-62 14-128 23-191 24-25-72-58-141-85-212 72-20 146-57 203-105 2-1 3-2 4-3 2-4 1-8-3-10-1-1-2-2-4-2-13-2-25-4-37-7 14-8 28-16 41-26 3-2 4-5 4-8 0 0 0-1-1-1-3-27-12-53-17-80 22 7 45 13 65 23v1c-12 53-6 117 7 170zm216 179c-36-81-79-160-122-238-18-33-36-66-57-96-25-35-73-44-111-56-5-9-10-17-14-26-1-3-4-4-6-4-28-8-58-9-86-9-31-1-65-1-94 10-2 0-3 1-4 2-1 0-3 1-4 3-3 8-7 15-11 22-1 1-2 1-3 3-37 11-83 20-107 53-22 29-39 62-57 94-44 79-87 159-124 242-1 1-1 2-1 3-1 2-1 5 2 8 32 26 70 46 106 65 2 1 4 1 6 1 3 0 5-1 7-3 26-41 50-82 73-124-3 47-6 94-7 142 0 2 0 3 1 5s2 4 6 5c67 16 140 26 208 26s140-11 206-26c3-1 5-3 6-5 1-1 1-3 1-5-1-47-4-95-8-142 23 42 48 83 74 124 2 3 5 3 8 3 1 0 3 0 5-1 37-19 74-37 107-63 3-3 3-6 1-9 0-1 0-3-1-4z" fill="#82bb31" opacity="1" data-original="#000000" class=""></path></g></svg>