<svg xmlns="http://www.w3.org/2000/svg" version="1.1" xmlns:xlink="http://www.w3.org/1999/xlink" width="512" height="512" x="0" y="0" viewBox="0 0 512 512" style="enable-background:new 0 0 512 512" xml:space="preserve" class=""><g><path d="M113.97 139.16V45.99c0-19.2 15.56-34.77 34.76-34.77h243.09M113.97 419.63v46.39c0 19.19 15.56 34.76 34.76 34.76h36.75M426.82 11.22h42.92c19.2 0 34.76 15.57 34.76 34.77v420.03c0 19.19-15.56 34.76-34.76 34.76H220.48" style="stroke-width:15;stroke-linecap:round;stroke-linejoin:round;stroke-miterlimit:10;" fill="none" stroke="#82bb31" stroke-width="15" stroke-linecap="round" stroke-linejoin="round" stroke-miterlimit="10" data-original="#000000" class="" opacity="1"></path><circle cx="309.234" cy="279.398" r="141.827" style="stroke-width:15;stroke-linecap:round;stroke-linejoin:round;stroke-miterlimit:10;" fill="none" stroke="#82bb31" stroke-width="15" stroke-linecap="round" stroke-linejoin="round" stroke-miterlimit="10" data-original="#000000" class="" opacity="1"></circle><circle cx="309.234" cy="279.398" r="102.585" style="stroke-width:15;stroke-linecap:round;stroke-linejoin:round;stroke-miterlimit:10;" fill="none" stroke="#82bb31" stroke-width="15" stroke-linecap="round" stroke-linejoin="round" stroke-miterlimit="10" data-original="#000000" class="" opacity="1"></circle><ellipse cx="104.495" cy="279.398" rx="62.912" ry="141.827" style="stroke-width:15;stroke-linecap:round;stroke-linejoin:round;stroke-miterlimit:10;" fill="none" stroke="#82bb31" stroke-width="15" stroke-linecap="round" stroke-linejoin="round" stroke-miterlimit="10" data-original="#000000" class="" opacity="1"></ellipse><path d="M91.26 200.92c4.9-13.07 9.97-20.5 13.23-24.11 3.46 3.82 8.93 11.92 14.09 26.44 7.51 21.12 11.64 48.16 11.64 76.15 0 27.98-4.13 55.03-11.64 76.15-5.16 14.51-10.63 22.62-14.09 26.43-3.45-3.81-8.92-11.92-14.08-26.43-7.51-21.12-11.64-48.17-11.64-76.15 0-15.71 1.3-31.12 3.76-45.36" style="stroke-width:15;stroke-linecap:round;stroke-linejoin:round;stroke-miterlimit:10;" fill="none" stroke="#82bb31" stroke-width="15" stroke-linecap="round" stroke-linejoin="round" stroke-miterlimit="10" data-original="#000000" class="" opacity="1"></path><path d="M104.495 137.571H70.412c-34.746 0-62.912 63.498-62.912 141.827s28.167 141.827 62.912 141.827h34.082M113.969 110.036H504.5M338.888 11.225v98.811" style="stroke-width:15;stroke-linecap:round;stroke-linejoin:round;stroke-miterlimit:10;" fill="none" stroke="#82bb31" stroke-width="15" stroke-linecap="round" stroke-linejoin="round" stroke-miterlimit="10" data-original="#000000" class="" opacity="1"></path><circle cx="263.582" cy="60.397" r="21.498" style="stroke-width:15;stroke-linecap:round;stroke-linejoin:round;stroke-miterlimit:10;" fill="none" stroke="#82bb31" stroke-width="15" stroke-linecap="round" stroke-linejoin="round" stroke-miterlimit="10" data-original="#000000" class="" opacity="1"></circle><circle cx="190.96" cy="60.397" r="21.498" style="stroke-width:15;stroke-linecap:round;stroke-linejoin:round;stroke-miterlimit:10;" fill="none" stroke="#82bb31" stroke-width="15" stroke-linecap="round" stroke-linejoin="round" stroke-miterlimit="10" data-original="#000000" class="" opacity="1"></circle><path d="M446.933 77.89h-47.684c-13.767 0-24.927-11.16-24.927-24.927v0c0-5.297 4.294-9.592 9.592-9.592h78.356c5.297 0 9.592 4.294 9.592 9.592v0C471.86 66.729 460.7 77.89 446.933 77.89zM208.286 297.72h10.2a23.019 23.019 0 0 0 18.658-9.541l13.611-18.839a23 23 0 0 1 18.658-9.541h77.405c7.98 0 15.385 4.123 19.572 10.912l9.966 16.097a23.03 23.03 0 0 0 19.572 10.912h14.259" style="stroke-width:15;stroke-linecap:round;stroke-linejoin:round;stroke-miterlimit:10;" fill="none" stroke="#82bb31" stroke-width="15" stroke-linecap="round" stroke-linejoin="round" stroke-miterlimit="10" data-original="#000000" class="" opacity="1"></path><path d="m269.296 373.903 32.747-93.661c.34-.967.691-1.934 1.126-2.869a30.635 30.635 0 0 1 27.711-17.574h15.938" style="stroke-width:15;stroke-linecap:round;stroke-linejoin:round;stroke-miterlimit:10;" fill="none" stroke="#82bb31" stroke-width="15" stroke-linecap="round" stroke-linejoin="round" stroke-miterlimit="10" data-original="#000000" class="" opacity="1"></path><circle cx="309.234" cy="279.398" r="102.585" style="stroke-width:15;stroke-linecap:round;stroke-linejoin:round;stroke-miterlimit:10;" fill="none" stroke="#82bb31" stroke-width="15" stroke-linecap="round" stroke-linejoin="round" stroke-miterlimit="10" data-original="#000000" class="" opacity="1"></circle></g></svg>