<svg xmlns="http://www.w3.org/2000/svg" version="1.1" xmlns:xlink="http://www.w3.org/1999/xlink" width="512" height="512" x="0" y="0" viewBox="0 0 74 74" style="enable-background:new 0 0 512 512" xml:space="preserve" class=""><g><path d="M69.87 51.31c-2.19-5.71-1.87-6.92-3.06-7-.41-3.68-2.27-7.86-5.34-9.52-.32-.62-.38-2.32-2.03-2.65-2.59-.51-3.08 3.83-10.26 5.58-3.44.83-6.43-.31-8.66-3.28-2.31-3.08-9.79 17.5-25.44 19.81-4.76.68-2.85 5.77-2.01 10.05.11.33.39.57.72.65 13.53 3.06 27.13-.68 38.42-9.12l1.31-.45c.31.63.44 2.46 1.75 2.01 13.85-4.87 15.08-4.68 14.6-6.08zM39.75 36.65c2.63 2.86 6.1 3.93 9.9 3.02 6.53-1.59 8.95-5.65 9.4-5.56.31.06.37 1.94 1.2 2.31 2.33 1.06 4.32 4.77 4.61 8.49-17.19 5.93-14.45 4.79-16.09 5.97-7.24-5.81-11.48.01-15.37-5.96zM15.37 56.24c6.35-.94 11.31-4.59 16.65-9.83 4.99 6.81 9.09.84 15.09 5.61-10.31 6.88-21.78 9.48-32.74 7.43l-.44-1.29c-.16-.89.52-1.78 1.44-1.92zm35.77-2.09c-11.17 8.41-24.06 11.59-36.36 8.98l-.57-1.67c12.36 2.25 25.29-1.13 36.63-9.61l1.31-.45c.07.2.77 2.22.72 2.1-1.45.52-1.52.49-1.73.65zm4.43 1.04c-.23-.68-1.61-4.67-1.53-4.43l12.08-4.17 1.53 4.43zM16.58 45.8c2.2-2.2 16.5-16.47 16.8-16.8a8.472 8.472 0 0 0 2.26-7.04c.98-1.3 4.02-2.82 2.73-5.25 3.85-4.08 4.83-4.27 4.82-5.63-.02-2.08-4.81-4.39-6.93-2.26l-2.88 2.88c-.95-.5-2.15-.37-2.95.43l-2.31 2.31c-4.52-.63-7.08 2.33-7.19 2.39C8.9 28.87 23.69 14.08 4.27 33.5c-2 1.99 10.3 14.31 12.31 12.3zm2.54-5.37c-2.27-1.21-8.25-7.18-9.49-9.47l11.72-11.72c1.71 2.62 6.66 7.64 9.48 9.48zm18.55-30.2c.6-.6 2.32-.16 3.47.87l-4.1 4.1-2.17-2.17zm-5.83 3.32c.61-.62 1.19.67 2.7 1.98l1.79 1.79c.06.1.64.46.19.91l-1.95 1.95-4.69-4.69zm-3.82 2.89 5.62 5.62c.31 1.86-.2 3.74-1.38 5.18-2.32-1.28-8.14-7.11-9.42-9.42a6.479 6.479 0 0 1 5.18-1.38zM6.04 34.55l2.12-2.12c1.67 2.68 6.92 7.81 9.47 9.48l-2.11 2.11c-2.29-1.25-8.22-7.16-9.48-9.47zM42.18 15.49c-.57.84-.55.09 2.99 10.13.18.52.75.79 1.28.61 1.6-.57-.15-2.6-1.14-6.19 3 2.86 3.01 3.32 3.73 3.32.88 0 1.34-1.07.71-1.71l-3.02-3.02c5.12 1.8 4.93 1.8 5.24 1.8 1.11 0 1.39-1.56.33-1.94-10.05-3.56-9.3-3.56-10.12-3z" fill="#82bb31" opacity="1" data-original="#000000"></path></g></svg>