<svg xmlns="http://www.w3.org/2000/svg" version="1.1" xmlns:xlink="http://www.w3.org/1999/xlink" width="512" height="512" x="0" y="0" viewBox="0 0 128 128" style="enable-background:new 0 0 512 512" xml:space="preserve" class=""><g><path d="M119.111 8h-7.278a5.969 5.969 0 0 0-4.461-2H20.138a1.978 1.978 0 0 0-1.987 2H8.889C3.987 8 0 11.589 0 16s3.987 8 8.889 8h12.468a69.089 69.089 0 0 1-1.73 18.33c-4.96 22.018-5.338 31.741 1.955 49.671 6.494 15.967-2.02 26.269-2.38 26.694A2 2 0 0 0 20.717 122H39.15a2.001 2.001 0 0 0 .962-.247l6.463-3.544a3.44 3.44 0 0 1 5.007 2.242A2 2 0 0 0 53.529 122h5.62a2.001 2.001 0 0 0 .962-.247l6.463-3.544a3.44 3.44 0 0 1 5.007 2.242A2 2 0 0 0 73.529 122h5.62a2.001 2.001 0 0 0 .962-.247l6.463-3.545a3.44 3.44 0 0 1 5.007 2.243A2 2 0 0 0 93.529 122h17.188a2.001 2.001 0 0 0 1.516-.695c.432-.502 10.5-12.504 3.054-30.81-6.939-17.06-6.584-25.865-1.758-47.285A73.29 73.29 0 0 0 115.377 24h3.734c4.902 0 8.889-3.589 8.889-8s-3.987-8-8.889-8ZM8.89 20C6.193 20 4 18.206 4 16s2.193-4 4.889-4H19.45a47.655 47.655 0 0 1 1.586 8Zm20.842 98H24.43c2.647-4.816 6.11-14.592.857-27.506-6.939-17.06-6.584-25.864-1.758-47.285 3.716-16.492 1.169-28.113-.488-33.209h5.752c1.301 3.524 4.705 15.149.834 32.33-4.96 22.018-5.338 31.741 1.955 49.671 5.626 13.833-.01 23.409-1.851 25.999Zm70 0-4.794-.001a7.447 7.447 0 0 0-10.287-3.298L78.636 118h-3.699a7.447 7.447 0 0 0-10.287-3.298L58.637 118h-3.7a7.447 7.447 0 0 0-10.287-3.298L38.636 118h-4.21c2.649-4.813 6.116-14.586.861-27.506-6.939-17.06-6.584-25.864-1.758-47.285 3.717-16.497 1.168-28.116-.49-33.209h66.303a1.982 1.982 0 0 0-.069 1.376c1.602 5.034 3.78 15.75.354 30.955-4.96 22.017-5.338 31.74 1.955 49.67 5.623 13.826-.004 23.399-1.851 25.998Zm9.896-75.67c-4.96 22.018-5.338 31.741 1.955 49.671 5.622 13.824-.004 23.4-1.85 25.999h-5.305c2.648-4.814 6.115-14.586.86-27.506-6.939-17.06-6.584-25.864-1.758-47.285 3.633-16.125 1.281-27.626-.445-33.046-.018-.058-.047-.108-.07-.163h4.358a1.98 1.98 0 0 1 1.9 1.376c1.603 5.034 3.78 15.75.355 30.955ZM119.111 20h-4.029a52.489 52.489 0 0 0-1.464-8h5.493c2.696 0 4.889 1.794 4.889 4s-2.193 4-4.889 4Z" fill="#82bb31" opacity="1" data-original="#000000" class=""></path><path d="M87.5 25.402a6.997 6.997 0 0 0-3.404 13.111c-4.119 9.43-10.85 12.176-13.232 12.872A25.418 25.418 0 0 0 68.5 47.29a6.995 6.995 0 1 0-3.543 1.957A23.443 23.443 0 0 1 69.19 60.82a27.818 27.818 0 0 1-3.634-.775 24.652 24.652 0 0 1-14.654-11.208 6.994 6.994 0 1 0-4.402 1.564c.225 0 .446-.013.666-.034a28.577 28.577 0 0 0 17.296 13.526 31.802 31.802 0 0 0 4.884.983 48.391 48.391 0 0 1-3.297 15.729 20.02 20.02 0 0 1-2.42-2.456 7.047 7.047 0 1 0-3.49 2.05c5.193 6.613 13.906 9.712 18.28 10.901.194.052.372.097.553.143a41.457 41.457 0 0 0-1.397 4.202 44.066 44.066 0 0 0-.961 4.458l-.068.41a2 2 0 0 0 1.696 2.264 2.035 2.035 0 0 0 .286.02 2.001 2.001 0 0 0 1.978-1.716l.021-.13c.019-.103.037-.21.043-.262a39.952 39.952 0 0 1 .868-4.004 35.011 35.011 0 0 1 4.422-10.074c4.107-6.288 3.464-12.683 1.293-17.795a7.13 7.13 0 1 0-3.652 1.705 14.184 14.184 0 0 1-.99 13.905 36.59 36.59 0 0 0-1.887 3.307c-.36-.087-.74-.181-1.16-.294A40.11 40.11 0 0 1 69.4 83.015c1.492-3.497 6.231-16.098 2.857-27.877 3.376-1.058 11.277-4.649 15.825-15.766a6.997 6.997 0 0 0-.581-13.97Zm-24 20a3 3 0 1 1 3-3 3.003 3.003 0 0 1-3 3Zm-17 1a3 3 0 1 1 3-3 3.003 3.003 0 0 1-3 3Zm12 30a3 3 0 1 1 3-3 3.003 3.003 0 0 1-3 3Zm24-10a3 3 0 1 1 3-3 3.003 3.003 0 0 1-3 3Zm5-31a3 3 0 1 1 3-3 3.003 3.003 0 0 1-3 3Z" fill="#82bb31" opacity="1" data-original="#000000" class=""></path></g></svg>