<svg xmlns="http://www.w3.org/2000/svg" version="1.1" xmlns:xlink="http://www.w3.org/1999/xlink" width="512" height="512" x="0" y="0" viewBox="0 0 512 512" style="enable-background:new 0 0 512 512" xml:space="preserve"><g><path d="M426 172.659h-16.304v25.566h64.125a5.113 5.113 0 0 1 5.113 5.113v156.463H504.5V198.225c0-14.12-11.446-25.566-25.566-25.566H461M472.798 359.802v46.019h11.654c11.072 0 20.048-8.976 20.048-20.048v-25.97h-31.702zM409.696 232.487v-60.905c0-29.308-23.759-53.067-53.067-53.067h-31.595a5.062 5.062 0 0 0-5.06 5.062v103.512c-.839-1.037-2.106-1.715-3.54-1.715h-18.485c-1.434 0-2.701.677-3.54 1.714V118.515h-9.885c-29.308 0-53.067 23.759-53.067 53.067v48.056M231.457 237.148v44.933" style="stroke-width:15;stroke-linecap:round;stroke-linejoin:round;stroke-miterlimit:10;" fill="none" stroke="#82bb31" stroke-width="15" stroke-linecap="round" stroke-linejoin="round" stroke-miterlimit="10" data-original="#000000" opacity="1"></path><path d="M320.469 87.785c-14.331-.272-26.06 11.804-26.06 26.137v113.166c.839-1.037 2.106-1.714 3.54-1.714h18.485c1.435 0 2.701.678 3.54 1.715V123.577a5.062 5.062 0 0 1 5.062-5.062h20.504v-5.169c0-13.954-11.18-25.297-25.071-25.561z" style="stroke-width:15;stroke-linecap:round;stroke-linejoin:round;stroke-miterlimit:10;" fill="none" stroke="#82bb31" stroke-width="15" stroke-linecap="round" stroke-linejoin="round" stroke-miterlimit="10" data-original="#000000" opacity="1"></path><path d="M322.019 251.973v-22.025a5.586 5.586 0 0 0-5.586-5.586h-18.485a5.586 5.586 0 0 0-5.586 5.586v22.025h29.657z" style="stroke-width:15;stroke-linecap:round;stroke-linejoin:round;stroke-miterlimit:10;" fill="none" stroke="#82bb31" stroke-width="15" stroke-linecap="round" stroke-linejoin="round" stroke-miterlimit="10" data-original="#000000" opacity="1"></path><path d="M350.653 282.081v-8.752c0-11.795-9.562-21.357-21.357-21.357h-44.211c-11.795 0-21.357 9.562-21.357 21.357v8.752h86.925zM231.457 282.081v-44.934c-1.297-2.646-2.045-5.609-2.045-8.755s.748-6.109 2.045-8.755v-48.056c0-29.308-23.759-53.067-53.067-53.067h-20.286a2.964 2.964 0 0 1-1.282 1.398l-15.493 8.473c-.51.279-.929.698-1.207 1.207l-8.473 15.493c-1.152 2.106-4.177 2.106-5.329 0l-8.474-15.493a3.04 3.04 0 0 0-1.207-1.207l-15.493-8.473a2.981 2.981 0 0 1-1.082-1.023c-26.375 3.082-46.846 25.49-46.846 52.692v60.905M72.314 339.129v36.012h221.674c5.881-14.017 15.049-26.345 26.524-36.012H72.314z" style="stroke-width:15;stroke-linecap:round;stroke-linejoin:round;stroke-miterlimit:10;" fill="none" stroke="#82bb31" stroke-width="15" stroke-linecap="round" stroke-linejoin="round" stroke-miterlimit="10" data-original="#000000" opacity="1"></path><path d="M133 282.081h-28.619c-15.449 0-28.423 10.588-32.066 24.903v33.157h247.01c16.641-14.489 38.347-23.291 62.01-23.291h10.288v-1.68c0-18.275-14.815-33.089-33.089-33.089H168M62.191 419.114H17.623c-5.591 0-10.123-4.532-10.123-10.123V262.033c0-17.898 14.509-32.407 32.407-32.407h0c17.898 0 32.407 14.509 32.407 32.407v146.958c0 5.591-4.532 10.123-10.123 10.123z" style="stroke-width:15;stroke-linecap:round;stroke-linejoin:round;stroke-miterlimit:10;" fill="none" stroke="#82bb31" stroke-width="15" stroke-linecap="round" stroke-linejoin="round" stroke-miterlimit="10" data-original="#000000" opacity="1"></path><path d="M430.87 316.851c9.148 0 17.631 2.978 24.543 8v-62.818c0-17.898-14.509-32.407-32.407-32.407s-32.407 14.509-32.407 32.407v54.818h40.271zM131.648 89.41l8.473 15.493c.279.51.698.929 1.207 1.207l15.493 8.473c2.106 1.152 2.106 4.177 0 5.329l-15.493 8.473c-.51.279-.929.698-1.207 1.207l-8.473 15.493c-1.152 2.106-4.177 2.106-5.329 0l-8.473-15.493a3.034 3.034 0 0 0-1.207-1.207l-15.493-8.473c-2.106-1.152-2.106-4.177 0-5.329l15.493-8.473c.51-.279.929-.698 1.207-1.207l8.473-15.493c1.152-2.106 4.177-2.106 5.329 0zM128.592 201.476l6.12 11.189c.279.51.698.929 1.207 1.207l11.19 6.12c2.106 1.152 2.106 4.177 0 5.329l-11.19 6.12c-.51.279-.929.698-1.207 1.207l-6.12 11.189c-1.152 2.106-4.177 2.106-5.329 0l-6.12-11.189a3.034 3.034 0 0 0-1.207-1.207l-11.189-6.12c-2.106-1.152-2.106-4.177 0-5.329l11.189-6.12c.51-.279.929-.698 1.207-1.207l6.12-11.189c1.152-2.106 4.177-2.106 5.329 0zM166.942 162.943v25.308M154.287 175.597h25.309M68.241 63.229v25.309M55.586 75.884h25.309M249.353 248.334c-11.013 0-19.941-8.928-19.941-19.941 0-11.013 8.928-19.941 19.941-19.941s19.941 8.928 19.941 19.941M347.421 228.459c6.224-6.224 16.314-6.224 22.537 0 6.224 6.224 6.224 16.314 0 22.537" style="stroke-width:15;stroke-linecap:round;stroke-linejoin:round;stroke-miterlimit:10;" fill="none" stroke="#82bb31" stroke-width="15" stroke-linecap="round" stroke-linejoin="round" stroke-miterlimit="10" data-original="#000000" opacity="1"></path><path d="M435.969 437.522h10.814c14.308 0 26.016-11.707 26.016-26.016v-52.727c0-23.06-18.868-41.928-41.928-41.928h-49.536c-52.06 0-94.655 42.595-94.655 94.655v0c0 14.309 11.707 26.016 26.016 26.016H331M366 437.522h23.979" style="stroke-width:15;stroke-linecap:round;stroke-linejoin:round;stroke-miterlimit:10;" fill="none" stroke="#82bb31" stroke-width="15" stroke-linecap="round" stroke-linejoin="round" stroke-miterlimit="10" data-original="#000000" opacity="1"></path><path d="M300.854 361.847h77.412c14.309 0 26.016-11.707 26.016-26.016v-18.98" style="stroke-width:15;stroke-linecap:round;stroke-linejoin:round;stroke-miterlimit:10;" fill="none" stroke="#82bb31" stroke-width="15" stroke-linecap="round" stroke-linejoin="round" stroke-miterlimit="10" data-original="#000000" opacity="1"></path><circle cx="412.974" cy="419.626" r="29.145" style="stroke-width:15;stroke-linecap:round;stroke-linejoin:round;stroke-miterlimit:10;" fill="none" stroke="#82bb31" stroke-width="15" stroke-linecap="round" stroke-linejoin="round" stroke-miterlimit="10" data-original="#000000" opacity="1"></circle><path d="M430.87 347.014h11.249M430.87 368.287h11.249" style="stroke-width:15;stroke-linecap:round;stroke-linejoin:round;stroke-miterlimit:10;" fill="none" stroke="#82bb31" stroke-width="15" stroke-linecap="round" stroke-linejoin="round" stroke-miterlimit="10" data-original="#000000" opacity="1"></path></g></svg>