<svg xmlns="http://www.w3.org/2000/svg" version="1.1" xmlns:xlink="http://www.w3.org/1999/xlink" width="512" height="512" x="0" y="0" viewBox="0 0 512 512" style="enable-background:new 0 0 512 512" xml:space="preserve" class=""><g><circle cx="227.5" cy="139" r="8" fill="#82bb31" opacity="1" data-original="#000000" class=""></circle><circle cx="119.5" cy="139" r="8" fill="#82bb31" opacity="1" data-original="#000000" class=""></circle><path d="M120.729 198.332a8 8 0 0 0-2.249 11.088C130.757 227.942 151.325 239 173.5 239s42.743-11.058 55.02-29.58a8 8 0 1 0-13.336-8.84c-7.806 11.776-20.034 19.549-33.684 21.755V191.8a21.58 21.58 0 0 0 3.836-1.98l12.372-8.09a21.56 21.56 0 0 0 9.792-18.102c0-11.926-9.702-21.628-21.628-21.628h-24.744c-11.926 0-21.628 9.702-21.628 21.628a21.56 21.56 0 0 0 9.792 18.101l12.373 8.091a21.6 21.6 0 0 0 3.835 1.98v30.535c-13.65-2.206-25.878-9.979-33.684-21.755a7.998 7.998 0 0 0-11.087-2.248zm37.319-29.994a5.609 5.609 0 0 1-2.548-4.71 5.634 5.634 0 0 1 5.628-5.628h24.744a5.634 5.634 0 0 1 5.628 5.628 5.609 5.609 0 0 1-2.548 4.71l-12.37 8.09a5.633 5.633 0 0 1-6.162 0zM386.963 398h-26.29a8 8 0 0 0 0 16h26.29a8 8 0 0 0 0-16zM429.57 439.701c-12.409 0-22.505 10.096-22.505 22.505 0 12.408 10.096 22.504 22.505 22.504s22.505-10.096 22.505-22.504c0-12.41-10.096-22.505-22.505-22.505zm0 29.009a6.512 6.512 0 0 1-6.505-6.504c0-3.587 2.918-6.505 6.505-6.505s6.505 2.918 6.505 6.505a6.512 6.512 0 0 1-6.505 6.504zM279.206 439.701c-12.41 0-22.505 10.096-22.505 22.505 0 12.408 10.096 22.504 22.505 22.504 12.408 0 22.504-10.096 22.504-22.504 0-12.41-10.096-22.505-22.504-22.505zm0 29.009a6.512 6.512 0 0 1-6.505-6.504 6.512 6.512 0 0 1 6.505-6.505 6.512 6.512 0 0 1 6.504 6.505 6.512 6.512 0 0 1-6.504 6.504zM343 244.477c12.91 0 23.411-10.502 23.411-23.412s-10.502-23.41-23.411-23.41-23.411 10.501-23.411 23.41S330.09 244.477 343 244.477zm0-30.823c4.087 0 7.411 3.325 7.411 7.411s-3.324 7.412-7.411 7.412-7.411-3.325-7.411-7.412 3.324-7.41 7.411-7.41zM286.794 244.477c12.91 0 23.412-10.502 23.412-23.412s-10.503-23.41-23.412-23.41-23.411 10.501-23.411 23.41 10.502 23.412 23.41 23.412zm0-30.823c4.087 0 7.412 3.325 7.412 7.411s-3.325 7.412-7.412 7.412-7.411-3.325-7.411-7.412 3.324-7.41 7.41-7.41zM352.991 362.647h54.954c3.881 0 7.545-1.884 9.802-5.04a12.073 12.073 0 0 0 1.603-10.903l-10.55-30.893a12.052 12.052 0 0 0-11.403-8.154h-44.406c-6.644 0-12.05 5.405-12.05 12.05v30.89c0 6.645 5.406 12.05 12.05 12.05zm3.95-38.99h37.631l7.85 22.99h-45.48zM260.456 362.647h54.004c6.644 0 12.05-5.405 12.05-12.05v-30.89c0-6.644-5.406-12.05-12.05-12.05h-43.456a12.048 12.048 0 0 0-11.403 8.156l-10.547 30.89a12.069 12.069 0 0 0 1.601 10.903 12.074 12.074 0 0 0 9.801 5.041zm13.374-38.99h36.68v22.99h-44.53z" fill="#82bb31" opacity="1" data-original="#000000" class=""></path><path d="m495.114 385.6-32.284-11.598-20.695-51.17a180.407 180.407 0 0 0 17.253-15.182c70.038-70.039 70.038-183.999 0-254.038C415.528 9.754 354.45-6.617 297.717 4.456A57.727 57.727 0 0 0 278 1c-23.975 0-44.58 14.63-53.402 35.425C208.896 29.718 191.625 26 173.5 26s-35.396 3.718-51.098 10.425C113.58 15.63 92.975 1 69 1 37.019 1 11 27.019 11 59c0 25.39 16.405 47.005 39.167 54.842A129.93 129.93 0 0 0 43 156.5c0 30.203 10.317 58.04 27.607 80.179C30.471 261.46 3.402 304.95.868 351.784c-.612 11.309 2.908 22.544 9.913 31.635 5.69 7.384 13.204 12.787 21.623 15.833C26.439 410.312 23 423.218 23 437c0 40.804 30.056 74 67 74 20.367 0 38.627-10.102 50.925-25.992 10.194 4.473 21.158 6.915 32.575 6.915 11.083 0 21.737-2.305 31.675-6.532C217.469 501.059 235.597 511 255.8 511c4.23 0 8.367-.439 12.382-1.271A48.73 48.73 0 0 0 279.206 511c24.496 0 44.827-18.146 48.273-41.701h53.818C384.743 492.854 405.074 511 429.57 511s44.827-18.146 48.273-41.701H487c13.233 0 24-10.767 24-24v-37.111c0-10.097-6.384-19.174-15.886-22.587zm-208.32-197.329c8.441 0 16.464 3.21 22.59 9.037a8 8 0 0 0 11.027-.001c6.125-5.827 14.148-9.036 22.589-9.036 18.083 0 32.794 14.711 32.794 32.794S361.083 253.86 343 253.86a32.64 32.64 0 0 1-10.927-1.866 8 8 0 0 0-10.67 7.541v19.71h-13.01v-19.71a8 8 0 0 0-10.67-7.54 32.66 32.66 0 0 1-10.93 1.865c-18.082 0-32.793-14.71-32.793-32.794s14.71-32.794 32.794-32.794zm-31.608 69.922c8.522 7.266 19.557 11.666 31.608 11.666 1.88 0 3.748-.106 5.599-.318v9.702h-43.476c-3.53 0-6.967.607-10.207 1.708a106.13 106.13 0 0 0-7.424-7.466 130.875 130.875 0 0 0 23.9-15.292zm-21.254 47.444c2.325-6.217 8.347-10.394 14.985-10.394H402.93a15.935 15.935 0 0 1 14.834 10l27.614 68.28H208.534zM471.995 95.296c38.499 62.993 30.532 146.587-23.922 201.04a164.059 164.059 0 0 1-12.203 11.004l-3.274-8.096c-4.914-12.15-16.559-20-29.666-20h-12.675a191.107 191.107 0 0 0 23.924-20.263c41.47-41.472 61.99-100.231 57.816-163.685zM454.36 79.892c8.856 65.098-9.799 126.077-51.497 167.775-12.718 12.718-27.149 23.277-42.921 31.576h-22.54v-9.702a49.18 49.18 0 0 0 5.597.318c26.905 0 48.794-21.888 48.794-48.794 0-10.304-3.22-19.867-8.693-27.752 24.708-27.887 45.44-59.236 61.76-93.487zm-23.943 13.051c-15.499 32.524-35.126 62.32-58.488 88.86-8.1-5.985-18.107-9.532-28.93-9.532-10.166 0-19.922 3.125-28.103 8.91a48.484 48.484 0 0 0-12.207-6.25c.576-4.05.968-8.158 1.162-12.317a357.48 357.48 0 0 1 7.347-7.583c30.705-30.706 66.5-55.912 106.387-74.92L442.1 68.43zm-19.715-27.275c-40.187 19.15-76.38 44.37-107.67 74.967a129.454 129.454 0 0 0-6.2-26.793c21.354-7.352 37.104-26.832 38.971-50.178 29.17-9.324 61.456-12.039 94.834-7.496zm-78.335-48.592c27.982 0 55.959 7.123 80.961 21.348-27.426-1.592-53.935 1.463-78.531 8.806-2.37-11.447-8.127-21.665-16.168-29.569a163.98 163.98 0 0 1 13.738-.585zM278 17c23.16 0 42 18.84 42 42 0 18.752-12.357 34.66-29.353 40.04-11.408-23.164-29.483-42.475-51.71-55.411C245.083 28.054 260.267 17 278 17zM27 59c0-23.16 18.84-42 42-42 17.733 0 32.916 11.054 39.063 26.629-22.227 12.936-40.302 32.247-51.71 55.41C39.357 93.662 27 77.753 27 59zm146.5-17C236.636 42 288 93.364 288 156.5c0 5.352-.379 10.616-1.095 15.774l-.111-.003c-26.905 0-48.794 21.89-48.794 48.794 0 9.095 2.508 17.611 6.858 24.908C225.273 261.626 200.463 271 173.5 271 110.364 271 59 219.636 59 156.5S110.364 42 173.5 42zM23.455 373.653c-4.668-6.058-7.016-13.517-6.61-21.004 2.302-42.548 27.444-82.029 64.527-103.81a131.153 131.153 0 0 0 34.337 24.644c-22.93 20.871-38.257 53.806-39.815 91.182-13.116 3.117-24.811 10.486-33.852 20.733-7.29-1.552-13.876-5.63-18.587-11.745zM90 495c-28.121 0-51-26.019-51-58s22.879-58 51-58 51 26.019 51 58-22.879 58-51 58zm83.5-19.077c-8.399 0-16.504-1.64-24.135-4.676C154.23 461 157 449.353 157 437c0-40.07-28.99-72.78-65.019-73.944 2.056-35.283 17.765-65.744 40.341-82.718A129.97 129.97 0 0 0 173.5 287c14.377 0 28.214-2.345 41.16-6.659a85.235 85.235 0 0 1 10.57 9.423 31.763 31.763 0 0 0-6.285 10.267l-29.438 78.69c-.017.044-.026.09-.041.133-.075.212-.14.427-.198.646-.021.083-.045.165-.064.248-.05.227-.09.457-.122.69-.01.07-.024.138-.032.208a8.06 8.06 0 0 0-.05.877v49.845a82.32 82.32 0 0 0-.2 5.632c0 1.83.081 3.639.2 5.436v2.863c0 2.996.557 5.864 1.565 8.512a78.4 78.4 0 0 0 6.054 17.833c-7.333 2.782-15.092 4.279-23.119 4.279zm39.985-6.624h17.448c1.268 8.673 4.83 16.606 10.045 23.176-11.339-3.926-21.01-12.23-27.493-23.176zM279.206 495c-18.083 0-32.795-14.71-32.795-32.794s14.712-32.795 32.795-32.795S312 444.123 312 462.206 297.29 495 279.206 495zm150.364 0c-18.083 0-32.795-14.71-32.795-32.794s14.712-32.795 32.795-32.795 32.794 14.712 32.794 32.795S447.654 495 429.57 495zM495 445.299c0 4.411-3.589 8-8 8h-9.465c-4.2-22.665-24.102-39.888-47.965-39.888s-43.765 17.223-47.965 39.888H327.17c-4.2-22.665-24.103-39.888-47.965-39.888S235.44 430.634 231.24 453.3H213c-4.411 0-8-3.589-8-8v-55.776h253.709l30.996 11.136a8.019 8.019 0 0 1 5.295 7.528z" fill="#82bb31" opacity="1" data-original="#000000" class=""></path></g></svg>