<svg xmlns="http://www.w3.org/2000/svg" version="1.1" xmlns:xlink="http://www.w3.org/1999/xlink" width="512" height="512" x="0" y="0" viewBox="0 0 682.667 682.667" style="enable-background:new 0 0 512 512" xml:space="preserve" class=""><g><defs><clipPath id="a" clipPathUnits="userSpaceOnUse"><path d="M0 512h512V0H0Z" fill="#82bb31" opacity="1" data-original="#000000"></path></clipPath></defs><g clip-path="url(#a)" transform="matrix(1.33333 0 0 -1.33333 0 682.667)"><path d="M0 0v35.549a3 3 0 0 1-3 3h-76.577a3 3 0 0 1-3-3V-.032" style="stroke-width:15;stroke-linecap:round;stroke-linejoin:round;stroke-miterlimit:10;stroke-dasharray:none;stroke-opacity:1" transform="translate(302.789 435.585)" fill="none" stroke="#82bb31" stroke-width="15" stroke-linecap="round" stroke-linejoin="round" stroke-miterlimit="10" stroke-dasharray="none" stroke-opacity="" data-original="#000000" opacity="1" class=""></path><path d="M0 0v38.955c0 16.568 13.432 30 30 30h83c16.568 0 30-13.432 30-30V.019" style="stroke-width:15;stroke-linecap:round;stroke-linejoin:round;stroke-miterlimit:10;stroke-dasharray:none;stroke-opacity:1" transform="translate(190 435.545)" fill="none" stroke="#82bb31" stroke-width="15" stroke-linecap="round" stroke-linejoin="round" stroke-miterlimit="10" stroke-dasharray="none" stroke-opacity="" data-original="#000000" opacity="1" class=""></path><path d="M0 0h-108.323" style="stroke-width:15;stroke-linecap:round;stroke-linejoin:round;stroke-miterlimit:10;stroke-dasharray:none;stroke-opacity:1" transform="translate(332.378 42.5)" fill="none" stroke="#82bb31" stroke-width="15" stroke-linecap="round" stroke-linejoin="round" stroke-miterlimit="10" stroke-dasharray="none" stroke-opacity="" data-original="#000000" opacity="1" class=""></path><path d="M0 0v26.819c0 30.376 24.625 55 55 55h157c15.75 0 29.954-6.62 39.98-17.23" style="stroke-width:15;stroke-linecap:round;stroke-linejoin:round;stroke-miterlimit:10;stroke-dasharray:none;stroke-opacity:1" transform="translate(128 353.68)" fill="none" stroke="#82bb31" stroke-width="15" stroke-linecap="round" stroke-linejoin="round" stroke-miterlimit="10" stroke-dasharray="none" stroke-opacity="" data-original="#000000" opacity="1" class=""></path><path d="M0 0v66.218" style="stroke-width:15;stroke-linecap:round;stroke-linejoin:round;stroke-miterlimit:10;stroke-dasharray:none;stroke-opacity:1" transform="translate(128 252.57)" fill="none" stroke="#82bb31" stroke-width="15" stroke-linecap="round" stroke-linejoin="round" stroke-miterlimit="10" stroke-dasharray="none" stroke-opacity="" data-original="#000000" opacity="1" class=""></path><path d="M0 0h-83.945" style="stroke-width:15;stroke-linecap:round;stroke-linejoin:round;stroke-miterlimit:10;stroke-dasharray:none;stroke-opacity:1" transform="translate(307.993 72.5)" fill="none" stroke="#82bb31" stroke-width="15" stroke-linecap="round" stroke-linejoin="round" stroke-miterlimit="10" stroke-dasharray="none" stroke-opacity="" data-original="#000000" opacity="1" class=""></path><path d="M0 0h19.063C33.846 0 45.83-11.983 45.83-26.766v-1.024" style="stroke-width:15;stroke-linecap:round;stroke-linejoin:round;stroke-miterlimit:10;stroke-dasharray:none;stroke-opacity:1" transform="translate(319.17 405.5)" fill="none" stroke="#82bb31" stroke-width="15" stroke-linecap="round" stroke-linejoin="round" stroke-miterlimit="10" stroke-dasharray="none" stroke-opacity="" data-original="#000000" opacity="1" class=""></path><path d="M0 0v101.309c0 14.782 11.983 26.765 26.766 26.765h99.425" style="stroke-width:15;stroke-linecap:round;stroke-linejoin:round;stroke-miterlimit:10;stroke-dasharray:none;stroke-opacity:1" transform="translate(158 277.426)" fill="none" stroke="#82bb31" stroke-width="15" stroke-linecap="round" stroke-linejoin="round" stroke-miterlimit="10" stroke-dasharray="none" stroke-opacity="" data-original="#000000" opacity="1" class=""></path><path d="M0 0h-31.985c-13.807 0-25 11.193-25 25v285c0 13.807 11.193 25 25 25h31.83" style="stroke-width:15;stroke-linecap:round;stroke-linejoin:round;stroke-miterlimit:10;stroke-dasharray:none;stroke-opacity:1" transform="translate(364.985 42.5)" fill="none" stroke="#82bb31" stroke-width="15" stroke-linecap="round" stroke-linejoin="round" stroke-miterlimit="10" stroke-dasharray="none" stroke-opacity="" data-original="#000000" opacity="1" class=""></path><path d="M0 0h30.946c13.807 0 25-11.193 25-25v-285c0-13.807-11.193-25-25-25H-.03" style="stroke-width:15;stroke-linecap:round;stroke-linejoin:round;stroke-miterlimit:10;stroke-dasharray:none;stroke-opacity:1" transform="translate(425.054 377.5)" fill="none" stroke="#82bb31" stroke-width="15" stroke-linecap="round" stroke-linejoin="round" stroke-miterlimit="10" stroke-dasharray="none" stroke-opacity="" data-original="#000000" opacity="1" class=""></path><path d="M0 0v-78.245a5 5 0 0 0-5-5h-50a5 5 0 0 0-5 5v335a5 5 0 0 0 5 5h50a5 5 0 0 0 5-5V34.723" style="stroke-width:15;stroke-linecap:round;stroke-linejoin:round;stroke-miterlimit:10;stroke-dasharray:none;stroke-opacity:1" transform="translate(425 120.745)" fill="none" stroke="#82bb31" stroke-width="15" stroke-linecap="round" stroke-linejoin="round" stroke-miterlimit="10" stroke-dasharray="none" stroke-opacity="" data-original="#000000" opacity="1" class=""></path><path d="M0 0v-345" style="stroke-width:15;stroke-linecap:round;stroke-linejoin:round;stroke-miterlimit:10;stroke-dasharray:none;stroke-opacity:1" transform="translate(395 382.5)" fill="none" stroke="#82bb31" stroke-width="15" stroke-linecap="round" stroke-linejoin="round" stroke-miterlimit="10" stroke-dasharray="none" stroke-opacity="" data-original="#000000" opacity="1" class=""></path><path d="M0 0h57.947" style="stroke-width:15;stroke-linecap:round;stroke-linejoin:round;stroke-miterlimit:10;stroke-dasharray:none;stroke-opacity:1" transform="translate(158 322.5)" fill="none" stroke="#82bb31" stroke-width="15" stroke-linecap="round" stroke-linejoin="round" stroke-miterlimit="10" stroke-dasharray="none" stroke-opacity="" data-original="#000000" opacity="1" class=""></path><path d="M0 0h101.979" style="stroke-width:15;stroke-linecap:round;stroke-linejoin:round;stroke-miterlimit:10;stroke-dasharray:none;stroke-opacity:1" transform="translate(206.02 239.25)" fill="none" stroke="#82bb31" stroke-width="15" stroke-linecap="round" stroke-linejoin="round" stroke-miterlimit="10" stroke-dasharray="none" stroke-opacity="" data-original="#000000" opacity="1" class=""></path><path d="M0 0h83.894" style="stroke-width:15;stroke-linecap:round;stroke-linejoin:round;stroke-miterlimit:10;stroke-dasharray:none;stroke-opacity:1" transform="translate(224.106 156.125)" fill="none" stroke="#82bb31" stroke-width="15" stroke-linecap="round" stroke-linejoin="round" stroke-miterlimit="10" stroke-dasharray="none" stroke-opacity="" data-original="#000000" opacity="1" class=""></path><path d="M0 0h-62c-8.284 0-15 6.716-15 15 0 8.284 6.716 15 15 15H0c8.284 0 15-6.716 15-15C15 6.716 8.284 0 0 0Z" style="stroke-width:15;stroke-linecap:round;stroke-linejoin:round;stroke-miterlimit:10;stroke-dasharray:none;stroke-opacity:1" transform="translate(293 307.5)" fill="none" stroke="#82bb31" stroke-width="15" stroke-linecap="round" stroke-linejoin="round" stroke-miterlimit="10" stroke-dasharray="none" stroke-opacity="" data-original="#000000" opacity="1" class=""></path><path d="M0 0v27.861c0 5.523 4.477 10 10 10h28c5.523 0 10-4.477 10-10v-63" style="stroke-width:15;stroke-linecap:round;stroke-linejoin:round;stroke-miterlimit:10;stroke-dasharray:none;stroke-opacity:1" transform="translate(158 247.639)" fill="none" stroke="#82bb31" stroke-width="15" stroke-linecap="round" stroke-linejoin="round" stroke-miterlimit="10" stroke-dasharray="none" stroke-opacity="" data-original="#000000" opacity="1" class=""></path><path d="M0 0v63c0 5.522 4.477 10 10 10h28c5.523 0 10-4.478 10-10V35.234" style="stroke-width:15;stroke-linecap:round;stroke-linejoin:round;stroke-miterlimit:10;stroke-dasharray:none;stroke-opacity:1" transform="translate(49 212.5)" fill="none" stroke="#82bb31" stroke-width="15" stroke-linecap="round" stroke-linejoin="round" stroke-miterlimit="10" stroke-dasharray="none" stroke-opacity="" data-original="#000000" opacity="1" class=""></path><path d="M0 0h-123c-19.33 0-35 15.67-35 35v113.5c0 53.296 43.205 96.5 96.5 96.5S35 201.796 35 148.5V35C35 15.67 19.33 0 0 0Z" style="stroke-width:15;stroke-linecap:round;stroke-linejoin:round;stroke-miterlimit:10;stroke-dasharray:none;stroke-opacity:1" transform="translate(189 7.5)" fill="none" stroke="#82bb31" stroke-width="15" stroke-linecap="round" stroke-linejoin="round" stroke-miterlimit="10" stroke-dasharray="none" stroke-opacity="" data-original="#000000" opacity="1" class=""></path><path d="M0 0h-123c-19.33 0-35 15.67-35 35v68.5c0 53.296 43.205 96.5 96.5 96.5S35 156.796 35 103.5V35C35 15.67 19.33 0 0 0Z" style="stroke-width:15;stroke-linecap:round;stroke-linejoin:round;stroke-miterlimit:10;stroke-dasharray:none;stroke-opacity:1" transform="translate(189 7.5)" fill="none" stroke="#82bb31" stroke-width="15" stroke-linecap="round" stroke-linejoin="round" stroke-miterlimit="10" stroke-dasharray="none" stroke-opacity="" data-original="#000000" opacity="1" class=""></path><path d="M0 0v-30a5 5 0 0 0-5-5h-20a5 5 0 0 0-5 5V0" style="stroke-width:15;stroke-linecap:round;stroke-linejoin:round;stroke-miterlimit:10;stroke-dasharray:none;stroke-opacity:1" transform="translate(365 42.5)" fill="none" stroke="#82bb31" stroke-width="15" stroke-linecap="round" stroke-linejoin="round" stroke-miterlimit="10" stroke-dasharray="none" stroke-opacity="" data-original="#000000" opacity="1" class=""></path><path d="M0 0v-30a5 5 0 0 0-5-5h-20a5 5 0 0 0-5 5V0" style="stroke-width:15;stroke-linecap:round;stroke-linejoin:round;stroke-miterlimit:10;stroke-dasharray:none;stroke-opacity:1" transform="translate(455 42.5)" fill="none" stroke="#82bb31" stroke-width="15" stroke-linecap="round" stroke-linejoin="round" stroke-miterlimit="10" stroke-dasharray="none" stroke-opacity="" data-original="#000000" opacity="1" class=""></path><path d="M0 0c-8.284 0-15 6.716-15 15v65c0 8.284 6.716 15 15 15h79c8.284 0 15-6.716 15-15V15c0-8.284-6.716-15-15-15" style="stroke-width:15;stroke-linecap:round;stroke-linejoin:round;stroke-miterlimit:10;stroke-dasharray:none;stroke-opacity:1" transform="translate(88 7.5)" fill="none" stroke="#82bb31" stroke-width="15" stroke-linecap="round" stroke-linejoin="round" stroke-miterlimit="10" stroke-dasharray="none" stroke-opacity="" data-original="#000000" opacity="1" class=""></path><path d="M0 0h-34a3 3 0 0 0-3 3v24a3 3 0 0 0 3 3H0a3 3 0 0 0 3-3V3a3 3 0 0 0-3-3Z" style="stroke-width:15;stroke-linecap:round;stroke-linejoin:round;stroke-miterlimit:10;stroke-dasharray:none;stroke-opacity:1" transform="translate(142.5 132.5)" fill="none" stroke="#82bb31" stroke-width="15" stroke-linecap="round" stroke-linejoin="round" stroke-miterlimit="10" stroke-dasharray="none" stroke-opacity="" data-original="#000000" opacity="1" class=""></path><path d="M0 0h35.915" style="stroke-width:15;stroke-linecap:round;stroke-linejoin:round;stroke-miterlimit:10;stroke-dasharray:none;stroke-opacity:1" transform="translate(146.085 72.5)" fill="none" stroke="#82bb31" stroke-width="15" stroke-linecap="round" stroke-linejoin="round" stroke-miterlimit="10" stroke-dasharray="none" stroke-opacity="" data-original="#000000" opacity="1" class=""></path><path d="M0 0h38.021" style="stroke-width:15;stroke-linecap:round;stroke-linejoin:round;stroke-miterlimit:10;stroke-dasharray:none;stroke-opacity:1" transform="translate(73 72.5)" fill="none" stroke="#82bb31" stroke-width="15" stroke-linecap="round" stroke-linejoin="round" stroke-miterlimit="10" stroke-dasharray="none" stroke-opacity="" data-original="#000000" opacity="1" class=""></path><path d="M0 0h-30v65c0 8.284 6.716 15 15 15 8.284 0 15-6.716 15-15z" style="stroke-width:15;stroke-linecap:round;stroke-linejoin:round;stroke-miterlimit:10;stroke-dasharray:none;stroke-opacity:1" transform="translate(410 382.5)" fill="none" stroke="#82bb31" stroke-width="15" stroke-linecap="round" stroke-linejoin="round" stroke-miterlimit="10" stroke-dasharray="none" stroke-opacity="" data-original="#000000" opacity="1" class=""></path></g></g></svg>