<svg version="1.2" xmlns="http://www.w3.org/2000/svg" viewBox="0 0 4912 903" width="4912" height="903">
	<style>
		tspan { white-space:pre } 
		.s0 { fill: #b08f5f } 
		.s1 { fill: #221e1f } 
		.t2 { font-size: 188px;line-height: 149px;fill: #0c0d0d;font-weight: 500;font-family: "Futura BT" } 
	</style>
	<g id="Layer 1">
		<g id="&lt;Group&gt;">
			<g id="&lt;Group&gt;">
				<path id="&lt;Path&gt;" class="s0" d="m3583.6 92.85l-60.63 67.9h-235.43l60.62-67.9z"/>
				<path id="&lt;Path&gt;" class="s0" d="m4863.54 92.85l-40.07 67.9h-1089.64l60.62-67.9z"/>
				<path id="&lt;Compound Path&gt;" class="s1" d="m17.66 656.57l118.24-145.52c6.4 29.33 23.71 44.01 43.74 57.67q30.06 20.47 83.49 20.47 57.18 0 83.7-21.23 26.51-21.24 26.51-63.71 0-32.35-18.37-52.58-18.37-20.22-59.28-33.37-48.43-15.67-77.01-25.79-28.6-10.11-44.05-17.44-15.45-7.33-24.63-13.91-27.55-19.21-42.99-47.02-15.45-27.8-15.45-68.26 0-74.83 44.04-114.02 44.04-39.18 128.37-39.18c49.81 0 81.26 0 117.5 0 45.47 0 54.57 0 109.14 0l-119.78 144.1q-6.26-36.4-33.6-55.87-27.35-19.46-73.26-19.47-50.94 0.01-75.14 18.71-24.22 18.71-24.21 56.63 0 27.81 13.77 45.76 13.78 17.95 52.6 29.58 52.17 15.17 99.35 33.11 47.17 17.96 67.63 35.65 23.79 20.73 36.11 48.79 12.31 28.07 12.31 67.5 0 77.37-48.21 119.33-48.22 41.97-135.05 41.96c-2.44 0-7.46 0.05-13.94-0.23"/>
				<path id="&lt;Compound Path&gt;" fill-rule="evenodd" class="s1" d="m618.27 658.46q-63.64 0.01-95.65-33.57-32.02-33.57-32.01-92.13 0-65.59 43.13-100.73 43.14-35.13 139.18-37.48l94.87-1.56v-23.03q0-51.54-21.86-73.79-21.87-22.25-68.71-22.25-47.25 0-68.71 16.01-21.48 16-25.77 51.14l-73.39-6.64q17.95-113.99 169.43-114 79.64 0.01 119.85 36.51 40.21 36.5 40.21 105.6v181.93q0 31.23 8.2 47.04 8.2 15.81 31.24 15.81 10.92 0.01 23.03-2.73v43.72q-13.28 3.12-26.94 4.69-13.67 1.56-27.33 1.56-39.04 0-56.8-20.5-17.77-20.48-20.11-64.22h-2.34q-26.94 48.42-62.65 68.52-35.74 20.1-86.87 20.1zm149.52-216.28l-76.91 1.56q-49.19 0.4-74.95 10.15-25.77 9.37-39.43 28.89-13.67 19.53-13.67 51.15 0 34.36 18.54 53.09 18.54 18.74 52.9 18.74 39.04 0 68.72-17.57 30.05-17.56 47.43-48.21 17.37-30.65 17.37-63.05z"/>
				<path id="&lt;Compound Path&gt;" class="s1" d="m1131.53 645.47q-41.92 11.43-86.67 11.43-51.44 0-77.15-29.28-25.72-29.3-25.72-87.39v-386.36l-59.53-25.52v-11.35l62.86-17.01 25.24-81.23h57.15v81.23l95.25 17.01v11.35l-95.25 25.52v367.79q0.01 37.15 12.14 52.14 12.15 15.01 42.15 15 16.18 0.01 49.53-6.66z"/>
				<path id="&lt;Path&gt;" class="s0" d="m597.09 95.18v0.01l-78.13-0.18c-34.03 42.53-54.64 69.81-86.22 104.71l-32.87 39.89c68.05-42.53 85.06-75.93 187.13-76.55q5.05-0.03 10.09-0.06v0.08l2479.03-2.33 60.63-67.9z"/>
				<path id="&lt;Compound Path&gt;" class="s1" d="m1183.36 880.92q-28.11-0.01-48.41-4.3v-52.7q14.82 2.34 32.79 2.34 32.79 0 60.71-24.39c18.6-16.28 58.36-110.22 72.94-153.17l-167.49-420.46h74.96l89.01 233.46q9.76 24.99 20.89 56.61 11.12 31.63 17.37 55.83 9.76-27.71 19.71-55.05 9.97-27.32 19.33-54.66l80.82-236.19h74.17l-162.41 422.42c-8.85 22.37-40.47 106.3-48.53 123.1q-12.11 25.17-23.43 41.57-22.65 33.18-50.16 49.38-27.54 16.2-62.27 16.21z"/>
				<path id="&lt;Compound Path&gt;" fill-rule="evenodd" class="s1" d="m1684.84 658.46q-63.64 0.01-95.64-33.57-32.02-33.57-32.02-92.13 0-65.59 43.14-100.73 43.14-35.13 139.18-37.48l94.87-1.56v-23.03q-0.01-51.54-21.87-73.79-21.86-22.25-68.71-22.25-47.24 0-68.71 16.01-21.48 16-25.76 51.14l-73.4-6.64q17.95-113.99 169.44-114 79.63 0.01 119.85 36.51 40.21 36.5 40.21 105.6v181.93q0 31.23 8.2 47.04 8.19 15.81 31.23 15.81 10.93 0.01 23.03-2.73v43.72q-13.28 3.12-26.93 4.69-13.67 1.56-27.33 1.56-39.05 0-56.8-20.5-17.77-20.48-20.11-64.22h-2.34q-26.94 48.42-62.66 68.52-35.73 20.1-86.87 20.1zm149.53-216.28l-76.91 1.56q-49.19 0.4-74.96 10.15-25.77 9.37-39.43 28.89-13.67 19.53-13.66 51.15 0 34.36 18.54 53.09 18.54 18.74 52.9 18.74 39.03 0 68.71-17.57 30.06-17.56 47.44-48.21 17.36-30.65 17.37-63.05z"/>
				<path id="&lt;Compound Path&gt;" fill-rule="evenodd" class="s1" d="m2378.98 437.5q0 110.48-38.85 165.73-38.85 55.24-116.53 55.23-97.61 0.01-131.18-73.39h-1.95q1.56 2.74 1.56 66.37v230.76h-70.27v-567.68q0-32.4-0.58-54.07-0.6-21.67-1.76-32.21h67.93q0.39 1.57 1.36 15.23 0.97 13.66 1.76 29.47 0.78 15.82 0.78 23.23h1.56q18.74-39.04 49.58-57.19 30.84-18.16 81.21-18.16 78.07 0.01 116.73 52.32 38.65 52.32 38.65 164.36zm-73.79 1.56q0-88.23-23.81-126.1-23.82-37.87-75.74-37.87-57.79 0-85.7 40.02-27.91 40.02-27.91 129.41 0 83.16 26.55 122.59 26.54 39.43 86.28 39.43 52.3 0 76.33-38.45 24-38.45 24-129.03z"/>
				<path id="&lt;Compound Path&gt;" class="s1" d="m2538.26 430.47v220.19h-70.27v-324.04q-0.01-22.25-0.58-46.84-0.6-24.6-1.76-51.54h66.36q0.78 17.96 1.37 32.41 0.59 14.44 0.98 25.18 0.38 10.74 0.58 17.95 0.2 7.23 0.2 10.74h1.56q11.71-38.26 25.76-59.34 13.66-19.52 31.24-27.13 17.57-7.62 43.33-7.62 14.44 0.01 28.5 3.91v64.41q-13.28-3.9-37.48-3.9-43.73 0-66.76 37.67-23.03 37.68-23.03 107.95z"/>
				<path id="&lt;Compound Path&gt;" fill-rule="evenodd" class="s1" d="m2840.43 658.46q-63.64 0.01-95.65-33.57-32.01-33.57-32.01-92.13 0-65.59 43.13-100.73 43.14-35.13 139.19-37.48l94.86-1.56v-23.03q0-51.54-21.86-73.79-21.86-22.25-68.71-22.25-47.24 0-68.71 16.01-21.48 16-25.77 51.14l-73.39-6.64q17.95-113.99 169.43-114 79.64 0.01 119.86 36.51 40.2 36.5 40.21 105.6v181.93q0 31.23 8.2 47.04 8.19 15.81 31.23 15.81 10.92 0.01 23.03-2.73v43.72q-13.28 3.12-26.94 4.69-13.67 1.56-27.32 1.56-39.05 0-56.8-20.5-17.78-20.48-20.11-64.22h-2.35q-26.94 48.42-62.65 68.52-35.74 20.1-86.87 20.1zm149.52-216.28l-76.9 1.56q-49.2 0.4-74.96 10.15-25.77 9.37-39.43 28.89-13.67 19.53-13.67 51.15 0 34.36 18.54 53.09 18.54 18.74 52.91 18.74 39.03 0 68.71-17.57 30.05-17.56 47.44-48.21 17.36-30.65 17.36-63.05z"/>
				<path id="&lt;Compound Path&gt;" fill-rule="evenodd" class="s1" d="m3534.56 437.5q0 110.48-38.85 165.73-38.84 55.24-116.53 55.23-48.02 0-79.83-17.37-31.83-17.37-51.73-56.02h-0.78q-0.01 7.81-0.78 22.64-0.79 14.84-1.56 27.53-0.79 12.69-1.57 15.42h-67.93q1.17-10.54 1.76-32.22 0.58-21.65 0.59-54.84v-544.84h70.27v217.68q0 12.5-0.39 27.52-0.4 15.04-1.17 32.21h1.56q19.51-40.6 51.73-58.17 32.2-17.57 79.83-17.57 80.03 0 117.71 53.88 37.67 53.88 37.67 163.19zm-73.78 2.34q0-88.62-23.43-126.88-23.42-38.26-76.12-38.26-59.35 0-86.48 40.6-27.14 40.61-27.13 128.83 0 83.17 26.55 122.78 26.54 39.63 86.27 39.63 53.09 0 76.71-39.23 23.63-39.24 23.63-127.47z"/>
				<path id="&lt;Compound Path&gt;" class="s1" d="m3691.89 300.47q22.64-41.38 54.47-60.71 31.81-19.33 80.61-19.33 68.71 0 101.32 35.73 32.58 35.72 32.59 113.02v281.48h-70.66v-267.82q0-57.39-20.11-82.76-20.11-25.38-66.95-25.38-49.59 0-79.44 34.36-29.88 34.35-29.87 92.52v249.08h-70.28v-631.9h70.28v203.24"/>
				<path id="&lt;Compound Path&gt;" fill-rule="evenodd" class="s1" d="m4174.43 658.46q-63.64 0.01-95.65-33.57-32.01-33.57-32.01-92.13 0-65.59 43.13-100.73 43.14-35.13 139.19-37.48l94.86-1.56v-23.03q0-51.54-21.86-73.79-21.86-22.25-68.71-22.25-47.24 0-68.71 16.01-21.48 16-25.77 51.14l-73.39-6.64q17.95-113.99 169.43-114 79.64 0.01 119.86 36.51 40.2 36.5 40.21 105.6v181.93q0 31.23 8.2 47.04 8.19 15.81 31.23 15.81 10.92 0.01 23.03-2.73v43.72q-13.28 3.12-26.94 4.69-13.67 1.56-27.32 1.56-39.05 0-56.8-20.5-17.78-20.48-20.11-64.22h-2.35q-26.94 48.42-62.65 68.52-35.74 20.1-86.87 20.1zm149.52-216.28l-76.9 1.56q-49.2 0.4-74.96 10.15-25.77 9.37-39.43 28.89-13.67 19.53-13.67 51.15 0 34.36 18.54 53.09 18.54 18.74 52.91 18.74 39.03 0 68.71-17.57 30.05-17.56 47.44-48.21 17.36-30.65 17.36-63.05z"/>
				<path id="&lt;Compound Path&gt;" fill-rule="evenodd" class="s1" d="m4619.1 658.46q-63.64 0.01-95.65-33.57-32.02-33.57-32.01-92.13 0-65.59 43.13-100.73 43.14-35.13 139.18-37.48l94.87-1.56v-23.03q0-51.54-21.86-73.79-21.87-22.25-68.71-22.25-47.25 0-68.71 16.01-21.48 16-25.77 51.14l-73.39-6.64q17.95-113.99 169.43-114 79.64 0.01 119.85 36.51 40.21 36.5 40.21 105.6v181.93q0 31.23 8.2 47.04 8.2 15.81 31.23 15.81 10.93 0.01 23.04-2.73v43.72q-13.28 3.12-26.94 4.69-13.67 1.56-27.33 1.56-39.04 0-56.8-20.5-17.77-20.48-20.11-64.22h-2.34q-26.94 48.42-62.65 68.52-35.74 20.1-86.87 20.1zm149.52-216.28l-76.91 1.56q-49.19 0.4-74.96 10.15-25.77 9.37-39.43 28.89-13.66 19.53-13.66 51.15 0 34.36 18.54 53.09 18.54 18.74 52.9 18.74 39.04 0 68.71-17.57 30.06-17.56 47.44-48.21 17.36-30.65 17.37-63.05z"/>
				<text id="BE PROUD...
" transform="translate(3674.2,892.9)">
					<tspan x="0" y="0" class="t2" dx="0 19 19 19 19 19 19 19 19 19 19 19" >BE PROUD...
</tspan>
				</text>
			</g>
		</g>
	</g>
</svg>