<?xml version="1.0" encoding="UTF-8"?>
<svg id="Layer_1" xmlns="http://www.w3.org/2000/svg" version="1.1" viewBox="0 0 4916.2 888.4">
  <!-- Generator: Adobe Illustrator 29.2.1, SVG Export Plug-In . SVG Version: 2.1.0 Build 116)  -->
  <defs>
    <style>
      .st0 {
        fill: #fff;
      }

      .st1 {
        fill: none;
      }

      .st2 {
        fill: #b08f60;
      }
    </style>
  </defs>
  <polygon class="st2" points="3583.3 84.8 3522.7 152.7 3287.2 152.7 3347.9 84.8 3583.3 84.8"/>
  <polygon class="st2" points="4863.2 84.8 4823.2 152.7 3733.5 152.7 3794.2 84.8 4863.2 84.8"/>
  <path class="st0" d="M17.4,648.5l118.2-145.5c6.4,29.3,23.7,44,43.7,57.7,20,13.6,47.9,20.5,83.5,20.5s66-7.1,83.7-21.2c17.7-14.2,26.5-35.4,26.5-63.7s-6.1-39.1-18.4-52.6c-12.2-13.5-32-24.6-59.3-33.4-32.3-10.4-58-19-77-25.8-19.1-6.7-33.8-12.6-44-17.4-10.3-4.9-18.5-9.5-24.6-13.9-18.4-12.8-32.7-28.5-43-47-10.3-18.5-15.4-41.3-15.4-68.3,0-49.9,14.7-87.9,44-114,29.4-26.1,72.1-39.2,128.4-39.2h226.6l-119.8,144.1c-4.2-24.3-15.4-42.9-33.6-55.9-18.2-13-42.7-19.5-73.3-19.5s-59,6.2-75.1,18.7c-16.1,12.5-24.2,31.3-24.2,56.6s4.6,33.8,13.8,45.8c9.2,12,26.7,21.8,52.6,29.6,34.8,10.1,67.9,21.2,99.4,33.1,31.4,12,54,23.9,67.6,35.6,15.9,13.8,27.9,30.1,36.1,48.8,8.2,18.7,12.3,41.2,12.3,67.5,0,51.6-16.1,91.4-48.2,119.3-32.2,28-77.2,42-135,42s-7.5,0-13.9-.2"/>
  <path class="st0" d="M618,650.4c-42.4,0-74.3-11.2-95.6-33.6-21.3-22.4-32-53.1-32-92.1s14.4-77.3,43.1-100.7c28.8-23.4,75.2-35.9,139.2-37.5l94.9-1.6v-23c0-34.4-7.3-59-21.9-73.8-14.6-14.8-37.5-22.3-68.7-22.3s-54.4,5.3-68.7,16c-14.3,10.7-22.9,27.7-25.8,51.1l-73.4-6.6c12-76,68.4-114,169.4-114s93,12.2,119.9,36.5c26.8,24.3,40.2,59.5,40.2,105.6v181.9c0,20.8,2.7,36.5,8.2,47,5.5,10.5,15.9,15.8,31.2,15.8s15-.9,23-2.7v43.7c-8.9,2.1-17.8,3.6-26.9,4.7-9.1,1-18.2,1.6-27.3,1.6-26,0-45-6.8-56.8-20.5-11.9-13.7-18.5-35.1-20.1-64.2h-2.3c-18,32.3-38.8,55.1-62.7,68.5-23.8,13.4-52.8,20.1-86.9,20.1M767.5,434.1l-76.9,1.6c-32.8.3-57.8,3.6-75,10.2-17.2,6.2-30.3,15.9-39.4,28.9-9.1,13-13.7,30.1-13.7,51.1s6.2,40.6,18.5,53.1,30,18.7,52.9,18.7,48.9-5.9,68.7-17.6c20-11.7,35.9-27.8,47.4-48.2,11.6-20.4,17.4-41.4,17.4-63.1v-34.7Z"/>
  <path class="st0" d="M1131.2,637.4c-27.9,7.6-56.8,11.4-86.7,11.4s-60-9.8-77.1-29.3c-17.1-19.5-25.7-48.7-25.7-87.4V145.8l-59.5-25.5v-11.4l62.9-17,25.2-81.2h57.1v81.2l95.2,17v11.4l-95.2,25.5v367.8c0,24.8,4.1,42.2,12.1,52.1,8.1,10,22.1,15,42.2,15s27.3-2.2,49.5-6.7v63.3Z"/>
  <path class="st2" d="M596.8,87.1h0s-78.1-.2-78.1-.2c-34,42.5-54.6,69.8-86.2,104.7l-32.9,39.9c68-42.5,85.1-75.9,187.1-76.6,3.4,0,6.7,0,10.1,0h0c0,0,2479-2.2,2479-2.2l60.6-67.9-2539.7,2.3Z"/>
  <path class="st0" d="M1183.1,872.9c-18.7,0-34.9-1.4-48.4-4.3v-52.7c9.9,1.6,20.8,2.3,32.8,2.3,21.9,0,42.1-8.1,60.7-24.4,18.6-16.3,58.4-110.2,72.9-153.2l-167.5-420.5h75l89,233.5c6.5,16.7,13.5,35.5,20.9,56.6,7.4,21.1,13.2,39.7,17.4,55.8,6.5-18.5,13.1-36.8,19.7-55,6.6-18.2,13.1-36.4,19.3-54.7l80.8-236.2h74.2l-162.4,422.4c-8.9,22.4-40.5,106.3-48.5,123.1-8.1,16.8-15.9,30.6-23.4,41.6-15.1,22.1-31.8,38.6-50.2,49.4-18.4,10.8-39.1,16.2-62.3,16.2"/>
  <path class="st0" d="M1684.5,650.4c-42.4,0-74.3-11.2-95.6-33.6-21.3-22.4-32-53.1-32-92.1s14.4-77.3,43.1-100.7c28.8-23.4,75.2-35.9,139.2-37.5l94.9-1.6v-23c0-34.4-7.3-59-21.9-73.8-14.6-14.8-37.5-22.3-68.7-22.3s-54.4,5.3-68.7,16c-14.3,10.7-22.9,27.7-25.8,51.1l-73.4-6.6c12-76,68.4-114,169.4-114s93,12.2,119.9,36.5c26.8,24.3,40.2,59.5,40.2,105.6v181.9c0,20.8,2.7,36.5,8.2,47,5.5,10.5,15.9,15.8,31.2,15.8s15-.9,23-2.7v43.7c-8.9,2.1-17.8,3.6-26.9,4.7-9.1,1-18.2,1.6-27.3,1.6-26,0-45-6.8-56.8-20.5-11.9-13.7-18.5-35.1-20.1-64.2h-2.3c-18,32.3-38.8,55.1-62.7,68.5-23.8,13.4-52.8,20.1-86.9,20.1M1834.1,434.1l-76.9,1.6c-32.8.3-57.8,3.6-75,10.2-17.2,6.2-30.3,15.9-39.4,28.9-9.1,13-13.7,30.1-13.7,51.1s6.2,40.6,18.5,53.1c12.4,12.5,30,18.7,52.9,18.7s48.9-5.9,68.7-17.6c20-11.7,35.9-27.8,47.4-48.2,11.6-20.4,17.4-41.4,17.4-63.1v-34.7Z"/>
  <path class="st0" d="M2378.7,429.4c0,73.7-12.9,128.9-38.8,165.7-25.9,36.8-64.7,55.2-116.5,55.2s-108.8-24.5-131.2-73.4h-2c1,1.8,1.6,23.9,1.6,66.4v230.8h-70.3V306.5c0-21.6-.2-39.6-.6-54.1-.4-14.4-1-25.2-1.8-32.2h67.9c.3,1,.7,6.1,1.4,15.2.6,9.1,1.2,18.9,1.8,29.5.5,10.5.8,18.3.8,23.2h1.6c12.5-26,29-45.1,49.6-57.2,20.6-12.1,47.6-18.2,81.2-18.2,52,0,91,17.4,116.7,52.3,25.8,34.9,38.6,89.7,38.6,164.4M2304.9,431c0-58.8-7.9-100.9-23.8-126.1-15.9-25.2-41.1-37.9-75.7-37.9s-67.1,13.3-85.7,40c-18.6,26.7-27.9,69.8-27.9,129.4s8.8,96.3,26.5,122.6c17.7,26.3,46.5,39.4,86.3,39.4s60.3-12.8,76.3-38.4c16-25.6,24-68.6,24-129"/>
  <path class="st0" d="M2538,422.4v220.2h-70.3v-324c0-14.8-.2-30.5-.6-46.8-.4-16.4-1-33.6-1.8-51.5h66.4c.5,12,1,22.8,1.4,32.4.4,9.6.7,18,1,25.2.3,7.2.4,13.1.6,18,.1,4.8.2,8.4.2,10.7h1.6c7.8-25.5,16.4-45.3,25.8-59.3,9.1-13,19.5-22.1,31.2-27.1,11.7-5.1,26.2-7.6,43.3-7.6s19.1,1.3,28.5,3.9v64.4c-8.9-2.6-21.3-3.9-37.5-3.9-29.2,0-51.4,12.6-66.8,37.7-15.4,25.1-23,61.1-23,107.9"/>
  <path class="st0" d="M2840.1,650.4c-42.4,0-74.3-11.2-95.6-33.6-21.3-22.4-32-53.1-32-92.1s14.4-77.3,43.1-100.7c28.8-23.4,75.2-35.9,139.2-37.5l94.9-1.6v-23c0-34.4-7.3-59-21.9-73.8-14.6-14.8-37.5-22.3-68.7-22.3s-54.4,5.3-68.7,16c-14.3,10.7-22.9,27.7-25.8,51.1l-73.4-6.6c12-76,68.4-114,169.4-114s93,12.2,119.9,36.5c26.8,24.3,40.2,59.5,40.2,105.6v181.9c0,20.8,2.7,36.5,8.2,47,5.5,10.5,15.9,15.8,31.2,15.8s15-.9,23-2.7v43.7c-8.9,2.1-17.8,3.6-26.9,4.7-9.1,1-18.2,1.6-27.3,1.6-26,0-45-6.8-56.8-20.5-11.9-13.7-18.5-35.1-20.1-64.2h-2.3c-18,32.3-38.8,55.1-62.7,68.5-23.8,13.4-52.8,20.1-86.9,20.1M2989.7,434.1l-76.9,1.6c-32.8.3-57.8,3.6-75,10.2-17.2,6.2-30.3,15.9-39.4,28.9-9.1,13-13.7,30.1-13.7,51.1s6.2,40.6,18.5,53.1c12.4,12.5,30,18.7,52.9,18.7s48.9-5.9,68.7-17.6c20-11.7,35.9-27.8,47.4-48.2,11.6-20.4,17.4-41.4,17.4-63.1v-34.7Z"/>
  <path class="st0" d="M3460.5,431.8c0-59.1-7.8-101.4-23.4-126.9-15.6-25.5-41-38.3-76.1-38.3s-68.4,13.5-86.5,40.6c-18.1,27.1-27.1,70-27.1,128.8s8.8,96.4,26.5,122.8c17.7,26.4,46.5,39.6,86.3,39.6s61-13.1,76.7-39.2c15.7-26.2,23.6-68.6,23.6-127.5M3534.3,429.4c0,73.7-13,128.9-38.8,165.7-25.9,36.8-64.7,55.2-116.5,55.2s-58.6-5.8-79.8-17.4c-21.2-11.6-38.5-30.3-51.7-56h-.8c0,5.2-.3,12.8-.8,22.6-.5,9.9-1,19.1-1.6,27.5-.5,8.5-1,13.6-1.6,15.4h-67.9c.8-7,1.4-17.8,1.8-32.2.4-14.4.6-32.7.6-54.8V10.7h70.3v217.7c0,8.3-.1,17.5-.4,27.5-.3,10-.7,20.8-1.2,32.2h1.6c13-27.1,30.3-46.5,51.7-58.2,21.5-11.7,48.1-17.6,79.8-17.6,53.4,0,92.6,18,117.7,53.9,25.1,35.9,37.7,90.3,37.7,163.2"/>
  <path class="st0" d="M3691.6,292.4c15.1-27.6,33.2-47.8,54.5-60.7,21.2-12.9,48.1-19.3,80.6-19.3s79.6,11.9,101.3,35.7c21.7,23.8,32.6,61.5,32.6,113v281.5h-70.7v-267.8c0-38.3-6.7-65.8-20.1-82.8-13.4-16.9-35.7-25.4-67-25.4s-59.5,11.5-79.4,34.4c-19.9,22.9-29.9,53.7-29.9,92.5v249.1h-70.3V10.7h70.3v203.2"/>
  <path class="st0" d="M4174.1,650.4c-42.4,0-74.3-11.2-95.6-33.6-21.3-22.4-32-53.1-32-92.1s14.4-77.3,43.1-100.7c28.8-23.4,75.2-35.9,139.2-37.5l94.9-1.6v-23c0-34.4-7.3-59-21.9-73.8-14.6-14.8-37.5-22.3-68.7-22.3s-54.4,5.3-68.7,16c-14.3,10.7-22.9,27.7-25.8,51.1l-73.4-6.6c12-76,68.4-114,169.4-114s93,12.2,119.9,36.5c26.8,24.3,40.2,59.5,40.2,105.6v181.9c0,20.8,2.7,36.5,8.2,47,5.5,10.5,15.9,15.8,31.2,15.8s15-.9,23-2.7v43.7c-8.9,2.1-17.8,3.6-26.9,4.7-9.1,1-18.2,1.6-27.3,1.6-26,0-45-6.8-56.8-20.5-11.9-13.7-18.5-35.1-20.1-64.2h-2.3c-18,32.3-38.8,55.1-62.7,68.5-23.8,13.4-52.8,20.1-86.9,20.1M4323.7,434.1l-76.9,1.6c-32.8.3-57.8,3.6-75,10.2-17.2,6.2-30.3,15.9-39.4,28.9-9.1,13-13.7,30.1-13.7,51.1s6.2,40.6,18.5,53.1c12.4,12.5,30,18.7,52.9,18.7s48.9-5.9,68.7-17.6c20-11.7,35.9-27.8,47.4-48.2,11.6-20.4,17.4-41.4,17.4-63.1v-34.7Z"/>
  <path class="st0" d="M4618.8,650.4c-42.4,0-74.3-11.2-95.6-33.6-21.3-22.4-32-53.1-32-92.1s14.4-77.3,43.1-100.7,75.2-35.9,139.2-37.5l94.9-1.6v-23c0-34.4-7.3-59-21.9-73.8-14.6-14.8-37.5-22.3-68.7-22.3s-54.4,5.3-68.7,16c-14.3,10.7-22.9,27.7-25.8,51.1l-73.4-6.6c12-76,68.4-114,169.4-114s93,12.2,119.9,36.5c26.8,24.3,40.2,59.5,40.2,105.6v181.9c0,20.8,2.7,36.5,8.2,47,5.5,10.5,15.9,15.8,31.2,15.8s15-.9,23-2.7v43.7c-8.9,2.1-17.8,3.6-26.9,4.7-9.1,1-18.2,1.6-27.3,1.6-26,0-45-6.8-56.8-20.5-11.9-13.7-18.5-35.1-20.1-64.2h-2.3c-18,32.3-38.8,55.1-62.7,68.5-23.8,13.4-52.8,20.1-86.9,20.1M4768.3,434.1l-76.9,1.6c-32.8.3-57.8,3.6-75,10.2-17.2,6.2-30.3,15.9-39.4,28.9-9.1,13-13.7,30.1-13.7,51.1s6.2,40.6,18.5,53.1c12.4,12.5,30,18.7,52.9,18.7s48.9-5.9,68.7-17.6c20-11.7,35.9-27.8,47.4-48.2,11.6-20.4,17.4-41.4,17.4-63.1v-34.7Z"/>
  <rect class="st1" x="-976.3" y="-2986.1" width="6912" height="6912"/>
  <g>
    <path class="st0" d="M3689.3,884.8v-134.4h33.9c9.7,0,16.8.5,21.4,1.6,4.6,1,8.6,2.8,11.8,5.1,4.2,3.1,7.4,7.1,9.7,12,2.3,5,3.4,10.4,3.4,16.4s-1.7,13.1-5,18c-3.3,4.8-8.1,8.2-14.4,10.1,7.8,1.2,14,4.8,18.5,10.7,4.5,5.9,6.7,13.4,6.7,22.4s-.9,10.6-2.8,15.5c-1.9,4.9-4.6,9.1-8.1,12.5-3.7,3.7-8.2,6.4-13.7,7.9-5.4,1.5-14.6,2.3-27.5,2.3h-34.1ZM3710.7,807.2h8.4c10.4,0,17.8-1.4,22.1-4.3,4.3-2.8,6.5-7.6,6.5-14.4s-2-12.5-6-15.5c-4-3-11.5-4.5-22.6-4.5h-8.4v38.6ZM3710.7,866.6h7.5c7.7,0,13.4-.3,17.2-.9,3.8-.6,6.8-1.7,9-3.2,2.7-1.8,4.8-4.2,6.2-7.2,1.5-3,2.2-6.3,2.2-9.9s-.9-8-2.7-11.2c-1.8-3.2-4.3-5.7-7.6-7.4-2.1-1-4.5-1.8-7.1-2.3-2.7-.5-6.2-.7-10.6-.7h-14.1v42.9Z"/>
    <path class="st0" d="M3816.2,884.8v-134.4h75v18.5h-53.2v33.7h53.2v19.2h-53.2v43.4h53.2v19.6h-75Z"/>
    <path class="st0" d="M4031,824.5v60.3h-20.5v-134.4h33.1c9.8,0,17,.5,21.6,1.6,4.6,1.1,8.6,2.8,12.1,5.3,4.2,3.1,7.5,7.3,9.9,12.6,2.4,5.3,3.6,11.1,3.6,17.5s-1.2,12.2-3.6,17.6c-2.4,5.4-5.7,9.6-9.9,12.7-3.4,2.4-7.5,4.2-12.1,5.2-4.6,1-11.8,1.6-21.6,1.6h-12.6ZM4032.3,806.6h5.6c12.1,0,20.2-1.3,24.2-3.9,4-2.6,6.1-7.3,6.1-14s-2.2-12.2-6.5-15.2c-4.3-2.9-12.3-4.4-23.8-4.4h-5.6v37.5Z"/>
    <path class="st0" d="M4149.7,824.7v60.1h-20.5v-134.4h30.5c8.9,0,15.9.6,20.8,1.7,4.9,1.2,9.1,3.1,12.6,5.8,4.2,3.2,7.4,7.4,9.6,12.6,2.3,5.1,3.4,10.8,3.4,16.9,0,10.8-2.6,19.2-7.8,25.3-5.2,6.1-12.9,9.7-23,11l46.3,61.2h-24.7l-44.7-60.1h-2.5ZM4151,807.7h3.9c11.6,0,19.2-1.3,23-4,3.8-2.7,5.7-7.5,5.7-14.3s-2-12.6-6.1-15.7c-4.1-3-11.6-4.5-22.6-4.5h-3.9v38.6Z"/>
    <path class="st0" d="M4390.9,817.9c0,9.5-1.8,18.6-5.4,27.1-3.6,8.5-8.8,16.1-15.7,22.8-6.9,6.7-14.7,11.8-23.4,15.3-8.7,3.5-17.8,5.3-27.4,5.3s-18.9-1.8-27.7-5.4c-8.8-3.6-16.5-8.7-23.3-15.3-6.9-6.7-12.1-14.2-15.6-22.7-3.6-8.4-5.3-17.5-5.3-27.2s1.8-18.7,5.3-27.2c3.5-8.5,8.8-16.1,15.6-22.9,6.9-6.7,14.6-11.8,23.3-15.2,8.7-3.5,17.9-5.2,27.6-5.2s18.8,1.7,27.5,5.2c8.7,3.5,16.4,8.6,23.3,15.2,6.9,6.8,12.1,14.5,15.7,23,3.6,8.5,5.4,17.6,5.4,27ZM4368.2,817.9c0-6.8-1.2-13.3-3.7-19.4-2.5-6.1-6-11.6-10.7-16.3-4.5-4.7-9.8-8.3-15.7-10.9-6-2.5-12.3-3.8-18.9-3.8s-12.9,1.3-18.9,3.8c-6,2.5-11.3,6.2-15.9,10.9-4.7,4.7-8.2,10.1-10.7,16.3-2.4,6.1-3.7,12.6-3.7,19.5s1.2,13.2,3.7,19.3c2.4,6.1,6,11.5,10.7,16.3,4.7,4.8,9.9,8.4,15.9,10.9,5.9,2.5,12.2,3.8,18.9,3.8s12.8-1.3,18.7-3.8c5.9-2.5,11.2-6.2,15.9-10.9,4.7-4.8,8.2-10.2,10.7-16.3,2.5-6.1,3.7-12.5,3.7-19.2Z"/>
    <path class="st0" d="M4434.1,750.4h21.6v81.6c0,12.1,2.8,21.2,8.4,27.3,5.6,6.1,14,9.1,25.1,9.1s19.4-3,25-9.1c5.6-6.1,8.4-15.2,8.4-27.3v-81.6h21.9v83.6c0,18.2-4.6,31.8-13.8,40.8-9.2,9-23,13.5-41.5,13.5s-32.3-4.5-41.4-13.5c-9.1-9-13.7-22.6-13.7-40.9v-83.6Z"/>
    <path class="st0" d="M4593.2,884.8v-134.4h29.5c19.2,0,32.6,1,40.4,2.9,7.8,1.9,14.6,5.2,20.5,9.7,7.8,5.9,13.7,13.6,17.7,22.9,4,9.3,6,19.9,6,31.9s-2,22.5-6,31.7c-4,9.2-9.9,16.8-17.7,22.8-5.9,4.5-12.6,7.8-20.1,9.7-7.5,1.9-19.2,2.9-35,2.9h-35.3ZM4615,865.1h18.4c10.1,0,17.7-.7,22.7-2,5-1.3,9.4-3.6,13.2-6.8,5.1-4.3,8.9-9.7,11.4-16.2,2.5-6.5,3.8-14,3.8-22.5s-1.3-16.1-3.8-22.5c-2.5-6.5-6.4-11.9-11.4-16.2-3.8-3.2-8.3-5.4-13.6-6.8-5.3-1.3-13.6-2-24.8-2h-15.8v95.1Z"/>
    <path class="st0" d="M4741,874.6c0-3.4,1.2-6.2,3.5-8.6,2.3-2.4,5.2-3.6,8.5-3.6s6.2,1.2,8.5,3.6c2.3,2.4,3.5,5.3,3.5,8.6s-1.2,6.1-3.5,8.4c-2.3,2.3-5.2,3.4-8.5,3.4s-6.2-1.1-8.5-3.4c-2.3-2.3-3.5-5.1-3.5-8.4Z"/>
    <path class="st0" d="M4816.5,874.6c0-3.4,1.2-6.2,3.5-8.6,2.3-2.4,5.2-3.6,8.5-3.6s6.2,1.2,8.5,3.6c2.3,2.4,3.5,5.3,3.5,8.6s-1.2,6.1-3.5,8.4c-2.3,2.3-5.2,3.4-8.5,3.4s-6.2-1.1-8.5-3.4c-2.3-2.3-3.5-5.1-3.5-8.4Z"/>
    <path class="st0" d="M4892.1,874.6c0-3.4,1.2-6.2,3.5-8.6,2.3-2.4,5.2-3.6,8.5-3.6s6.2,1.2,8.5,3.6c2.3,2.4,3.5,5.3,3.5,8.6s-1.2,6.1-3.5,8.4c-2.3,2.3-5.2,3.4-8.5,3.4s-6.2-1.1-8.5-3.4c-2.3-2.3-3.5-5.1-3.5-8.4Z"/>
  </g>
</svg>