<?xml version="1.0" encoding="UTF-8"?>
<svg id="Layer_1" xmlns="http://www.w3.org/2000/svg" version="1.1" xmlns:xlink="http://www.w3.org/1999/xlink" viewBox="0 0 1719 1851">
  <!-- Generator: Adobe Illustrator 29.2.1, SVG Export Plug-In . SVG Version: 2.1.0 Build 116)  -->
  <defs>
    <style>
      .st0 {
        fill: none;
      }

      .st1 {
        fill: #c7b299;
      }

      .st2 {
        clip-path: url(#clippath);
      }
    </style>
    <clipPath id="clippath">
      <rect class="st0" width="1719" height="1851"/>
    </clipPath>
  </defs>
  <g class="st2">
    <path class="st1" d="M1103.6,1142.7l-531.3-4.7c-256.8,0-464.9-208.1-464.9-464.9V146.5h464.9c0,498.1-22.3,569.7,33.2,740.1,71.2,218.2,498.1,256.2,498.1,256.2"/>
    <path class="st1" d="M107.4,1636.1v-366.9c0-54.1,43.9-98,98-98h893.5v464.9H107.4Z"/>
    <path class="st1" d="M1597,146.5v366.9c0,54.1-43.9,98-98,98h-893.5V146.5h991.5Z"/>
    <path class="st1" d="M605.5,644.6h517.1c256.8,0,464.9,208.1,464.9,464.9v526.6h-464.9c0-498.1,14.2-559.8-33.2-740.1-66.5-252.7-483.9-251.4-483.9-251.4"/>
  </g>
</svg>