<?xml version="1.0" encoding="UTF-8"?>
<svg xmlns="http://www.w3.org/2000/svg" xmlns:xlink="http://www.w3.org/1999/xlink" version="1.1" id="Capa_1" x="0px" y="0px" viewBox="0 0 512 512" style="enable-background:new 0 0 512 512;" xml:space="preserve" width="512" height="512">
<g>
	<g>
		<path style="fill:#FE76A8;" d="M290.607,59.861h-69.214c-18.001,0-32.593,14.592-32.593,32.593v66.916h134.4V92.454&#10;&#9;&#9;&#9;C323.2,74.453,308.607,59.861,290.607,59.861z"/>
		<path style="fill:#FE5694;" d="M256.59,59.86c-18,0-32.59,14.59-32.59,32.59v66.92h-35.2V92.45c0-18,14.59-32.59,32.59-32.59&#10;&#9;&#9;&#9;H256.59z"/>
		<path style="fill:none;stroke:#000000;stroke-width:15;stroke-linecap:round;stroke-linejoin:round;stroke-miterlimit:10;" d="&#10;&#9;&#9;&#9;M188.8,138.64V92.45c0-16.95,12.94-30.88,29.49-32.44"/>
		<path style="fill:none;stroke:#000000;stroke-width:15;stroke-linecap:round;stroke-linejoin:round;stroke-miterlimit:10;" d="&#10;&#9;&#9;&#9;M293.71,60.01c16.55,1.56,29.49,15.49,29.49,32.44v46.19"/>
		<path style="fill:#FFDFCF;" d="M295.79,47.29c0,21.98-17.81,39.8-39.79,39.8c-21.98,0-39.79-17.82-39.79-39.8&#10;&#9;&#9;&#9;c0-5.25,1.02-10.26,2.87-14.85c16.188,6.634,20.19,2.978,36.92,2.978c16.73,0,18.518,4.8,36.92-2.978&#10;&#9;&#9;&#9;C294.77,37.03,295.79,42.04,295.79,47.29z"/>
		<path style="fill:#7A6D79;" d="M292.92,32.44c-5.88,14.63-20.19,24.95-36.92,24.95c-16.73,0-31.04-10.32-36.92-24.95&#10;&#9;&#9;&#9;C224.96,17.82,239.27,7.5,256,7.5C272.73,7.5,287.04,17.82,292.92,32.44z"/>
		
			<circle style="fill:none;stroke:#000000;stroke-width:15;stroke-linecap:round;stroke-linejoin:round;stroke-miterlimit:10;" cx="256" cy="47.294" r="39.794"/>
		<path style="fill:none;stroke:#000000;stroke-width:15;stroke-linecap:round;stroke-linejoin:round;stroke-miterlimit:10;" d="&#10;&#9;&#9;&#9;M219.08,32.44c5.88,14.63,20.19,24.95,36.92,24.95s31.04-10.32,36.92-24.95"/>
	</g>
	<path style="fill:#8AC9FE;" d="M290.607,452.139h-69.214c-18.001,0-32.593-14.592-32.593-32.593V352.63h134.4v66.916&#10;&#9;&#9;C323.2,437.547,308.607,452.139,290.607,452.139z"/>
	<path style="fill:#60B7FF;" d="M256.59,452.14c-18,0-32.59-14.59-32.59-32.59v-66.92h-35.2v66.92c0,18,14.59,32.59,32.59,32.59&#10;&#9;&#9;H256.59z"/>
	<path style="fill:none;stroke:#000000;stroke-width:15;stroke-linecap:round;stroke-linejoin:round;stroke-miterlimit:10;" d="&#10;&#9;&#9;M323.2,373.36v46.19c0,16.95-12.94,30.88-29.49,32.44"/>
	<path style="fill:#FFDFCF;" d="M295.79,464.71c0-21.98-17.81-39.8-39.79-39.8c-21.98,0-39.79,17.82-39.79,39.8&#10;&#9;&#9;c0,5.25,1.02,10.26,2.87,14.85c16.188-6.634,20.19-2.978,36.92-2.978c16.73,0,18.518-4.8,36.92,2.978&#10;&#9;&#9;C294.77,474.97,295.79,469.96,295.79,464.71z"/>
	<path style="fill:#7A6D79;" d="M292.92,479.56c-5.88-14.63-20.19-24.95-36.92-24.95c-16.73,0-31.04,10.32-36.92,24.95&#10;&#9;&#9;c5.88,14.62,20.19,24.94,36.92,24.94C272.73,504.5,287.04,494.18,292.92,479.56z"/>
	
		<circle style="fill:none;stroke:#000000;stroke-width:15;stroke-linecap:round;stroke-linejoin:round;stroke-miterlimit:10;" cx="256" cy="464.706" r="39.794"/>
	<path style="fill:none;stroke:#000000;stroke-width:15;stroke-linecap:round;stroke-linejoin:round;stroke-miterlimit:10;" d="&#10;&#9;&#9;M292.92,479.56c-5.88-14.63-20.19-24.95-36.92-24.95s-31.04,10.32-36.92,24.95"/>
	<g>
		<g>
			<path style="fill:#8AC9FE;" d="M103.442,127.96l-34.607,59.941c-9,15.589-3.659,35.523,11.93,44.523l57.951,33.458l67.2-116.394&#10;&#9;&#9;&#9;&#9;l-57.951-33.458C132.376,107.03,112.442,112.371,103.442,127.96z"/>
			<path style="fill:#60B7FF;" d="M86.433,157.419c-9,15.588-3.66,35.519,11.929,44.519l57.954,33.46l-17.6,30.484l-57.954-33.46&#10;&#9;&#9;&#9;&#9;c-15.588-9-20.929-28.93-11.929-44.519L86.433,157.419z"/>
			<path style="fill:none;stroke:#000000;stroke-width:15;stroke-linecap:round;stroke-linejoin:round;stroke-miterlimit:10;" d="&#10;&#9;&#9;&#9;&#9;M120.763,255.517l-40.002-23.095c-14.679-8.475-20.273-26.646-13.349-41.759"/>
			<path style="fill:none;stroke:#000000;stroke-width:15;stroke-linecap:round;stroke-linejoin:round;stroke-miterlimit:10;" d="&#10;&#9;&#9;&#9;&#9;M105.123,125.347c9.626-13.553,28.16-17.794,42.839-9.319l40.002,23.095"/>
			<path style="fill:#AE6C6C;" d="M95.147,117.186c19.035,10.99,25.563,35.324,14.573,54.359&#10;&#9;&#9;&#9;&#9;c-10.99,19.035-35.328,25.549-54.363,14.559c-4.547-2.625-8.375-6.013-11.425-9.91c13.839-10.703,12.674-15.996,21.039-30.485&#10;&#9;&#9;&#9;&#9;c8.365-14.489,13.416-13.637,15.881-33.463C85.751,112.939,90.6,114.561,95.147,117.186z"/>
			<path style="fill:#7A6D79;" d="M80.851,112.246c9.73,12.407,11.512,29.96,3.147,44.449&#10;&#9;&#9;&#9;&#9;c-8.365,14.489-24.457,21.721-40.067,19.499c-9.721-12.402-11.504-29.955-3.139-44.444&#10;&#9;&#9;&#9;&#9;C49.158,117.261,65.25,110.029,80.851,112.246z"/>
			
				<circle style="fill:none;stroke:#000000;stroke-width:15;stroke-linecap:round;stroke-linejoin:round;stroke-miterlimit:10;" cx="75.255" cy="151.647" r="39.794"/>
			<path style="fill:none;stroke:#000000;stroke-width:15;stroke-linecap:round;stroke-linejoin:round;stroke-miterlimit:10;" d="&#10;&#9;&#9;&#9;&#9;M43.931,176.194c15.61,2.223,31.702-5.01,40.067-19.499c8.365-14.489,6.583-32.041-3.147-44.449"/>
		</g>
		<g>
			<path style="fill:#9BE69D;" d="M443.165,324.099l-34.607,59.941c-9,15.589-28.934,20.93-44.523,11.93l-57.951-33.458&#10;&#9;&#9;&#9;&#9;l67.2-116.394l57.951,33.458C446.824,288.577,452.165,308.51,443.165,324.099z"/>
			<path style="fill:#6FD7A3;" d="M426.157,353.559c-9,15.588-28.93,20.929-44.519,11.929l-57.954-33.46l-17.6,30.484l57.954,33.46&#10;&#9;&#9;&#9;&#9;c15.588,9,35.519,3.66,44.519-11.929L426.157,353.559z"/>
			<path style="fill:none;stroke:#000000;stroke-width:15;stroke-linecap:round;stroke-linejoin:round;stroke-miterlimit:10;" d="&#10;&#9;&#9;&#9;&#9;M406.877,386.653c-9.626,13.553-28.16,17.794-42.839,9.319l-40.002-23.095"/>
			<path style="fill:none;stroke:#000000;stroke-width:15;stroke-linecap:round;stroke-linejoin:round;stroke-miterlimit:10;" d="&#10;&#9;&#9;&#9;&#9;M391.237,256.483l40.002,23.095c14.679,8.475,20.273,26.646,13.349,41.759"/>
			<path style="fill:#FFDFCF;" d="M456.643,325.896c-19.035-10.99-43.373-4.476-54.363,14.559&#10;&#9;&#9;&#9;&#9;c-10.99,19.035-4.462,43.369,14.573,54.359c4.547,2.625,9.395,4.247,14.295,4.939c2.349-17.336,7.516-18.974,15.881-33.462&#10;&#9;&#9;&#9;&#9;c8.365-14.489,5.102-18.437,21.039-30.485C465.019,331.909,461.19,328.521,456.643,325.896z"/>
			<path style="fill:#7A6D79;" d="M468.069,335.806c-15.61-2.223-31.702,5.01-40.067,19.499&#10;&#9;&#9;&#9;&#9;c-8.365,14.489-6.583,32.041,3.147,44.449c15.601,2.218,31.694-5.015,40.059-19.504&#10;&#9;&#9;&#9;&#9;C479.572,365.761,477.79,348.209,468.069,335.806z"/>
			
				<circle style="fill:none;stroke:#000000;stroke-width:15;stroke-linecap:round;stroke-linejoin:round;stroke-miterlimit:10;" cx="436.745" cy="360.353" r="39.794"/>
			<path style="fill:none;stroke:#000000;stroke-width:15;stroke-linecap:round;stroke-linejoin:round;stroke-miterlimit:10;" d="&#10;&#9;&#9;&#9;&#9;M468.069,335.806c-15.61-2.223-31.702,5.01-40.067,19.499c-8.365,14.489-6.583,32.041,3.147,44.449"/>
		</g>
	</g>
	<g>
		<g>
			<path style="fill:#7A6D79;" d="M68.835,324.099l34.607,59.941c9,15.589,28.934,20.93,44.523,11.93l57.951-33.458l-67.2-116.394&#10;&#9;&#9;&#9;&#9;l-57.951,33.458C65.176,288.577,59.835,308.51,68.835,324.099z"/>
			<path style="fill:#685E68;" d="M85.843,353.559c9,15.588,28.93,20.929,44.519,11.929l57.954-33.46l17.6,30.484l-57.954,33.46&#10;&#9;&#9;&#9;&#9;c-15.588,9-35.519,3.66-44.519-11.929L85.843,353.559z"/>
			<path style="fill:none;stroke:#000000;stroke-width:15;stroke-linecap:round;stroke-linejoin:round;stroke-miterlimit:10;" d="&#10;&#9;&#9;&#9;&#9;M187.963,372.877l-40.002,23.095c-14.679,8.475-33.213,4.234-42.839-9.319"/>
			<path style="fill:none;stroke:#000000;stroke-width:15;stroke-linecap:round;stroke-linejoin:round;stroke-miterlimit:10;" d="&#10;&#9;&#9;&#9;&#9;M67.413,321.337c-6.924-15.113-1.33-33.284,13.349-41.759l15.31-8.839l24.692-14.256"/>
			<path style="fill:#FFDFCF;" d="M55.357,325.896c19.035-10.99,43.373-4.476,54.363,14.559&#10;&#9;&#9;&#9;&#9;c10.99,19.035,4.462,43.369-14.573,54.359c-4.547,2.625-9.395,4.247-14.295,4.939c-2.349-17.336-7.516-18.974-15.881-33.462&#10;&#9;&#9;&#9;&#9;c-8.365-14.489-5.102-18.437-21.039-30.485C46.981,331.909,50.81,328.521,55.357,325.896z"/>
			<path style="fill:#7A6D79;" d="M43.931,335.806c15.61-2.223,31.702,5.01,40.067,19.499c8.365,14.489,6.583,32.041-3.147,44.449&#10;&#9;&#9;&#9;&#9;c-15.601,2.218-31.694-5.015-40.059-19.504C32.428,365.761,34.21,348.209,43.931,335.806z"/>
			
				<circle style="fill:none;stroke:#000000;stroke-width:15;stroke-linecap:round;stroke-linejoin:round;stroke-miterlimit:10;" cx="75.255" cy="360.353" r="39.794"/>
			<path style="fill:none;stroke:#000000;stroke-width:15;stroke-linecap:round;stroke-linejoin:round;stroke-miterlimit:10;" d="&#10;&#9;&#9;&#9;&#9;M80.851,399.754c9.73-12.407,11.512-29.96,3.147-44.449c-8.365-14.489-24.457-21.721-40.067-19.499"/>
		</g>
		<g>
			<path style="fill:#FFE177;" d="M408.558,127.96l34.607,59.941c9,15.589,3.659,35.523-11.93,44.523l-57.951,33.458l-67.2-116.394&#10;&#9;&#9;&#9;&#9;l57.951-33.458C379.624,107.03,399.558,112.371,408.558,127.96z"/>
			<path style="fill:#FECE85;" d="M425.567,157.419c9,15.588,3.66,35.519-11.929,44.519l-57.954,33.46l17.6,30.484l57.954-33.46&#10;&#9;&#9;&#9;&#9;c15.588-9,20.929-28.93,11.929-44.519L425.567,157.419z"/>
			<path style="fill:none;stroke:#000000;stroke-width:15;stroke-linecap:round;stroke-linejoin:round;stroke-miterlimit:10;" d="&#10;&#9;&#9;&#9;&#9;M444.587,190.663c6.924,15.113,1.33,33.284-13.349,41.759l-40.002,23.095"/>
			<path style="fill:none;stroke:#000000;stroke-width:15;stroke-linecap:round;stroke-linejoin:round;stroke-miterlimit:10;" d="&#10;&#9;&#9;&#9;&#9;M324.037,139.123l26.81-15.479l13.192-7.616c14.679-8.475,33.213-4.234,42.839,9.319"/>
			<path style="fill:#AE6C6C;" d="M416.853,117.186c-19.035,10.99-25.563,35.324-14.573,54.359&#10;&#9;&#9;&#9;&#9;c10.99,19.035,35.328,25.549,54.363,14.559c4.547-2.625,8.375-6.013,11.425-9.91c-13.839-10.703-12.674-15.996-21.039-30.485&#10;&#9;&#9;&#9;&#9;c-8.365-14.489-13.416-13.637-15.881-33.463C426.249,112.939,421.4,114.561,416.853,117.186z"/>
			<path style="fill:#7A6D79;" d="M431.149,112.246c-9.73,12.407-11.512,29.96-3.147,44.449&#10;&#9;&#9;&#9;&#9;c8.365,14.489,24.457,21.721,40.067,19.499c9.721-12.402,11.504-29.955,3.139-44.444&#10;&#9;&#9;&#9;&#9;C462.842,117.261,446.75,110.029,431.149,112.246z"/>
			<path style="fill:none;stroke:#000000;stroke-width:15;stroke-linecap:round;stroke-linejoin:round;stroke-miterlimit:10;" d="&#10;&#9;&#9;&#9;&#9;M476.42,148.46c1.18,14.83-6.04,29.72-19.78,37.65c-19.03,10.99-43.37,4.47-54.36-14.57c-10.99-19.03-4.47-43.37,14.57-54.36&#10;&#9;&#9;&#9;&#9;c13.74-7.93,30.25-6.73,42.5,1.71"/>
			<path style="fill:none;stroke:#000000;stroke-width:15;stroke-linecap:round;stroke-linejoin:round;stroke-miterlimit:10;" d="&#10;&#9;&#9;&#9;&#9;M431.149,112.246c-9.73,12.407-11.512,29.96-3.147,44.449c8.365,14.489,24.457,21.721,40.067,19.499"/>
		</g>
	</g>
	<circle style="fill:#DC8758;" cx="256" cy="256" r="135.219"/>
	<path style="fill:#D8ECFE;" d="M277.191,223.46l-22.354,53.023c-1.382,3.279-5.16,4.816-8.439,3.434l-74.766-31.52&#10;&#9;&#9;c-3.279-1.382-4.816-5.16-3.434-8.439l22.354-53.023c1.382-3.279,5.16-4.816,8.439-3.434l74.766,31.52&#10;&#9;&#9;C277.036,216.403,278.573,220.182,277.191,223.46z"/>
	<path style="fill:none;stroke:#000000;stroke-width:15;stroke-linecap:round;stroke-linejoin:round;stroke-miterlimit:10;" d="&#10;&#9;&#9;M247.32,280.22c-0.31-0.07-0.62-0.17-0.92-0.3l-74.77-31.52c-3.28-1.39-4.81-5.16-3.43-8.44l22.35-53.03&#10;&#9;&#9;c1.38-3.27,5.16-4.81,8.44-3.43l72.17,30.43h0.01"/>
	<path style="fill:#F5F8F9;" d="M345.331,284.214l-52.773,22.938c-3.263,1.418-7.058-0.077-8.476-3.34l-32.344-74.414&#10;&#9;&#9;c-1.418-3.263,0.077-7.058,3.34-8.476l52.773-22.938c3.263-1.418,7.058,0.077,8.476,3.34l32.344,74.414&#10;&#9;&#9;C350.089,279.001,348.594,282.796,345.331,284.214z"/>
	<path style="fill:none;stroke:#000000;stroke-width:15;stroke-linecap:round;stroke-linejoin:round;stroke-miterlimit:10;" d="&#10;&#9;&#9;M328.94,291.33l16.39-7.12c3.26-1.41,4.76-5.21,3.34-8.47l-32.34-74.42c-1.42-3.26-5.22-4.75-8.48-3.34l-36.68,15.95h-0.01&#10;&#9;&#9;l-16.08,6.99c-3.26,1.42-4.76,5.21-3.34,8.48l10.49,24.14"/>
	<path style="fill:#F5F8F9;" d="M336.097,323.956l-52.773,22.938c-3.263,1.418-7.058-0.077-8.476-3.34l-32.344-74.414&#10;&#9;&#9;c-1.418-3.263,0.077-7.058,3.34-8.476l52.773-22.937c3.263-1.418,7.058,0.077,8.476,3.34l32.344,74.414&#10;&#9;&#9;C340.855,318.743,339.36,322.538,336.097,323.956z"/>
	<path style="fill:none;stroke:#000000;stroke-width:15;stroke-linecap:round;stroke-linejoin:round;stroke-miterlimit:10;" d="&#10;&#9;&#9;M298.21,340.42l37.89-16.46c3.26-1.42,4.76-5.22,3.34-8.48l-32.35-74.41c-1.41-3.27-5.21-4.76-8.47-3.34l-52.78,22.93&#10;&#9;&#9;c-3.26,1.42-4.75,5.22-3.34,8.48l30.43,69.99"/>
	<path style="fill:#C57A44;" d="M267.703,390.227c-3.86,0.34-7.77,0.51-11.72,0.51c-74.68,0-135.22-60.54-135.22-135.22&#10;&#9;&#9;s60.54-135.22,135.22-135.22c3.95,0,7.86,0.17,11.72,0.51c-69.19,5.93-123.5,63.98-123.5,134.71S198.513,384.297,267.703,390.227z"/>
	<path style="fill:none;stroke:#000000;stroke-width:15;stroke-linecap:round;stroke-linejoin:round;stroke-miterlimit:10;" d="&#10;&#9;&#9;M159.53,161.24c24.54-24.97,58.69-40.46,96.47-40.46c24.81,0,48.05,6.68,68.04,18.35"/>
	<path style="fill:none;stroke:#000000;stroke-width:15;stroke-linecap:round;stroke-linejoin:round;stroke-miterlimit:10;" d="&#10;&#9;&#9;M120.78,256.48c0-0.16,0-0.32,0-0.48c0-24.44,6.49-47.37,17.84-67.16"/>
	<path style="fill:none;stroke:#000000;stroke-width:15;stroke-linecap:round;stroke-linejoin:round;stroke-miterlimit:10;" d="&#10;&#9;&#9;M222.69,387.08c10.65,2.71,21.81,4.14,33.31,4.14s22.66-1.44,33.31-4.14"/>
	<path style="fill:none;stroke:#000000;stroke-width:15;stroke-linecap:round;stroke-linejoin:round;stroke-miterlimit:10;" d="&#10;&#9;&#9;M125.82,292.7c9.68,34.41,32.63,63.25,62.98,80.66"/>
	<path style="fill:none;stroke:#000000;stroke-width:15;stroke-linecap:round;stroke-linejoin:round;stroke-miterlimit:10;" d="&#10;&#9;&#9;M352.85,161.62c23.74,24.38,38.37,57.67,38.37,94.38c0,50.22-27.38,94.05-68.02,117.36"/>
	<g>
		<path style="fill:#8AC9FE;" d="M277.47,367.626l11.84,11.84v40.08h33.89v-47.82c0-4.04-1.61-7.92-4.47-10.78l-17.29-17.29&#10;&#9;&#9;&#9;l-17.038,7.235L277.47,367.626z"/>
		<path style="fill:#FFDFCF;" d="M272.93,363.086l4.54,4.54l23.97-23.97l-4.54-4.54c-3.31-3.31-7.65-4.96-11.98-4.96&#10;&#9;&#9;&#9;c-4.34,0-8.68,1.65-11.99,4.96C266.32,345.736,266.32,356.466,272.93,363.086z"/>
		
			<line style="fill:none;stroke:#000000;stroke-width:15;stroke-linecap:round;stroke-linejoin:round;stroke-miterlimit:10;" x1="301.443" y1="343.651" x2="277.473" y2="367.621"/>
		<path style="fill:none;stroke:#000000;stroke-width:15;stroke-linecap:round;stroke-linejoin:round;stroke-miterlimit:10;" d="&#10;&#9;&#9;&#9;M289.31,406.146v-26.68l-16.373-16.379c-6.615-6.618-6.616-17.345,0-23.962v0c6.618-6.621,17.35-6.622,23.97-0.003l21.829,21.829&#10;&#9;&#9;&#9;c2.859,2.859,4.464,6.736,4.464,10.778v47.816"/>
	</g>
	<g>
		<path style="fill:#FFE177;" d="M380.98,145.38l-34.71,20.04l-3.923,14.63l-13.362,5.761c-2.423,9.038-15.976,6.04-13.553-3.003&#10;&#9;&#9;&#9;l-5.825-11.538l5.915-22.076c1.046-3.905,3.601-7.234,7.102-9.255l41.41-23.908"/>
		<path style="fill:#9B5E5E;" d="M323.92,200.35c-1.45,0-2.93-0.19-4.4-0.58c-9.03-2.43-14.4-11.72-11.98-20.75l2.07-7.75&#10;&#9;&#9;&#9;l32.74,8.78l-2.07,7.74C338.25,195.36,331.41,200.35,323.92,200.35z"/>
		
			<line style="fill:none;stroke:#000000;stroke-width:15;stroke-linecap:round;stroke-linejoin:round;stroke-miterlimit:10;" x1="342.346" y1="180.049" x2="309.606" y2="171.279"/>
		<path style="fill:none;stroke:#000000;stroke-width:15;stroke-linecap:round;stroke-linejoin:round;stroke-miterlimit:10;" d="&#10;&#9;&#9;&#9;M370.125,151.647L346.27,165.42l-5.998,22.369c-2.423,9.038-11.713,14.401-20.752,11.982l0,0&#10;&#9;&#9;&#9;c-9.043-2.421-14.41-11.715-11.987-20.757l7.99-29.82c1.046-3.905,3.601-7.234,7.102-9.255l41.41-23.908"/>
	</g>
	<g>
		<path style="fill:#7A6D79;" d="M97.71,308.926l34.71-20.04l14.622,3.915c0,0,16.131-3.543,18.555-12.581l0,0&#10;&#9;&#9;&#9;c2.425-9.042-9.775-20.158-9.775-20.158l-22.081-5.917c-3.905-1.046-8.065-0.499-11.566,1.523l-41.41,23.908L97.71,308.926z"/>
		<path style="fill:#FFDFCF;" d="M176.122,278.496c0,1.45-0.19,2.93-0.58,4.4c-2.43,9.03-11.72,14.4-20.75,11.98l-7.75-2.07&#10;&#9;&#9;&#9;l8.78-32.74l7.74,2.07C171.132,264.166,176.122,271.006,176.122,278.496z"/>
		<path style="fill:none;stroke:#000000;stroke-width:15;stroke-linecap:round;stroke-linejoin:round;stroke-miterlimit:10;" d="&#10;&#9;&#9;&#9;M110.388,301.606l22.032-12.72l22.371,5.99c9.039,2.42,18.329-2.943,20.752-11.981v0c2.425-9.042-2.94-18.337-11.983-20.76&#10;&#9;&#9;&#9;l-29.82-7.99c-3.905-1.046-8.065-0.499-11.566,1.523l-41.41,23.908"/>
		
			<line style="fill:none;stroke:#000000;stroke-width:15;stroke-linecap:round;stroke-linejoin:round;stroke-miterlimit:10;" x1="155.82" y1="260.07" x2="147.05" y2="292.81"/>
	</g>
	<g>
		<path style="fill:#60B7FF;" d="M234.524,367.635l-11.84,11.84v40.08h-33.89v-47.82c0-4.04,1.61-7.92,4.47-10.78l17.29-17.29&#10;&#9;&#9;&#9;l17.038,7.235L234.524,367.635z"/>
		<path style="fill:#FFDFCF;" d="M239.064,363.095l-4.54,4.54l-23.97-23.97l4.54-4.54c3.31-3.31,7.65-4.96,11.98-4.96&#10;&#9;&#9;&#9;c4.34,0,8.68,1.65,11.99,4.96C245.674,345.745,245.674,356.475,239.064,363.095z"/>
		<path style="fill:none;stroke:#000000;stroke-width:15;stroke-linecap:round;stroke-linejoin:round;stroke-miterlimit:10;" d="&#10;&#9;&#9;&#9;M188.8,402.05v-30.32c0-4.04,1.61-7.92,4.46-10.78l21.83-21.83c3.31-3.31,7.65-4.96,11.99-4.96s8.68,1.65,11.98,4.96&#10;&#9;&#9;&#9;c6.62,6.62,6.62,17.35,0,23.97l-16.37,16.38v26.68"/>
		
			<line style="fill:none;stroke:#000000;stroke-width:15;stroke-linecap:round;stroke-linejoin:round;stroke-miterlimit:10;" x1="234.52" y1="367.63" x2="210.55" y2="343.66"/>
	</g>
	
		<line style="fill:none;stroke:#000000;stroke-width:15;stroke-linecap:round;stroke-linejoin:round;stroke-miterlimit:10;" x1="188.8" y1="402.05" x2="188.8" y2="373.36"/>
	<path style="fill:none;stroke:#000000;stroke-width:15;stroke-linecap:round;stroke-linejoin:round;stroke-miterlimit:10;" d="&#10;&#9;&#9;M193.5,436.41c5.2,8.6,14.27,14.59,24.79,15.58"/>
</g>















</svg>
