<svg id="Layer_1" enable-background="new 0 0 64 64" height="512" viewBox="0 0 64 64" width="512" xmlns="http://www.w3.org/2000/svg"><g><g><path d="m51.53 3.88c-2.32-1.23-4.9-1.88-7.53-1.88 0 0-.25 3-1.88 6-1.62 3-4.62 6-10.12 6-11 0-12-12-12-12-2.63 0-5.21.65-7.53 1.88l-11.47 6.12 4 16 8-2v5.35 5.06c1.76.78 3 2.54 3 4.59s-1.24 3.81-3 4.59v5.28 7.13h19c0-2.76 2.24-5 5-5 1.16 0 2.22.39 3.07 1.06.411-3.124 2.893-5.59 6.024-5.995.298-.038.598-.065.906-.065-.124-.163-.499-.841-.573-1.009-.266-.61-.427-1.279-.427-1.991 0-2.76 2.24-5 5-5v-14l8 2 4-16zm-18.03 15.12c0 1.109.39 2.103 1.025 2.829s1.505 1.171 2.475 1.171c-.97 0-1.84.446-2.475 1.171-.635.726-1.025 1.72-1.025 2.829 0-1.109-.39-2.103-1.025-2.829-.635-.725-1.505-1.171-2.475-1.171 1.935 0 3.5-1.789 3.5-4zm-7.036 12.757c-.907 1.089-1.464 2.58-1.464 4.243 0-1.663-.557-3.154-1.464-4.243-.907-1.088-2.15-1.757-3.536-1.757 1.386 0 2.629-.669 3.536-1.757.907-1.089 1.464-2.58 1.464-4.243 0 3.317 2.236 6 5 6-1.386 0-2.629.669-3.536 1.757zm12.506 6.213c-.42.43-.93.72-1.46.88.32.65.49 1.38.49 2.15 0 2.76-2.24 5-5 5s-5-2.24-5-5 2.24-5 5-5h.04c-.15-1.06.18-2.16.99-2.97 1.36-1.37 3.58-1.37 4.94 0 1.37 1.36 1.37 3.58 0 4.94z" fill="#f7753c"/><path d="m51.53 7.88 10.588 5.649.882-3.529-11.47-6.12c-2.32-1.23-4.9-1.88-7.53-1.88 0 0-.154 1.813-.986 4.029 2.673.135 6.471.767 8.516 1.851z" fill="#fc9972"/><path d="m12.47 7.88c2.044-1.084 5.84-1.716 8.514-1.851-.83-2.216-.984-4.029-.984-4.029-2.63 0-5.21.65-7.53 1.88l-11.47 6.12.882 3.529z" fill="#fc9972"/><path d="m33.5 27c0-1.109.39-2.103 1.025-2.829.635-.725 1.505-1.171 2.475-1.171-.97 0-1.84-.446-2.475-1.171s-1.025-1.72-1.025-2.829c0 2.211-1.565 4-3.5 4 .97 0 1.84.446 2.475 1.171.635.726 1.025 1.72 1.025 2.829z" fill="#b0e1f4"/><path d="m25 24c0 1.663-.557 3.154-1.464 4.243-.907 1.088-2.15 1.757-3.536 1.757 1.386 0 2.629.669 3.536 1.757.907 1.089 1.464 2.58 1.464 4.243 0-1.663.557-3.154 1.464-4.243.907-1.088 2.15-1.757 3.536-1.757-2.764 0-5-2.683-5-6z" fill="#83caed"/><path d="m44 2s-.25 3-1.88 6c-1.62 3-4.62 6-10.12 6-11 0-12-12-12-12s5 3 12 3 12-3 12-3z" fill="#e06027"/><path d="m13 43.59v5.28c-.32.09-.65.13-1 .13-2.21 0-4-1.79-4-4 0-.62.14-1.21.4-1.73.76.46 1.65.73 2.6.73.71 0 1.39-.15 2-.41z" fill="#b0e1f4"/><path d="m13 29.35v5.06c-.61-.26-1.29-.41-2-.41-.83 0-1.62.2-2.31.57-.44-.58-.69-1.3-.69-2.07 0-1.93 1.57-3.5 3.5-3.5.54 0 1.05.12 1.5.35z" fill="#d8effa"/><path d="m16 39c0 2.05-1.24 3.81-3 4.59-.61.26-1.29.41-2 .41-.95 0-1.84-.27-2.6-.73-1.44-.88-2.4-2.46-2.4-4.27 0-1.93 1.09-3.6 2.69-4.43.69-.37 1.48-.57 2.31-.57.71 0 1.39.15 2 .41 1.76.78 3 2.54 3 4.59z" fill="#83caed"/><path d="m37.51 38.85c.32.65.49 1.38.49 2.15 0 2.76-2.24 5-5 5s-5-2.24-5-5 2.24-5 5-5h.04c1.97.02 3.67 1.18 4.47 2.85z" fill="#83caed"/><path d="m38.97 33.03c1.37 1.36 1.37 3.58 0 4.94-.42.43-.93.72-1.46.88-.8-1.67-2.5-2.83-4.47-2.85-.15-1.06.18-2.16.99-2.97 1.36-1.37 3.58-1.37 4.94 0z" fill="#b0e1f4"/><path d="m56 43c2.29.46 4 2.58 4 5 0 2.76-2.24 5-5 5-.34 0-1 0-1 0 0-1.98-.82-3.77-2.15-5.04 2.48-.48 4.15-2.13 4.15-4.96z" fill="#d8effa"/><path d="m56 43c0 2.83-1.67 4.48-4.15 4.96-1.26-1.22-2.96-1.96-4.85-1.96-.63-.83-1-1.87-1-3 0-2.76 2.24-5 5-5s5 2.24 5 5z" fill="#b0e1f4"/><path d="m51.85 47.96c1.33 1.27 2.15 3.06 2.15 5.04 0 3.87-3.13 7-7 7-2.11 0-3.99-.93-5.26-2.4-1.09-1.23-1.74-2.83-1.74-4.6 0-.32.02-.63.07-.94.45-3.42 3.38-6.06 6.93-6.06 1.89 0 3.59.74 4.85 1.96z" fill="#83caed"/><path d="m41.74 57.6c-.67 1.98-2.54 3.4-4.74 3.4-2.76 0-5-2.24-5-5s2.24-5 5-5c1.16 0 2.22.39 3.07 1.06-.05.31-.07.62-.07.94 0 1.77.65 3.37 1.74 4.6z" fill="#b0e1f4"/><circle cx="60.5" cy="58.5" fill="#d8effa" r="2.5"/><circle cx="5" cy="54" fill="#d8effa" r="2"/><path d="m59.5 30c0 2.488 1.565 4.5 3.5 4.5-.97 0-1.84.501-2.475 1.318s-1.025 1.935-1.025 3.182c0-1.247-.39-2.366-1.025-3.182-.635-.817-1.505-1.318-2.475-1.318.97 0 1.84-.501 2.475-1.318.635-.816 1.025-1.935 1.025-3.182z" fill="#83caed"/><path d="m13 46v2.87 7.13h19c0-1.176.424-2.243 1.104-3.098-16.628-.834-20.104-6.902-20.104-6.902z" fill="#e06027"/></g><g fill="#252525"><path d="m50.32 52c-.552 0-1 .447-1 1 0 1.103-.897 2-2 2-.552 0-1 .447-1 1s.448 1 1 1c2.206 0 4-1.794 4-4 0-.553-.448-1-1-1z"/><path d="m51.01 42.29c.551 0 1 .448 1 1 0 .553.448 1 1 1s1-.447 1-1c0-1.654-1.346-3-3-3-.552 0-1 .447-1 1s.448 1 1 1z"/><path d="m37.6 56.78c-.551 0-1-.448-1-1 0-.553-.448-1-1-1s-1 .447-1 1c0 1.654 1.346 3 3 3 .552 0 1-.447 1-1s-.448-1-1-1z"/><path d="m12 39.33c0 .553.448 1 1 1s1-.447 1-1c0-1.654-1.346-3-3-3-.552 0-1 .447-1 1s.448 1 1 1c.551 0 1 .448 1 1z"/><path d="m31.58 42.29c.552 0 1-.447 1-1 0-.552.449-1 1-1 .552 0 1-.447 1-1s-.448-1-1-1c-1.654 0-3 1.346-3 3 0 .553.448 1 1 1z"/><path d="m33 47c3.309 0 6-2.691 6-6 0-.561-.074-1.103-.22-1.621.33-.195.632-.431.895-.699.853-.847 1.323-1.976 1.323-3.18s-.47-2.333-1.318-3.174c-.847-.854-1.976-1.323-3.18-1.323s-2.333.47-3.177 1.32c-.755.755-1.205 1.724-1.3 2.756-2.845.469-5.023 2.945-5.023 5.921 0 3.309 2.691 6 6 6zm0-10h.04c.29 0 .565-.126.755-.345.19-.218.276-.509.235-.795-.112-.789.146-1.563.709-2.126.938-.943 2.579-.949 3.526.006.472.468.732 1.093.732 1.76s-.26 1.292-.743 1.771c-.281.287-.638.502-1.033.62-.282.085-.512.289-.629.559s-.11.577.02.841c.258.522.388 1.097.388 1.709 0 2.206-1.794 4-4 4s-4-1.794-4-4 1.794-4 4-4z"/><path d="m61 48c0-2.635-1.668-4.933-4.053-5.758-.333-2.621-2.359-4.715-4.947-5.152v-11.81l6.757 1.689c.082.021.163.031.244.031.448 0 .855-.303.969-.758l4-16c.111-.444-.095-.908-.5-1.124l-11.472-6.122c-2.464-1.306-5.23-1.996-7.998-1.996-.256 0-.491.128-.513.142-.048.028-4.871 2.858-11.487 2.858s-11.439-2.83-11.487-2.858c-.022-.014-.243-.142-.513-.142-2.768 0-5.534.69-8 1.998l-11.47 6.12c-.405.216-.611.68-.5 1.124l4 16c.135.537.68.862 1.213.728l6.757-1.69v2.748c-.164-.018-.331-.028-.5-.028-2.481 0-4.5 2.019-4.5 4.5 0 .609.12 1.197.35 1.739-1.47 1.121-2.35 2.866-2.35 4.761 0 1.822.806 3.502 2.19 4.636-.125.438-.19.899-.19 1.364 0 2.757 2.243 5 5 5v6c0 .553.448 1 1 1h18.09c.478 2.833 2.942 5 5.91 5 2.07 0 3.939-1.07 5.027-2.753 1.398 1.121 3.144 1.753 4.973 1.753 4.072 0 7.436-3.06 7.931-7h.069c3.309 0 6-2.691 6-6zm-18.336-44.225c-.255 1.043-.691 2.401-1.424 3.75-1.962 3.633-5.071 5.475-9.24 5.475-7.507 0-9.928-6.071-10.681-9.233 2.127.93 5.946 2.233 10.681 2.233 4.723 0 8.534-1.297 10.664-2.225zm-33.664 41.225c0-.454.102-.897.294-1.282.232-.465.07-1.029-.373-1.301-1.203-.735-1.921-2.014-1.921-3.417 0-1.497.824-2.854 2.15-3.542.262-.136.45-.38.515-.668.065-.287 0-.589-.179-.824-.318-.42-.486-.927-.486-1.466 0-1.379 1.122-2.5 2.5-2.5.174 0 .339.022.5.055v4.355c0 .396.233.754.595.914 1.461.649 2.405 2.091 2.405 3.676 0 1.584-.943 3.025-2.389 3.668 0 0 0 0-.001 0s-.002.001-.003.001c-.26.11-.531.194-.806.25-.542.109-.892.637-.783 1.178.096.476.513.803.979.803h.001v3.1c-1.652 0-2.998-1.346-2.998-3zm5-.813c1.838-1.073 3-3.038 3-5.187 0-2.152-1.158-4.128-3-5.2v-12.8c0-.553-.448-1-1-1s-1 .447-1 1v2.22l-6.272 1.568-3.568-14.273 10.779-5.751c1.921-1.019 4.049-1.613 6.202-1.738.535 2.975 2.974 11.974 12.859 11.974 6.179 0 9.393-3.548 10.999-6.522 1.164-2.144 1.664-4.271 1.868-5.452 2.15.127 4.275.721 6.192 1.736l10.781 5.753-3.568 14.272-6.272-1.567v-2.22c0-.553-.448-1-1-1s-1 .447-1 1v16.09c-2.833.478-5 2.942-5 5.91 0 .753.135 1.482.398 2.162-2.799.574-5.105 2.623-5.995 5.338-.748-.33-1.56-.5-2.403-.5-2.967 0-5.431 2.167-5.91 5h-17.09zm33 14.813c-1.735 0-3.376-.749-4.512-2.064-.368-.414-.674-.874-.91-1.367-.239-.499-.836-.708-1.334-.471-.498.239-.708.836-.47 1.334.224.468.509.901.818 1.314-.663 1.363-2.046 2.254-3.592 2.254-2.206 0-4-1.794-4-4s1.794-4 4-4c.902 0 1.75.292 2.451.845.282.223.663.275.996.142.333-.136.568-.439.615-.796.389-2.96 2.942-5.191 5.938-5.191.38 0 .727-.215.896-.556.169-.34.131-.746-.099-1.049-.522-.686-.797-1.515-.797-2.395 0-2.206 1.794-4 4-4s4 1.794 4 4c-.037.944.769.974.803.98 1.822.367 3.197 2.094 3.197 4.02 0 2.206-1.794 4-4 4h-.075c-.158-1.279-.604-2.485-1.331-3.533.63-.275 1.186-.637 1.661-1.082.403-.378.423-1.011.045-1.414-.378-.402-1.012-.422-1.414-.045-.554.52-1.303.874-2.227 1.053-.367.07-.664.341-.77.699-.105.359-.002.747.269 1.005 1.188 1.133 1.842 2.667 1.842 4.317 0 3.309-2.691 6-6 6z"/><path d="m7.234 54.135c-.48-.279-1.09-.114-1.367.364-.179.309-.511.501-.867.501-.551 0-1-.448-1-1s.449-1 1-1c.552 0 1-.447 1-1s-.448-1-1-1c-1.654 0-3 1.346-3 3s1.346 3 3 3c1.067 0 2.062-.574 2.598-1.499.277-.478.113-1.09-.364-1.366z"/><path d="m59.5 35.532c-.075-.112-.153-.222-.236-.328-.855-1.099-2.014-1.704-3.264-1.704-.552 0-1 .447-1 1s.448 1 1 1c.619 0 1.218.331 1.686.933.525.674.814 1.587.814 2.567 0 .553.448 1 1 1s1-.447 1-1c0-.98.289-1.893.814-2.567.468-.602 1.067-.933 1.686-.933.552 0 1-.447 1-1s-.448-1-1-1c-1.355 0-2.5-1.603-2.5-3.5 0-.553-.448-1-1-1s-1 .447-1 1c0 1.854.754 3.497 1.908 4.494-.24.206-.465.444-.673.71-.082.107-.16.216-.235.328z"/><path d="m30 24c.643 0 1.254.295 1.723.83.501.573.777 1.344.777 2.17 0 .553.448 1 1 1s1-.447 1-1c0-.826.276-1.597.778-2.17.468-.535 1.079-.83 1.722-.83.552 0 1-.447 1-1s-.448-1-1-1c-1.228 0-2.375.537-3.228 1.514-.096.109-.187.223-.272.34-.085-.117-.176-.23-.272-.34-.165-.188-.341-.361-.527-.517 1.092-.913 1.799-2.365 1.799-3.997 0-.553-.448-1-1-1s-1 .447-1 1c0 1.654-1.122 3-2.5 3-.552 0-1 .447-1 1s.448 1 1 1z"/><path d="m30 31c.552 0 1-.447 1-1s-.448-1-1-1c-2.206 0-4-2.243-4-5 0-.553-.448-1-1-1s-1 .447-1 1c0 1.369-.438 2.649-1.232 3.603-.752.901-1.735 1.397-2.768 1.397-.552 0-1 .447-1 1s.448 1 1 1c1.033 0 2.016.496 2.768 1.396.794.955 1.232 2.235 1.232 3.604 0 .553.448 1 1 1s1-.447 1-1c0-1.369.438-2.649 1.232-3.603.752-.901 1.735-1.397 2.768-1.397zm-4.304.117c-.261.313-.493.648-.696 1.005-.203-.356-.436-.693-.696-1.006-.364-.437-.768-.81-1.202-1.116.435-.307.838-.681 1.202-1.117.262-.313.496-.652.7-1.011.492.86 1.142 1.587 1.902 2.123-.438.308-.844.683-1.21 1.122z"/><path d="m60.5 55c-.552 0-1 .447-1 1s.448 1 1 1c.827 0 1.5.673 1.5 1.5s-.673 1.5-1.5 1.5-1.5-.673-1.5-1.5c0-.553-.448-1-1-1s-1 .447-1 1c0 1.93 1.57 3.5 3.5 3.5s3.5-1.57 3.5-3.5-1.57-3.5-3.5-3.5z"/></g></g></svg>