<svg id="Layer_2" enable-background="new 0 0 60 60" viewBox="0 0 60 60" xmlns="http://www.w3.org/2000/svg"><g><g><g><path d="m36.35 43.87 15.1-3.67c1.3-.32 2.55.67 2.55 2.01 0 .72-.37 1.38-.98 1.76-3.14 1.94-13.13 7.8-19 7.8-7.04 0-21.74-1.26-21.74-1.26v-12.81s5.18-3.58 9.78-1.39c4.38 2.08 6.03 2.02 9.94 2.02h3.59c1.56 0 2.83 1.27 2.83 2.83 0 1.56-1.27 2.83-2.83 2.83h-6.6" fill="#f4d2b1"/><path d="m34.02 52.77c-7 0-21.68-1.25-21.82-1.26-.52-.04-.92-.48-.92-1v-12.81c0-.33.16-.64.43-.82.23-.16 5.72-3.88 10.78-1.47 4.05 1.93 5.57 1.93 9.18 1.92h3.92c2.11 0 3.83 1.72 3.83 3.83 0 .33-.04.66-.13.97l11.92-2.89c.92-.22 1.88-.02 2.62.57.75.58 1.17 1.46 1.17 2.41 0 1.07-.54 2.04-1.45 2.61-3.88 2.38-13.54 7.94-19.53 7.94zm-20.74-3.18c3.32.27 14.83 1.18 20.74 1.18 5.63 0 15.57-5.86 18.48-7.66.31-.19.5-.53.5-.91 0-.33-.15-.63-.41-.84-.26-.2-.59-.28-.91-.2l-14.92 3.64c-.37.12-.76.18-1.17.18h-6.6c-.55 0-1-.45-1-1s.45-1 1-1h6.6c.13 0 .26-.01.39-.04.04-.02.09-.03.13-.04l.09-.02c.71-.25 1.21-.93 1.21-1.72 0-1.01-.82-1.83-1.83-1.83h-3.92c-3.69.01-5.58 0-10.04-2.12-3.3-1.57-7.09.31-8.35 1.05v11.33z"/></g><g><path d="m6 34.87h6.28v18.03h-6.28z" fill="#544f55"/><path d="m12.28 53.9h-6.28c-.55 0-1-.45-1-1v-18.03c0-.55.45-1 1-1h6.28c.55 0 1 .45 1 1v18.03c0 .55-.45 1-1 1zm-5.28-2h4.28v-16.03h-4.28z"/></g></g><g><g><path d="m30.12 25.28-4.23-14.45 7.94 3.97 5.05-7.73 5.04 7.73 7.94-3.97-4.23 14.45z" fill="#f9d403"/><path d="m47.63 26.28h-17.51c-.44 0-.83-.29-.96-.72l-4.23-14.45c-.11-.38.01-.79.32-1.05s.73-.3 1.09-.13l7.14 3.57 4.56-6.99c.37-.56 1.31-.56 1.68 0l4.56 6.99 7.14-3.57c.36-.18.78-.13 1.09.13s.43.67.32 1.05l-4.23 14.45c-.13.43-.52.72-.97.72zm-16.76-2h16.02l3.38-11.53-5.89 2.95c-.46.23-1.01.08-1.29-.35l-4.21-6.45-4.21 6.45c-.28.42-.83.58-1.29.35l-5.89-2.95z"/></g><g><path d="m49.32 30.24h-20.89c-.55 0-1-.45-1-1s.45-1 1-1h20.88c.55 0 1 .45 1 1s-.44 1-.99 1z"/></g></g></g></svg>