<svg xmlns="http://www.w3.org/2000/svg" version="1.1" xmlns:xlink="http://www.w3.org/1999/xlink" width="512" height="512" x="0" y="0" viewBox="0 0 512 512" style="enable-background:new 0 0 512 512" xml:space="preserve" class=""><g><path d="m121.997 365.834 23.426 109.17M38.064 359.46h35.138M319.02 179.124l6.85 40c.45 2.67.68 5.37.68 8.07v34.88M326.55 327.965v-30.891M236.78 330.784h43.33M192.976 179.122l-6.844 40.008a48 48 0 0 0-.685 8.065v100.768M246.25 144.115h73.4c2.56 0 4.64 2.07 4.64 4.64v25.06c0 2.56-2.08 4.64-4.64 4.64h-47.4M211.25 144.115h-18.48c-2.56 0-4.64 2.07-4.64 4.64v25.06c0 2.56 2.08 4.64 4.64 4.64h46.1" style="stroke-width:15;stroke-linecap:round;stroke-linejoin:round;stroke-miterlimit:10" fill="none" stroke="#00a1de" stroke-width="15" stroke-linecap="round" stroke-linejoin="round" stroke-miterlimit="1" data-original="#000000" class="" opacity="1"></path><path d="M269.996 227.731 256 221.042l-13.996 6.689v-56.958a3.087 3.087 0 0 1 3.087-3.087h21.818a3.087 3.087 0 0 1 3.087 3.087zM392.299 364.954v110.05M443.344 235.175a47.26 47.26 0 0 1-23.236 2.685h0M455.495 119.666a33.86 33.86 0 0 0 14.129 27.515l8.493 6.088" style="stroke-width:15;stroke-linecap:round;stroke-linejoin:round;stroke-miterlimit:10" fill="none" stroke="#00a1de" stroke-width="15" stroke-linecap="round" stroke-linejoin="round" stroke-miterlimit="1" data-original="#000000" class="" opacity="1"></path><path d="M390.164 120.868v8.189c0 2.291-.738 4.521-2.104 6.36l-7.552 10.166c-4.488 6.041-.199 14.609 7.309 14.654 1.742.01 3.171 1.37 3.171 3.113l.001 14.064c0 10.741 9.982 18.695 20.452 16.298l19.918-3.335v14.16c0 2.787-.745 5.524-2.157 7.926l-10.741 18.279a189.8 189.8 0 0 0-26.164 96.167v0" style="stroke-width:15;stroke-linecap:round;stroke-linejoin:round;stroke-miterlimit:10" fill="none" stroke="#00a1de" stroke-width="15" stroke-linecap="round" stroke-linejoin="round" stroke-miterlimit="1" data-original="#000000" class="" opacity="1"></path><path d="M381.702 115.419v-8.789c0-25.717 20.848-46.565 46.565-46.565h17.821c25.717 0 46.565 20.848 46.565 46.565v8.033c0 12.277-4.855 25.144-12.066 35.336-2.163 3.057-3.985 6.364-5.044 9.955a44 44 0 0 0-1.208 5.258l-.548 3.437a82.58 82.58 0 0 0 6.99 48.487v0M504.43 329.615v-76.381M504.43 475.004V364.615" style="stroke-width:15;stroke-linecap:round;stroke-linejoin:round;stroke-miterlimit:10" fill="none" stroke="#00a1de" stroke-width="15" stroke-linecap="round" stroke-linejoin="round" stroke-miterlimit="1" data-original="#000000" class="" opacity="1"></path><path d="m407.201 325.897 34.333-85.833a32.03 32.03 0 0 1 11.895-14.703l1.196-.803c15.458-10.37 36.47-5.424 45.68 10.753h0a32.03 32.03 0 0 1-.773 32.98l-56.523 89.275a17.78 17.78 0 0 1-16.417 8.213l-101.196-7.977a34 34 0 0 0-10.674.849l-13.758 3.33c-14.841 3.592-29.13-7.652-29.13-22.921v0a8.276 8.276 0 0 1 8.276-8.276h140.124M424.254 291.166l41.907 22.171M431.36 190.377l12.405-2.077M26.548 283.91l11.516 75.551h0a155.4 155.4 0 0 0-26.522 73.124L7.5 475.004M136.344 119.666c.036 4.396.063 8.061.079 10.306a9.1 9.1 0 0 0 1.207 4.47l4.962 8.668a11.45 11.45 0 0 1-2.702 14.566l-4.111 3.352.118 17.377c.065 9.528-8.306 16.915-17.752 15.665l-24.972-3.608-1.095 4.496a23.13 23.13 0 0 0 6.41 22.136l14.294 13.779a61.15 61.15 0 0 1 17.87 54.131l-7.021 41.904" style="stroke-width:15;stroke-linecap:round;stroke-linejoin:round;stroke-miterlimit:10" fill="none" stroke="#00a1de" stroke-width="15" stroke-linecap="round" stroke-linejoin="round" stroke-miterlimit="1" data-original="#000000" class="" opacity="1"></path><path d="M137.36 74.015c7.66 8.01 12.39 18.85 12.47 30.8l.03 4.68c.02 3.8-3.04 6.91-6.84 6.93l-15.96.11c-5.39.04-10.5-2.41-13.85-6.64l-6.7-8.48-7.12 10.97a34.64 34.64 0 0 1-12.43 11.56 34.85 34.85 0 0 1-16.43 4.3c-5.77.04-10.41 4.75-10.37 10.51l-.01 2.64c-.02 5.65-.79 11.25-2.28 16.64a63.8 63.8 0 0 1-6.56 15.47c-12.5-3.28-24.35-15.69-24.44-28.63l-.23-33.93c-.18-27.81 22.21-50.5 50.01-50.69l27.81-.19h.72" style="stroke-width:15;stroke-linecap:round;stroke-linejoin:round;stroke-miterlimit:10" fill="none" stroke="#00a1de" stroke-width="15" stroke-linecap="round" stroke-linejoin="round" stroke-miterlimit="1" data-original="#000000" class="" opacity="1"></path><path d="M27.095 92.944c-6.152-1.301-11.614-4.612-15.274-9.823-8.517-12.125-4.054-29.94 9.969-39.791s32.296-8.009 40.814 4.116c2.129 3.031 3.448 6.418 4.008 9.947M64.975 226.45l9.731 4.565a51.43 51.43 0 0 0 38.074 2.24h0" style="stroke-width:15;stroke-linecap:round;stroke-linejoin:round;stroke-miterlimit:10" fill="none" stroke="#00a1de" stroke-width="15" stroke-linecap="round" stroke-linejoin="round" stroke-miterlimit="1" data-original="#000000" class="" opacity="1"></path><path d="m109.688 325.897-34.333-85.833a32.03 32.03 0 0 0-11.895-14.703l-1.196-.803c-15.458-10.37-36.47-5.424-45.68 10.753h0a32.03 32.03 0 0 0 .773 32.98l56.523 89.275a17.78 17.78 0 0 0 16.417 8.213l101.196-7.977c3.58-.282 7.183.004 10.674.849l13.758 3.33c14.841 3.592 29.13-7.652 29.13-22.921v0a8.276 8.276 0 0 0-8.276-8.276H96.657" style="stroke-width:15;stroke-linecap:round;stroke-linejoin:round;stroke-miterlimit:10" fill="none" stroke="#00a1de" stroke-width="15" stroke-linecap="round" stroke-linejoin="round" stroke-miterlimit="1" data-original="#000000" class="" opacity="1"></path><path d="M51.313 173.509a77.83 77.83 0 0 1-10.275 38.651l-3.983 6.962M351.459 117.337h138.055M395.385 429.096h104.037M93.173 190.463l-14.699-2.124" style="stroke-width:15;stroke-linecap:round;stroke-linejoin:round;stroke-miterlimit:10" fill="none" stroke="#00a1de" stroke-width="15" stroke-linecap="round" stroke-linejoin="round" stroke-miterlimit="1" data-original="#000000" class="" opacity="1"></path></g></svg>