<svg xmlns="http://www.w3.org/2000/svg" version="1.1" xmlns:xlink="http://www.w3.org/1999/xlink" width="512" height="512" x="0" y="0" viewBox="0 0 512 512" style="enable-background:new 0 0 512 512" xml:space="preserve"><g><path d="M59.388 145.017c21.785 0 39.509-17.724 39.509-39.509S81.173 65.999 59.388 65.999s-39.509 17.724-39.509 39.509 17.724 39.509 39.509 39.509m0-63.019c12.963 0 23.509 10.546 23.509 23.509s-10.546 23.509-23.509 23.509-23.509-10.546-23.509-23.509 10.546-23.509 23.509-23.509M15.126 274.682v194.156a8 8 0 0 0 16 0V331.604h26.325v137.234a8 8 0 0 0 16 0V331.604h26.325v137.234a8 8 0 0 0 16 0v-188.56h34.397c10.62 0 19.645-6.937 22.796-16.516h31.676c10.019 0 18.169-8.151 18.169-18.169v-93.539c0-10.019-8.151-18.169-18.169-18.169H101.244c-10.019 0-18.169 8.151-18.169 18.169v2.162c-17.287-7.909-39.787-8.522-56.062-.607C11.528 161.141 3 175.294 3 193.462v57.487c0 9.749 4.785 18.396 12.126 23.732zm84.65 40.923h-68.65v-35.356c.399.016.8.031 1.203.031h67.447v35.326zm41.153-165.719h24.031v24.031h-24.031zm-41.854 2.169c0-1.176.994-2.169 2.169-2.169h23.685v32.031a8 8 0 0 0 8 8h40.031a8 8 0 0 0 8-8v-32.031h23.686c1.176 0 2.169.994 2.169 2.169v93.539c0 1.176-.994 2.169-2.169 2.169h-31.847c-3.298-9.317-12.192-16.012-22.625-16.012H99.075zM19 193.463c0-12.052 5.05-20.62 15.011-25.464 14.07-6.843 36.162-4.691 49.064 4.595v59.157H59.126v-26.66a8 8 0 0 0-16 0v34.66a8 8 0 0 0 8 8h99.047c4.409 0 7.997 3.587 7.997 7.997v.533c0 4.41-3.587 7.997-7.997 7.997H32.329c-7.35 0-13.329-5.979-13.329-13.329zM501 492.5h-5V11.499a8 8 0 0 0-8-8H243.499a8 8 0 0 0-8 8V492.5H11a8 8 0 0 0 0 16h490a8 8 0 0 0 0-16m-128.174-13.162c0 7.255-5.9 13.156-13.153 13.162h-.019c-7.253-.005-13.152-5.907-13.152-13.162V331.604h26.325zm42.325 0c0 7.255-5.9 13.156-13.153 13.162h-.019c-7.253-.005-13.153-5.907-13.153-13.162V331.604h26.325zm0-163.734h-68.65v-35.326h67.447c.404 0 .804-.014 1.203-.031zm12.126-64.655c0 7.35-5.979 13.329-13.329 13.329H296.104c-4.409 0-7.997-3.587-7.997-7.997 0-4.943 3.363-8.53 7.997-8.53h99.047a8 8 0 0 0 8-8v-34.66a8 8 0 0 0-16 0v26.66h-40.65v-12.558c0-25.979 2.047-35.139 15.603-45.778 12.714-9.978 35.685-12.458 50.162-5.417 9.96 4.844 15.011 13.412 15.011 25.464zM480 492.499h-52.001a29 29 0 0 0 3.152-13.162V274.681c7.341-5.336 12.126-13.983 12.126-23.732v-57.487c0-18.167-8.528-32.321-24.013-39.853-20.025-9.739-49.471-6.569-67.038 7.219-20.263 15.903-21.725 32.659-21.725 58.364v12.558h-34.397c-13.456 0-23.997 10.775-23.997 24.53 0 13.232 10.765 23.997 23.997 23.997h34.397v199.06c0 4.734 1.141 9.204 3.152 13.162h-46.389l27.922-10.561a8 8 0 0 0 4.652-10.312 8 8 0 0 0-10.312-4.653l-58.027 21.947V23.078l99.166 37.506a8 8 0 0 0 2.829.52 8 8 0 0 0 2.831-15.484L287.264 19.5h192.737v473.001zM347.381 105.508c0 21.786 17.724 39.509 39.509 39.509s39.509-17.724 39.509-39.509-17.724-39.509-39.509-39.509-39.509 17.724-39.509 39.509m39.509-23.509c12.963 0 23.509 10.546 23.509 23.509s-10.546 23.509-23.509 23.509-23.509-10.546-23.509-23.509 10.546-23.509 23.509-23.509" fill="#ffffff" opacity="1" data-original="#000000"></path></g></svg>