<svg xmlns="http://www.w3.org/2000/svg" version="1.1" xmlns:xlink="http://www.w3.org/1999/xlink" width="512" height="512" x="0" y="0" viewBox="0 0 512 512" style="enable-background:new 0 0 512 512" xml:space="preserve" class=""><g><path d="M505.081 0H229.626a6.92 6.92 0 0 0-6.919 6.919v149.432h-52.23a6.92 6.92 0 0 0-6.919 6.919v65.709h-25.41v-56.908c0-30.82-24.099-56.05-54.435-58.006 20.812-8.006 36.016-32.595 36.016-61.634C119.73 20.09 100.32 0 69.077 0 37.829 0 18.419 20.09 18.419 52.432c0 29.039 15.204 53.628 36.018 61.634C24.101 116.02 0 141.252 0 172.072v179.473a6.92 6.92 0 0 0 6.919 6.919H25.64v146.617c0 3.82 3.099 6.919 6.919 6.919s6.919-3.099 6.919-6.919V358.464h59.194v146.617c0 3.82 3.099 6.919 6.919 6.919s6.919-3.099 6.919-6.919V358.464h18.721a6.92 6.92 0 0 0 6.919-6.919v-66.351h25.41v47.104a6.92 6.92 0 0 0 6.919 6.919h52.23v165.865a6.92 6.92 0 0 0 6.919 6.919h275.455a6.92 6.92 0 0 0 6.919-6.919V6.919A6.92 6.92 0 0 0 505.081 0M236.545 170.189h36.892v28.8l-15.261-5.786a6.95 6.95 0 0 0-4.788-.045l-16.842 6.029v-28.998zM93.95 271.356c-7.333 0-13.545-5.005-15.104-12.169l-17.919-82.378c-1.671-7.691 3.225-15.311 10.914-16.982 7.667-1.671 15.306 3.225 16.977 10.914l12.149 55.86c2.081 9.547 10.351 16.216 20.122 16.216h85.991c7.869 0 14.27 6.401 14.27 14.268 0 7.869-6.401 14.27-14.27 14.27zM32.257 52.432c0-33.581 23.068-38.595 36.82-38.595 13.748 0 36.815 5.014 36.815 38.595 0 27.881-16.514 50.563-36.815 50.563s-36.82-22.682-36.82-50.563m92.054 292.194H13.838V172.072c0-24.459 19.901-44.358 44.36-44.358H79.95c24.459 0 44.36 19.899 44.36 44.358v56.908h-3.221c-3.257 0-5.905-2.137-6.599-5.32l-12.149-55.86c-3.297-15.142-18.306-24.802-33.441-21.495h-.005C53.76 149.6 44.116 164.6 47.404 179.749l17.919 82.378c2.955 13.581 14.725 23.068 28.626 23.068h30.36v59.431zm53.085-59.432h29.685c15.5 0 28.108-12.608 28.108-28.108 0-15.498-12.608-28.106-28.108-28.106h-29.685v-58.791h45.311v38.822c0 2.25 1.095 4.36 2.937 5.658a6.89 6.89 0 0 0 6.315.856l23.694-8.48 22.248 8.435c2.055.779 4.533.501 6.387-.775a6.92 6.92 0 0 0 2.986-5.694v-38.822h45.311v155.189H177.396zm320.766 212.968H236.545V339.216h102.959a6.92 6.92 0 0 0 6.919-6.919V163.27a6.92 6.92 0 0 0-6.919-6.919H236.545V13.838h261.617zM395.387 256.635h29.995v57.486a6.92 6.92 0 0 0 6.919 6.919h43.59a6.92 6.92 0 0 0 6.919-6.919v-116.24a6.92 6.92 0 0 0-6.919-6.919h-43.59a6.92 6.92 0 0 0-6.919 6.919v22.142h-29.995c-10.095 0-18.306 8.214-18.306 18.309 0 10.091 8.212 18.303 18.306 18.303m43.834-51.835h29.752v102.403h-29.752v-50.568h4.865c10.095 0 18.306-8.214 18.306-18.309 0-10.092-8.212-18.304-18.306-18.304h-4.865zm-43.834 29.06h48.698c2.423 0 4.468 2.047 4.468 4.471 0 2.421-2.045 4.466-4.468 4.466h-48.698c-2.423 0-4.468-2.047-4.468-4.471 0-2.421 2.045-4.466 4.468-4.466" fill="#00a1de" opacity="1" data-original="#000000" class=""></path></g></svg>