<svg xmlns="http://www.w3.org/2000/svg" version="1.1" xmlns:xlink="http://www.w3.org/1999/xlink" width="512" height="512" x="0" y="0" viewBox="0 0 512 512" style="enable-background:new 0 0 512 512" xml:space="preserve" class=""><g><path d="M312.135 266.635a8 8 0 0 0 2.004-6.199c-3.915-36.582-28.525-66.207-61.489-77.848 12.092-9.35 19.9-23.986 19.9-40.418 0-28.166-22.915-51.081-51.081-51.081s-51.081 22.915-51.081 51.081c0 16.433 7.808 31.068 19.9 40.418-32.964 11.642-57.575 41.266-61.489 77.849-.242 2.258.486 4.511 2.004 6.199s3.681 2.652 5.95 2.652l169.432-.001a8 8 0 0 0 5.95-2.652M186.388 142.169c0-19.344 15.737-35.081 35.081-35.081s35.081 15.737 35.081 35.081c0 19.337-15.727 35.07-35.061 35.081h-.04c-19.335-.011-35.061-15.744-35.061-35.081m-40.217 111.119c7.835-34.781 38.76-60.029 75.277-60.039h.042c36.516.01 67.44 25.257 75.276 60.038zm320.226 103.198c5.667-11.211 3.32-24.521-5.84-33.118l-11.008-10.332c-1.862-1.747-2.906-3.555-3.489-6.042l-3.442-14.699c-2.867-12.232-13.22-20.919-25.763-21.616l-15.072-.838c-2.094-.117-3.79-.628-5.461-1.649a205.5 205.5 0 0 0 4.083-40.715V89.258c0-3.2-1.907-6.093-4.849-7.354L224.62 8.646a8.01 8.01 0 0 0-6.303 0L47.381 81.904a8 8 0 0 0-4.849 7.354v138.219c0 48.399 17.301 95.613 48.715 132.944 31.4 37.314 74.95 62.442 122.628 70.754l6.221 1.084a8 8 0 0 0 2.746 0l6.222-1.084a205.2 205.2 0 0 0 51.444-16.156 28.3 28.3 0 0 0 8.791 5.926l7.483 3.205-21.433 46.039a9.75 9.75 0 0 0 1.103 10.08 9.76 9.76 0 0 0 9.454 3.689l21.582-3.771 11.007 18.943a9.75 9.75 0 0 0 8.908 4.858 9.75 9.75 0 0 0 8.425-5.645l21.151-45.431 5.858-1.771c2.445-.74 4.532-.74 6.978 0l5.86 1.771 21.153 45.432a9.76 9.76 0 0 0 8.878 5.654 9.75 9.75 0 0 0 8.453-4.869l11.007-18.943 21.586 3.771a9.74 9.74 0 0 0 9.446-3.685 9.75 9.75 0 0 0 1.106-10.087l-21.434-46.038 7.482-3.205c11.548-4.945 18.306-16.648 16.815-29.123l-1.792-14.991c-.303-2.535.06-4.591 1.212-6.871zm-240.081 58.927-4.848.845-4.847-.845c-91.604-15.97-158.09-95.008-158.09-187.937V94.533l162.937-69.829 162.937 69.829v132.943c0 10.092-.826 20.18-2.429 30.131-4.162-2.809-8.835-4.407-13.584-4.763a175.4 175.4 0 0 0 2.026-26.459V107.939c0-3.2-1.907-6.093-4.849-7.354L224.62 40.18a8.01 8.01 0 0 0-6.303 0l-140.95 60.406a8 8 0 0 0-4.849 7.354v118.445c0 41.349 14.801 81.707 41.675 113.641 26.862 31.921 64.093 53.412 104.832 60.515l1.07.187a8 8 0 0 0 2.746 0l1.071-.187a174.6 174.6 0 0 0 49.503-16.518l-.933 7.799a28.4 28.4 0 0 0 .374 9.116 189.2 189.2 0 0 1-46.54 14.475m45.777-92.045c-9.161 8.599-11.508 21.908-5.84 33.119l5.266 10.417a158.7 158.7 0 0 1-50.05 17.82c-77.06-13.581-132.95-80.123-132.95-158.34v-113.17l132.95-56.978 132.949 56.978v113.17c0 10.302-1.013 20.614-2.997 30.709q-.974.613-1.91 1.313l-12.086 9.047c-2.045 1.53-4.006 2.244-6.558 2.387l-15.073.838c-12.544.697-22.896 9.385-25.762 21.616l-3.443 14.699c-.583 2.488-1.626 4.295-3.488 6.043zm54.253 157.43-7.827-13.47a8 8 0 0 0-8.294-3.861l-15.347 2.682 15.13-32.499 6.775 10.359c4.823 7.375 12.516 11.834 20.826 12.595zm96.08-17.331a8 8 0 0 0-8.294 3.861l-7.827 13.47-11.262-24.19c8.311-.762 16-5.226 20.823-12.599l6.775-10.36 15.131 32.5zm29.692-114.198-6.812 13.474c-2.573 5.095-3.496 10.324-2.818 15.988l1.792 14.99c.65 5.445-2.187 10.358-7.228 12.518l-13.876 5.942c-5.246 2.246-9.315 5.66-12.438 10.437l-8.263 12.635c-3.002 4.59-8.337 6.53-13.582 4.942l-14.451-4.367c-5.463-1.65-10.772-1.649-16.235 0l-14.45 4.367c-5.25 1.589-10.581-.354-13.583-4.943l-8.263-12.633c-3.123-4.777-7.191-8.19-12.437-10.437l-13.878-5.943c-5.041-2.159-7.878-7.072-7.227-12.518l1.792-14.991c.432-3.612.206-7.046-.677-10.382a8 8 0 0 0-.267-.9 29 29 0 0 0-1.875-4.707l-6.811-13.473c-2.475-4.894-1.489-10.48 2.51-14.234l11.008-10.33c4.161-3.905 6.816-8.505 8.117-14.061l3.443-14.699c1.251-5.339 5.597-8.986 11.072-9.291l15.073-.838c5.699-.317 10.689-2.134 15.257-5.553l12.086-9.047c2.194-1.643 4.711-2.464 7.227-2.464s5.032.821 7.227 2.464l9.15 6.85q.016.013.033.024l2.903 2.173c4.567 3.42 9.558 5.235 15.257 5.553l15.072.838c5.476.305 9.822 3.952 11.073 9.291l3.442 14.699c1.303 5.558 3.958 10.156 8.118 14.06l11.008 10.331c3.999 3.753 4.985 9.341 2.511 14.235m-85.793-55.27c-33.496 0-60.747 27.251-60.747 60.747s27.251 60.747 60.747 60.747 60.747-27.251 60.747-60.747-27.251-60.747-60.747-60.747m0 105.494c-24.674 0-44.747-20.073-44.747-44.747s20.073-44.747 44.747-44.747 44.747 20.073 44.747 44.747-20.073 44.747-44.747 44.747m27.83-64.205a8 8 0 0 1-.548 11.3l-31.035 28.163a7.97 7.97 0 0 1-5.375 2.076 7.98 7.98 0 0 1-5.658-2.343l-12.777-12.777a8 8 0 0 1 11.314-11.314l7.388 7.389 25.392-23.041a7.997 7.997 0 0 1 11.299.547" fill="#ffffff" opacity="1" data-original="#000000"></path></g></svg>