<svg xmlns="http://www.w3.org/2000/svg" version="1.1" xmlns:xlink="http://www.w3.org/1999/xlink" width="512" height="512" x="0" y="0" viewBox="0 0 512 512" style="enable-background:new 0 0 512 512" xml:space="preserve" class=""><g><path d="M326.288 124.777a50.7 50.7 0 0 0 12.545 1.583c22.621 0 43.298-15.271 49.147-38.173a50.5 50.5 0 0 0 1.422-16.37h24.521a7 7 0 1 0 0-14h-27.632c-5.648-14.975-18.252-27.069-34.902-31.322-27.097-6.916-54.771 9.495-61.692 36.59s9.494 54.771 36.59 61.691zm12.557-85.863c2.998 0 6.046.371 9.081 1.146 10.169 2.597 18.25 9.237 22.987 17.757H306.73c6.449-11.616 18.816-18.903 32.115-18.903m-36.522 32.903h73.035a36.5 36.5 0 0 1-.942 12.905c-5.012 19.618-25.048 31.499-44.663 26.49-17.861-4.562-29.305-21.579-27.431-39.396zm198.678 38.065H398.659a7 7 0 0 0-7 7v85.442l-17.75-17.75 2.175-8.517c4.698-18.395-6.444-37.183-24.839-41.881l-34.884-8.909c-8.882-2.268-18.14-.928-26.068 3.774-4.791 2.841-8.729 6.702-11.602 11.268l-39.961.465c-6.9.081-23.566 5.562-29.125 11.253l-55.512 56.82c-5.025 5.144-7.746 11.956-7.662 19.184s2.964 13.976 8.107 19c5.065 4.95 11.751 7.664 18.857 7.664q.163 0 .326-.002c7.228-.084 13.976-2.964 19-8.107l50.663-51.857 19.758-.23-23.681 92.717-33.651 65.511-68.854-3.979c-5.592-.317-10.991 1.583-15.195 5.365-4.251 3.822-6.742 9.059-7.016 14.744l-.892 18.553c-.56 11.649 8.462 21.583 20.111 22.144l99.103 4.763c4.179.19 17-.967 20.897-8.696l35.105-69.644 58.847 45.826 3.517 85.005c.233 5.629 2.656 10.841 6.821 14.675 3.945 3.632 8.992 5.603 14.297 5.603q.445 0 .891-.019l18.559-.768c5.629-.232 10.841-2.654 14.675-6.82 3.835-4.165 5.818-9.559 5.585-15.188l-4.103-99.131c-.208-5.034-3.424-14.684-8.696-18.965l-55.354-44.949 14.262-55.837 9.905 9.905c5.626 5.627 22.355 10.913 29.256 10.913h79.436c7.184 0 14.259-3.024 19.41-8.298 5.038-5.158 7.732-11.825 7.592-18.784a26.84 26.84 0 0 0-3.345-12.922H501a7 7 0 0 0 7-7V116.881a7 7 0 0 0-7-7zm-58.868 14h15.396v19.07h-15.396zm-36.474 0h22.474v26.07a7 7 0 0 0 7 7h29.396a7 7 0 0 0 7-7v-26.07h22.473v88.342H405.66v-88.342zm-165.337 56.881a7 7 0 0 0-4.925 2.108l-52.689 53.932c-2.412 2.469-5.661 3.851-9.149 3.892h-.158c-3.429 0-6.648-1.303-9.079-3.679-2.469-2.411-3.851-5.66-3.892-9.148s1.266-6.769 3.677-9.237l55.512-56.82c2.367-2.383 14.978-6.987 19.274-7.037l34.499-.402-6.662 26.083-26.407.308zm89.114 121.36a7 7 0 0 0 2.37 7.166l58.819 47.764c1.257 1.106 3.439 6.138 3.545 8.686l4.103 99.132c.079 1.893-.595 3.713-1.896 5.127s-3.061 2.235-4.953 2.313l-18.56.768a7.14 7.14 0 0 1-5.127-1.896 7.1 7.1 0 0 1-2.314-4.953l-3.651-88.245a7 7 0 0 0-2.693-5.233l-62.061-48.329a7 7 0 0 0-.721-.492l-6.494-3.865a7.002 7.002 0 0 0-9.831 2.863l-38.207 75.796c-1.391.813-5.459 1.736-8.025 1.609l-99.102-4.763c-3.938-.189-6.989-3.548-6.799-7.487l.892-18.553a7.16 7.16 0 0 1 2.394-5.008c1.405-1.266 3.181-1.907 5.026-1.797l73.401 4.241a7 7 0 0 0 6.63-3.79l36.094-70.266c.239-.466.426-.958.556-1.466l35.214-137.873c1.343-5.258 4.678-9.693 9.39-12.488 4.714-2.794 10.206-3.593 15.462-2.251l34.884 8.909c10.915 2.788 17.527 13.936 14.739 24.852l-.12.471-12.105-12.105c-10.527-10.528-27.658-10.528-38.186 0-5.084 5.084-7.885 11.865-7.885 19.093s2.8 14.009 7.885 19.093l34.753 34.754-17.425 68.224zm160.533-62.896q0 .082.002.164c.075 3.188-1.207 6.298-3.608 8.756-2.534 2.595-5.958 4.082-9.396 4.082h-79.436c-4.298 0-16.961-4.457-19.356-6.812l-56.169-56.17c-2.44-2.44-3.784-5.705-3.784-9.193s1.344-6.754 3.784-9.194c2.535-2.535 5.864-3.802 9.194-3.802s6.659 1.268 9.194 3.802l53.302 53.302q.25.252.525.477l.026.02q.252.206.523.387.036.023.073.045.25.165.514.308l.06.029q.273.144.559.264l.042.015q.294.121.6.215l.06.015q.296.088.602.151c.054.011.11.015.164.025.17.03.34.06.514.077q.347.035.699.035h78.309c7.169 0 13.002 5.833 13.002 13.003zM153.146 52.655a7 7 0 0 1 7-7h80.496a7 7 0 1 1 0 14h-80.496a7 7 0 0 1-7-7M73.788 129.08a7 7 0 0 1 7-7h91.07a7 7 0 1 1 0 14h-91.07a7 7 0 0 1-7-7m47.694 83.425H11a7 7 0 1 1 0-14h110.481a7 7 0 1 1 0 14zM24.8 274.93h124.835a7 7 0 1 1 0 14H24.8a7 7 0 1 1 0-14m73.483 83.426a7 7 0 0 1-7 7h-69.29a7 7 0 1 1 0-14h69.29a7 7 0 0 1 7 7" fill="#00a1de" opacity="1" data-original="#000000" class=""></path></g></svg>