<svg xmlns="http://www.w3.org/2000/svg" version="1.1" xmlns:xlink="http://www.w3.org/1999/xlink" width="512" height="512" x="0" y="0" viewBox="0 0 64 64" style="enable-background:new 0 0 512 512" xml:space="preserve" class=""><g><path d="M43.001 54.497h-16.04a1 1 0 0 1 0-2h15.04v-25.19a1 1 0 0 1 2 0v26.19a1 1 0 0 1-1 1M18 54.492h-4a1 1 0 0 1-1-1v-32a1 1 0 0 1 1-1h21.2a1 1 0 0 1 0 2H15v30h3a1 1 0 0 1 0 2" fill="#ffffff" opacity="1" data-original="#000000"></path><path d="M46.031 54.497h-3.03a1 1 0 0 1 0-2h3.03a1 1 0 0 1 0 2M60.932 54.497H55a1 1 0 0 1 0-2h5.93a1.06 1.06 0 0 0 .813-.388 1.12 1.12 0 0 0 .235-.93q-.332-1.785-.672-3.565l-.609-3.224a1.09 1.09 0 0 0-1.056-.893H43a1 1 0 0 1 0-2h16.64a3.094 3.094 0 0 1 3.023 2.52q.3 1.613.607 3.224.34 1.784.673 3.569a3.12 3.12 0 0 1-.659 2.575 3.05 3.05 0 0 1-2.353 1.112M22.492 59.503A5.503 5.503 0 1 1 27.983 54a5.503 5.503 0 0 1-5.49 5.503m0-9.006A3.503 3.503 0 1 0 25.983 54a3.5 3.5 0 0 0-3.49-3.503" fill="#ffffff" opacity="1" data-original="#000000"></path><path d="M50.501 59.497a5.5 5.5 0 1 1 5.5-5.5 5.507 5.507 0 0 1-5.5 5.5m0-9a3.5 3.5 0 1 0 3.5 3.5 3.504 3.504 0 0 0-3.5-3.5M62.26 48.505h-4a1 1 0 0 1 0-2h4a1 1 0 0 1 0 2M58.162 43.497a1 1 0 0 1-.917-.599Q56.15 40.4 55.06 37.892q-1.092-2.504-2.185-5.003a.77.77 0 0 0-.714-.392h-9.16a1 1 0 0 1 0-2h9.16a2.75 2.75 0 0 1 2.553 1.606c.724 1.649 1.451 3.319 2.179 4.99q1.09 2.503 2.184 5.003a1 1 0 0 1-.915 1.401M45 28.497a12 12 0 1 1 12-12 12.013 12.013 0 0 1-12 12m0-22a10 10 0 1 0 10 10 10.01 10.01 0 0 0-10-10M26 45.497H1a1 1 0 0 1 0-2h25a1 1 0 1 1 0 2M26.001 40.497h-19a1 1 0 1 1 0-2h19a1 1 0 1 1 0 2M26.001 35.497h-25a1 1 0 0 1 .001-2H26a1 1 0 0 1 0 2M26.001 30.497h-19a1 1 0 1 1 0-2h19a1 1 0 0 1 0 2" fill="#ffffff" opacity="1" data-original="#000000"></path><path d="M51.001 20.497a1 1 0 0 1-.316-.05l-6-2.002a1 1 0 0 1-.603-.554l-3-7a1 1 0 1 1 1.838-.788l2.823 6.587 5.574 1.858a1 1 0 0 1-.316 1.95M22.492 56.5a2.5 2.5 0 1 1 2.5-2.5 2.5 2.5 0 0 1-2.5 2.5m0-3a.5.5 0 1 0 .5.5.5.5 0 0 0-.5-.5M50.523 56.499a2.5 2.5 0 1 1 2.5-2.5 2.5 2.5 0 0 1-2.5 2.5m0-3a.5.5 0 1 0 .5.5.5.5 0 0 0-.5-.5" fill="#ffffff" opacity="1" data-original="#000000"></path></g></svg>