<svg xmlns="http://www.w3.org/2000/svg" version="1.1" xmlns:xlink="http://www.w3.org/1999/xlink" width="512" height="512" x="0" y="0" viewBox="0 0 64 64" style="enable-background:new 0 0 512 512" xml:space="preserve" class=""><g><g data-name="Layer 7"><path d="M35 27V13.955A8.6 8.6 0 0 1 36 18a1 1 0 0 0 1.707.707 17.93 17.93 0 0 0 5.26-12.1l8.364 4.181L60.6 23.76l-8.4 5.883-3.079-3.843 1.827-5.484-1.9-.632-2 6A1 1 0 0 0 47 26v7h2v-4.149l2.219 2.774a1 1 0 0 0 1.354.194l10-7a1 1 0 0 0 .24-1.4l-10-14a1 1 0 0 0-.366-.314l-9.854-4.927-2.886-2.885A1 1 0 0 0 39 1H25a1 1 0 0 0-.707.293l-2.886 2.885-9.854 4.927a1 1 0 0 0-.366.314l-10 14a1 1 0 0 0 .24 1.4l10 7a1 1 0 0 0 1.354-.194L15 28.851V49h2V26a1 1 0 0 0-.052-.316l-2-6-1.9.632 1.831 5.484-3.074 3.843L3.4 23.76l9.269-12.977L21.033 6.6a17.93 17.93 0 0 0 5.26 12.105A1 1 0 0 0 28 18a8.6 8.6 0 0 1 1-4.045V27a1 1 0 0 0 1 1h4a1 1 0 0 0 1-1m2.739-11.362a10.57 10.57 0 0 0-2.276-4.538 13.4 13.4 0 0 0 4.173-7.05L41 5.414v.515a15.96 15.96 0 0 1-3.261 9.709M26.185 3h11.63a11.6 11.6 0 0 1-.536 2H26.721a11.6 11.6 0 0 1-.536-2m.076 12.638A15.96 15.96 0 0 1 23 5.929v-.515l1.364-1.364a13.4 13.4 0 0 0 4.173 7.05 10.55 10.55 0 0 0-2.276 4.538M33 26h-2V11h-.013c0-.024.012-.046.01-.07a1 1 0 0 0-.4-.73A11.5 11.5 0 0 1 27.688 7h8.624a11.5 11.5 0 0 1-2.912 3.2 1 1 0 0 0-.4.73c0 .024.01.046.01.07H33ZM60.969 54A4.985 4.985 0 0 0 58 45h-9v-6h-2v6H36a4.985 4.985 0 0 0-2.969 9A4.985 4.985 0 0 0 36 63h22a4.985 4.985 0 0 0 2.969-9M33 50a3 3 0 0 1 3-3h22a3 3 0 0 1 0 6H36a3 3 0 0 1-3-3m25 11H36a3 3 0 0 1 0-6h22a3 3 0 0 1 0 6" fill="#ffffff" opacity="1" data-original="#000000"></path><path d="M35 57h24v2H35zM35 49h24v2H35zM17 55h-2v7a1 1 0 0 0 1 1h14v-2H17Z" fill="#ffffff" opacity="1" data-original="#000000"></path><path d="M19 58a1 1 0 0 0 2 0 5.006 5.006 0 0 1 5-5 1 1 0 0 0 0-2 5.006 5.006 0 0 1-5-5 1 1 0 0 0-2 0 5.006 5.006 0 0 1-5 5 1 1 0 0 0 0 2 5.006 5.006 0 0 1 5 5m1-8.4a7.07 7.07 0 0 0 2.4 2.4 7.07 7.07 0 0 0-2.4 2.4 7.07 7.07 0 0 0-2.4-2.4 7.07 7.07 0 0 0 2.4-2.4M45 30a1 1 0 0 0-2 0 5.006 5.006 0 0 1-5 5 1 1 0 0 0 0 2 5.006 5.006 0 0 1 5 5 1 1 0 0 0 2 0 5.006 5.006 0 0 1 5-5 1 1 0 0 0 0-2 5.006 5.006 0 0 1-5-5m-1 8.4a7.07 7.07 0 0 0-2.4-2.4 7.07 7.07 0 0 0 2.4-2.4 7.07 7.07 0 0 0 2.4 2.4 7.07 7.07 0 0 0-2.4 2.4" fill="#ffffff" opacity="1" data-original="#000000"></path></g></g></svg>