<svg xmlns="http://www.w3.org/2000/svg" version="1.1" xmlns:xlink="http://www.w3.org/1999/xlink" width="512" height="512" x="0" y="0" viewBox="0 0 64 64" style="enable-background:new 0 0 512 512" xml:space="preserve" class=""><g><g data-name="Layer 31"><path d="M63 10H44V9a1 1 0 0 0-1-1h-4a1 1 0 0 0-1 1v1H26V9a1 1 0 0 0-1-1h-4a1 1 0 0 0-1 1v1H1a1 1 0 0 0-1 1v3a1 1 0 0 0 1 1h19v1.531l-11.641 9.7a1 1 0 0 0-.118 1.419l6 7a1 1 0 0 0 1.274.207l3.292-1.975-1.67 16.7a3.01 3.01 0 0 0 1.563 2.943A28.44 28.44 0 0 0 32 55.991a28.45 28.45 0 0 0 13.3-3.466 3.01 3.01 0 0 0 1.566-2.947l-1.67-16.7 3.292 1.975a1 1 0 0 0 1.274-.207l6-7a1 1 0 0 0-.118-1.419L44 16.531V15h11a1 1 0 0 0 0-2H44v-1h18v1h-3a1 1 0 0 0 0 2h4a1 1 0 0 0 1-1v-3a1 1 0 0 0-1-1m-23 0h2v8h-2Zm-14 5h12v1h-3a1 1 0 0 0-1 1 2 2 0 0 1-4 0 1 1 0 0 0-1-1h-3Zm12-3v1H26v-1Zm-16-2h2v8h-2ZM2 13v-1h18v1Zm46.79 19.708-4.275-2.565a1 1 0 0 0-1.51.957l1.868 18.677a.99.99 0 0 1-.5.977 25.33 25.33 0 0 1-24.735 0 .99.99 0 0 1-.506-.977L21 31.1a1 1 0 0 0-1.51-.957l-4.28 2.565-4.791-5.589 9.262-7.719-.576 1.152a1 1 0 0 0 1.79.894L21.618 20h2.662l.772 2.316a1 1 0 0 0 1.9-.632L26 18.839V18h2.127a4 4 0 0 0 7.746 0H38v.839l-.948 2.845a1 1 0 1 0 1.9.632L39.72 20h2.662l.723 1.447a1 1 0 1 0 1.79-.894l-.576-1.153 9.262 7.718Z" fill="#00a1de" opacity="1" data-original="#000000" class=""></path><path d="M37.235 25.028a1 1 0 0 0-1.207.737 32.5 32.5 0 0 1-2.395 6.79 1 1 0 1 0 1.791.89 34.5 34.5 0 0 0 2.548-7.21 1 1 0 0 0-.737-1.207M30.367 32.555a1 1 0 1 0-1.791.89 23.2 23.2 0 0 0 2.644 4.181 1 1 0 1 0 1.56-1.252 21.2 21.2 0 0 1-2.413-3.819M28.8 28.688c-.3-.927-.582-1.911-.827-2.923a1 1 0 0 0-1.944.47c.257 1.064.55 2.1.87 3.077a1 1 0 0 0 1.9-.624ZM55 38h-1v-1a1 1 0 0 0-2 0v1h-1a1 1 0 0 0 0 2h1v1a1 1 0 0 0 2 0v-1h1a1 1 0 0 0 0-2M13 44h-1v-1a1 1 0 0 0-2 0v1H9a1 1 0 0 0 0 2h1v1a1 1 0 0 0 2 0v-1h1a1 1 0 0 0 0-2M61 21h-1v-1a1 1 0 0 0-2 0v1h-1a1 1 0 0 0 0 2h1v1a1 1 0 0 0 2 0v-1h1a1 1 0 0 0 0-2M7 30H6v-1a1 1 0 0 0-2 0v1H3a1 1 0 0 0 0 2h1v1a1 1 0 0 0 2 0v-1h1a1 1 0 0 0 0-2" fill="#00a1de" opacity="1" data-original="#000000" class=""></path></g></g></svg>