<svg xmlns="http://www.w3.org/2000/svg" version="1.1" xmlns:xlink="http://www.w3.org/1999/xlink" width="512" height="512" x="0" y="0" viewBox="0 0 64 64" style="enable-background:new 0 0 512 512" xml:space="preserve"><g><path d="M62 40h-1v-8a1 1 0 0 0-.38-.78l-4.76-3.82-2.91-8.72A1 1 0 0 0 52 18H39v-3a1 1 0 0 0-1-1H21.71l.29-3.42a1 1 0 0 0-1-1.08 2.85 2.85 0 0 1-3-3 1 1 0 0 0-1-1H5a1 1 0 0 0-1 1 2.85 2.85 0 0 1-3 3 1 1 0 0 0-1 1.08l1 12a1 1 0 0 0 .18.5A29 29 0 0 0 6 28.26V44a1 1 0 0 0 1 1h8.09a6 6 0 0 0 11.82 0h18.18a6 6 0 0 0 11.82 0H62a1 1 0 0 0 1-1v-3a1 1 0 0 0-1-1M51.28 20l2.77 8.32a1 1 0 0 0 .32.46l4.63 3.7V40h-3.54a6 6 0 0 0-8.92 0H39V20ZM3 22.14l-.92-10.73A4.66 4.66 0 0 0 5.9 7.5h10.2a4.66 4.66 0 0 0 3.82 3.91L19 22.14c-1.45 2-5.28 6.36-8 6.36s-6.57-4.4-8-6.36m8 8.36c4.39 0 9.27-6.66 9.81-7.42a1 1 0 0 0 .18-.5l.56-6.58H37v24H25.46a6 6 0 0 0-8.92 0H8V29.61a6.4 6.4 0 0 0 3 .89M8 42h7.35a6 6 0 0 0-.26 1H8Zm13 6a4 4 0 1 1 4-4 4 4 0 0 1-4 4m5.91-5a6 6 0 0 0-.26-1H37v1ZM39 42h6.35a6 6 0 0 0-.26 1H39Zm12 6a4 4 0 1 1 4-4 4 4 0 0 1-4 4m10-5h-4.09a6 6 0 0 0-.26-1H61Z" fill="#00a1de" opacity="1" data-original="#000000"></path><circle cx="51" cy="44" r="2.5" fill="#00a1de" opacity="1" data-original="#000000"></circle><circle cx="21" cy="44" r="2.5" fill="#00a1de" opacity="1" data-original="#000000"></circle><path d="M42 34h4a1 1 0 0 0 .95-.68C47.71 31 51 31 51 31a1 1 0 0 0 1-1.27l-2-7a1 1 0 0 0-1-.73h-7a1 1 0 0 0-1 1v10a1 1 0 0 0 1 1m1-10h5.25l1.47 5.13A5.92 5.92 0 0 0 45.34 32H43ZM16.83 12.95a1 1 0 0 0-1.39-.28l-5.32 3.55-2.41-2.43A1 1 0 0 0 6.3 15.2l3 3a1 1 0 0 0 1.26.13l6-4a1 1 0 0 0 .27-1.38M29 37h4a1 1 0 0 0 0-2h-4a1 1 0 0 0 0 2M31 34h2a1 1 0 0 0 0-2h-2a1 1 0 0 0 0 2" fill="#00a1de" opacity="1" data-original="#000000"></path></g></svg>