<?xml version="1.0" encoding="UTF-8"?>
<svg id="Layer_1" xmlns="http://www.w3.org/2000/svg" version="1.1" viewBox="0 0 296.8 68.5">
  <!-- Generator: Adobe Illustrator 29.2.1, SVG Export Plug-In . SVG Version: 2.1.0 Build 116)  -->
  <defs>
    <style>
      .st0 {
        fill: #82bb31;
      }

      .st0, .st1 {
        fill-rule: evenodd;
      }

      .st1, .st2 {
        fill: #2c9fda;
      }
    </style>
  </defs>
  <path class="st2" d="M220.7,64h3.3v1.9h-5.8v-10.3h2.5v8.3Z"/>
  <path class="st2" d="M232.3,64.1h-3.8l-.6,1.8h-2.6l3.7-10.3h2.9l3.7,10.3h-2.6l-.6-1.8ZM231.6,62.2l-1.3-3.8-1.3,3.8h2.5Z"/>
  <path class="st2" d="M240,55.7v6.1c0,.6.2,1.1.5,1.4.3.3.7.5,1.3.5s1-.2,1.3-.5c.3-.3.5-.8.5-1.4v-6.1h2.5v6.1c0,.9-.2,1.7-.6,2.3-.4.6-.9,1.1-1.6,1.4-.7.3-1.4.5-2.2.5s-1.5-.2-2.2-.5c-.6-.3-1.1-.8-1.5-1.4-.4-.6-.6-1.4-.6-2.3v-6.1h2.5Z"/>
  <path class="st2" d="M257.8,65.9h-2.5l-4.2-6.3v6.3h-2.5v-10.3h2.5l4.2,6.4v-6.4h2.5v10.3Z"/>
  <path class="st2" d="M267.1,56.3c.8.4,1.4,1,1.9,1.8.4.8.7,1.7.7,2.7s-.2,1.9-.7,2.7c-.4.8-1.1,1.4-1.9,1.8s-1.8.6-2.8.6h-3.8v-10.3h3.8c1.1,0,2,.2,2.8.6ZM266.3,63c.5-.5.8-1.2.8-2.2s-.3-1.7-.8-2.2-1.3-.8-2.2-.8h-1.2v6h1.2c.9,0,1.7-.3,2.2-.8Z"/>
  <path class="st2" d="M277.1,65.9l-2.1-3.9h-.6v3.9h-2.5v-10.3h4.2c.8,0,1.5.1,2.1.4s1,.7,1.3,1.2c.3.5.4,1,.4,1.6s-.2,1.3-.6,1.8c-.4.5-1,.9-1.7,1.1l2.4,4.1h-2.8ZM274.3,60.3h1.6c.5,0,.8-.1,1-.3.2-.2.3-.5.3-1s-.1-.7-.3-.9c-.2-.2-.6-.3-1-.3h-1.6v2.5Z"/>
  <path class="st2" d="M290.9,55.7l-3.6,6.9v3.4h-2.5v-3.4l-3.6-6.9h2.8l2,4.3,2-4.3h2.8Z"/>
  <path class="st0" d="M246.8,8.5c-.6,1.1-1.4,2.4-2.3,3.8-2.5,3.9-6.2,8.7-11,14.3-4.9,5.6-9.2,9.8-12.7,12.9.3.2.7.4,1,.6-.3-.2-.7-.4-1-.6-1.3,1.1-2.4,2-3.5,2.8-2.2,1.7-3.9,2.7-4.9,3.1.3-1.1,1-2.9,2.4-5.3.5-.9,1.2-2,1.9-3.1.2-.2.3-.5.5-.7,2.5-3.9,6.2-8.7,11-14.3,4.9-5.6,9.2-9.8,12.7-12.9,1.3-1.1,2.4-2,3.5-2.8,2.2-1.7,3.9-2.7,4.9-3.1-.3,1.1-1,2.9-2.4,5.3M252.4-.5c-2.2-1.9-5.8-.6-11.7,4.1-.1.1-.3.2-.4.3-1.2,1-2.4,2-3.7,3.2-1.2,1-2.3,2.2-3.5,3.3-2.7,2.6-5.5,5.6-8.2,8.7-4,4.6-7.5,9.1-10.4,13.3-1,1.4-1.9,2.8-2.6,4.1,0,.2-.2.3-.3.5-3.9,6.5-4.6,10.3-2.5,12.2.6.6,1.4.8,2.3.8,2.2,0,5.2-1.6,9.4-4.9.1-.1.3-.2.4-.3,1.2-1,2.4-2,3.7-3.2,3.7-3.4,7.8-7.5,11.7-12.1,4-4.6,7.5-9.1,10.4-13.3,1-1.4,1.9-2.8,2.6-4.1,0-.2.2-.3.3-.5,3.9-6.5,4.6-10.3,2.5-12.2Z"/>
  <path class="st0" d="M5,13.6c2-3.6,4.8-6.5,8.4-8.5,3.6-2,7.6-3,12.2-3s10.3,1.5,14.3,4.4c4,2.9,6.6,6.9,7.9,12h-12.6c-.9-2-2.3-3.5-4-4.5-1.7-1-3.7-1.5-5.8-1.5-3.5,0-6.4,1.2-8.6,3.7-2.2,2.5-3.3,5.7-3.3,9.8s1.1,7.4,3.3,9.8c2.2,2.5,5,3.7,8.6,3.7s4.1-.5,5.8-1.5c1.7-1,3-2.5,4-4.5h12.6c-1.3,5.1-4,9.1-7.9,12-4,2.9-8.7,4.4-14.3,4.4s-8.6-1-12.2-3c-3.6-2-6.4-4.8-8.4-8.5-2-3.6-3-7.7-3-12.4,0-4.6,1-8.8,3-12.4"/>
  <path class="st0" d="M86,35.8c2.2-2.5,3.4-5.8,3.4-9.9s-1.1-7.4-3.4-9.9c-2.2-2.5-5.2-3.7-9-3.7s-6.8,1.2-9.1,3.7c-2.2,2.5-3.4,5.8-3.4,10s1.1,7.4,3.4,9.9c2.2,2.5,5.3,3.7,9.1,3.7s6.7-1.2,9-3.7M64.9,46.9c-3.7-2-6.6-4.9-8.8-8.6-2.2-3.7-3.2-7.8-3.2-12.4s1.1-8.7,3.2-12.4c2.2-3.7,5.1-6.5,8.8-8.6,3.7-2,7.7-3.1,12.1-3.1s8.5,1,12.1,3.1c3.7,2,6.6,4.9,8.7,8.6,2.1,3.7,3.2,7.8,3.2,12.4s-1.1,8.7-3.2,12.4c-2.1,3.7-5,6.5-8.7,8.6-3.7,2-7.7,3.1-12.1,3.1s-8.5-1-12.1-3.1Z"/>
  <path class="st0" d="M115.1,48.3c-2.7-1.1-4.9-2.8-6.5-4.9-1.6-2.2-2.5-4.8-2.6-7.9h12.2c.2,1.7.8,3.1,1.8,4,1,.9,2.4,1.4,4,1.4s3-.4,4-1.2c1-.8,1.5-1.9,1.5-3.2s-.4-2.1-1.2-2.9c-.8-.8-1.7-1.4-2.9-1.9-1.1-.5-2.8-1-4.8-1.7-3-.9-5.5-1.9-7.4-2.8-1.9-.9-3.6-2.3-4.9-4.1-1.4-1.8-2.1-4.2-2.1-7.1,0-4.4,1.6-7.8,4.7-10.3,3.2-2.5,7.3-3.7,12.4-3.7s9.3,1.2,12.5,3.7c3.2,2.5,4.9,5.9,5.1,10.3h-12.4c0-1.5-.6-2.7-1.7-3.6-1-.9-2.3-1.3-3.9-1.3s-2.5.4-3.3,1.1c-.8.7-1.3,1.8-1.3,3.2s.7,2.7,2.1,3.5c1.4.8,3.7,1.8,6.7,2.7,3,1,5.5,2,7.4,2.9,1.9.9,3.5,2.3,4.9,4.1,1.4,1.8,2.1,4.1,2.1,6.9s-.7,5.1-2,7.3c-1.4,2.2-3.3,3.9-5.9,5.2-2.6,1.3-5.6,1.9-9.2,1.9s-6.5-.6-9.2-1.7"/>
  <polygon class="st0" points="201.6 2.6 201.6 49.5 190.2 49.5 190.2 21.4 179.7 49.5 170.4 49.5 159.9 21.3 159.9 49.5 148.5 49.5 148.5 2.6 162 2.6 175.1 35.1 188.2 2.6 201.6 2.6"/>
  <path class="st0" d="M268.1,48.3c-2.7-1.1-4.9-2.8-6.5-4.9-1.6-2.2-2.5-4.8-2.6-7.9h12.2c.2,1.7.8,3.1,1.8,4,1,.9,2.4,1.4,4,1.4s3-.4,4-1.2c1-.8,1.5-1.9,1.5-3.2s-.4-2.1-1.2-2.9c-.8-.8-1.7-1.4-2.9-1.9-1.1-.5-2.8-1-4.8-1.7-3-.9-5.5-1.9-7.4-2.8-1.9-.9-3.6-2.3-4.9-4.1-1.4-1.8-2.1-4.2-2.1-7.1,0-4.4,1.6-7.8,4.7-10.3,3.2-2.5,7.3-3.7,12.4-3.7s9.3,1.2,12.5,3.7c3.2,2.5,4.9,5.9,5.1,10.3h-12.4c0-1.5-.6-2.7-1.7-3.6-1-.9-2.3-1.3-3.9-1.3s-2.5.4-3.3,1.1c-.8.7-1.3,1.8-1.3,3.2s.7,2.7,2.1,3.5c1.4.8,3.7,1.8,6.7,2.7,3,1,5.5,2,7.4,2.9,1.9.9,3.5,2.3,4.9,4.1,1.4,1.8,2.1,4.1,2.1,6.9s-.7,5.1-2,7.3c-1.4,2.2-3.3,3.9-5.9,5.2-2.6,1.3-5.6,1.9-9.2,1.9s-6.5-.6-9.2-1.7"/>
  <path class="st1" d="M249.7,12.1c-.8-1.3-1.8-2.5-2.9-3.6-.8-.8-1.6-1.5-2.5-2.2-1.2-.9-2.6-1.7-4-2.4-2.9-1.4-6.1-2.1-9.5-2.1-12.4,0-22.5,10.1-22.5,22.5s1.3,8.7,3.6,12.2c.8-1.3,1.7-2.7,2.6-4.1-1.2-2.4-1.9-5.2-1.9-8.1,0-10,8.2-18.2,18.2-18.2s4,.3,5.8,1c1.5.5,2.9,1.2,4.2,2.1,1.3.9,2.6,2,3.6,3.2,1,1.2,1.9,2.5,2.6,3.9,1.2,2.4,1.9,5.2,1.9,8.1,0,10-8.2,18.2-18.2,18.2s-4-.3-5.8-1c-1.3,1.2-2.5,2.2-3.7,3.2,2.9,1.4,6.1,2.1,9.5,2.1,12.4,0,22.5-10.1,22.5-22.5,0-4.5-1.3-8.7-3.6-12.2M217.1,36.3c-.2.2-.3.5-.5.7-.7,1.1-1.3,2.2-1.9,3.1.8.8,1.6,1.5,2.5,2.2,1-.8,2.2-1.7,3.5-2.8-1.3-.9-2.6-2-3.6-3.2Z"/>
</svg>