<svg id="icon" height="512" viewBox="0 0 500 500" width="512" xmlns="http://www.w3.org/2000/svg"><path d="m163.342 75.24s8.307-29.7-14.916-45.313c-28.617-19.233-67.731.489-69.709 34.911a63.316 63.316 0 0 0 .041 7.717c2.685 41.621 44.753 38.162 64.892 24.9z" fill="#9dacce"/><path d="m339.635 71.66s-8.308-29.706 14.915-45.313c28.617-19.233 67.732.488 69.709 34.911a63.292 63.292 0 0 1 -.04 7.716c-2.685 41.621-44.754 38.163-64.893 24.9z" fill="#9dacce"/><path d="m153.152 327.189c-14.115 10.022-28.452 28.144-34.432 60.911a54.267 54.267 0 0 1 -13.064 26.451c-11.869 13.232-29.237 38.269-30.1 72.165h157.856c6.377-1.827 12.371-2.186 17.7 0h167.78s4.1-48.383-31.219-82.532a55.984 55.984 0 0 1 -16.486-31.564c-2.181-14.029-8.958-33.551-28.373-50.609a900.808 900.808 0 0 0 -189.662 5.178z" fill="#d9e0f9"/><path d="m299.019 336.211c11.473-5.872 25.851-11 43.789-14.2a114.356 114.356 0 0 0 -24.819-16.4l-129.733 9.173s-17.372-.183-35.1 12.4c12.218 1.94 56.763 12.653 66.848 66.525l13.409 93h17.7c-.11-14.917-.047-49.935 2.417-81.644a84.565 84.565 0 0 1 45.489-68.854z" fill="#9dacce"/><path d="m110.737 201.3 6.523 52.685 47.166 45.159 68.741 51.681 53.187-39.731 72.254-42.056 21.074-50.176-12.042-72.262-27.1-36.127-94.085-14.548c-62.623-12.68-104.365 32.061-135.718 105.375z" fill="#2b2b38"/><path d="m152.274 170.945a109.639 109.639 0 0 0 -1.58 23.9c2.274 62.528-12.5 67.075 31.264 98.339 0 0 27.286 23.875 92.656 16.485l63.1-33.538s10.8-18.758 1.136-68.781a327.443 327.443 0 0 1 -5.341-42.812c-40.109-68.457-161.648-44.697-181.235 6.407z" fill="#ffcec7"/><path d="m191.874 120.2s-31.88 8.9-39.6 50.749c12.464-11.489 43.587-32.586 104.113-32.586 34.659 0 59.694 12.084 77.115 26.179-1.619-27.629.794-45.864.794-45.864s-58.296-48.75-142.422 1.522z" fill="#e88b89"/><path d="m397.167 178.935s5.041-108.035-114.059-140.758a125.7 125.7 0 0 0 -85.619 6.484c-25.589 11.71-54.689 34.166-74.852 77.172 0 0-33.676 8.053-13.178 23.426 0 0-23.482 21.231-6.616 30.016 0 0-49.022 95.17 69.575 143.487 0 0 29.366 11.356 41.96 33.568 4.658.646 6.652 7.25 5.625 20.606v113.778h20.5s0-79.37 5.124-110.849c4.719-28.986 40.471-56.73 87.255-72.946a66.336 66.336 0 0 0 26.4-17.1c10.411-10.991 23.677-27.982 29.1-47.587 0 0 19.034 11.713 10.249-27.82 0 .002 25.623 5.859-1.464-31.477zm-54.3 80.712a88.18 88.18 0 0 1 -33.83 25.175c-27.35 11.567-52.5 26.163-73.3 54.151-6.377-2.38-10.4-9.341-13.675-17.78-9.271-9.838-23.852-22.39-45.5-34-52.072-27.929-51.618-59.055-51.618-59.055.785-23.518 8.07-41.072 16.573-56.5a93.317 93.317 0 0 1 67.124-47.025c21.77-3.471 51.528-4.337 86.949 4.431 25.146 6.224 46.631 22.963 57.859 46.308a86.048 86.048 0 0 1 8.264 29.938c1.987 22.694-8.185 41.362-18.851 54.357z" fill="#d9e0f9"/><path d="m214.373 352.332a41.343 41.343 0 0 1 5.63 20.6 89.926 89.926 0 0 1 15.729-33.963s-3.878-7.373-13.68-17.776a69.223 69.223 0 0 0 -7.679 31.139z" fill="#9dacce"/><ellipse cx="184.449" cy="222.302" fill="#ffabab" rx="14.401" ry="10.287"/><ellipse cx="311.965" cy="222.302" fill="#ffabab" rx="14.401" ry="10.287"/><g fill="#2b2b38"><path d="m237.561 252.293a24.266 24.266 0 0 0 17.531.714 41.621 41.621 0 0 0 15.329-9.041 5.5 5.5 0 1 0 -7.586-7.966 30.884 30.884 0 0 1 -11.27 6.587c-6.448 2.833-15.147-3.073-17.636-5.167-5.648-4.518-12.509 3.585-7.094 8.408a47.533 47.533 0 0 0 10.726 6.465z"/><path d="m217.505 212.574a5.5 5.5 0 0 0 5.5-5.5v-5.605c-.183-7.252-10.816-7.254-11 0v5.605a5.5 5.5 0 0 0 5.5 5.5z"/><path d="m272.913 212.574a5.5 5.5 0 0 0 5.5-5.5v-5.605c-.183-7.252-10.816-7.254-11 0v5.605a5.5 5.5 0 0 0 5.5 5.5z"/><path d="m391.5 400.227a50.713 50.713 0 0 1 -14.877-28.455c-2.895-18.626-12.875-44.083-43.165-63.679 27.036-12.644 48.591-35.275 58.488-62.869 13.764.962 16.327-11.57 13.38-29.277 15.792-4.293 10.909-19.821-2.622-38.735.027-6.974-.842-31.155-12.865-58.591-1.487-3.394-3.195-6.915-5.132-10.51 10.424 1.045 21.71-1.284 29.387-6.915 9.141-5.687 17.2-21.827 15.658-40.254a49.978 49.978 0 0 0 -28.094-42.279c-27.729-14.7-66.318 1.972-68.666 34.937-50.483-31.4-113.583-36.378-163.349.973-1.919-12.329-8.162-22.5-18.146-29.211-31.131-21.9-76.947 1.223-78.269 39.162-2.085 33.956 19.828 51.151 48.513 46.762q-1.524 2.9-2.978 5.893c-11.178 2.815-30 13.641-17.225 28.308-6.836 7.475-15.989 21.944-5.574 31.649-21.641 50.827-4.022 111.129 61.385 140.931-17.785 9.65-36.781 29.264-44.038 69.044a48.732 48.732 0 0 1 -11.746 23.766c-11.381 12.658-30.665 39.523-31.505 75.837h11c.876-32.743 18.343-56.961 28.687-68.492a59.717 59.717 0 0 0 14.381-29.137c7.654-41.959 29.3-58.555 46.59-65.061 4.319 1.932 40.5 19 43.782 49.2v113.49h11v-100.426c5.054-56.2 50.206-80.636 85.671-96.4 46.565-20.065 70.258-71.664 47.225-116.919-24.884-54.83-99.156-61.26-150.629-53.786a98.215 98.215 0 0 0 -71.074 49.8c-7.576 13.745-16.384 32.869-17.256 59.029-.032 1.431-.17 35.373 54.564 64.052 22.617 11.857 40.833 27.506 55.1 47.174a116.466 116.466 0 0 0 -8.023 16.762c-28.222-55.745-91.181-39.143-117.537-105.52-13.715-36.918 4.015-72.34 4.192-72.686a5.5 5.5 0 0 0 -2.349-7.4c-2.842-1.481-3.023-2.883-3.1-3.481-.609-4.7 6.126-13.272 10.864-17.577a5.534 5.534 0 0 0 -.389-8.479c-3.764-2.825-4.523-4.717-4.4-5.323.561-2.725 8.826-6.73 15.555-8.355a5.5 5.5 0 0 0 3.7-3.015 169.845 169.845 0 0 1 22.55-36.138c54.528-67.069 144.041-60.967 202.4-5.238a5.512 5.512 0 0 0 1.277 1.3q1.06 1.1 2.1 2.219a4.935 4.935 0 0 0 1.1 1.228c26.16 27.185 35.9 73.136 34.632 91.145a5.519 5.519 0 0 0 1.043 3.486c12.274 16.917 11.455 22.171 11.3 22.756a8.106 8.106 0 0 1 -4.16.131 5.539 5.539 0 0 0 -6.6 6.556c4.288 19.294.917 22.7.9 22.717a5.241 5.241 0 0 1 -2.9-.775 5.538 5.538 0 0 0 -8.184 3.217c-8.5 29.192-31.953 52.992-60.96 64.249-46.719 18.189-77.345 45.839-81.923 73.965-5.138 31.556-5.2 108.474-5.2 111.733h11c0-.789.059-79.286 5.054-109.965 3.725-22.887 30.307-46.881 69.846-63.373 32.076 17.894 42.115 42.488 44.851 60.086a61.783 61.783 0 0 0 18.1 34.674c25.339 26.025 29.611 54.03 29.85 78.578h11c-.035-26.371-4.198-56.315-33.19-86.488zm-246.3-205.182c.548 15.109.085 26.882-.287 36.342-.416 10.538-.737 18.815.6 26.216-14.53-15.85-15.06-28.666-15.075-29.37.81-23.625 8.489-40.52 15.925-54a111.347 111.347 0 0 0 -1.163 20.812zm203.289-17.309c9.786 20.45 11.338 43.436-.153 64.044-.393-24.713-8.848-53.371-9.419-79.214a78.632 78.632 0 0 1 9.571 15.17zm-143.479 121.092c-10.172-8.15-22.625-14.652-34.151-21.132-15.991-14.081-15.989-22.071-14.956-45.875.38-9.646.852-21.65.288-37.176-.764-21 4.9-36.039 8.615-43.542 20.791-19.435 50.85-24.025 78.764-23.448 8.417.359 30.376 7.253 26.963 27a22.011 22.011 0 0 1 -11.488 15c-6.954 3.724-12.945.463-15.571-4.141-1.019-1.786-3.766-7.964 3.654-12.46 3.53-1.571 6.187-4.72 4.128-8.623a5.5 5.5 0 0 0 -7.475-2.147c-12.935 6.04-15.342 19.8-9.862 28.679 21.409 32.066 66.336-10.85 40.059-40.681 18.858 2.733 39.066 8.143 53.52 20.722a332.633 332.633 0 0 0 5.949 57.385c4.66 24.119 4.336 40.427 3.164 50.093a83.123 83.123 0 0 1 -29.721 21.269c-14.545 6.151-30.366 13.85-45.609 25.519-21.36 1.198-40.17-.992-56.271-6.442zm17.57 15.618a168.991 168.991 0 0 0 25.542 2.129 152.469 152.469 0 0 0 -12.271 13.3 164.509 164.509 0 0 0 -13.271-15.429zm-63.3-251.612q-4.918 4.3-9.494 9.056c-4.931-14.2-17.817-21.523-25.359-23.609a5.5 5.5 0 0 0 -2.956 10.6c.676.194 14.35 4.289 18.271 17.69a39.766 39.766 0 0 0 -14.464-6.141c-7.142-1.175-9.141 9.228-2.082 10.8 2.8.552 9.7 2.765 12.929 6.923q-3.572 4.863-6.872 10.081c-9.98 3.277-23.715 4.426-33.33-1.957-8.785-5.088-12.7-19.26-11.719-31.119a39.1 39.1 0 0 1 22-33.058c24.787-12.449 54.303 4.014 53.081 30.734zm208.661 20.692a22.069 22.069 0 0 1 16.4-5.33c7.165.958 8.874-9.484 1.775-10.856a32.942 32.942 0 0 0 -21.938 5.291c4.811-14.949 16.562-19.144 17.216-19.366 6.813-2.413 3.562-12.5-3.386-10.465-.814.26-17.642 5.891-24.247 26.236q-4.7-4.17-10.043-8.152c-.307-9.445 1.967-21.95 13.9-29.973 27.682-18.711 64.849 4.748 61.113 37.709-1.14 24.1-19.069 32.693-41.571 27.04a141.957 141.957 0 0 0 -9.219-12.134z"/><path d="m361.728 441.573c-3.422-5.848-6.2-11.854-6.782-18.051-1.7-18.259-9.635-30.867-15.391-38.89-4.211-5.868-12.871-2.045-9.975 4.639 3.03 6.515 13.228 16.805 14.532 36.156.506 7.519 4.038 14.724 8.124 21.7a75.573 75.573 0 0 1 10.5 39.477v.107h10.987c-.589-16.025-3.075-30.86-11.995-45.138z"/><path d="m144.044 486.714v-.107a75.574 75.574 0 0 1 10.5-39.477 65.381 65.381 0 0 0 8.123-21.7c5.676-32.265 24.726-45.066 25.614-45.646 5.967-4.007.3-13.032-5.933-9.263-.975.621-23.944 15.656-30.515 53a54.429 54.429 0 0 1 -6.783 18.051 86.6 86.6 0 0 0 -12.009 45.141z"/></g></svg>