<?xml version="1.0" encoding="UTF-8"?>
<svg xmlns="http://www.w3.org/2000/svg" width="512" height="512" viewBox="0 0 128 128"><g><path d="M112.073,121.693,110,102.223a13,13,0,0,0-9.908-11.269l-8.221-1.963H36.128l-8.222,1.963A13,13,0,0,0,18,102.223l-2.072,19.47Z" fill="#a5cdff"/><path d="M74.959,73.909A36.372,36.372,0,0,1,70,76.972a13.191,13.191,0,0,1-11.992,0,36.372,36.372,0,0,1-4.963-3.063h0l-.957,11.272A38.016,38.016,0,0,0,64,97.8a38.016,38.016,0,0,0,11.921-12.62l-.958-11.272Z" fill="#f7d291"/><path d="M77.936,71.46l-.048.039A34.414,34.414,0,0,1,75,73.879l-.037.03.958,11.272A38.016,38.016,0,0,1,64,97.8s20.684.776,27.872-8.81C91.872,88.991,92.828,74.505,77.936,71.46Z" fill="#8cb4eb"/><path d="M52.079,85.181l.957-11.272L53,73.878A34.557,34.557,0,0,1,50.112,71.5l-.048-.04C35.172,74.505,36.128,88.991,36.128,88.991,43.316,98.577,64,97.8,64,97.8A38.016,38.016,0,0,1,52.079,85.181Z" fill="#8cb4eb"/><path d="M87.83,17.92c8.387,8.279.929,26.872.929,26.872l-4.05-4.085a12.2,12.2,0,0,1-3.438-7.026l-.832-6.417A71.31,71.31,0,0,1,64,29.015a71.31,71.31,0,0,1-16.439-1.751l-.832,6.417a12.207,12.207,0,0,1-3.438,7.026l-4.05,4.085s-8.9-22.18,3.671-28.877c0,0,.954-9.608,16.308-9.608s21.873,4.076,30.053,0C89.273,6.307,92.956,12.82,87.83,17.92Z" fill="#cd916e"/><path d="M39.241,44.792s-5.592-2.682-7.473,2.264c-1.452,3.82,1.087,11.13,9.107,9.594h46.25c8.02,1.536,10.559-5.774,9.107-9.594-1.881-4.946-7.473-2.264-7.473-2.264Z" fill="#f7d291"/><path d="M81.271,33.681l-.832-6.417A71.31,71.31,0,0,1,64,29.015a71.31,71.31,0,0,1-16.439-1.751l-.832,6.417a12.207,12.207,0,0,1-3.438,7.026l-4.05,4.085c0,19.473,11.435,28.435,18.763,32.18a13.191,13.191,0,0,0,11.992,0c7.328-3.745,18.763-12.707,18.763-32.18l-4.05-4.085A12.2,12.2,0,0,1,81.271,33.681Z" fill="#ffe1a0"/><g><path d="M56.021,62.114a1.75,1.75,0,0,0,.661,2.385A15.821,15.821,0,0,0,64,66.093,15.815,15.815,0,0,0,71.317,64.5a1.75,1.75,0,0,0-1.712-3.052A12.7,12.7,0,0,1,64,62.593a12.712,12.712,0,0,1-5.594-1.14A1.75,1.75,0,0,0,56.021,62.114Z"/><path d="M113.813,121.507l-1.363-12.8a1.75,1.75,0,1,0-3.48.371l1.363,12.8a1.75,1.75,0,0,0,1.738,1.565,1.717,1.717,0,0,0,.188-.01A1.749,1.749,0,0,0,113.813,121.507Z"/><path d="M110.041,101.619a1.75,1.75,0,0,0,1.187-2.172,14.672,14.672,0,0,0-2.223-4.519,1.749,1.749,0,1,0-2.83,2.057,11.233,11.233,0,0,1,1.694,3.447,1.749,1.749,0,0,0,2.172,1.187Z"/><path d="M100.079,89.152,93.6,87.6c-.21-3.734-1.8-13.4-12.324-17.043a34.187,34.187,0,0,0,7.068-12c.291.021.582.043.865.043a8.768,8.768,0,0,0,6.952-3.079,9.529,9.529,0,0,0,1.708-9.093,6.115,6.115,0,0,0-3.421-3.67,6.834,6.834,0,0,0-2.993-.428c1.709-5.576,4.3-17.306-1.294-24.429C93.6,13.336,92.17,7.874,90.8,5.446a1.751,1.751,0,0,0-2.3-.7c-4.555,2.268-8.571,1.742-14.646.945A105.911,105.911,0,0,0,59.22,4.557c-13.787,0-17.1,7.507-17.845,10.221a13.224,13.224,0,0,0-4.293,4.2,1.75,1.75,0,0,0,2.95,1.885,9.811,9.811,0,0,1,3.7-3.4,1.784,1.784,0,0,0,.916-1.354c.04-.329,1.123-8.048,14.568-8.048a101.526,101.526,0,0,1,14.171,1.1c5.581.732,10.109,1.327,14.955-.53a7.674,7.674,0,0,1-1.75,8.053,1.75,1.75,0,0,0,0,2.487c5.721,5.648,3.017,17.231,1.418,22.394l-2.068-2.085a10.519,10.519,0,0,1-2.944-6.019l-.832-6.417A1.75,1.75,0,0,0,80,25.571a70.014,70.014,0,0,1-16,1.695,70.512,70.512,0,0,1-16-1.695,1.75,1.75,0,0,0-2.178,1.468l-.831,6.417a10.519,10.519,0,0,1-2.946,6.019L39.98,41.561a41.86,41.86,0,0,1-2.036-12.709,1.751,1.751,0,0,0-1.705-1.8,1.717,1.717,0,0,0-1.794,1.705,44.69,44.69,0,0,0,2.106,13.573,6.84,6.84,0,0,0-3,.429,6.114,6.114,0,0,0-3.422,3.67,9.532,9.532,0,0,0,1.709,9.093,8.766,8.766,0,0,0,6.951,3.079c.284,0,.575-.022.866-.043a34.214,34.214,0,0,0,7.067,12C36.2,74.2,34.612,83.87,34.4,87.6l-6.9,1.648a14.776,14.776,0,0,0-11.24,12.786l-2.073,19.47a1.75,1.75,0,0,0,1.556,1.925,1.686,1.686,0,0,0,.187.01,1.751,1.751,0,0,0,1.738-1.565l2.073-19.47a11.27,11.27,0,0,1,8.572-9.752l7.159-1.709c4.308,4.881,11.786,7.017,18.021,7.939v16.245a1.75,1.75,0,0,0,3.5,0V99.3c2.465.223,4.52.269,5.773.269.647,0,1.066-.011,1.235-.017s.588.017,1.234.017c1.254,0,3.308-.046,5.774-.269v15.831a1.75,1.75,0,0,0,3.5,0V98.886c6.234-.922,13.713-3.058,18.021-7.939l6.738,1.609a1.728,1.728,0,0,0,.407.049,1.75,1.75,0,0,0,.4-3.453ZM93.147,46.015A2.645,2.645,0,0,1,94.6,47.678a6.048,6.048,0,0,1-1.118,5.6,5.28,5.28,0,0,1-4.13,1.827,43.517,43.517,0,0,0,1.137-9.074A4.465,4.465,0,0,1,93.147,46.015ZM44.534,41.94a14.043,14.043,0,0,0,3.93-8.034l.586-4.521A78.552,78.552,0,0,0,64,30.766a78.552,78.552,0,0,0,14.95-1.381l.586,4.52a14.027,14.027,0,0,0,3.93,8.034L87,45.5c-.28,18.227-11.231,26.559-17.8,29.915a11.467,11.467,0,0,1-10.4,0C52.234,72.059,41.284,63.727,41,45.5ZM34.521,53.277a6.048,6.048,0,0,1-1.117-5.6,2.648,2.648,0,0,1,1.438-1.659,4.436,4.436,0,0,1,2.672.014A43.561,43.561,0,0,0,38.652,55.1,5.292,5.292,0,0,1,34.521,53.277Zm3.338,35.084c-.011-2.405.641-12.262,11.724-14.994q.814.714,1.629,1.346l-.877,10.32a1.766,1.766,0,0,0,.188.95,37.778,37.778,0,0,0,8.162,9.928C52.488,95.482,42.448,93.915,37.859,88.361ZM64,95.667A37.38,37.38,0,0,1,53.868,84.794l.661-7.776c.939.581,1.842,1.085,2.678,1.512a14.96,14.96,0,0,0,13.585,0c.836-.427,1.739-.931,2.679-1.512l.661,7.776A37.375,37.375,0,0,1,64,95.667Zm5.315.244a37.778,37.778,0,0,0,8.162-9.928,1.766,1.766,0,0,0,.188-.95l-.876-10.321q.811-.632,1.628-1.345c11.026,2.723,11.72,12.6,11.721,15C85.548,93.914,75.511,95.482,69.315,95.911Z"/><path d="M51.411,43.524a5.358,5.358,0,0,1,5.651,0,1.75,1.75,0,0,0,2.329-2.613,7.837,7.837,0,0,0-5.153-1.691,7.833,7.833,0,0,0-5.152,1.691,1.733,1.733,0,0,0-.131,2.431A1.769,1.769,0,0,0,51.411,43.524Z"/><path d="M56.653,48.207a2.415,2.415,0,1,0-2.415,2.414A2.415,2.415,0,0,0,56.653,48.207Z"/><path d="M70.935,43.523a5.363,5.363,0,0,1,5.652,0,1.75,1.75,0,0,0,2.328-2.613,8.7,8.7,0,0,0-10.306,0,1.733,1.733,0,0,0-.13,2.431A1.766,1.766,0,0,0,70.935,43.523Z"/><path d="M73.762,45.792a2.415,2.415,0,1,0,2.414,2.415A2.415,2.415,0,0,0,73.762,45.792Z"/></g></g></svg>
