<svg version="1.1" id="Capa_1" xmlns="http://www.w3.org/2000/svg" xmlns:xlink="http://www.w3.org/1999/xlink" x="0px" y="0px" viewBox="0 0 512 512" style="enable-background:new 0 0 512 512;" xml:space="preserve">
<g>
	<g>
		<path style="fill:#A46A5A;" d="M256,7.628c-75.243,0-136.239,60.996-136.239,136.239v61.441&#10;&#9;&#9;&#9;c0,122.755,80.14,170.839,80.14,170.839H256V7.628z"/>
		<path style="fill:#FBBD80;" d="M408.242,397.007l-82.771-29.213c-12.816-4.523-21.387-16.637-21.387-30.229v-49.574h-96.168&#10;&#9;&#9;&#9;v49.574c0,13.591-8.571,25.705-21.387,30.229l-82.771,29.213c-19.224,6.785-32.081,24.956-32.081,45.343h368.646&#10;&#9;&#9;&#9;C440.323,421.963,427.467,403.792,408.242,397.007z"/>
		<path style="fill:#F4AA73;" d="M304.084,337.565v-49.574h-96.169v38.205c3.101,1.315,6.012,2.47,8.765,3.392&#10;&#9;&#9;&#9;c15.672,5.238,31.737,7.273,47.898,6.137c13.541-0.952,15.827,9.328,16.919,14.056c4.286,18.539,17.52,34.175,35.968,40.687&#10;&#9;&#9;&#9;l8.004-22.674C312.655,363.271,304.084,351.157,304.084,337.565z"/>
		<path style="fill:#FBF4DB;" d="M408.242,397.007l-64.745-22.852c-20.562,25.619-52.09,42.061-87.497,42.061&#10;&#9;&#9;&#9;c-35.407,0-66.934-16.441-87.497-42.061l-64.746,22.852c-19.224,6.785-32.08,24.956-32.08,45.343v62.148h288.506l15.034-12.156&#10;&#9;&#9;&#9;l18.027,12.156h23.037l24.042-19.106V442.35C440.323,421.963,427.467,403.793,408.242,397.007z"/>
		<path style="fill:#F8EBCC;" d="M408.242,397.007l-64.745-22.852c-20.562,25.619-52.089,42.061-87.497,42.061&#10;&#9;&#9;&#9;c-35.407,0-66.934-16.441-87.497-42.061l-31.636,11.166c25.981,37.994,69.631,62.951,119.133,62.951&#10;&#9;&#9;&#9;c40.297,0,76.714-16.543,102.88-43.191l41.36,14.595c9.613,3.392,16.042,12.478,16.042,22.672v62.15h24.042V442.35&#10;&#9;&#9;&#9;C440.323,421.963,427.467,403.793,408.242,397.007z"/>
		<path style="fill:#C6805D;" d="M256,7.5v136.239h48.084v200.479c0,70.765,56.098,96.169,56.098,160.281l32.056-24.536V143.739v0&#10;&#9;&#9;&#9;C392.239,68.496,331.243,7.5,256,7.5z"/>
		<path style="fill:#A46A5A;" d="M336.14,344.219c0,27.317,4.859,46.061,10.483,67.763c6.356,24.519,13.559,52.314,13.559,92.515&#10;&#9;&#9;&#9;c0,0,0,0,0,0.001h1.002l31.054-0.046V143.739v0c0-5.432-0.406-10.762-1.024-16.028H336.14V344.219z"/>
		<path style="fill:#FFD18D;" d="M371.061,175.795h-2.864c-13.278,0-24.042-10.764-24.042-24.042V95.655H167.845v56.098&#10;&#9;&#9;&#9;c0,13.278-10.764,24.042-24.042,24.042h-2.864c-10.48,0-20.03,7.54-21.074,17.968c-1.201,11.993,8.184,22.102,19.931,22.102&#10;&#9;&#9;&#9;h12.426c4.105,53.781,48.945,96.169,103.778,96.169s99.673-42.387,103.778-96.169h12.426c11.747,0,21.132-10.11,19.931-22.102&#10;&#9;&#9;&#9;C391.091,183.335,381.541,175.795,371.061,175.795z"/>
		<path style="fill:#FBBD80;" d="M371.061,175.795h-2.864c-13.278,0-24.042-10.764-24.042-24.042V95.655H180.618l6.895,6.03&#10;&#9;&#9;&#9;c32.894,28.781,74.036,48.186,118.966,56.122c7.897,1.393,13.633,8.049,13.633,15.821v34.224c0,47.716-34.24,87.634-81.408,94.912&#10;&#9;&#9;&#9;l-18.475,2.851c11.163,4.093,23.182,6.419,35.771,6.419c54.832,0,99.673-42.387,103.778-96.169h12.426&#10;&#9;&#9;&#9;c11.747,0,21.133-10.11,19.931-22.102C391.09,183.335,381.54,175.795,371.061,175.795z"/>
		<path style="fill:#C6805D;" d="M119.761,143.866v0.037c44.78-0.997,83.331-18.712,109.452-44.711l-62.55-58.022&#10;&#9;&#9;&#9;C137.977,66.147,119.761,102.843,119.761,143.866z"/>
		<path style="fill:#A46A5A;" d="M256,7.5v0.128c-34.22,0-65.409,12.708-89.337,33.543c36.811,57.893,105.63,96.912,184.57,96.912&#10;&#9;&#9;&#9;c13.869,0,27.412-1.246,40.542-3.543C387.023,63.606,328.137,7.5,256,7.5z"/>
		<path style="fill:#845252;" d="M353.613,106.024c10.817,0,21.598-1.079,32.073-3.151C368.331,47.639,316.968,7.5,256,7.5v0.128&#10;&#9;&#9;&#9;c-16.819,0-32.89,3.102-47.742,8.697C235.084,70.907,291.676,106.024,353.613,106.024z"/>
	</g>
	<g>
		<path style="fill:none;stroke:#000000;stroke-width:15;stroke-linecap:round;stroke-linejoin:round;stroke-miterlimit:10;" d="&#10;&#9;&#9;&#9;M231.952,239.967c4.836,4.772,13.74,8.016,24.048,8.016c10.309,0,19.212-3.244,24.048-8.016"/>
		<path style="fill:none;stroke:#000000;stroke-width:15;stroke-linecap:round;stroke-linejoin:round;stroke-miterlimit:10;" d="&#10;&#9;&#9;&#9;M207.903,304.096v33.427c0,13.595-8.573,25.712-21.393,30.236l-82.792,29.221c-19.23,6.787-32.089,24.963-32.089,45.355v62.164"/>
		<path style="fill:none;stroke:#000000;stroke-width:15;stroke-linecap:round;stroke-linejoin:round;stroke-miterlimit:10;" d="&#10;&#9;&#9;&#9;M392.269,391.328l16.012,5.651c19.23,6.787,32.089,24.963,32.089,45.355v62.164"/>
		<path style="fill:none;stroke:#000000;stroke-width:15;stroke-linecap:round;stroke-linejoin:round;stroke-miterlimit:10;" d="&#10;&#9;&#9;&#9;M360.205,207.98C360.163,265.497,313.527,312.112,256,312.112c-57.553,0-104.209-46.656-104.209-104.209v8.016h-12.024&#10;&#9;&#9;&#9;c-11.75,0-21.138-10.112-19.936-22.108c1.045-10.431,10.599-17.973,21.082-17.973l2.862,0c13.282,0,24.048-10.767,24.048-24.048&#10;&#9;&#9;&#9;v-13.528"/>
		<path style="fill:none;stroke:#000000;stroke-width:15;stroke-linecap:round;stroke-linejoin:round;stroke-miterlimit:10;" d="&#10;&#9;&#9;&#9;M360.209,504.499c0-64.129-56.113-89.539-56.113-160.322v-40.208"/>
		<path style="fill:none;stroke:#000000;stroke-width:15;stroke-linecap:round;stroke-linejoin:round;stroke-miterlimit:10;" d="&#10;&#9;&#9;&#9;M392.274,504.499V143.774C392.274,68.512,331.262,7.5,256,7.5h0c-75.262,0-136.274,61.012-136.274,136.274v61.457&#10;&#9;&#9;&#9;c0,107.549,66.784,162.528,66.784,162.528"/>
		<path style="fill:none;stroke:#000000;stroke-width:15;stroke-linecap:round;stroke-linejoin:round;stroke-miterlimit:10;" d="&#10;&#9;&#9;&#9;M389.508,134.21c-13.484,2.477-27.447,3.778-41.751,3.778c-78.293,0-146.399-38.981-181.346-96.411"/>
		<path style="fill:none;stroke:#000000;stroke-width:15;stroke-linecap:round;stroke-linejoin:round;stroke-miterlimit:10;" d="&#10;&#9;&#9;&#9;M360.21,215.919h12.024c11.75,0,21.138-10.112,19.936-22.108c-1.045-10.431-10.599-17.973-21.082-17.973l-2.862,0&#10;&#9;&#9;&#9;c-13.282,0-24.048-10.767-24.048-24.048v-11.351"/>
		<path style="fill:none;stroke:#000000;stroke-width:15;stroke-linecap:round;stroke-linejoin:round;stroke-miterlimit:10;" d="&#10;&#9;&#9;&#9;M120.423,143.774c42.732-0.857,79.585-17.005,104.565-40.602"/>
		
			<line style="fill:none;stroke:#000000;stroke-width:15;stroke-linecap:round;stroke-linejoin:round;stroke-miterlimit:10;" x1="207.903" y1="183.854" x2="207.903" y2="191.87"/>
		
			<line style="fill:none;stroke:#000000;stroke-width:15;stroke-linecap:round;stroke-linejoin:round;stroke-miterlimit:10;" x1="304.097" y1="183.854" x2="304.097" y2="191.87"/>
		
			<line style="fill:none;stroke:#000000;stroke-width:15;stroke-linecap:round;stroke-linejoin:round;stroke-miterlimit:10;" x1="199.887" y1="159.806" x2="217.898" y2="157.505"/>
		
			<line style="fill:none;stroke:#000000;stroke-width:15;stroke-linecap:round;stroke-linejoin:round;stroke-miterlimit:10;" x1="294.102" y1="157.505" x2="312.113" y2="159.806"/>
		<path style="fill:none;stroke:#000000;stroke-width:15;stroke-linecap:round;stroke-linejoin:round;stroke-miterlimit:10;" d="&#10;&#9;&#9;&#9;M248.435,68.778c28.065,23.477,64.383,37.144,102.779,37.144c10.738,0,21.448-1.049,31.834-3.12"/>
		<path style="fill:none;stroke:#000000;stroke-width:15;stroke-linecap:round;stroke-linejoin:round;stroke-miterlimit:10;" d="&#10;&#9;&#9;&#9;M208.031,16.477c5.078,10.844,11.38,20.923,18.706,30.109"/>
		<path style="fill:none;stroke:#000000;stroke-width:15;stroke-linecap:round;stroke-linejoin:round;stroke-miterlimit:10;" d="&#10;&#9;&#9;&#9;M336.161,274.935v69.243c0,27.324,4.86,46.073,10.486,67.781c6.358,24.526,13.562,52.328,13.562,92.541"/>
		<g>
			<path style="fill:none;stroke:#000000;stroke-width:15;stroke-linecap:round;stroke-linejoin:round;stroke-miterlimit:10;" d="&#10;&#9;&#9;&#9;&#9;M300.652,441.151c-13.691,4.31-29.537,7.107-44.652,7.107c-49.125,0-92.516-24.549-118.574-62.049"/>
			<path style="fill:none;stroke:#000000;stroke-width:15;stroke-linecap:round;stroke-linejoin:round;stroke-miterlimit:10;" d="&#10;&#9;&#9;&#9;&#9;M315.189,399.334c-17.183,10.687-37.465,16.86-59.189,16.86c-35.255,0-66.714-16.257-87.288-41.683"/>
		</g>
	</g>
</g>
<g>
</g>
<g>
</g>
<g>
</g>
<g>
</g>
<g>
</g>
<g>
</g>
<g>
</g>
<g>
</g>
<g>
</g>
<g>
</g>
<g>
</g>
<g>
</g>
<g>
</g>
<g>
</g>
<g>
</g>
</svg>