<svg id="Layer_1" viewBox="0 0 512 512" xmlns="http://www.w3.org/2000/svg" data-name="Layer 1"><path d="m225.421 236.476h-59.254c-5.245 0-8.471 2.223-9.77 5.069a8.665 8.665 0 0 0 0 6.9c1.3 2.845 4.525 5.069 9.77 5.069h59.254c5.245 0 8.471-2.224 9.771-5.069a8.659 8.659 0 0 0 0-6.9c-1.3-2.846-4.525-5.069-9.77-5.069zm-54.5-13.829h49.743c5.245 0 8.471-2.224 9.77-5.069a8.665 8.665 0 0 0 0-6.9c-1.3-2.846-4.525-5.069-9.77-5.069h-49.741c-5.246 0-8.471 2.223-9.771 5.069a8.665 8.665 0 0 0 0 6.9c1.3 2.845 4.525 5.069 9.771 5.069zm2.5 44.693c-5.246 0-8.471 2.223-9.771 5.069a8.665 8.665 0 0 0 0 6.9c1.3 2.845 4.525 5.069 9.771 5.069h44.739c5.245 0 8.471-2.224 9.77-5.069a8.665 8.665 0 0 0 0-6.9c-1.3-2.846-4.525-5.069-9.77-5.069h-44.735zm9.587 30.865c-5.245 0-8.471 2.223-9.77 5.069a8.665 8.665 0 0 0 0 6.9c1.3 2.845 4.525 5.069 9.77 5.069h25.564c5.245 0 8.471-2.224 9.771-5.069a8.671 8.671 0 0 0 0-6.9c-1.3-2.846-4.525-5.069-9.77-5.069h-25.561zm-102.179-98.845h-36.458a2.742 2.742 0 0 0 -2.714 2.713v111.727a2.74 2.74 0 0 0 2.714 2.713h36.458a2.74 2.74 0 0 0 2.714-2.713v-111.727a2.742 2.742 0 0 0 -2.714-2.713zm-13 103.852a6.9 6.9 0 1 1 -11.937-6.912l.483-.835a6.9 6.9 0 0 1 11.938 6.914l-.483.835zm95.234-174.443a18.474 18.474 0 0 1 1.409 1.634c5.076 6.6 7.749 18.108 4.23 30.656l-9.275 33.074a21.749 21.749 0 0 0 -10.808 10.821 22.115 22.115 0 0 0 2.281 22.246 21.737 21.737 0 0 0 -7.036 8.621 21.918 21.918 0 0 0 0 18.351 21.71 21.71 0 0 0 8.763 9.752 21.976 21.976 0 0 0 -1.506 21.113 21.734 21.734 0 0 0 10.526 10.688q-.512.894-.938 1.827a21.9 21.9 0 0 0 -.276 17.72h-43.517v-.027a27.857 27.857 0 0 1 -12.564-3.287 20.218 20.218 0 0 1 -6.981-5.706v-93.128c.972-.431 2.36-1.019 3.657-1.569a35.662 35.662 0 0 0 5.768-2.829c21.046-14.135 27.91-34.345 35.486-56.652 1.7-5.008 3.438-10.124 5.147-14.679 2.742-7.305 5.888-10.823 8.849-11.547a5.271 5.271 0 0 1 3.522.491 11.053 11.053 0 0 1 2.8 1.979q.218.235.459.451zm77.612 134.031a21.735 21.735 0 0 0 7.049-8.63 21.923 21.923 0 0 0 0-18.351 21.744 21.744 0 0 0 -7.036-8.621 21.985 21.985 0 0 0 2.281-22.243c-3.109-6.807-9.683-12.244-19.648-13.064a89.239 89.239 0 1 1 17.354 70.909zm-30.134 80.6-32.441 79.671 41.1-23.33a6.892 6.892 0 0 1 10.018 4.075l13.12 45.419 33.831-83.088a36.315 36.315 0 0 0 -7.832-3.443c-4.808-1.323-10.9-1.1-16.97-.877-9.7.355-19.347.708-27.828-4.26-5.844-3.423-9.734-8.534-13.006-14.168zm209.314-15.832 44.269 108.723h-.011a6.894 6.894 0 0 1 -9.793 8.584l-50.806-28.837-16.077 55.662a6.906 6.906 0 0 1 -13.155 1.15l-40.471-99.394c-7.021 4.219-14.337 7.8-22.845 7.8s-15.825-3.579-22.848-7.8l-40.471 99.4a6.906 6.906 0 0 1 -13.155-1.15l-16.076-55.652-50.806 28.828a6.894 6.894 0 0 1 -9.793-8.584h-.011l43.658-107.228h-18.452c-.444 0-.882-.01-1.314-.027h-64.782v.027a42.039 42.039 0 0 1 -18.992-4.908q-1.533-.81-2.986-1.745a16.6 16.6 0 0 1 -14.109 7.923h-36.458a16.573 16.573 0 0 1 -16.543-16.54v-111.727a16.571 16.571 0 0 1 16.543-16.541h36.458a16.588 16.588 0 0 1 16.112 12.792 17.443 17.443 0 0 0 2.185-1.05c17.137-11.509 23.291-29.629 30.083-49.63 1.606-4.728 3.247-9.56 5.31-15.057 4.56-12.149 11.33-18.377 18.518-20.135a18.686 18.686 0 0 1 12.651 1.409c.268.127.535.26.8.4 4.831-4.644 10.963-7.764 17.083-10.878 5.3-2.694 10.582-5.384 13.965-8.767s6.074-8.67 8.769-13.967c4.353-8.556 8.719-17.138 17.241-22.129 8.482-4.969 18.129-4.615 27.829-4.26 6.069.222 12.163.446 16.971-.877 4.64-1.277 9.713-4.466 14.839-7.689 8.57-5.388 17.266-10.855 27.782-10.855s19.21 5.467 27.779 10.854c5.127 3.223 10.2 6.412 14.841 7.689 4.809 1.322 10.9 1.1 16.97.877 9.7-.356 19.348-.709 27.829 4.259 8.523 4.993 12.889 13.574 17.242 22.131 2.695 5.3 5.385 10.582 8.768 13.965s8.67 6.074 13.966 8.769c8.557 4.353 17.138 8.72 22.13 17.241 4.968 8.481 4.615 18.129 4.26 27.828-.222 6.069-.445 12.163.878 16.972 1.276 4.641 4.465 9.714 7.688 14.84 5.387 8.57 10.855 17.266 10.855 27.781s-5.467 19.21-10.854 27.78c-3.223 5.126-6.413 10.2-7.689 14.841-1.322 4.808-1.1 10.9-.877 16.97.356 9.7.709 19.347-4.259 27.829-4.993 8.523-13.575 12.889-22.131 17.242-5.3 2.695-10.582 5.384-13.965 8.767a31.654 31.654 0 0 0 -4.542 6.1zm-74.1 38.581 33.831 83.087 13.114-45.416a6.893 6.893 0 0 1 10.019-4.075l41.1 23.33-32.438-79.665c-3.271 5.632-7.16 10.742-13 14.164-8.481 4.968-18.129 4.614-27.828 4.26-6.069-.223-12.163-.445-16.973.878a36.377 36.377 0 0 0 -7.834 3.444zm-12.642-8.5-1.709 1.072c-6.863 4.315-13.828 8.694-20.435 8.694s-13.57-4.378-20.433-8.693q-.855-.537-1.708-1.072a6.947 6.947 0 0 0 -.731-.455c-5.158-3.2-10.355-6.195-16.13-7.783-6.85-1.884-13.977-1.623-21.075-1.363-7.705.282-15.37.563-20.374-2.369-4.976-2.915-8.441-9.724-11.895-16.513q-.4-.78-.8-1.558a21.877 21.877 0 0 0 13.055-11.709 21.916 21.916 0 0 0 0-18.35q-.424-.933-.938-1.827a21.734 21.734 0 0 0 10.526-10.688q.334-.732.613-1.479a102.851 102.851 0 1 0 -31.719-91.773h-34.939l7.571-27c4.508-16.077 1.2-31.345-5.358-41.072 3.441-3.05 8.326-5.535 13.2-8.016 6.287-3.2 12.562-6.392 17.477-11.306s8.107-11.19 11.306-17.478c3.455-6.789 6.919-13.6 11.894-16.512 5-2.931 12.67-2.651 20.375-2.368 7.1.259 14.226.521 21.076-1.363 6.684-1.839 12.594-5.555 18.566-9.31 6.864-4.315 13.829-8.695 20.436-8.695s13.57 4.379 20.433 8.693c5.973 3.755 11.884 7.472 18.568 9.31 6.85 1.884 13.978 1.623 21.076 1.363 7.7-.282 15.37-.563 20.374 2.369 4.976 2.915 8.44 9.723 11.9 16.513 3.2 6.287 6.391 12.562 11.306 17.477s11.187 8.112 17.479 11.312c6.789 3.455 13.6 6.919 16.512 11.894 2.932 5.005 2.651 12.669 2.369 20.374-.259 7.1-.52 14.227 1.364 21.077 1.839 6.684 5.554 12.594 9.31 18.568 4.314 6.863 8.693 13.828 8.693 20.434s-4.378 13.57-8.693 20.433c-3.755 5.974-7.471 11.885-9.31 18.569-1.884 6.85-1.622 13.977-1.363 21.075.283 7.705.563 15.37-2.368 20.375-2.915 4.976-9.724 8.44-16.513 11.894-6.288 3.2-12.562 6.392-17.477 11.306s-8.107 11.19-11.307 17.478c-3.454 6.789-6.919 13.6-11.893 16.512-5 2.932-12.669 2.651-20.374 2.369-7.1-.26-14.227-.52-21.078 1.364-5.775 1.589-10.974 4.58-16.135 7.787a6.884 6.884 0 0 0 -.722.45zm-66.097-136.449 26.828 23.086a6.9 6.9 0 0 0 9.723-.756q.166-.2.315-.4l51.818-61.66a6.882 6.882 0 1 0 -10.533-8.859l-47.616 56.668-21.564-18.556a6.9 6.9 0 1 0 -8.967 10.479z" fill-rule="evenodd"/></svg>