<svg id="Glyph" enable-background="new 0 0 32 32" height="512" viewBox="0 0 32 32" width="512" xmlns="http://www.w3.org/2000/svg"><path id="XMLID_1233_" d="m7 30v-3l-4.073-4.887c-.599-.719-.927-1.625-.927-2.561v-9.052c0-.828.672-1.5 1.5-1.5s1.5.672 1.5 1.5v3.554c-.678.69-1.003 1.571-1 2.448.003.818.3 1.593.725 2.119l2.227 2.979c.331.442.957.533 1.399.202s.533-.958.202-1.399l-2.249-3.007c-.43-.536-.425-1.401.133-1.958.525-.525 1.561-.55 2.102-.009l4.602 4.695c.554.565.859 1.311.859 2.101v7.775z"/><path id="XMLID_1232_" d="m18 30v-7.775c0-.79.305-1.536.858-2.101l4.602-4.695c.538-.538 1.573-.52 2.102.009.558.556.564 1.422.133 1.958l-2.249 3.007c-.331.442-.24 1.069.202 1.399.443.331 1.069.24 1.399-.202l2.227-2.979c.425-.525.722-1.3.725-2.119.003-.878-.322-1.758-1-2.448v-3.554c.001-.828.673-1.5 1.501-1.5s1.5.672 1.5 1.5v9.052c0 .936-.328 1.842-.927 2.561l-4.073 4.887v3z"/><path d="m20 16h-8c.004-1.62 2-3 3-3v-4s-.381-2.802-2.345-3c.561 1.1.849 2.082 1.002 2.779-3.114-.727-3.657-2.651-3.657-5.779 2.506 0 4.706.83 6 3 .369-2.709 3.16-4 6-4 0 2.628-.381 5.211-3.675 5.855.148-.703.44-1.718 1.02-2.855-1.964.198-2.345 3-2.345 3v5c1 0 3 1.357 3 3z"/></svg>