<svg id="Layer_1" height="512" viewBox="0 0 64 64" width="512" xmlns="http://www.w3.org/2000/svg" data-name="Layer 1"><rect fill="#748ca6" height="10" rx="5" width="60" x="2" y="52"/><path d="m7 38h14v14h-14z" fill="#f5c07b"/><path d="m25 38h14v14h-14z" fill="#e8b674"/><path d="m43 38h14v14h-14z" fill="#f5c07b"/><circle cx="7.5" cy="57" fill="#f2f2f2" r="2"/><circle cx="56.5" cy="57" fill="#f2f2f2" r="2"/><circle cx="14" cy="7" fill="#7accbc" r="5"/><path d="m27 12h10l-5-10z" fill="#ffeb8c"/><path d="m50 2 1.625 3.292 3.632.528-2.628 2.562.62 3.618-3.249-1.708-3.249 1.708.62-3.618-2.628-2.562 3.632-.528z" fill="#d98283"/><path d="m12 38h4v5h-4z" fill="#f9e1bb"/><path d="m30 38h4v5h-4z" fill="#f9e1bb"/><path d="m48 38h4v5h-4z" fill="#f9e1bb"/><g fill="#404040"><path d="m58 51.09v-13.09a1 1 0 0 0 -1-1h-14a1 1 0 0 0 -1 1v13h-2v-13a1 1 0 0 0 -1-1h-14a1 1 0 0 0 -1 1v13h-2v-13a1 1 0 0 0 -1-1h-14a1 1 0 0 0 -1 1v13.09a6 6 0 0 0 1 11.91h50a6 6 0 0 0 1-11.91zm-9-12.09h2v3h-2zm-5 0h3v4a1 1 0 0 0 1 1h4a1 1 0 0 0 1-1v-4h3v12h-12zm-13 0h2v3h-2zm-5 0h3v4a1 1 0 0 0 1 1h4a1 1 0 0 0 1-1v-4h3v12h-12zm-13 0h2v3h-2zm-5 0h3v4a1 1 0 0 0 1 1h4a1 1 0 0 0 1-1v-4h3v12h-12zm49 22h-50a4 4 0 0 1 0-8h50a4 4 0 0 1 0 8z"/><path d="m7.5 54a3 3 0 1 0 3 3 3 3 0 0 0 -3-3zm0 4a1 1 0 1 1 1-1 1 1 0 0 1 -1 1z"/><path d="m56.5 54a3 3 0 1 0 3 3 3 3 0 0 0 -3-3zm0 4a1 1 0 1 1 1-1 1 1 0 0 1 -1 1z"/><path d="m14 13a6 6 0 1 0 -6-6 6.006 6.006 0 0 0 6 6zm0-10a4 4 0 1 1 -4 4 4 4 0 0 1 4-4z"/><path d="m27 13h10a1 1 0 0 0 .9-1.447l-5-10a1.042 1.042 0 0 0 -1.79 0l-5 10a1 1 0 0 0 .89 1.447zm5-8.764 3.382 6.764h-6.764z"/><path d="m46.3 8.731-.531 3.1a1 1 0 0 0 1.45 1.054l2.781-1.463 2.784 1.463a1 1 0 0 0 1.45-1.054l-.531-3.1 2.252-2.2a1 1 0 0 0 -.555-1.701l-3.111-.452-1.389-2.821a1.041 1.041 0 0 0 -1.792 0l-1.397 2.821-3.111.452a1 1 0 0 0 -.555 1.706zm2.222-2.449a1 1 0 0 0 .752-.547l.726-1.476.729 1.476a1 1 0 0 0 .752.547l1.627.236-1.177 1.148a1 1 0 0 0 -.287.885l.277 1.621-1.456-.765a1 1 0 0 0 -.93 0l-1.456.765.277-1.621a1 1 0 0 0 -.287-.885l-1.177-1.148z"/><path d="m13 17v11.828l-1.681-2.4-1.638 1.145 3.5 5a1 1 0 0 0 1.638 0l3.5-5-1.638-1.146-1.681 2.401v-11.828z"/><path d="m31 17v11.828l-1.681-2.4-1.638 1.146 3.5 5a1 1 0 0 0 1.638 0l3.5-5-1.638-1.146-1.681 2.4v-11.828z"/><path d="m49 17v11.828l-1.681-2.4-1.638 1.146 3.5 5a1 1 0 0 0 1.638 0l3.5-5-1.638-1.146-1.681 2.4v-11.828z"/></g></svg>