<svg height="512" viewBox="0 0 128 128" width="512" xmlns="http://www.w3.org/2000/svg"><g><g><path d="m20.691 31.668h8.434v6h-8.434z" fill="#fd9600"/><path d="m26.691 48.5v-18.308a6 6 0 0 1 6-6h13.642a29.284 29.284 0 0 1 28.858 24.308z" fill="#fbd62e"/><path d="m36.624 34.409a2.91 2.91 0 0 1 2.91-2.91h5.742a7.009 7.009 0 0 1 6.907 5.819h-12.649a2.91 2.91 0 0 1 -2.91-2.909z" fill="#efeffb"/><path d="m24.192 46h50.141a6 6 0 0 1 6 6v1.552a0 0 0 0 1 0 0h-56.141a0 0 0 0 1 0 0v-7.552a0 0 0 0 1 0 0z" fill="#fd9600"/><g fill="#537980"><path d="m41.388 120.768a3 3 0 0 1 -.3-4.231l54.532-62.983 4.535 3.928-54.536 62.982a3 3 0 0 1 -4.231.304z"/><path d="m86.612 120.768a3 3 0 0 0 .3-4.231l-54.532-62.983-4.535 3.928 54.536 62.982a3 3 0 0 0 4.231.304z"/></g><path d="m15.5 57.835h97a6 6 0 0 1 6 6v3.165a0 0 0 0 1 0 0h-109a0 0 0 0 1 0 0v-3.165a6 6 0 0 1 6-6z" fill="#385b60" transform="matrix(-1 0 0 -1 128 124.837)"/><path d="m9.5 52h109a3 3 0 0 1 3 3 6 6 0 0 1 -6 6h-103a6 6 0 0 1 -6-6 3 3 0 0 1 3-3z" fill="#efeffb" transform="matrix(-1 0 0 -1 128 113.004)"/></g><g fill="#2d0703"><path d="m63.536 40.5a1.751 1.751 0 0 0 2.8-2.106 25.045 25.045 0 0 0 -3.575-3.832 1.75 1.75 0 0 0 -2.3 2.643 21.449 21.449 0 0 1 3.075 3.295z"/><path d="m34.874 34.409a4.665 4.665 0 0 0 4.66 4.659h12.65a1.75 1.75 0 0 0 1.724-2.047 8.74 8.74 0 0 0 -8.633-7.271h-5.741a4.665 4.665 0 0 0 -4.66 4.659zm4.66-1.159h5.741a5.25 5.25 0 0 1 4.365 2.318h-10.106a1.159 1.159 0 1 1 0-2.318z"/><path d="m77.385 81.108-1.909 2.2a1.75 1.75 0 1 0 2.644 2.292l1.909-2.2a1.75 1.75 0 1 0 -2.644-2.292z"/><path d="m123.25 58a7.759 7.759 0 0 0 -7.75-7.75h-9.251a1.75 1.75 0 0 0 0 3.5h9.251a4.255 4.255 0 0 1 4.25 4.25 1.251 1.251 0 0 1 -1.244 1.249h-.006-.019-108.962-.019-.006a1.251 1.251 0 0 1 -1.244-1.249 4.255 4.255 0 0 1 4.25-4.25h84.333a1.75 1.75 0 0 0 0-3.5h-14.959a7.768 7.768 0 0 0 -5.882-5.818 31.01 31.01 0 0 0 -29.662-21.992 1.75 1.75 0 0 0 0 3.5 27.53 27.53 0 0 1 25.947 18.31h-43.837v-14.06a4.255 4.255 0 0 1 4.25-4.25h4.935a1.75 1.75 0 0 0 0-3.5h-4.935a7.753 7.753 0 0 0 -7.736 7.48h-4.264a1.751 1.751 0 0 0 -1.75 1.75v1.153a4.255 4.255 0 0 1 -3.36-4.153v-16.17a7.759 7.759 0 0 0 -7.75-7.75h-1.33a1.75 1.75 0 0 0 0 3.5h1.33a4.255 4.255 0 0 1 4.25 4.25v16.17a7.759 7.759 0 0 0 6.86 7.7v1.3a1.751 1.751 0 0 0 1.75 1.75h4.25v4.83h-.75a1.751 1.751 0 0 0 -1.75 1.75v4.252h-9.94a7.759 7.759 0 0 0 -7.75 7.748 4.743 4.743 0 0 0 3.141 4.45 7.76 7.76 0 0 0 7.609 6.3h19.78l22.434 25.9-17.958 20.75a4.749 4.749 0 0 0 7.187 6.209l17.057-19.697 17.057 19.688a4.748 4.748 0 1 0 7.186-6.209l-17.959-20.74 4.482-5.173a1.75 1.75 0 1 0 -2.645-2.292l-4.151 4.792-1.654-1.91 18.454-21.318h3.319l-6.832 7.888a1.75 1.75 0 0 0 2.643 2.291l8.82-10.179h19.78a7.76 7.76 0 0 0 7.609-6.3 4.743 4.743 0 0 0 3.141-4.45zm-100.81-22.08v-2.5h2.5v2.5zm3.5 11.83h48.39a4.249 4.249 0 0 1 3.864 2.5h-52.254zm18.36 71.565a1.249 1.249 0 0 1 -1.894-1.629l17.626-20.36 1.657 1.913zm41.169.131a1.251 1.251 0 0 1 -1.763-.132l-43.795-50.564h3.319l42.37 48.934a1.257 1.257 0 0 1 -.134 1.762zm-21.469-32.052-16.14-18.644h32.28zm48.5-22.144h-97a4.249 4.249 0 0 1 -3.862-2.5h104.724a4.249 4.249 0 0 1 -3.862 2.5z"/></g></g></svg>