<svg clip-rule="evenodd" fill-rule="evenodd" height="512" image-rendering="optimizeQuality" shape-rendering="geometricPrecision" text-rendering="geometricPrecision" viewBox="0 0 43.3492 43.3492" width="512" xmlns="http://www.w3.org/2000/svg"><g id="Layer_x0020_1"><path d="m15.0344 27.6073c-3.2088 0-6.4528-1.2341-8.8858-3.6671-4.9365-4.9013-4.9365-12.8703-.0353-17.8069 4.9367-4.9013 12.9057-4.9013 17.8069 0 4.9013 4.9012 4.9013 12.8702 0 17.7716-2.4682 2.4683-5.677 3.7024-8.8858 3.7024zm0 2.4683c-3.8434 0-7.6869-1.4809-10.6135-4.4077-5.8886-5.8533-5.8886-15.3738-.0353-21.2623 5.8533-5.8534 15.3738-5.8534 21.2625 0 5.3643 5.3643 5.8115 13.8081 1.3435 19.7143l1.9536 1.9536.758-.758c.2115-.2116.5288-.2116.7053 0l11.8829 11.8829c2.2616 2.2617.648 6.1354-2.5389 6.1354-.9521 0-1.8689-.3878-2.5388-1.0578l-1.634-1.634c-.4821-.3443-1.2138-1.1786-1.5746-1.5394-.0418-.0418-.0753-.0877-.1006-.1358l-8.5737-8.5738c-.2038-.2037-.1696-.4982 0-.7051l.7076-.7076-1.9359-1.9622c-2.6703 2.0314-5.8691 3.0575-9.0681 3.0575zm11.326-5.1763c-.2272.2622-.464.519-.7123.7688-.2488.2488-.5043.487-.7659.7148l1.859 1.859 1.4809-1.4809zm-21.2344-19.7534c-5.4655 5.4655-5.4655 14.3514 0 19.8167 5.0775 5.0776 13.1064 5.4371 18.6029 1.0804.0489-.0588.1107-.1082.1794-.1438.3565-.2918.7018-.604 1.0344-.9366.3186-.3186.6179-.6492.8993-.9898.0361-.0795.0944-.1498.1654-.2043 4.3731-5.497 4.0189-13.5391-1.0647-18.6226-5.4654-5.4653-14.3512-5.4653-19.8167 0zm29.2493 32.8812 3.6673-3.6672-7.9868-7.9868-3.6673 3.6672zm5.9239-1.4106-3.6672 3.6673 1.2869 1.2869c1.5298 1.5298 4.4078.5815 4.4078-1.8336 0-.7053-.2821-1.3399-.7406-1.8337zm-4.3901 2.9444 3.6319-3.6319-.8463-.8463-3.6319 3.6319zm-26.587-18.3358c-1.2546 0-5.5445-7.0437-.3526-12.2356.4949-.4948 1.1764.2749.7053.7053-2.9267 2.9267-2.9267 7.7222 0 10.6488.3305.3304.0744.8815-.3527.8815zm-2.4682-14.3513c-4.5135 4.5134-4.5135 11.8477 0 16.3611 4.5134 4.5135 11.8476 4.5135 16.3611 0 4.5134-4.5134 4.5134-11.8477 0-16.3611-4.5135-4.5134-11.8477-4.5134-16.3611 0z"/><path d="m23.9202 6.1333c4.9013 4.9012 4.9013 12.8702 0 17.7716-2.4682 2.4683-5.677 3.7024-8.8858 3.7024s-6.4528-1.2341-8.8858-3.6671c-4.9365-4.9013-4.9365-12.8703-.0353-17.8069 4.9367-4.9013 12.9057-4.9013 17.8069 0zm2.0872 17.6352c4.3731-5.497 4.0189-13.5391-1.0647-18.6226-5.4654-5.4653-14.3512-5.4653-19.8167 0-5.4655 5.4655-5.4655 14.3514 0 19.8167 5.0775 5.0776 13.1064 5.4371 18.6029 1.0804.0489-.0588.1107-.1082.1794-.1438.3565-.2918.7018-.604 1.0344-.9366.3186-.3186.6179-.6492.8993-.9898.0361-.0795.0944-.1498.1654-.2043z" fill="#676767"/><path d="m23.215 23.2349c4.5134-4.5134 4.5134-11.8477 0-16.3611-4.5135-4.5134-11.8477-4.5134-16.3611 0-4.5135 4.5134-4.5135 11.8477 0 16.3611 4.5134 4.5135 11.8476 4.5135 16.3611 0zm-14.2455-14.2454c.4949-.4948 1.1764.2749.7053.7053-2.9267 2.9267-2.9267 7.7222 0 10.6488.3305.3304.0744.8815-.3527.8815-1.2546 0-5.5445-7.0437-.3526-12.2356z" fill="#70d1fe"/><path d="m28.2221 26.761-1.8617-1.8617c-.2272.2622-.464.519-.7123.7688-.2488.2488-.5043.487-.7659.7148l1.859 1.859z" fill="#545454"/><path d="m30.0558 26.3731-3.6673 3.6672 7.9868 7.9868 3.6673-3.6672z" fill="#f8991b"/><path d="m38.6947 35.0827-3.6319 3.6319.8463.8463 3.6319-3.6319z" fill="#676767"/><path d="m40.2992 36.6165-3.6672 3.6673 1.2869 1.2869c1.5298 1.5298 4.4078.5815 4.4078-1.8336 0-.7053-.2821-1.3399-.7406-1.8337z" fill="#f8991b"/></g></svg>