<svg id="Layer_3" height="512" viewBox="0 0 512 512" width="512" xmlns="http://www.w3.org/2000/svg" data-name="Layer 3"><path d="m489.445 397.343 5.026 38.365a60 60 0 0 1 -59.424 68.292h-358.094a60 60 0 0 1 -59.424-68.292l5.026-38.365z" fill="#076372"/><path d="m22.408 397.343-2.3 18.168a60 60 0 0 0 56.847 40.794h358.092a60 60 0 0 0 56.847-40.794l-2.3-18.168z" fill="#232626" opacity=".2"/><path d="m489.592 325.192 4.879 38.517a60 60 0 0 1 -59.424 68.291h-358.094a60 60 0 0 1 -59.424-68.292l4.879-38.517z" fill="#90e3f5"/><path d="m22.408 325.192-2.3 18.168a60 60 0 0 0 56.847 40.794h358.092a60 60 0 0 0 56.847-40.794l-2.3-18.168z" fill="#232626" opacity=".2"/><path d="m435.047 360.157h-358.094a60 60 0 0 1 -59.424-68.292l31.256-235.865c4.137-29.646 29.491-48 59.424-48h295.582c29.933 0 55.288 18.354 59.424 48l31.256 235.866a60 60 0 0 1 -59.424 68.291z" fill="#f69038"/><g fill="#fff"><circle cx="412" cy="172.157" r="20"/><path d="m480 32.157h16v16h-16z"/><path d="m126.142 210.015 25.858 14.142-25.858 14.142-14.142 25.858-14.142-25.858-25.858-14.142 25.858-14.142 14.142-25.858z"/><path d="m414.142 274.015 25.858 14.142-25.858 14.142-14.142 25.858-14.142-25.858-25.858-14.142 25.858-14.142 14.142-25.858z"/></g><path d="m192 8-64 96.157 128 48z" fill="#7a3909"/><path d="m320 8 64 96.157-128 48z" fill="#7a3909"/><path d="m192 8h128l-64 144.157z" fill="#db6c19"/><path d="m412 200.157a28 28 0 1 0 -28-28 28.031 28.031 0 0 0 28 28zm0-40a12 12 0 1 1 -12 12 12.013 12.013 0 0 1 12-12z"/><path d="m480 32.157h16v16h-16z"/><path d="m88 384.157h16v16h-16z"/><path d="m144 304.157h16v16h-16z"/><path d="m80 112.157h16v16h-16z"/><path d="m68.161 231.176 23.8 13.019 13.02 23.805a8 8 0 0 0 14.038 0l13.018-23.8 23.8-13.019a8 8 0 0 0 0-14.037l-23.8-13.018-13.018-23.8a8 8 0 0 0 -14.038 0l-13.018 23.8-23.8 13.018a8 8 0 0 0 0 14.037zm33.539-14.142a8 8 0 0 0 3.181-3.18l7.119-13.024 7.123 13.024a8 8 0 0 0 3.181 3.18l13.024 7.123-13.028 7.124a8.006 8.006 0 0 0 -3.18 3.18l-7.12 13.024-7.123-13.024a8.006 8.006 0 0 0 -3.18-3.18l-13.024-7.124z"/><path d="m407.019 244.318a8 8 0 0 0 -14.038 0l-13.018 23.8-23.8 13.018a8 8 0 0 0 0 14.037l23.8 13.019 13.018 23.808a8 8 0 0 0 14.038 0l13.018-23.8 23.8-13.019a8 8 0 0 0 0-14.037l-23.8-13.018zm3.284 50.963a8.006 8.006 0 0 0 -3.18 3.18l-7.123 13.024-7.123-13.024a8.006 8.006 0 0 0 -3.18-3.18l-13.024-7.124 13.024-7.123a8 8 0 0 0 3.181-3.18l7.122-13.024 7.123 13.024a8 8 0 0 0 3.181 3.18l13.024 7.123z"/><path d="m497.665 398.5a67.974 67.974 0 0 0 4.737-35.843l-4.6-36.3a67.868 67.868 0 0 0 4.6-35.536l-31.263-235.926c-4.51-32.322-32.204-54.895-67.348-54.895h-295.582c-35.144 0-62.838 22.573-67.355 54.949l-31.248 235.811a67.978 67.978 0 0 0 4.594 35.587l-4.6 36.307a67.974 67.974 0 0 0 4.735 35.846l-4.729 36.1a68 68 0 0 0 67.348 77.4h358.092a68 68 0 0 0 67.354-77.331zm-472.212-33.687.013-.1 2.24-17.686a67.966 67.966 0 0 0 49.247 21.13h358.093a67.966 67.966 0 0 0 49.247-21.13l2.24 17.686.013.1a52 52 0 0 1 -51.5 59.187h-358.092a52 52 0 0 1 -51.5-59.187zm178.847-348.813h103.4l-51.7 116.441zm36.643 121.969-100.702-37.769 50.354-75.65zm80.462-113.419 50.354 75.65-100.707 37.769zm133.879 32.5 31.263 235.92a52 52 0 0 1 -51.5 59.187h-171.047v-194.457l122.809-46.053a8 8 0 0 0 3.851-11.923l-55.725-83.724h68.857c27.373 0 48.069 16.519 51.493 41.051zm-429.824 235.866 31.248-235.811c3.431-24.586 24.127-41.105 51.501-41.105h68.857l-55.726 83.725a8 8 0 0 0 3.851 11.923l122.809 46.052v194.457h-171.046a52 52 0 0 1 -51.494-59.241zm448.814 185.219a51.983 51.983 0 0 1 -39.228 17.865h-358.092a52 52 0 0 1 -51.492-59.253l2.33-17.785a67.967 67.967 0 0 0 49.162 21.038h358.092a67.967 67.967 0 0 0 49.163-21.038l2.338 17.851a51.982 51.982 0 0 1 -12.273 41.322z"/><path d="m296 192.157h16v24h-16z"/><path d="m296 264.157h16v24h-16z"/></svg>