<svg id="Layer_1" enable-background="new 0 0 128 128" height="512" viewBox="0 0 128 128" width="512" xmlns="http://www.w3.org/2000/svg"><g><g clip-rule="evenodd" fill-rule="evenodd"><path d="m27.745 28.113h59.952c5.216 0 9.468 4.279 9.468 9.467v62.676c0 5.186-4.252 9.467-9.468 9.467h-59.952c-5.188 0-9.468-4.281-9.468-9.467v-62.676c0-5.187 4.281-9.467 9.468-9.467z" fill="#f9a11b"/><path d="m27.745 28.113h59.811v13.635c0 28.148-23.018 51.166-51.165 51.166h-18.114v-55.334c0-5.187 4.281-9.467 9.468-9.467z" fill="#fab141"/></g><g clip-rule="evenodd" fill-rule="evenodd"><path d="m88.236 102.807c9.014 0 16.384-7.398 16.384-16.471 0-9.098-7.37-16.496-16.384-16.496-9.015 0-16.356 7.398-16.356 16.496 0 9.072 7.342 16.471 16.356 16.471z" fill="#86cdec"/><path d="m88.236 69.84c3.146 0 6.095.906 8.589 2.438.652 1.785 1.021 3.713 1.021 5.727 0 9.098-7.342 16.469-16.385 16.469-3.146 0-6.094-.879-8.589-2.438-.651-1.787-.992-3.715-.992-5.699 0-9.128 7.313-16.497 16.356-16.497z" fill="#a9dbf1"/></g><g><g><g clip-rule="evenodd" fill-rule="evenodd"><path d="m57.735 34.775h9.808v26.815c0 2.693-2.211 4.904-4.903 4.904h-4.904v-31.719z" fill="#fbc067"/><g fill="#514d6c"><path d="m62.64 50.932c1.134 0 2.069-.936 2.069-2.098 0-1.133-.936-2.068-2.069-2.068s-2.069.936-2.069 2.068c-.001 1.162.935 2.098 2.069 2.098z"/><path d="m62.64 55.383c1.134 0 2.069.936 2.069 2.098 0 1.133-.936 2.068-2.069 2.068s-2.069-.936-2.069-2.068c-.001-1.163.935-2.098 2.069-2.098z"/></g></g><g><path d="m57.735 70.414c-.552 0-1-.447-1-1v-33.59c0-.553.448-1 1-1s1 .447 1 1v33.59c0 .553-.447 1-1 1z" fill="#2e294e"/></g></g><g clip-rule="evenodd" fill-rule="evenodd"><path d="m41.322 18.277h32.797v9.836h-32.797z" fill="#2e294e"/><g fill="#514d6c"><path d="m57.735 34.775 16.384-16.498 4.904 9.836-13.464 13.578c-.708.709-1.615.992-2.579.85-.964-.17-1.758-.736-2.183-1.615z"/><path d="m57.735 34.775-16.413-16.498-4.903 9.836 13.465 13.578c.708.709 1.615.992 2.579.85.992-.17 1.758-.736 2.211-1.615z"/></g></g></g></g><path d="m79.024 82.884c-.388-.392-1.021-.395-1.414-.006-.392.389-.395 1.022-.006 1.414l10.063 10.146c.188.189.443.296.71.296s.522-.106.71-.296l14.606-14.722c.003-.004.007-.007.011-.011l6.728-6.781c.389-.392.386-1.025-.006-1.414s-1.026-.387-1.414.006l-5.83 5.876c-3.101-5.235-8.822-8.553-14.947-8.553-9.57 0-17.356 7.849-17.356 17.496 0 9.634 7.786 17.471 17.356 17.471 2.79 0 5.419-.68 7.758-1.859-.786 3.861-4.208 6.775-8.297 6.775h-59.951c-4.669 0-8.468-3.798-8.468-8.467v-62.675c0-4.669 3.799-8.467 8.468-8.467h8.674c.379 0 .726-.215.895-.554l4.627-9.282h31.559l4.628 9.282c.169.339.516.554.895.554h8.674c4.669 0 8.468 3.798 8.468 8.467v29.227c0 .553.448 1 1 1s1-.447 1-1v-29.227c0-5.771-4.696-10.467-10.468-10.467h-8.055l-4.628-9.282c-.169-.339-.516-.554-.895-.554h-32.797c-.379 0-.726.215-.895.554l-4.627 9.282h-8.055c-5.772 0-10.468 4.695-10.468 10.467v62.676c0 5.771 4.696 10.467 10.468 10.467h59.952c5.631 0 10.226-4.473 10.447-10.05 4.512-3.159 7.476-8.403 7.476-14.337 0-.553-.448-1-1-1s-1 .447-1 1c0 8.53-6.901 15.471-15.384 15.471-8.468 0-15.356-6.94-15.356-15.471 0-8.545 6.889-15.496 15.356-15.496 5.594 0 10.806 3.132 13.481 8.029l-13.34 13.445z"/></svg>