<?xml version="1.0" encoding="UTF-8"?>
<svg xmlns="http://www.w3.org/2000/svg" xmlns:xlink="http://www.w3.org/1999/xlink" version="1.1" id="Capa_1" x="0px" y="0px" viewBox="0 0 512 512" style="enable-background:new 0 0 512 512;" xml:space="preserve" width="512" height="512">
<g>
	<g>
		<path style="fill:#5AD6FF;" d="M190.086,167.288c7.591,13.532,16.188,26.875,20.188,41.24h-58.388l-30.844-70.089l-15.132,21.943&#10;&#9;&#9;&#9;c-3.82,5.541-11.401,6.931-16.942,3.111L64.114,146.36c-5.541-3.82-6.931-11.401-3.11-16.942l26.524-38.465&#10;&#9;&#9;&#9;c5.481-7.951,13.122-14.172,22.013-17.912l11.472-4.831l50.617,1.07l31.834-35.795l9.251-3.891&#10;&#9;&#9;&#9;c3.621,3.889,24.871,44.57,26.819,58.945c-11.021,6.431-26.204,16.969-36.636,25C183.555,128.431,178.144,146.015,190.086,167.288&#10;&#9;&#9;&#9;z"/>
		<path style="fill:#00C5FD;" d="M314.188,46.957l-22.593,59.468l-6.601,2.3c-19.813,6.911-41.816,19.263-61.948,34.775&#10;&#9;&#9;&#9;c-1.76,1.36-2.28,3.83-1.2,5.761c12.572,22.393,31.194,40.775,53.507,53.117l-14.592,6.151h-50.487&#10;&#9;&#9;&#9;c-10.741-11.172-20.083-23.713-27.674-37.245c-11.942-21.273-6.361-48.546,12.982-63.439&#10;&#9;&#9;&#9;c10.431-8.031,21.373-15.382,32.394-21.813c-4.411-5.461-7.491-11.922-8.961-18.993l-5.411-25.963&#10;&#9;&#9;&#9;c-0.8-3.83-1.09-7.681-0.89-11.482l2.23-0.94c8.891-3.751,18.673-4.871,28.194-3.24l25.713,4.411l-11.131,2.32l5.301,25.473&#10;&#9;&#9;&#9;L314.188,46.957z"/>
		<path style="fill:#00C5FD;" d="M179.602,92.069c22.768-9.588,33.452-35.819,23.864-58.586l-82.45,34.722&#10;&#9;&#9;&#9;C130.604,90.973,156.834,101.658,179.602,92.069z"/>
		<path style="fill:#FF6E80;" d="M447.206,112.565l-21.293,15.822c-6.541,4.861-15.772,3.5-20.633-3.04l-14.992-20.173&#10;&#9;&#9;&#9;l-10.381,27.334c10.711,19.223,19.972,44.236,25.243,71.409c0.31,1.55,0.39,3.09,0.32,4.611h-38.185&#10;&#9;&#9;&#9;C277.584,172.6,281.022,43.227,326.639,10.081c1.58,0.46,3.141,0.98,4.661,1.56l26.534,29.164l38.825-4.321&#10;&#9;&#9;&#9;c10.831,4.11,20.923,11.492,27.834,20.793l25.753,34.665C455.097,98.473,453.736,107.715,447.206,112.565z"/>
		<path style="fill:#F9475E;" d="M367.285,208.528H256.61c-20.133-13.542-36.365-31.454-47.846-51.927&#10;&#9;&#9;&#9;c-4.741-8.441-2.54-19.082,5.131-24.983c21.963-16.922,45.516-29.854,66.159-37.055l10.381-27.334l-24.603,5.121&#10;&#9;&#9;&#9;c-7.971,1.66-15.782-3.45-17.442-11.421l-5.411-25.973c-1.66-7.971,3.46-15.782,11.431-17.442l42.266-8.801&#10;&#9;&#9;&#9;c9.751-2.04,20.313-1.45,29.964,1.37C292.115,68.189,300.106,157.121,367.285,208.528z"/>
		<path style="fill:#F9475E;" d="M351.558,56.745c18.051,6.86,38.245-2.212,45.104-20.263l-65.367-24.841&#10;&#9;&#9;&#9;C324.435,29.692,333.508,49.886,351.558,56.745z"/>
		<path style="fill:#5972A5;" d="M415.001,293.119l-92.582,96.823c-7.881,8.241-12.282,19.203-12.282,30.614V448&#10;&#9;&#9;&#9;c0,12.382-7.531,23.533-19.032,28.154l-9.521,3.831c-66.779-24.348-101.08-132.323-65.879-186.865H415.001z"/>
		<path style="fill:#3B5A9B;" d="M281.583,479.985l-58.098,23.363c-10.351,4.16-21.623-3.46-21.623-14.612v-68.179&#10;&#9;&#9;&#9;c0-11.412-4.401-22.373-12.282-30.614l-92.582-96.823h118.706C208.534,357.518,228.506,427.948,281.583,479.985z"/>
		<path style="fill:#F9EE80;" d="M453.716,227.841v49.097c0,14.592-11.821,26.414-26.413,26.414H214.805&#10;&#9;&#9;&#9;c-13.143-21.69-10.032-83.564,32.974-101.934h179.524C441.895,201.417,453.716,213.249,453.716,227.841z"/>
		<path style="fill:#F9D171;" d="M247.779,201.417c-19.173,29.414-30.534,64.909-32.974,101.934H84.697&#10;&#9;&#9;&#9;c-14.592,0-26.413-11.822-26.413-26.414v-49.097c0-14.592,11.822-26.424,26.413-26.424H247.779z"/>
	</g>
	<g>
		<path style="fill:none;stroke:#000000;stroke-width:15;stroke-linecap:round;stroke-linejoin:round;stroke-miterlimit:10;" d="&#10;&#9;&#9;&#9;M244.134,25.651c-9.813-1.86-19.983-0.822-29.189,3.066l-105.383,44.38c-8.897,3.747-16.536,9.96-22.015,17.908l-26.521,38.466&#10;&#9;&#9;&#9;c-3.817,5.537-2.424,13.12,3.113,16.937l24.855,17.137c5.537,3.817,13.12,2.424,16.937-3.113l15.129-21.943l27.71,62.973"/>
		<path style="fill:none;stroke:#000000;stroke-width:15;stroke-linecap:round;stroke-linejoin:round;stroke-miterlimit:10;" d="&#10;&#9;&#9;&#9;M121.034,68.266c9.587,22.765,35.814,33.448,58.579,23.861s33.448-35.814,23.861-58.579"/>
		<path style="fill:none;stroke:#000000;stroke-width:15;stroke-linecap:round;stroke-linejoin:round;stroke-miterlimit:10;" d="&#10;&#9;&#9;&#9;M331.285,11.709c-6.859,18.048,2.212,38.239,20.26,45.098c18.048,6.859,38.239-2.212,45.098-20.26"/>
		
			<line style="fill:none;stroke:#000000;stroke-width:15;stroke-linecap:round;stroke-linejoin:round;stroke-miterlimit:10;" x1="193.551" y1="242.851" x2="193.551" y2="254.851"/>
		
			<line style="fill:none;stroke:#000000;stroke-width:15;stroke-linecap:round;stroke-linejoin:round;stroke-miterlimit:10;" x1="318.449" y1="242.851" x2="318.449" y2="254.851"/>
		<path style="fill:none;stroke:#000000;stroke-width:15;stroke-linecap:round;stroke-linejoin:round;stroke-miterlimit:10;" d="&#10;&#9;&#9;&#9;M239.536,254.494c4.003,4.594,9.892,7.501,16.464,7.501s12.461-2.907,16.464-7.501"/>
		<path style="fill:none;stroke:#000000;stroke-width:15;stroke-linecap:round;stroke-linejoin:round;stroke-miterlimit:10;" d="&#10;&#9;&#9;&#9;M58.308,269.923v7.046c0,14.589,11.827,26.416,26.416,26.416h342.554c14.589,0,26.416-11.827,26.416-26.416v-49.091&#10;&#9;&#9;&#9;c0-14.589-11.827-26.416-26.416-26.416H84.723c-14.589,0-26.416,11.827-26.416,26.416v7.046"/>
		<path style="fill:none;stroke:#000000;stroke-width:15;stroke-linecap:round;stroke-linejoin:round;stroke-miterlimit:10;" d="&#10;&#9;&#9;&#9;M404.625,201.461c-5.344-26.205-14.353-50.277-24.738-68.902l10.386-27.33l14.988,20.17c4.856,6.536,14.091,7.897,20.627,3.041&#10;&#9;&#9;&#9;l21.288-15.818c6.535-4.856,7.897-14.091,3.041-20.627l-25.749-34.653c-6.911-9.301-16.338-16.43-27.169-20.546l-66.667-25.335&#10;&#9;&#9;&#9;c-10.831-4.116-22.614-5.047-33.958-2.684l-42.265,8.806c-7.971,1.661-13.087,9.469-11.426,17.44l5.41,25.964&#10;&#9;&#9;&#9;c1.661,7.971,9.469,13.087,17.44,11.426l24.6-5.126l-10.386,27.33c-20.636,7.203-44.186,20.13-66.151,37.049&#10;&#9;&#9;&#9;c-7.665,5.904-9.861,16.548-5.126,24.986c9.575,17.063,22.441,32.35,38.119,44.81"/>
		
			<line style="fill:none;stroke:#000000;stroke-width:15;stroke-linecap:round;stroke-linejoin:round;stroke-miterlimit:10;" x1="361.734" y1="348.831" x2="405.188" y2="303.384"/>
		<path style="fill:none;stroke:#000000;stroke-width:15;stroke-linecap:round;stroke-linejoin:round;stroke-miterlimit:10;" d="&#10;&#9;&#9;&#9;M106.812,303.384l82.78,86.575c7.88,8.241,12.278,19.205,12.278,30.608v68.174c0,11.15,11.272,18.767,21.617,14.608l67.616-27.186&#10;&#9;&#9;&#9;c11.495-4.622,19.026-15.767,19.026-28.156v-27.439c0-11.403,4.398-22.366,12.278-30.608l15.134-15.827"/>
	</g>
</g>















</svg>
