<svg id="Layer_1" enable-background="new 0 0 500 500" viewBox="0 0 500 500" xmlns="http://www.w3.org/2000/svg"><g clip-rule="evenodd" fill-rule="evenodd"><path d="m147.821 375.612v-189.661l-50.596 35.562-53.342-65.196 94.155-78.463c8.43-7.025 17.865-10.441 28.839-10.441h40.213c0 23.672 19.19 42.862 42.862 42.862s42.862-19.19 42.862-42.862h40.213c10.974 0 20.409 3.416 28.839 10.441l94.155 78.463-53.342 65.196-50.596-35.562v52.757c-10.03-3.731-20.881-5.774-32.21-5.774-51.034 0-92.405 41.371-92.405 92.405 0 18.541 5.465 35.804 14.866 50.273z" fill="#ffbf31"/><path d="m288.526 271.24c6.615 0 11.978 5.363 11.978 11.978s-5.363 11.978-11.978 11.978-11.978-5.363-11.978-11.978c0-6.616 5.363-11.978 11.978-11.978zm14.58 80.618c3.651-6.008 10.552-6.531 17.642-3.888 5.783 2.155 10.191 6.86 13.207 14.142 0 10.463 8.482 18.945 18.946 18.945 10.463 0 18.945-8.482 18.945-18.945 0-8.33-5.376-15.404-12.847-17.943-10.777-5.328-17.61-11.292-19.717-18.019-3.371-10.761 4.777-17.49 10.574-24.561 1.775-2.154 2.84-4.914 2.84-7.923 0-12.496-16.408-17.126-23.014-6.664-7.514 11.934-5.045 17.68-19.948 27.545-2.283 1.511-22.078 8.31-25.128 8.677-9.378 1.136-16.644 9.122-16.644 18.806 0 10.463 8.482 18.945 18.946 18.945 6.864.001 12.875-3.651 16.198-9.117z" fill="#19cfba"/><path d="m288.581 277.64c3.044 0 5.538 2.508 5.538 5.558 0 3.049-2.494 5.558-5.538 5.558-3.059 0-5.538-2.508-5.538-5.558 0-3.049 2.479-5.558 5.538-5.558zm0 23.952c10.146 0 18.414-8.263 18.414-18.394 0-10.132-8.267-18.443-18.414-18.443-10.161 0-18.419 8.312-18.419 18.443s8.258 18.394 18.419 18.394zm46.585-11.164c-7.135 11.422-5.248 18.504-21.827 29.46-3.354 2.213-24.08 9.246-27.911 9.689-6.261.787-10.972 6.099-10.972 12.443 0 6.885 5.607 12.492 12.502 12.492 4.402 0 8.405-2.262 10.697-6 5.593-9.187 15.836-10.133 25.388-6.59 7.515 2.803 13.195 8.754 16.909 17.706.324.787.497 1.623.497 2.459 0 6.886 5.607 12.492 12.502 12.492s12.507-5.607 12.507-12.492c0-5.361-3.408-10.131-8.479-11.853-.27-.049-.531-.197-.782-.295-12.871-6.394-20.396-13.525-23.012-21.886-3.94-12.591 3.635-21.247 9.163-27.542 1.929-2.245 3.954-3.906 3.954-6.886-.001-5.996-7.945-8.258-11.136-3.197zm-10.884-6.886c-2.656 4.23-4.156 7.672-5.489 10.721-2.484 5.754-3.994 9.197-12.433 14.804-2.789 1.475-19.55 7.23-22.535 7.771-12.694 1.525-22.25 12.394-22.25 25.181 0 13.968 11.386 25.378 25.383 25.378 8.937 0 17.052-4.574 21.704-12.197 2.002-3.295 6.482-2.459 9.881-1.229 3.821 1.426 6.792 4.574 9.059 9.541.747 13.328 11.833 23.952 25.348 23.952 13.997 0 25.388-11.361 25.388-25.378 0-10.721-6.733-20.263-16.786-23.853-9.069-4.574-14.632-9.394-16.073-14.017-2.221-7.116 4.059-12.009 9.394-18.542 10.087-12.353 1.36-30.935-14.597-30.935-6.517 0-12.492 3.295-15.994 8.803zm2.075-56.854c6.649.442 13.112 1.525 19.338 3.197v-43.969c0-5.225 5.927-8.218 10.136-5.262l45.7 32.116 45.513-55.625-89.255-74.363c-7.23-6-15.305-8.951-24.719-8.951h-34.186c-3.162 24.148-23.878 42.837-48.882 42.837s-45.725-18.689-48.882-42.837h-34.191c-9.408 0-17.494 2.951-24.719 8.951l-89.25 74.363 45.508 55.625 45.7-32.116c4.208-2.955 10.142.039 10.142 5.262v183.252h77.034c-5.661-11.41-9.187-24.05-10.053-37.428h-8.681c-3.556 0-6.443-2.853-6.443-6.443 0-3.541 2.887-6.394 6.443-6.394h8.681c3.192-49.379 42.808-89.019 92.187-92.216v-8.656c0-3.59 2.887-6.443 6.443-6.443 3.561 0 6.438 2.853 6.438 6.443v8.657zm79.287 92.216c-3.143-42.296-37.009-76.134-79.286-79.33v8.263c0 3.541-2.877 6.443-6.438 6.443-3.556 0-6.443-2.902-6.443-6.443v-8.263c-42.277 3.197-76.134 37.034-79.281 79.33h8.233c3.556 0 6.438 2.853 6.438 6.394 0 3.59-2.882 6.443-6.438 6.443h-8.233c3.148 42.297 37.005 76.183 79.281 79.281v-8.213c0-3.541 2.887-6.443 6.443-6.443 3.561 0 6.438 2.902 6.438 6.443v8.213c42.277-3.099 76.144-36.985 79.286-79.281h-8.228c-3.561 0-6.438-2.853-6.438-6.443 0-3.541 2.877-6.394 6.438-6.394zm-6.62-92.118c2.764 1.918 6.551 1.377 8.69-1.23l53.338-65.166c2.238-2.754 1.854-6.787-.861-9.049l-94.154-78.445c-9.635-8.017-20.421-11.951-32.967-11.951h-40.206c-3.556 0-6.443 2.902-6.443 6.443 0 20.116-16.338 36.444-36.419 36.444-20.086 0-36.424-16.328-36.424-36.444 0-3.541-2.887-6.443-6.438-6.443h-40.211c-12.546 0-23.327 3.934-32.962 11.951l-94.159 78.445c-2.715 2.262-3.098 6.295-.861 9.049l53.343 65.166c2.139 2.607 5.927 3.148 8.686 1.23l40.457-28.476v177.301c0 3.541 2.882 6.443 6.438 6.443h91.139c16.746 23.804 43.713 39.936 74.466 41.903v8.705c0 3.541 2.887 6.394 6.443 6.394 3.561 0 6.438-2.853 6.438-6.394v-8.705c49.389-3.197 89.005-42.788 92.192-92.216h8.69c3.551 0 6.438-2.853 6.438-6.443 0-3.541-2.887-6.394-6.438-6.394h-8.69c-2.454-38.067-26.499-70.281-59.977-84.544v-36.05z" fill="#1e2f3f"/></g></svg>