<?xml version="1.0" encoding="UTF-8" standalone="no"?>
<!-- Created with Inkscape (http://www.inkscape.org/) -->

<svg
   version="1.1"
   id="svg2079"
   xml:space="preserve"
   width="682.66669"
   height="682.66669"
   viewBox="0 0 682.66669 682.66669"
   xmlns="http://www.w3.org/2000/svg"
   xmlns:svg="http://www.w3.org/2000/svg"><defs
     id="defs2083"><clipPath
       clipPathUnits="userSpaceOnUse"
       id="clipPath2093"><path
         d="M 0,512 H 512 V 0 H 0 Z"
         id="path2091" /></clipPath></defs><g
     id="g2085"
     transform="matrix(1.3333333,0,0,-1.3333333,0,682.66667)"><g
       id="g2087"><g
         id="g2089"
         clip-path="url(#clipPath2093)"><g
           id="g2095"
           transform="translate(472,442)"><path
             d="m 0,0 h -66 l -60,60 H -306 L -366,0 h -66 c -16.57,0 -30,-13.43 -30,-30 V -432 H -216 30 V -30 C 30,-13.43 16.57,0 0,0"
             style="fill:#bfdbff;fill-opacity:1;fill-rule:nonzero;stroke:none"
             id="path2097" /></g><g
           id="g2099"
           transform="translate(439,226)"><path
             d="M 0,0 V -120 H -120 V 0 l 60,60 z"
             style="fill:#ff7b79;fill-opacity:1;fill-rule:nonzero;stroke:none"
             id="path2101" /></g><g
           id="g2103"
           transform="translate(406,442)"><path
             d="m 0,0 -90,-90 -60,60 90,90 z"
             style="fill:#ecf2f3;fill-opacity:1;fill-rule:nonzero;stroke:none"
             id="path2105" /></g><g
           id="g2107"
           transform="translate(256,412)"><path
             d="m 0,0 -60,-60 -90,90 60,60 z"
             style="fill:#ecf2f3;fill-opacity:1;fill-rule:nonzero;stroke:none"
             id="path2109" /></g><g
           id="g2111"
           transform="translate(319,226)"><path
             d="M 0,0 V -120 H 120 V 0 L 60,60 Z"
             style="fill:none;stroke:#000000;stroke-width:20;stroke-linecap:round;stroke-linejoin:round;stroke-miterlimit:10;stroke-dasharray:none;stroke-opacity:1"
             id="path2113" /></g><g
           id="g2115"
           transform="translate(316,352)"><path
             d="M 0,0 H 33 C 49.57,0 63,-13.43 63,-30 V -66"
             style="fill:none;stroke:#000000;stroke-width:20;stroke-linecap:round;stroke-linejoin:round;stroke-miterlimit:10;stroke-dasharray:none;stroke-opacity:1"
             id="path2117" /></g><g
           id="g2119"
           transform="translate(406,442)"><path
             d="m 0,0 h 66 c 16.57,0 30,-13.43 30,-30 v -402 h -246 -246 v 402 c 0,16.57 13.43,30 30,30 h 66"
             style="fill:none;stroke:#000000;stroke-width:20;stroke-linecap:round;stroke-linejoin:round;stroke-miterlimit:10;stroke-dasharray:none;stroke-opacity:1"
             id="path2121" /></g><g
           id="g2123"
           transform="translate(166,502)"><path
             d="M 0,0 90,-90 180,0"
             style="fill:none;stroke:#000000;stroke-width:20;stroke-linecap:round;stroke-linejoin:round;stroke-miterlimit:10;stroke-dasharray:none;stroke-opacity:1"
             id="path2125" /></g><g
           id="g2127"
           transform="translate(266,211)"><path
             d="m 0,0 c 0,-5.523 -4.477,-10 -10,-10 -5.523,0 -10,4.477 -10,10 0,5.523 4.477,10 10,10 C -4.477,10 0,5.523 0,0"
             style="fill:#000000;fill-opacity:1;fill-rule:nonzero;stroke:none"
             id="path2129" /></g><g
           id="g2131"
           transform="translate(256,10)"><path
             d="M 0,0 V 156"
             style="fill:none;stroke:#000000;stroke-width:20;stroke-linecap:round;stroke-linejoin:round;stroke-miterlimit:10;stroke-dasharray:none;stroke-opacity:1"
             id="path2133" /></g><g
           id="g2135"
           transform="translate(256,256)"><path
             d="m 0,0 v 156 l -60,-60 -90,90 60,60 H 90 L 150,186 60,96 0,156"
             style="fill:none;stroke:#000000;stroke-width:20;stroke-linecap:round;stroke-linejoin:round;stroke-miterlimit:10;stroke-dasharray:none;stroke-opacity:1"
             id="path2137" /></g></g></g></g></svg>
