<?xml version="1.0" encoding="UTF-8"?>
<svg id="Layer_1" xmlns="http://www.w3.org/2000/svg" version="1.1" viewBox="0 0 1200 1200">
  <!-- Generator: Adobe Illustrator 29.2.1, SVG Export Plug-In . SVG Version: 2.1.0 Build 116)  -->
  <defs>
    <style>
      .st0 {
        fill: #6b5432;
      }
    </style>
  </defs>
  <g>
    <path class="st0" d="M324.1,605.5c21.7,0,45.2-12.4,57.6-30.3l5-8.7h13l-26,117H82.6v-29.1c76.8-89.8,244-213.6,244-336.9s-27.9-81.7-75.5-81.7c-68.7,0-68.7,66.9-78.6,108.4-22.3,85.5-90.4,62.5-84.8-5,5.6-54.5,57-116.4,161.6-116.4s153.6,47.1,153.6,115.2c0,127.6-218,221.1-250.8,267.5h172.2Z"/>
    <path class="st0" d="M522.3,683.5c24.2-159.8,71.8-242.8,213-376.5h-207.5c-22.3,0-42.1,13.6-53.3,33.4l-3.1,5.6h-13l19.2-116.4h272.5v77.4c-113.3,133.8-143.7,216.7-140.6,376.5h-87.3Z"/>
    <path class="st0" d="M1093.2,481h-131.9v133.8h-52.6v-133.8h-131.3v-47.7h131.3v-134.4h52.6v134.4h131.9v47.7Z"/>
  </g>
  <g>
    <path class="st0" d="M320.6,743.1l-27.6,52.8v32h-11.1v-32l-27.8-52.8h12.3l20.9,43,20.9-43h12.3Z"/>
    <path class="st0" d="M364.2,752.2v28.4h30.9v9.1h-30.9v29.2h34.6v9.1h-45.7v-85h45.7v9.1h-34.6Z"/>
    <path class="st0" d="M486.5,809.1h-37l-6.8,18.9h-11.7l30.7-84.4h12.8l30.6,84.4h-11.7l-6.8-18.9ZM483.4,800.1l-15.3-42.9-15.3,42.9h30.7Z"/>
    <path class="st0" d="M583.9,828l-20.2-34.7h-13.4v34.7h-11.1v-84.9h27.4c6.4,0,11.8,1.1,16.3,3.3,4.4,2.2,7.7,5.2,9.9,8.9,2.2,3.7,3.3,8,3.3,12.8s-1.7,11-5.1,15.5c-3.4,4.5-8.4,7.4-15.2,8.9l21.3,35.5h-13.3ZM550.3,784.4h16.3c6,0,10.5-1.5,13.5-4.4,3-3,4.5-6.9,4.5-11.9s-1.5-8.9-4.4-11.7c-3-2.8-7.5-4.1-13.6-4.1h-16.3v32.1Z"/>
    <path class="st0" d="M646,825.9c-4.4-2-7.9-4.7-10.4-8.3-2.5-3.5-3.8-7.6-3.9-12.2h11.8c.4,4,2,7.3,4.9,10,2.9,2.7,7.1,4.1,12.6,4.1s9.4-1.3,12.5-4c3-2.6,4.6-6,4.6-10.2s-.9-5.9-2.7-7.9c-1.8-2-4-3.6-6.7-4.6-2.7-1.1-6.3-2.2-10.8-3.4-5.6-1.5-10.1-2.9-13.5-4.4-3.4-1.5-6.2-3.8-8.6-6.9-2.4-3.1-3.6-7.3-3.6-12.6s1.2-8.7,3.5-12.3c2.4-3.6,5.7-6.3,9.9-8.3s9.1-2.9,14.7-2.9c8,0,14.5,2,19.5,6,5.1,4,7.9,9.3,8.6,15.8h-12.2c-.4-3.2-2.1-6.1-5.1-8.6-3-2.5-7-3.7-11.9-3.7s-8.4,1.2-11.3,3.6c-2.9,2.4-4.4,5.7-4.4,10s.9,5.6,2.6,7.5c1.7,1.9,3.9,3.4,6.5,4.4,2.6,1,6.1,2.2,10.8,3.5,5.6,1.5,10.1,3.1,13.5,4.6,3.4,1.5,6.3,3.8,8.8,6.9,2.4,3.1,3.7,7.4,3.7,12.7s-1.1,8-3.3,11.7-5.4,6.6-9.7,8.9c-4.3,2.3-9.4,3.4-15.2,3.4s-10.6-1-15-3Z"/>
    <path class="st0" d="M796.6,823.3c-6.5-3.7-11.6-8.8-15.4-15.5-3.8-6.6-5.7-14.1-5.7-22.3s1.9-15.7,5.7-22.3c3.8-6.6,8.9-11.8,15.4-15.5,6.5-3.7,13.7-5.5,21.5-5.5s15.2,1.8,21.7,5.5c6.5,3.7,11.6,8.8,15.3,15.4,3.7,6.6,5.6,14,5.6,22.4s-1.9,15.8-5.6,22.4c-3.7,6.6-8.8,11.7-15.3,15.4-6.5,3.7-13.7,5.5-21.7,5.5s-15.1-1.8-21.5-5.5ZM834.2,815.1c4.7-2.8,8.5-6.7,11.2-11.8,2.7-5.1,4.1-11,4.1-17.8s-1.4-12.8-4.1-17.8c-2.7-5.1-6.4-9-11.1-11.7-4.7-2.8-10.1-4.1-16.1-4.1s-11.4,1.4-16.1,4.1c-4.7,2.8-8.4,6.7-11.1,11.7-2.7,5.1-4.1,11-4.1,17.8s1.4,12.7,4.1,17.8c2.7,5.1,6.5,9.1,11.2,11.8,4.7,2.8,10.1,4.1,16,4.1s11.3-1.4,16-4.1Z"/>
    <path class="st0" d="M944.2,743.1v9h-36.9v28.6h29.9v9h-29.9v38.2h-11.1v-84.9h48Z"/>
    <path class="st0" d="M224.2,881.8v17.3h27.9v16.1h-27.9v18.7h31.5v16.7h-52.3v-85.5h52.3v16.7h-31.5Z"/>
    <path class="st0" d="M330.8,950.6l-17.4-26.2-15.3,26.2h-23.6l27.4-43.5-28-42h24.2l17.2,25.8,15.1-25.8h23.6l-27.1,43.1,28.2,42.4h-24.2Z"/>
    <path class="st0" d="M436.3,906.2c-2.3,4.1-5.8,7.4-10.5,9.9-4.7,2.5-10.6,3.8-17.5,3.8h-12.9v30.7h-20.8v-85.5h33.7c6.8,0,12.6,1.2,17.3,3.5,4.7,2.4,8.2,5.6,10.6,9.7,2.4,4.1,3.5,8.9,3.5,14.2s-1.1,9.5-3.4,13.6ZM415.6,900.6c1.9-1.9,2.9-4.5,2.9-7.9s-1-6-2.9-7.9c-1.9-1.9-4.9-2.8-8.9-2.8h-11.3v21.4h11.3c4,0,6.9-.9,8.9-2.8Z"/>
    <path class="st0" d="M480.5,881.8v17.3h27.9v16.1h-27.9v18.7h31.5v16.7h-52.3v-85.5h52.3v16.7h-31.5Z"/>
    <path class="st0" d="M578.3,950.6l-17.8-32.3h-5v32.3h-20.8v-85.5h34.9c6.7,0,12.5,1.2,17.2,3.5,4.7,2.4,8.3,5.6,10.7,9.7,2.4,4.1,3.5,8.7,3.5,13.7s-1.6,10.8-4.8,15.2c-3.2,4.5-7.9,7.6-14.2,9.5l19.7,33.8h-23.5ZM555.5,903.6h12.9c3.8,0,6.7-.9,8.6-2.8,1.9-1.9,2.9-4.5,2.9-7.9s-1-5.8-2.9-7.7c-1.9-1.9-4.8-2.8-8.6-2.8h-12.9v21.2Z"/>
    <path class="st0" d="M644,865.1v85.5h-20.8v-85.5h20.8Z"/>
    <path class="st0" d="M689.1,881.8v17.3h27.9v16.1h-27.9v18.7h31.5v16.7h-52.3v-85.5h52.3v16.7h-31.5Z"/>
    <path class="st0" d="M819.7,950.6h-20.8l-34.8-52.7v52.7h-20.8v-85.5h20.8l34.8,53v-53h20.8v85.5Z"/>
    <path class="st0" d="M845.9,885.2c3.7-6.6,8.7-11.8,15.3-15.5,6.5-3.7,13.9-5.5,22.2-5.5s18.8,2.7,26.1,8c7.2,5.4,12.1,12.7,14.5,21.9h-22.9c-1.7-3.6-4.1-6.3-7.2-8.2-3.1-1.9-6.7-2.8-10.7-2.8-6.4,0-11.6,2.2-15.6,6.7-4,4.5-6,10.4-6,17.9s2,13.4,6,17.9c4,4.5,9.2,6.7,15.6,6.7s7.5-.9,10.7-2.8c3.1-1.9,5.5-4.6,7.2-8.2h22.9c-2.4,9.3-7.3,16.5-14.5,21.9-7.2,5.3-15.9,8-26.1,8s-15.7-1.8-22.2-5.5c-6.5-3.7-11.6-8.8-15.3-15.4s-5.5-14.1-5.5-22.5,1.8-16,5.5-22.6Z"/>
    <path class="st0" d="M966.6,881.8v17.3h27.9v16.1h-27.9v18.7h31.5v16.7h-52.3v-85.5h52.3v16.7h-31.5Z"/>
  </g>
</svg>