<?xml version="1.0" encoding="UTF-8"?>
<svg id="Layer_1" xmlns="http://www.w3.org/2000/svg" version="1.1" xmlns:xlink="http://www.w3.org/1999/xlink" viewBox="0 0 1357.3 1200">
  <!-- Generator: Adobe Illustrator 29.2.1, SVG Export Plug-In . SVG Version: 2.1.0 Build 116)  -->
  <defs>
    <style>
      .st0 {
        fill: #6b5432;
      }

      .st1 {
        isolation: isolate;
      }

      .st2 {
        display: none;
      }
    </style>
  </defs>
  <g class="st2">
    <g>
      <path class="st0" d="M324.1,605.5c21.7,0,45.2-12.4,57.6-30.3l5-8.7h13l-26,117H82.6v-29.1c76.8-89.8,244-213.6,244-336.9s-27.9-81.7-75.5-81.7c-68.7,0-68.7,66.9-78.6,108.4-22.3,85.5-90.4,62.5-84.8-5,5.6-54.5,57-116.4,161.6-116.4s153.6,47.1,153.6,115.2c0,127.6-218,221.1-250.8,267.5h172.2-.2Z"/>
      <path class="st0" d="M522.3,683.5c24.2-159.8,71.8-242.8,213-376.5h-207.5c-22.3,0-42.1,13.6-53.3,33.4l-3.1,5.6h-13l19.2-116.4h272.5v77.4c-113.3,133.8-143.7,216.7-140.6,376.5h-87.3,0Z"/>
      <path class="st0" d="M1093.2,481h-131.9v133.8h-52.6v-133.8h-131.3v-47.7h131.3v-134.4h52.6v134.4h131.9v47.7Z"/>
    </g>
    <g>
      <path class="st0" d="M231,725.6l-34.9,66.8v40.5h-14.1v-40.5l-35.2-66.8h15.6l26.5,54.4,26.5-54.4h15.7-.1Z"/>
      <path class="st0" d="M286.1,737.1v35.9h39.1v11.5h-39.1v37h43.8v11.5h-57.8v-107.6h57.8v11.5h-43.8v.2Z"/>
      <path class="st0" d="M441,809.1h-46.8l-8.6,23.9h-14.8l38.9-106.8h16.2l38.7,106.8h-14.8l-8.6-23.9h-.2ZM437,797.7l-19.4-54.3-19.4,54.3h38.9-.1Z"/>
      <path class="st0" d="M564.3,833.1l-25.6-43.9h-17v43.9h-14.1v-107.5h34.7c8.1,0,14.9,1.4,20.6,4.2,5.6,2.8,9.7,6.6,12.5,11.3s4.2,10.1,4.2,16.2-2.2,13.9-6.5,19.6c-4.3,5.7-10.6,9.4-19.2,11.3l27,44.9h-16.8.2ZM521.7,777.9h20.6c7.6,0,13.3-1.9,17.1-5.6,3.8-3.8,5.7-8.7,5.7-15.1s-1.9-11.3-5.6-14.8c-3.8-3.5-9.5-5.2-17.2-5.2h-20.6v40.6h0Z"/>
      <path class="st0" d="M642.9,830.4c-5.6-2.5-10-5.9-13.2-10.5-3.2-4.4-4.8-9.6-4.9-15.4h14.9c.5,5.1,2.5,9.2,6.2,12.7,3.7,3.4,9,5.2,15.9,5.2s11.9-1.6,15.8-5.1c3.8-3.3,5.8-7.6,5.8-12.9s-1.1-7.5-3.4-10-5.1-4.6-8.5-5.8c-3.4-1.4-8-2.8-13.7-4.3-7.1-1.9-12.8-3.7-17.1-5.6-4.3-1.9-7.8-4.8-10.9-8.7-3-3.9-4.6-9.2-4.6-15.9s1.5-11,4.4-15.6c3-4.6,7.2-8,12.5-10.5s11.5-3.7,18.6-3.7c10.1,0,18.4,2.5,24.7,7.6,6.5,5.1,10,11.8,10.9,20h-15.4c-.5-4.1-2.7-7.7-6.5-10.9s-8.9-4.7-15.1-4.7-10.6,1.5-14.3,4.6c-3.7,3-5.6,7.2-5.6,12.7s1.1,7.1,3.3,9.5,4.9,4.3,8.2,5.6,7.7,2.8,13.7,4.4c7.1,1.9,12.8,3.9,17.1,5.8s8,4.8,11.1,8.7c3,3.9,4.7,9.4,4.7,16.1s-1.4,10.1-4.2,14.8-6.8,8.4-12.3,11.3c-5.4,2.9-11.9,4.3-19.2,4.3s-13.4-1.3-19-3.8l-.3.3.4-.2Z"/>
      <path class="st0" d="M833.5,827.1c-8.2-4.7-14.7-11.1-19.5-19.6-4.8-8.4-7.2-17.8-7.2-28.2s2.4-19.9,7.2-28.2c4.8-8.4,11.3-14.9,19.5-19.6s17.3-7,27.2-7,19.2,2.3,27.5,7c8.2,4.7,14.7,11.1,19.4,19.5s7.1,17.7,7.1,28.4-2.4,20-7.1,28.4c-4.7,8.4-11.1,14.8-19.4,19.5s-17.3,7-27.5,7-19.1-2.3-27.2-7h0v-.2ZM881.1,816.7c5.9-3.5,10.8-8.5,14.2-14.9,3.4-6.5,5.2-13.9,5.2-22.5s-1.8-16.2-5.2-22.5c-3.4-6.5-8.1-11.4-14.1-14.8-5.9-3.5-12.8-5.2-20.4-5.2s-14.4,1.8-20.4,5.2c-5.9,3.5-10.6,8.5-14.1,14.8-3.4,6.5-5.2,13.9-5.2,22.5s1.8,16.1,5.2,22.5c3.4,6.5,8.2,11.5,14.2,14.9,5.9,3.5,12.8,5.2,20.3,5.2s14.3-1.8,20.3-5.2h0Z"/>
      <path class="st0" d="M1020.3,725.6v11.4h-46.7v36.2h37.8v11.4h-37.8v48.4h-14.1v-107.5h60.8Z"/>
      <path class="st0" d="M108.9,901.2v21.9h35.3v20.4h-35.3v23.7h39.9v21.1h-66.2v-108.2h66.2v21.1h-39.9,0Z"/>
      <path class="st0" d="M243.9,988.2l-22-33.2-19.4,33.2h-29.9l34.7-55.1-35.4-53.2h30.6l21.8,32.7,19.1-32.7h29.9l-34.3,54.6,35.7,53.7h-30.8Z"/>
      <path class="st0" d="M377.4,932c-2.9,5.2-7.3,9.4-13.3,12.5s-13.4,4.8-22.2,4.8h-16.3v38.9h-26.3v-108.2h42.7c8.6,0,15.9,1.5,21.9,4.4,5.9,3,10.4,7.1,13.4,12.3s4.4,11.3,4.4,18-1.4,12-4.3,17.2h0ZM351.2,925c2.4-2.4,3.7-5.7,3.7-10s-1.3-7.6-3.7-10-6.2-3.5-11.3-3.5h-14.3v27.1h14.3c5.1,0,8.7-1.1,11.3-3.5h0Z"/>
      <path class="st0" d="M433.4,901.2v21.9h35.3v20.4h-35.3v23.7h39.9v21.1h-66.2v-108.2h66.2v21.1h-39.9Z"/>
      <path class="st0" d="M557.2,988.2l-22.5-40.9h-6.3v40.9h-26.3v-108.2h44.2c8.5,0,15.8,1.5,21.8,4.4,5.9,3,10.5,7.1,13.5,12.3s4.4,11,4.4,17.3-2,13.7-6.1,19.2c-4.1,5.7-10,9.6-18,12l24.9,42.8h-29.7,0v.2ZM528.3,928.8h16.3c4.8,0,8.5-1.1,10.9-3.5s3.7-5.7,3.7-10-1.3-7.3-3.7-9.7-6.1-3.5-10.9-3.5h-16.3v26.8h0Z"/>
      <path class="st0" d="M640.3,880v108.2h-26.3v-108.2h26.3Z"/>
      <path class="st0" d="M697.4,901.2v21.9h35.3v20.4h-35.3v23.7h39.9v21.1h-66.2v-108.2h66.2v21.1h-39.9Z"/>
      <path class="st0" d="M862.7,988.2h-26.3l-44.1-66.7v66.7h-26.3v-108.2h26.3l44.1,67.1v-67.1h26.3v108.2Z"/>
      <path class="st0" d="M895.9,905.5c4.7-8.4,11-14.9,19.4-19.6,8.2-4.7,17.6-7,28.1-7s23.8,3.4,33,10.1c9.1,6.8,15.3,16.1,18.4,27.7h-29c-2.2-4.6-5.2-8-9.1-10.4-3.9-2.4-8.5-3.5-13.5-3.5-8.1,0-14.7,2.8-19.7,8.5s-7.6,13.2-7.6,22.7,2.5,17,7.6,22.7,11.6,8.5,19.7,8.5,9.5-1.1,13.5-3.5c3.9-2.4,7-5.8,9.1-10.4h29c-3,11.8-9.2,20.9-18.4,27.7-9.1,6.7-20.1,10.1-33,10.1s-19.9-2.3-28.1-7-14.7-11.1-19.4-19.5-7-17.8-7-28.5,2.3-20.3,7-28.6h0Z"/>
      <path class="st0" d="M1048.7,901.2v21.9h35.3v20.4h-35.3v23.7h39.9v21.1h-66.2v-108.2h66.2v21.1h-39.9Z"/>
    </g>
  </g>
  <image class="st1" width="4219" height="3201" transform="translate(45.8 171.6) scale(.3)" xlink:href="27 Years 1-1.png"/>
</svg>