<svg enable-background="new 0 0 512 512" viewBox="0 0 512 512" xmlns="http://www.w3.org/2000/svg"><g id="_x32_1_Parallel_Parking"><g><path d="m36.309 445.385v-146.5h140.484v146.5c0 2.478 2.008 4.483 4.484 4.483s4.484-2.005 4.484-4.483v-146.5h140.484v146.5c0 2.478 2.008 4.483 4.484 4.483s4.483-2.005 4.483-4.483v-146.5h140.482v146.5c0 2.478 2.008 4.483 4.483 4.483 2.476 0 4.484-2.005 4.484-4.483-.005-182.918-.004-164.102 0-341.469 0-2.478-2.008-4.483-4.484-4.483s-4.483 2.005-4.483 4.483v144.887h-140.484v-144.887c0-2.478-2.008-4.483-4.483-4.483-2.476 0-4.484 2.005-4.484 4.483v144.887h-140.484v-144.887c0-2.478-2.008-4.483-4.484-4.483s-4.484 2.005-4.484 4.483v144.887h-140.482v-144.887c0-2.478-2.008-4.483-4.484-4.483s-4.484 2.005-4.484 4.483c-.001 37.609 0 307.296 0 341.469 0 2.478 2.008 4.483 4.484 4.483s4.484-2.005 4.484-4.483zm439.379-155.467h-439.383v-32.147h439.383z"/><path d="m85.13 197.916h42.862c14.302 0 25.914-13.54 25.914-30.129v-12.779h3.765c2.476 0 4.484-2.005 4.484-4.484 0-2.478-2.008-4.484-4.484-4.484h-3.765v-85.005c0-12.509-8.667-23.673-20.49-23.673-43.693.036-54.423.021-54.699.09-9.699.249-19.503 9.689-19.503 23.583v85.006h-3.786c-2.476 0-4.484 2.005-4.484 4.484 0 2.478 2.008 4.484 4.484 4.484h3.786v12.779c.001 16.588 11.614 30.128 25.916 30.128zm48.332-151.587-11.254 29.546h-31.16l-11.388-29.501 53.757-.045zm-12.823 87.653h-28.201v-49.14h28.201zm-36.406 25.824 5.559-16.857h33.492l5.604 16.857c.27.81-.179 1.766-1.076 1.973-10.312 2.735-18.068 4.259-21.252 4.259-3.228 0-10.94-1.524-21.297-4.259-.724-.181-1.394-1.097-1.03-1.973zm-16.051-98.771c0-3.991 1.3-7.756 3.497-10.447l11.792 30.533v54.116c-.538.493-.942 1.121-1.166 1.838l-6.591 19.906c-1.909 5.548 1.206 11.85 7.308 13.495 11.523 3.004 19.414 4.528 23.538 4.528 4.08 0 12.016-1.524 23.538-4.528 6.151-1.686 9.108-8.006 7.308-13.495l-6.635-19.906c-.224-.718-.628-1.345-1.166-1.883v-53.488l11.837-31.115c2.197 2.735 3.497 6.456 3.497 10.447v106.752c0 11.657-7.622 21.162-16.948 21.162h-42.861c-9.371 0-16.948-9.505-16.948-21.162z"/><path d="m378.172 477.732h54.161c11.883 0 20.489-11.175 20.489-23.628v-85.013h3.751c2.476 0 4.483-2.005 4.483-4.483s-2.008-4.484-4.483-4.484h-3.751v-12.773c0-16.589-11.657-30.129-25.914-30.129h-42.908c-14.258 0-25.914 13.54-25.914 30.129v12.773h-3.755c-2.476 0-4.484 2.005-4.484 4.484s2.008 4.483 4.484 4.483h3.755v85.013c0 14.011 10.162 23.628 20.086 23.628zm54.161-8.967h-53.757l11.388-29.502h31.16l11.253 29.502c-.044 0-.044 0-.044 0zm-40.98-87.608h28.201v49.139h-28.201zm36.451-25.825-5.604 16.858h-33.492l-5.604-16.858c-.242-.726.097-1.691 1.076-2.017 10.312-2.69 18.069-4.259 21.252-4.259 3.228 0 10.984 1.569 21.297 4.304.97.242 1.317 1.247 1.075 1.972zm-43.804-29.143h42.907c9.326 0 16.947 9.506 16.947 21.162v106.752c0 3.99-1.3 7.801-3.497 10.492l-11.837-31.026v-53.668c.538-.493.942-1.121 1.166-1.838l6.635-19.906c1.897-5.787-1.519-12.014-7.353-13.495-11.478-3.004-19.414-4.573-23.538-4.573-4.08 0-12.016 1.569-23.538 4.573-2.78.717-5.156 2.6-6.546 5.156-3.591 6.604 1.024 11.092 5.873 28.246.224.717.628 1.345 1.166 1.883v53.937l-11.837 30.712c-2.197-2.691-3.497-6.501-3.497-10.492 0-40.021 0-68.773 0-106.752.002-11.657 7.624-21.163 16.949-21.163z"/><path d="m385.435 194.778h42.862c14.302 0 25.915-13.495 25.915-30.085v-12.789h3.767c2.476 0 4.484-2.005 4.484-4.484 0-2.478-2.008-4.484-4.484-4.484h-3.767v-85.04c0-12.459-8.65-23.628-20.489-23.628h-53.713c-10.482 0-20.49 9.512-20.49 23.628v85.04h-3.784c-2.476 0-4.483 2.005-4.483 4.484 0 2.478 2.008 4.484 4.483 4.484h3.784v12.789c0 16.59 11.613 30.085 25.915 30.085zm48.332-151.543-11.253 29.501-31.16.045-11.389-29.501c31.804-.026 21.95-.018 53.802-.045zm-12.823 38.513v49.14h-28.201v-49.14zm-36.406 74.92 5.56-16.813h33.492l5.604 16.813c.268.87-.178 1.811-1.076 2.017-10.312 2.735-18.069 4.26-21.252 4.26-3.228 0-10.94-1.525-21.252-4.26-1.005-.231-1.387-1.396-1.076-2.017zm-16.051-98.772c0-3.99 1.3-7.711 3.497-10.401l11.792 30.622v54.026c-1.445 1.326-.746 1.106-7.756 21.701-1.982 5.851 1.467 11.964 7.308 13.54 11.523 3.004 19.414 4.528 23.538 4.528 4.08 0 12.016-1.525 23.538-4.528 5.972-1.638 9.158-7.807 7.308-13.54-7.02-20.539-6.41-20.469-7.801-21.745v-53.489l11.836-31.115c2.197 2.735 3.497 6.456 3.497 10.401v106.797c0 11.658-7.622 21.118-16.948 21.118h-42.862c-9.371 0-16.948-9.46-16.948-21.118v-106.797z"/><path d="m106.552 437.688c2.476 0 4.483-2.005 4.483-4.483v-101.288l18.989 22.581c1.596 1.896 4.424 2.141 6.316.547 1.896-1.594 2.139-4.422.545-6.318l-26.921-32.015c-1.803-2.141-5.078-2.12-6.863 0l-26.888 32.015c-1.594 1.9-1.346 4.724.549 6.318 1.905 1.597 4.729 1.341 6.316-.547l18.989-22.61v101.317c.001 2.477 2.009 4.483 4.485 4.483z"/><path d="m256.002 437.688c2.476 0 4.483-2.005 4.483-4.483v-101.286l18.989 22.578c1.596 1.896 4.422 2.141 6.316.547 1.896-1.594 2.139-4.422.545-6.318l-26.923-32.015c-1.796-2.133-5.071-2.129-6.863 0l-26.886 32.015c-1.594 1.9-1.346 4.724.549 6.318 1.905 1.597 4.729 1.341 6.316-.547l18.989-22.612v101.318c.002 2.479 2.009 4.485 4.485 4.485z"/><path d="m256.002 104.919c-2.476 0-4.484 2.005-4.484 4.483v101.323l-18.989-22.612c-1.592-1.896-4.42-2.137-6.316-.547-1.896 1.594-2.143 4.418-.549 6.318l26.886 32.015c.852 1.011 2.106 1.598 3.43 1.598h.002c1.324 0 2.579-.587 3.43-1.598l26.923-32.015c1.594-1.896 1.351-4.724-.545-6.318s-4.722-1.349-6.316.547l-18.989 22.578v-101.288c.001-2.479-2.007-4.484-4.483-4.484z"/></g></g><g id="Layer_1"/></svg>