<svg id="Layer_1" enable-background="new 0 0 468 468" height="512" viewBox="0 0 468 468" width="512" xmlns="http://www.w3.org/2000/svg"><g><g><path d="m0 441.043v-415.099c0-14.306 11.663-25.944 26-25.944h416c14.337 0 26 11.638 26 25.944v415.099c0 14.306-11.663 25.944-26 25.944h-146.678c-3.313 0-6-2.681-6-5.987s2.687-5.987 6-5.987h146.678c7.72 0 14-6.267 14-13.97v-415.099c0-7.703-6.28-13.97-14-13.97h-416c-7.72 0-14 6.267-14 13.97v415.099c0 7.703 6.28 13.97 14 13.97h207.373c3.313 0 6 2.681 6 5.987s-2.687 5.987-6 5.987h-207.373c-14.337 0-26-11.638-26-25.944z"/></g><g><circle cx="264.763" cy="461" r="7"/></g><g><path d="m189 233.493c0-24.76 20.187-44.903 45-44.903s45 20.143 45 44.903-20.186 44.903-45 44.903-45-20.143-45-44.903zm78 0c0-18.157-14.804-32.929-33-32.929s-33 14.772-33 32.929 14.804 32.929 33 32.929 33-14.772 33-32.929z"/></g><g><ellipse cx="234" cy="233.493" rx="10" ry="9.978"/></g><g><path d="m435 404.123c0-16.506-13.458-29.935-30-29.935-6.106 0-11.789 1.834-16.532 4.973l-68.327-68.179c-2.343-2.339-6.142-2.339-8.484 0-2.315 2.309-2.315 6.158 0 8.466l68.327 68.179c-3.146 4.733-4.984 10.403-4.984 16.496 0 16.506 13.458 29.935 30 29.935s30-13.429 30-29.935zm-48 0c0-9.903 8.075-17.961 18-17.961s18 8.058 18 17.961-8.075 17.961-18 17.961-18-8.057-18-17.961z"/><g><path d="m278.763 315.215c0-20.432 16.659-37.055 37.136-37.055 12.604 0 24.24 6.297 31.129 16.844 1.811 2.772 1.024 6.479-1.75 8.285-2.776 1.806-6.494 1.023-8.303-1.746-4.666-7.144-12.545-11.409-21.076-11.409-13.86 0-25.136 11.251-25.136 25.081 0 8.391 4.18 16.191 11.182 20.865 2.755 1.838 3.495 5.557 1.651 8.305-1.843 2.749-5.569 3.486-8.323 1.648-10.338-6.902-16.51-18.422-16.51-30.818z"/></g></g><g><path d="m320.141 156.395 68.327-68.18c4.744 3.139 10.426 4.973 16.532 4.973 16.542 0 30-13.429 30-29.935s-13.458-29.935-30-29.935-30 13.429-30 29.935c0 6.093 1.838 11.763 4.983 16.496l-68.327 68.18c-5.428 5.412 2.94 14.001 8.485 8.466zm84.859-111.104c9.925 0 18 8.058 18 17.961s-8.075 17.961-18 17.961-18-8.058-18-17.961 8.075-17.961 18-17.961z"/><g><path d="m278.763 152.162c0-12.397 6.172-23.918 16.51-30.819 2.754-1.838 6.48-1.101 8.323 1.648 1.844 2.747 1.104 6.465-1.651 8.305-7.002 4.673-11.182 12.474-11.182 20.866 0 13.829 11.275 25.08 25.136 25.08 8.531 0 16.41-4.264 21.076-11.408 1.81-2.77 5.526-3.552 8.303-1.746 2.774 1.806 3.561 5.512 1.75 8.285-6.889 10.546-18.526 16.843-31.129 16.843-20.477 0-37.136-16.622-37.136-37.054z"/></g></g><g><path d="m93.39 404.123c0-6.093-1.838-11.763-4.983-16.496l68.328-68.179c2.343-2.337 2.345-6.129 0-8.466-2.343-2.339-6.142-2.339-8.484 0l-68.328 68.179c-4.744-3.139-10.426-4.973-16.532-4.973-16.542 0-30 13.429-30 29.935s13.458 29.935 30 29.935 29.999-13.429 29.999-29.935zm-48 0c0-9.903 8.075-17.961 18-17.961s18 8.058 18 17.961-8.075 17.961-18 17.961-18-8.057-18-17.961z"/><g><path d="m120.388 298.267c0-1.121.315-2.254.975-3.263 6.889-10.547 18.525-16.844 31.13-16.844 20.477 0 37.135 16.623 37.135 37.055 0 12.396-6.172 23.917-16.51 30.818-2.754 1.838-6.48 1.101-8.323-1.648-1.842-2.748-1.102-6.467 1.651-8.305 7.002-4.673 11.182-12.474 11.182-20.865 0-13.83-11.275-25.081-25.135-25.081-8.532 0-16.411 4.265-21.077 11.409-3.138 4.804-11.028 2.434-11.028-3.276z"/></g></g><g><path d="m156.734 156.395c2.344-2.337 2.344-6.129 0-8.466l-68.328-68.18c3.146-4.733 4.983-10.404 4.983-16.496 0-16.506-13.458-29.935-30-29.935s-30 13.429-30 29.935 13.458 29.935 30 29.935c6.106 0 11.789-1.834 16.532-4.973l68.328 68.18c2.344 2.339 6.143 2.339 8.485 0zm-111.344-93.142c0-9.903 8.075-17.961 18-17.961s18 8.058 18 17.961-8.075 17.961-18 17.961-18-8.058-18-17.961z"/><g><path d="m120.388 169.11c0-5.703 7.882-8.09 11.027-3.275 4.666 7.144 12.545 11.408 21.077 11.408 13.859 0 25.135-11.251 25.135-25.08 0-8.392-4.18-16.192-11.182-20.866-2.753-1.84-3.493-5.558-1.651-8.305 1.843-2.749 5.569-3.486 8.323-1.648 10.338 6.901 16.51 18.422 16.51 30.819 0 20.432-16.658 37.054-37.135 37.054-12.604 0-24.241-6.297-31.13-16.843-.659-1.009-.974-2.144-.974-3.264z"/></g></g><path d="m349 79.827c0-12.105-9.869-21.952-22-21.952h-186c-12.131 0-22 9.848-22 21.952 0 12.105 9.869 21.952 22 21.952h186c12.131 0 22-9.848 22-21.952zm-12.107-1.475c.889 6.154-3.894 11.454-9.893 11.454h-.021c-5.476 0-10.145-4.539-10.145-10.04 0-5.457 4.444-9.75 9.812-9.917 5.023 0 9.531 3.542 10.247 8.503zm-31.155 11.453h-141.914c2.836-6.298 2.695-13.773-.354-19.957h142.22c-2.842 6.264-2.828 13.706.048 19.957zm-174.715-10.662c.356-5.297 5.01-9.294 10.33-9.294 5.382.448 8.974 5.092 8.974 10.361 0 5.118-4.086 9.595-9.328 9.595-5.739 0-10.366-4.852-9.976-10.662z"/><path d="m349 387.16c0-12.105-9.869-21.952-22-21.952h-186c-12.131 0-22 9.848-22 21.952 0 12.105 9.869 21.952 22 21.952h186c12.131 0 22-9.847 22-21.952zm-12.107-1.475c.889 6.154-3.894 11.454-9.893 11.454h-.021c-5.476 0-10.145-4.539-10.145-10.04 0-5.457 4.444-9.75 9.813-9.917 5.023 0 9.53 3.542 10.246 8.503zm-31.155 11.453h-141.914c2.836-6.298 2.695-13.773-.354-19.957h142.22c-2.842 6.264-2.828 13.707.048 19.957zm-174.715-10.662c.356-5.297 5.01-9.294 10.33-9.294 5.382.448 8.974 5.092 8.974 10.361 0 5.118-4.086 9.595-9.328 9.595-5.739 0-10.366-4.852-9.976-10.662z"/><path d="m388 348.244c12.131 0 22-9.848 22-21.952v-185.597c0-12.105-9.869-21.952-22-21.952s-22 9.848-22 21.952v185.597c0 12.105 9.869 21.952 22 21.952zm1.479-12.08c-6.167.887-11.479-3.885-11.479-9.872v-.021c0-5.464 4.549-10.123 10.062-10.123 5.469 0 9.771 4.434 9.938 9.791 0 5.012-3.55 9.51-8.521 10.225zm-11.479-31.088v-141.607c6.311 2.829 13.803 2.689 20-.353v141.912c-6.277-2.836-13.736-2.822-20 .048zm10.686-174.337c5.309.355 9.314 4.999 9.314 10.308-.449 5.37-5.104 8.955-10.384 8.955-5.129 0-9.616-4.078-9.616-9.307 0-5.728 4.863-10.345 10.686-9.956z"/><path d="m80 348.245c12.131 0 22-9.848 22-21.952v-185.597c0-12.105-9.869-21.952-22-21.952s-22 9.848-22 21.952v185.597c0 12.104 9.869 21.952 22 21.952zm1.479-12.081c-6.167.887-11.479-3.886-11.479-9.872v-.021c0-5.464 4.549-10.123 10.062-10.123 5.469 0 9.771 4.434 9.938 9.791 0 5.013-3.55 9.51-8.521 10.225zm-11.479-31.088v-141.607c6.311 2.829 13.803 2.689 20-.353v141.912c-6.277-2.836-13.736-2.822-20 .048zm10.686-174.336c5.309.355 9.314 4.999 9.314 10.308-.449 5.37-5.104 8.955-10.384 8.955-5.129 0-9.616-4.078-9.616-9.307 0-5.729 4.863-10.346 10.686-9.956z"/></g></svg>