<svg id="Lobby" viewBox="0 0 64 64" xmlns="http://www.w3.org/2000/svg"><path d="m11 25h42c2.21 0 4-1.79 4-4v-14c0-2.21-1.79-4-4-4h-42c-2.21 0-4 1.79-4 4v14c0 2.21 1.79 4 4 4zm42-2h-42c-1.1 0-2-.9-2-2v-3.91c1.36.95 3.54 1.93 6.74 1.93 3.82 0 9.08-1.4 16.13-5.91l4.43 4.37c.21.21.51.31.81.28s.57-.2.73-.45c.04-.06 3.97-5.99 9.21-6.31 2.74-.17 5.4 1.25 7.95 4.17v5.81c0 1.1-.9 2-2 2zm-42-18h42c1.1 0 2 .9 2 2v5.33c-2.56-2.36-5.27-3.48-8.08-3.31-4.85.3-8.55 4.32-10.04 6.23l-4.17-4.12c-.34-.33-.86-.38-1.25-.12-15.44 10.17-21.39 4.69-22.45 3.45v-7.45c0-1.1.9-2 2-2z"/><path d="m56 39.1v-6.1c0-2.21-1.79-4-4-4h-17c-1.2 0-2.27.54-3 1.38-.73-.84-1.8-1.38-3-1.38h-17c-2.21 0-4 1.79-4 4v6.1c-2.28.46-4 2.48-4 4.9v16c0 .55.45 1 1 1h54c.55 0 1-.45 1-1v-16c0-2.41-1.72-4.43-4-4.9zm-21-8.1h17c1.1 0 2 .9 2 2v6.1c-2.28.46-4 2.48-4 4.9v2h-4v-2c0-1.1-.9-2-2-2h-11v-9c0-1.1.9-2 2-2zm-3 16h-12v-3h24v3s0 0 0 0zm-12 4h-6v-3h4.28c.35.59.99 1 1.72 1zm24-2c.74 0 1.37-.41 1.72-1h4.28v3h-6zm-32-18h17c1.1 0 2 .9 2 2v9h-11c-1.1 0-2 .9-2 2v2h-4v-2c0-2.41-1.72-4.43-4-4.9v-6.1c0-1.1.9-2 2-2zm-6 13c0-1.65 1.35-3 3-3s3 1.35 3 3v15h-6zm8 9h6v6h-6zm8-1v-3h9v10h-9zm11-3h9v10h-9zm11 4h6v6h-6zm14 6h-6v-15c0-1.65 1.35-3 3-3s3 1.35 3 3z"/><circle cx="28" cy="54" r="1"/><circle cx="36" cy="54" r="1"/></svg>