<?xml version="1.0" encoding="UTF-8"?>
<svg xmlns="http://www.w3.org/2000/svg" id="Icons" viewBox="0 0 60 60" width="512" height="512"><path d="M58.356,17.065c-.2-.074-19.568-7.522-26.91-15.886A1.944,1.944,0,0,0,30.021.513a2.005,2.005,0,0,0-1.509.618C20.317,9.534,1.814,17,1.629,17.072A1,1,0,0,0,1,18V58a2,2,0,0,0,2,2H57a2,2,0,0,0,2-2V18A1,1,0,0,0,58.356,17.065ZM53,58H47.755l-1.47-5.144A2.915,2.915,0,0,0,48.369,50.4l1.6-8.011a.793.793,0,0,0,.014-.1,2.99,2.99,0,0,0-5.942-.675l-1.314,5.243A1.172,1.172,0,0,0,42.7,47H39a2.992,2.992,0,0,0-.317,5.968L37.245,58H33V46h2a3,3,0,0,0,0-6H25a3,3,0,0,0,0,6h2V58H22.755l-1.438-5.032A2.992,2.992,0,0,0,21,47H17.3a1.156,1.156,0,0,0-.025-.143l-1.314-5.243a2.99,2.99,0,0,0-5.942.675.793.793,0,0,0,.014.1L11.616,50.3a2.982,2.982,0,0,0,2.1,2.556L12.245,58H7V25.464A6.651,6.651,0,0,0,12,28c2.968,0,4.942-2.224,6-3.877C19.058,25.776,21.032,28,24,28s4.943-2.227,6-3.882C31.057,25.773,33.028,28,36,28s4.942-2.224,6-3.877C43.058,25.776,45.032,28,48,28a6.651,6.651,0,0,0,5-2.536Zm-7.6-7H39a1,1,0,0,1,0-2h3.7a2,2,0,0,0,1.98-1.716L46,42.035a.867.867,0,0,0,.025-.144.99.99,0,0,1,1.72-.565.973.973,0,0,1,.254.722l-1.6,8.052A1,1,0,0,1,45.4,51Zm-4.643,2h3.49l1.429,5H39.326ZM25,44a1,1,0,0,1,0-2H35a1,1,0,0,1,0,2H25ZM14.6,51a1.033,1.033,0,0,1-1.01-1L12,42.048A.99.99,0,0,1,12.99,41a.988.988,0,0,1,.986.891.867.867,0,0,0,.025.144l1.315,5.249A2,2,0,0,0,17.3,49H21a1,1,0,0,1,0,2Zm1.153,2h3.49l1.429,5H14.326ZM7.661,23h8.683c-.807,1.282-2.274,3-4.344,3S8.473,24.283,7.661,23Zm12,0h8.683c-.807,1.282-2.274,3-4.344,3S20.473,24.283,19.661,23Zm12,0h8.683c-.807,1.282-2.274,3-4.344,3S32.473,24.283,31.661,23ZM48,26c-2.057,0-3.527-1.717-4.339-3h8.683C51.537,24.282,50.07,26,48,26ZM3,21V19H57v2ZM29.942,2.5C35.377,8.689,46.606,14.2,52.981,17H6.831C12.974,14.205,23.924,8.692,29.942,2.5ZM3,23H5V58H3ZM29,58V46h2V58Zm26,0V23h2V58Z"/></svg>
