<svg clip-rule="evenodd" fill-rule="evenodd" height="512" image-rendering="optimizeQuality" shape-rendering="geometricPrecision" text-rendering="geometricPrecision" viewBox="0 0 1707 1707" width="512" xmlns="http://www.w3.org/2000/svg"><g id="Layer_x0020_1"><path d="m342 1345c-11 0-20-9-20-20v-938c0-11 9-20 20-20s20 9 20 20v938c0 11-9 20-20 20z"/><path d="m342 575c-3 0-7 0-10-2-66-39-107-110-107-186 0-77 41-148 107-186 7-4 14-4 20 0 67 38 108 109 108 186 0 76-41 147-108 186-3 2-6 2-10 2z"/><path d="m440 809c-38 0-75-10-108-29-6-3-10-10-10-17 0-76 42-148 108-186 65-38 149-37 214 0 7 4 10 10 10 18 0 76-41 147-107 185-33 19-70 29-107 29z"/><path d="m245 809c-38 0-75-10-107-29-67-38-108-109-108-185 0-8 4-14 10-18 65-37 150-38 215 0 66 38 107 110 107 186 0 7-3 14-10 17-32 19-70 29-107 29z"/><path d="m440 1118c-38 0-75-10-108-29-6-4-10-10-10-17 0-77 42-148 108-186 65-38 149-38 214 0 7 3 10 10 10 17 0 77-41 148-107 186-33 19-70 29-107 29z"/><path d="m245 1118c-38 0-75-10-107-29-67-38-108-109-108-186 0-7 4-14 10-17 65-38 150-38 215 0 66 38 107 109 107 186 0 7-3 13-10 17-32 19-70 29-107 29z"/><path d="m342 1092c-3 0-7-1-10-3l-146-84c-9-6-13-18-7-28 5-9 18-13 27-7l146 84c10 6 13 18 8 28-4 6-11 10-18 10z"/><path d="m342 1092c-7 0-13-4-17-10-6-10-2-22 7-28l146-84c10-5 22-2 28 7 5 10 2 22-8 28l-146 84c-3 2-6 3-10 3z"/><path d="m342 783c-3 0-7-1-10-3l-146-84c-9-5-13-18-7-27 5-10 18-13 27-7l146 84c10 5 13 18 8 27-4 7-11 10-18 10z"/><path d="m342 783c-7 0-13-3-17-10-6-9-2-22 7-27l146-84c10-6 22-3 28 7 5 9 2 22-8 27l-146 84c-3 2-6 3-10 3z"/><path d="m1364 1345c-11 0-20-9-20-20v-938c0-11 9-20 20-20s20 9 20 20v938c0 11-9 20-20 20z"/><path d="m1364 575c-3 0-7 0-10-2-66-39-107-110-107-186 0-77 41-148 107-186 7-4 14-4 20 0 67 38 108 109 108 186 0 76-41 147-108 186-3 2-6 2-10 2z"/><path d="m1462 809c-38 0-75-10-108-29-6-3-10-10-10-17 0-76 42-148 108-186 65-38 149-37 214 0 7 4 10 10 10 18 0 76-41 147-107 185-33 19-70 29-107 29z"/><path d="m1267 809c-38 0-75-10-107-29-67-38-108-109-108-185 0-8 4-14 10-18 65-37 150-38 215 0 66 38 107 110 107 186 0 7-3 14-10 17-32 19-70 29-107 29z"/><path d="m1462 1118c-38 0-75-10-108-29-6-4-10-10-10-17 0-77 42-148 108-186 65-38 149-38 214 0 7 3 10 10 10 17 0 77-41 148-107 186-33 19-70 29-107 29z"/><path d="m1267 1118c-38 0-75-10-107-29-67-38-108-109-108-186 0-7 4-14 10-17 65-38 150-38 215 0 66 38 107 109 107 186 0 7-3 13-10 17-32 19-70 29-107 29z"/><path d="m1364 1092c-3 0-6-1-10-3l-146-84c-9-6-13-18-7-28 6-9 18-12 27-7l146 84c10 6 13 18 8 28-4 6-11 10-18 10z"/><path d="m1364 1092c-7 0-13-4-17-10-5-10-2-22 7-28l146-84c10-5 22-2 28 7 5 10 2 22-8 28l-146 84c-3 2-6 3-10 3z"/><path d="m1364 783c-3 0-6-1-10-3l-146-84c-9-5-13-18-7-27 5-10 18-13 27-7l146 84c10 5 13 18 8 27-4 7-11 10-18 10z"/><path d="m1364 783c-7 0-13-3-17-10-5-9-2-22 7-27l146-84c10-6 22-3 28 7 5 9 2 22-8 27l-146 84c-3 2-6 3-10 3z"/><path d="m1687 1509h-1667c-11 0-20-9-20-20v-164c0-11 9-20 20-20h1667c11 0 20 9 20 20v164c0 11-9 20-20 20z"/><path d="m853 1345c-11 0-20-9-20-20v-335c0-11 9-20 20-20s20 9 20 20v335c0 11-9 20-20 20z"/><path d="m853 1010c-3 0-7-1-10-3-32-19-52-53-52-91 0-37 20-72 52-90 7-4 14-4 20 0 33 18 53 53 53 90 0 38-20 72-53 91-3 2-6 3-10 3z"/><path d="m896 1112c-19 0-37-5-53-14-6-4-10-11-10-18 0-37 20-72 53-91 32-18 73-18 105 0 6 4 10 11 10 18-1 37-21 72-53 91-16 9-34 14-52 14z"/><path d="m811 1112c-18 0-37-5-52-15-33-18-53-53-53-90 0-7 4-14 10-18 32-18 73-18 105 0 32 19 52 54 52 91 0 7-3 14-10 18-16 9-34 14-52 14z"/><path d="m896 1246c-19 0-37-5-53-14-6-4-10-10-10-17 0-38 20-73 53-91 32-19 73-19 105 0 6 3 10 10 10 17-1 37-21 72-53 91-16 9-34 14-52 14z"/><path d="m811 1246c-18 0-37-5-52-14-33-19-53-54-53-91 0-7 4-14 10-17 32-19 73-19 105 0 32 18 52 53 52 90 0 8-3 14-10 18-16 9-34 14-52 14z"/></g></svg>