<svg id="Layer_1" height="512" viewBox="0 0 452.2838 340.0586" width="512" xmlns="http://www.w3.org/2000/svg"><g><path d="m0 321.394 8.7354 4.8672 8.6581-15.54h69.9163l-5.905 10.5986 8.7354 4.8672 102.9946-184.8583 117.3885 165.938h-.2395c-3.6666 0-6.6666 3-6.6666 6.6667s3 6.6666 6.6666 6.6666h135.3334c3.6666 0 6.6666-2.9999 6.6666-6.6666s-3-6.6667-6.6666-6.6667h-9.594l-43.6134-61.6511c-.6146.6624-1.278 1.2872-2.0099 1.8481-2.8174 2.1597-6.1807 3.3013-9.7256 3.3013-5.0225 0-9.6533-2.2847-12.7061-6.2681l-16.1982-21.1337-34.418-5.5356c-1.8018-.2896-3.5146-.8735-5.1035-1.7393-7.8086-2.6362-13.6621-17.4053-13.7148-17.5659l-13.4199-39.5366-43.6123-32.1914c-5.5449-4.0933-6.7256-11.9346-2.6328-17.48 2.3467-3.1792 6.1074-5.0771 10.0615-5.0771 2.6865 0 5.252.8447 7.418 2.4434l24.4639 18.0572c-.1789-.4592-.3619-.9163-.5167-1.3892-2.2021-6.7275-1.6514-13.9097 1.5488-20.2231 1.2968-2.5585 2.9713-4.8444 4.9457-6.8118l-10.1729-14.3801h-1.1334v-8.2667h-3.1996v-36.667c0-20.4019-16.5977-37-37-37h-2.667c-10.9114 0-20.7316 4.7505-27.5097 12.2886 3.1251 4.4327 5.4313 9.4775 6.7042 14.9189 3.6851-7.7978 11.6239-13.2075 20.8057-13.2075h2.667c12.6826 0 23 10.3179 23 23v36.6667h-45.334-6v-36.6663c0-20.4023-16.5977-37-37-37h-2.666c-20.4023 0-37 16.5977-37 37v33.8179 2.8485h-16.1337v11.3333h17.5566zm153.2866-236.3939 6.8172 9.6367h-22.3187l5.3691-9.6367zm-72.9117 112.6791 23.1337-41.5215h69.9165l-23.1337 41.5215zm64.345 10-23.1335 41.521h-69.9164l23.1334-41.521zm-121.7549 93.042 23.1334-41.521h69.9164l-23.1335 41.521zm156.0317-154.5635h-69.9166l23.1335-41.521h34.9644l19.5529 27.6395zm160.0266 161.109h-13l-157.2367-222.2666h13zm-194.7392-236.4485v-33.8178c0-12.6826 10.3174-23 23-23h2.666c12.6826 0 23 10.3174 23 23v36.6664h-6-42.666z"/><path d="m297.4673 144.4885-44.6816-32.9803c-2.8896-2.1323-6.958-1.519-9.0898 1.3691-2.1318 2.8887-1.5186 6.958 1.3691 9.0898l45.1265 33.3086 14.0444 41.3806c.9785 2.9902 7.0156 13.6504 10.3188 13.8311 1.1089.7007 2.3735 1.1948 3.7505 1.4163l36.7744 5.9146 17.6514 23.0293c1.9688 2.5693 4.9395 3.9175 7.9434 3.9175 2.123 0 4.2617-.6729 6.0762-2.0635 4.3838-3.3599 5.2139-9.6367 1.8535-14.02l-20.0713-26.1875c-1.5537-2.0283-3.8262-3.3843-6.3486-3.79l-8.1748-1.3147 11.8369-4.449 38.6055 15.793c1.2393.5073 2.5215.7476 3.7822.7471 3.9404 0 7.6758-2.3442 9.2598-6.2163 2.0908-5.1113-.3574-10.9507-5.4697-13.0415l-42.2373-17.2788c-2.334-.9551-4.9443-.9922-7.3047-.1055l-16.1064 6.0537-12.1147-35.6953 38.3589-38.4165c2.5361-2.5405 2.5332-6.6558-.0068-9.1924s-6.6563-2.5347-9.1924.0068l-40.5068 40.568z"/><path d="m285.9976 121.4825c.1034.316.2365.6132.3536.9207l-.1715.0098c-.5518.0317-.9736.5044-.9414 1.0557.0303.5317.4707.9429.9971.9429.0195 0 .0391-.0005.0576-.0015l7.4935-.4282c-.2378.5938-.4202 1.1824-.5172 1.76l-5.0739.3483c1.9448 3.0648 4.6277 5.5065 7.7411 7.1454l-.0458.0657c-.3154.4526-.2051 1.0762.248 1.3921.1738.1221.374.1802.5713.1802.3154 0 .627-.1489.8213-.4277l.2457-.352c.7334.298 1.4822.557 2.2475.7692 2.3512 1.0333 5.1089 1.6793 7.9375 1.679 2.5459 0 5.1475-.521 7.5518-1.7471 3.7959-1.936 6.7842-5.4624 8.4131-9.9307.3055-.8384.5368-1.6784.7206-2.5097.2873-.7584.5186-1.5373.7149-2.3273l.4297.0079h.0186c.5439 0 .9902-.4355 1-.9814.0098-.5522-.4297-1.0083-.9814-1.0186l-.0764-.0014c.4397-3.0279.228-6.1963-.7878-9.3013-.131-.4003-.295-.7797-.4479-1.1662l-3.2772 3.921c-.5287-.2587-1.1084-.4619-1.7291-.6156l4.7579-5.8262c.3496-.4277.2861-1.0576-.1416-1.4067-.4287-.3516-1.0596-.2856-1.4072.1421l-.0967.1184c-4.9473-7.574-14.509-11.2226-23.5171-8.2753-10.7605 3.5207-16.6296 15.098-13.1086 25.8585zm35.5455-7.3883.0096.046.0275-.0056c.317.3104.5887.6586.7928 1.0588 1.0449 2.0498.917 5.5767-.3252 8.9858-.154.4224-.3508.9097-.5952 1.4363l-.6119-.6922c-.2324.2056-.4834.4238-.748.6514l.6523.7588c.2214-.1901.4252-.3694.6249-.5452-1.1128 2.3352-3.1661 5.3897-6.7645 7.2244-3.1115 1.5869-6.6445 1.8187-9.8391 1.2385.2648-.0593.5371-.1209.8284-.1906l-.2305-.9727c-.3408.0806-.6641.1548-.9668.2217l.2034.9164c-4.1859-.7996-7.7599-2.998-8.9808-5.3905-.2103-.4124-.3394-.8309-.4063-1.2496l.0362-.0331-.05-.0552c-.2594-1.8757.7551-3.7491 1.7727-5.1001 1.8467-2.4517 4.9541-4.8677 8.75-6.8037 4.0195-2.0493 7.8369-3.0811 10.8457-3.0811 2.1437 0 3.8715.5287 4.9748 1.5815z"/><path d="m310.6084 117.2744-.3574-.9336c-.3311.127-.6582.2563-.9814.3892l.3809.9248c.3153-.1299.6347-.2564.9579-.3804z"/><path d="m316.5176 115.3667-.2656-.9639c-.3301.0908-.667.1855-1.0098.2847l.2773.9609c.3389-.0981.6719-.1919.9981-.2817z"/><path d="m313.5361 116.252-.3047-.9521c-.3311.1055-.665.2153-.998.3286l.3203.9473c.3291-.1114.6572-.2194.9824-.3238z"/><path d="m307.3154 118.7183c.1504-.0767.3027-.1519.458-.2271l-.4355-.9004c-.1611.0786-.3193.1572-.4775.2373l-.4697.2461.4707.8818z"/><path d="m305.083 119.9829-.5273-.8496c-.2959.1841-.5928.3726-.8896.5654l.5469.8379c.289-.1889.58-.3735.87-.5537z"/><path d="m297.5947 125.5132-.6426-.7666c-.2852.2393-.5527.4668-.8008.6792l.6523.7588c.2443-.2105.5079-.4351.7911-.6714z"/><path d="m298.5752 123.417.623.7813c.2646-.2104.5361-.4253.8154-.6431l-.6152-.7881c-.2812.2197-.5566.4365-.8232.6499z"/><path d="m301.0732 121.4995.5918.8066c.2764-.2026.5566-.4048.8398-.606l-.5801-.8154c-.287.2042-.5712.4092-.8515.6148z"/><path d="m319.2998 113.6216c-.3184.0757-.6592.1587-1.0195.249l.2422.9697c.3564-.0894.6934-.1714 1.0078-.2461z"/><path d="m312.8408 130.6216.4316.9023c.1543-.0737.3066-.1489.4541-.2246.1533-.0771.3066-.1577.459-.2412l-.4785-.8779c-.1445.0786-.2881.1543-.4336.228-.1416.0723-.2861.1436-.4326.2134z"/><path d="m317.79 127.4521.6113.791c.2686-.2075.5342-.416.792-.6221l-.625-.7813c-.2538.2033-.5136.4079-.7783.6124z"/><path d="m315.3838 129.1699.5449.8379c.2832-.1841.5635-.3735.8418-.5674l-.5703-.8213c-.2705.188-.543.3721-.8164.5508z"/><path d="m310.4434 132.6675c.3203-.1113.6387-.2271.9531-.3467l-.3574-.9346c-.3047.1167-.6133.2285-.9238.3369z"/><path d="m307.2822 132.5972.2656.9639c.3184-.0874.6426-.1797.9697-.2764l-.2832-.959c-.3212.0947-.6396.185-.9521.2715z"/><path d="m186.7484 325.9814-12.3951 14.0771h75.9645c-5.8523-6.2745-30.0603-33.4786-29.24-53.2817 1.0267.2555 2.0224.5369 2.9778.8356 4.7084 1.4717 8.4332 3.3229 9.9688 4.1389l15.5068 18.5137c1.0879 1.2988 2.6484 1.9688 4.2197 1.9688 1.2461 0 2.499-.4209 3.5283-1.2832 2.3291-1.9512 2.6357-5.4199.6855-7.748l-16.166-19.3008c-.4023-.4795-.8828-.8872-1.4219-1.2051-.9209-.5444-22.7139-13.1929-41.4912-5.8647-5.1802 1.6733-22.6963 10.8467-30.0498 14.7466l-21.4614-10.731c-2.7163-1.3574-6.0205-.2568-7.3789 2.46s-.2573 6.0205 2.46 7.3789l24 11.9995c1.5952.7988 3.4795.7734 5.0522-.0684 3.8984-2.0839 8.5579-4.529 13.077-6.8505 1.1055-.5679 2.2015-1.1279 3.277-1.6738-2.6486 17.3231-1.1133 31.8881-1.1133 31.8881z"/><path d="m210.2682 242.7092c1.6352 3.2716 2.4536 6.818 2.4219 10.4083 6.2723 4.0507 13.4467 9.6119 20.6373 8.6725 15.137-1.9775 14.7397-16.0228 12.2138-12.2473s-8.0225 6.7534-21.2969-3.4967c-5.2273-4.0363-9.7835-5.9181-13.7439-6.4199.3537 1.0022.2904 2.1238-.2322 3.0831z"/><path d="m208.3419 243.9948c-2.3224 2.6732-6.6674 7.2578-12.5095 11.6304.1268.3616.2408.7166.3493 1.0698-.1104.0854-.3477.2663-.7125.5282l.583.8125c.1751-.1257.313-.2274.4335-.317 2.2152 8.3464-.5231 14.1324-1.286 15.1071-1.4658.4048-2.9893.6455-4.5313.7153-5.2142.2335-10.1638-1.4622-14.0377-4.6624l-.0004-.0017-.0013.0003c-.6072-.5018-1.1874-1.0402-1.7383-1.6147.0078-.0015.0156-.0027.0234-.0042l-.1885-.9824c-.2077.04-.4181.0759-.6279.1129-.0921-.1077-.1822-.2178-.2723-.3277-.7366.1502-1.4823.2766-2.2335.3878 4.2735 5.7653 10.9192 9.1141 18.1107 9.1141.3506 0 .7031-.0078 1.0566-.0239 1.772-.0806 3.5229-.3667 5.2036-.8506.2236-.0645.7466-.2153 1.5835-1.9473.0989-.2047.22-.4791.3486-.7938.6985-.3016 1.3893-.6361 2.0657-1.0215 9.505-5.4159 13.0605-17.2224 8.3813-26.9312z"/><path d="m168.665 262.9875c.0933.7856.7781 1.3568 1.5556 1.3215.037-.0016.0741-.0043.111-.0089 18.2756-2.1768 32.4768-16.404 37.735-22.4208.5446-.624.4811-1.5713-.1429-2.1168-.6229-.5436-1.5703-.4811-2.1168.1429-.0101.0115-.0217.0245-.0319.0361-6.2603-7.742-17.366-10.0532-26.2974-4.9641-9.2783 5.2867-12.9038 16.6644-8.722 26.2341-.2595.0363-.517.0783-.7781.1094-.8225.0979-1.4104.844-1.3125 1.6666z"/><path d="m176.8906 266.8345c.3301-.0781.6572-.1597.9814-.2441l-.252-.9678c-.3174.0825-.6377.1621-.9609.2393z"/><path d="m193.8345 258.3423c-.2593.1699-.5381.3491-.8354.5366l.5332.8457c.3022-.1904.5859-.3726.8501-.5454z"/><path d="m186.0112 262.6318c-.2974.1348-.5996.2681-.9072.4009l.3955.918c.3135-.1348.6216-.271.9238-.4077z"/><path d="m183.6333 264.7178-.3633-.9316c-.3047.1191-.6138.2358-.9268.3511l.3457.9385c.3189-.1173.6339-.2369.9444-.358z"/><path d="m180.7803 265.7383-.3096-.9512c-.312.1016-.6265.2007-.9448.2974l.291.957c.3242-.0986.6455-.1997.9634-.3032z"/><path d="m191.3008 259.9053c-.2773.1611-.5649.3252-.8618.4912l.4873.873c.3027-.1689.5952-.3359.8774-.5z"/><path d="m188.6904 261.3354c-.2886.1484-.584.2974-.8857.4468l.4424.8965c.3076-.1514.6079-.3032.9014-.4546z"/><path d="m192.3628 262.9497.4814.876c.3057-.168.5991-.333.8813-.4951l-.499-.8672c-.2763.1592-.5639.3213-.8637.4863z"/><path d="m184.2388 266.6265.3438.9395c.3198-.1172.6348-.2354.9443-.3545l-.3594-.9336c-.3047.1171-.6138.2333-.9287.3486z"/><path d="m196.3076 261.7407-.5508-.834c-.2578.1699-.5352.3491-.832.5366l.5332.8457c.3037-.1913.5869-.3744.8496-.5483z"/><path d="m181.7188 268.5361c.3242-.1011.644-.2041.96-.3086l-.3145-.9492c-.3101.1025-.625.2036-.9443.3037z"/><path d="m189.7197 264.3115.4336.9014c.3105-.1494.6123-.2983.9063-.4468l-.4512-.8926c-.2881.1455-.584.2915-.8887.438z"/><path d="m187.0078 265.5371.3887.9209c.3149-.1328.6235-.2661.9258-.3994l-.4033-.915c-.2974.1313-.6011.2627-.9112.3935z"/><path d="m178.5586 268.4038.2539.9668c.3281-.0859.6523-.1733.9731-.2632l-.2695-.9629c-.3149.0879-.6343.1743-.9575.2593z"/></g></svg>