<svg height="512pt" viewBox="0 0 512.001 512" width="512pt" xmlns="http://www.w3.org/2000/svg"><path d="m357.847656 62.984375c-4.144531 0-7.5 3.359375-7.5 7.5v34.5c0 4.140625 3.355469 7.5 7.5 7.5 4.140625 0 7.5-3.359375 7.5-7.5v-34.5c0-4.140625-3.359375-7.5-7.5-7.5zm0 0"/><path d="m418.320312 62.984375c-4.144531 0-7.5 3.359375-7.5 7.5v34.5c0 4.140625 3.355469 7.5 7.5 7.5 4.144532 0 7.5-3.359375 7.5-7.5v-34.5c0-4.140625-3.355468-7.5-7.5-7.5zm0 0"/><path d="m347.84375 310.84375h41c4.140625 0 7.5-3.359375 7.5-7.5s-3.359375-7.5-7.5-7.5h-41c-4.144531 0-7.5 3.359375-7.5 7.5s3.355469 7.5 7.5 7.5zm0 0"/><path d="m388.84375 414.175781h-41c-4.144531 0-7.5 3.359375-7.5 7.5 0 4.144531 3.355469 7.5 7.5 7.5h41c4.140625 0 7.5-3.355469 7.5-7.5 0-4.140625-3.359375-7.5-7.5-7.5zm0 0"/><path d="m496.488281 235.140625h-50.324219c-4.144531 0-7.5 3.355469-7.5 7.5 0 4.140625 3.355469 7.5 7.5 7.5h50.324219c.28125 0 .511719.226563.511719.511719v18.113281c0 .285156-.230469.515625-.511719.515625h-480.976562c-.28125 0-.511719-.230469-.511719-.515625v-18.113281c0-.28125.230469-.511719.511719-.511719h400.652343c4.144532 0 7.5-3.359375 7.5-7.5 0-4.144531-3.355468-7.5-7.5-7.5h-240.898437v-12.644531c8.914063-.371094 16.046875-7.738282 16.046875-16.742188v-10.410156c0-4.140625-3.355469-7.5-7.5-7.5-4.140625 0-7.5 3.359375-7.5 7.5v10.410156c0 .96875-.785156 1.757813-1.753906 1.757813h-112.585938c-.96875 0-1.757812-.789063-1.757812-1.757813v-10.410156c0-4.140625-3.355469-7.5-7.5-7.5-4.140625 0-7.5 3.359375-7.5 7.5v10.410156c0 9.003906 7.136718 16.371094 16.050781 16.742188v12.644531h-45.753906c-8.550781 0-15.511719 6.957031-15.511719 15.511719v18.113281c0 8.554687 6.960938 15.515625 15.511719 15.515625h8.304687v205.378906c0 11.96875 9.734375 21.703125 21.703125 21.703125h420.960938c11.96875 0 21.703125-9.734375 21.703125-21.703125v-205.378906h8.304687c8.550781 0 15.511719-6.960938 15.511719-15.515625v-18.113281c0-8.554688-6.960938-15.511719-15.511719-15.511719zm-420.222656-12.628906h84v12.628906h-84zm-37.449219 267.148437v-205.378906h209.683594v212.082031h-202.980469c-3.699219 0-6.703125-3.003906-6.703125-6.703125zm427.664063 6.703125h-202.980469v-97.945312h209.6875v91.242187c0 3.699219-3.007812 6.703125-6.707031 6.703125zm6.707031-112.945312h-209.6875v-99.136719h209.6875zm0 0"/><path d="m220.460938 356.613281h-150.921876c-7.617187 0-13.8125 6.195313-13.8125 13.8125v96.835938c0 7.617187 6.195313 13.8125 13.8125 13.8125h150.921876c7.617187 0 13.8125-6.195313 13.8125-13.8125v-96.835938c0-7.617187-6.195313-13.8125-13.8125-13.8125zm-1.1875 109.460938h-148.546876v-94.457031h148.546876zm0 0"/><path d="m80.226562 344.84375c13.511719 0 24.5-10.992188 24.5-24.5s-10.988281-24.5-24.5-24.5c-13.507812 0-24.5 10.992188-24.5 24.5s10.992188 24.5 24.5 24.5zm0-34c5.238282 0 9.5 4.261719 9.5 9.5s-4.261718 9.5-9.5 9.5c-5.238281 0-9.5-4.261719-9.5-9.5s4.261719-9.5 9.5-9.5zm0 0"/><path d="m145 344.84375c13.507812 0 24.5-10.992188 24.5-24.5s-10.992188-24.5-24.5-24.5-24.5 10.992188-24.5 24.5 10.992188 24.5 24.5 24.5zm0-34c5.238281 0 9.5 4.261719 9.5 9.5s-4.261719 9.5-9.5 9.5-9.5-4.261719-9.5-9.5 4.261719-9.5 9.5-9.5zm0 0"/><path d="m491.527344 0h-206.886719c-11.289063 0-20.472656 9.183594-20.472656 20.472656v133.378906c0 11.289063 9.183593 20.476563 20.472656 20.476563h206.886719c11.289062 0 20.472656-9.1875 20.472656-20.476563v-133.378906c0-11.289062-9.183594-20.472656-20.472656-20.472656zm-212.359375 153.851562v-133.378906c0-3.015625 2.453125-5.472656 5.472656-5.472656h95.941406v144.328125h-95.941406c-3.019531 0-5.472656-2.457031-5.472656-5.476563zm217.832031 0c0 3.019532-2.453125 5.476563-5.472656 5.476563h-95.945313v-144.328125h95.945313c3.019531 0 5.472656 2.457031 5.472656 5.472656zm0 0"/><path d="m14.953125 94.664062h215.621094c8.246093 0 14.957031-6.707031 14.957031-14.957031v-13.433593c0-8.246094-6.707031-14.953126-14.957031-14.953126h-11.390625c-2.609375-16.5625-16.980469-29.265624-34.261719-29.265624h-124.3125c-17.28125 0-31.652344 12.703124-34.261719 29.265624h-11.394531c-8.246094 0-14.953125 6.707032-14.953125 14.953126v13.4375c0 8.246093 6.707031 14.953124 14.953125 14.953124zm49.796875-28.34375c4.140625 0 7.5-3.359374 7.5-7.5 0-4.140624-3.359375-7.5-7.5-7.5h-23.066406c2.359375-8.226562 9.953125-14.265624 18.925781-14.265624h124.3125c8.972656 0 16.566406 6.039062 18.925781 14.265624h-108.621094c-4.140624 0-7.5 3.359376-7.5 7.5 0 4.140626 3.359376 7.5 7.5 7.5l116.113282-.039062c.25.027344.507812.039062.765625.039062.261719 0 .519531-.011718.777343-.039062l17.648438-.003906.042969 13.386718-215.574219.046876-.046875-13.390626zm0 0"/></svg>