<svg id="Layer_1" enable-background="new 0 0 398.327 335.901" height="512" viewBox="0 0 398.327 335.901" width="512" xmlns="http://www.w3.org/2000/svg"><g><path d="m193.848 142.759-40.432 4.787c-6.855.812-11.755 7.027-10.943 13.883.491 4.154 2.974 7.58 6.374 9.462l40.007-18.542z"/><ellipse cx="273.291" cy="22.501" rx="22.5" ry="22.5" transform="matrix(.068 -.998 .998 .068 232.187 293.618)"/><path d="m244.65 46.741c5.114 0 9.495 3.827 10.19 8.903.374 2.725-.336 5.433-1.999 7.625-1.662 2.191-4.08 3.604-6.806 3.979l-18.187 2.495c-1.261 5.951-2.749 12.349-4.694 18.633h38.9c1.728-6.849 2.76-14.076 3.421-22.736 1.086-15.446-8.494-24.549-17.184-25.925-5.679-.9-11.111 2.849-14.541 8.425l9.486-1.301c.468-.066.943-.098 1.414-.098z"/><path d="m217.451 102.974c-.745 1.506-1.521 2.985-2.36 4.402-.011.022-.02.042-.031.064-.435.568-.836 1.172-1.178 1.828l-11.358 21.81-11.992 23.027-49.651 23.012c-6.264 2.903-8.988 10.334-6.085 16.597 2.114 4.563 6.631 7.247 11.349 7.247 1.76 0 3.547-.373 5.248-1.162l53.516-24.802c2.506-1.161 4.556-3.119 5.831-5.567l17.497-33.597.237.044 3.636-6.773c5.655.144 11.557-2.209 16.904-10.138 3.3-5.8 5.94-10.991 8.08-15.991h-39.643z"/><path d="m3.667 335.901h39c2.017 0 3.667-1.65 3.667-3.667s-1.65-3.667-3.667-3.667h-3.667c0-2.292-1.875-4.167-4.167-4.167h-6.667v-198.726c0-13.785 11.215-25 25-25h129.294c-.179-.351-.346-.711-.486-1.086-.966-2.576-.87-5.375.269-7.879l.471-1.036h-129.547c-19.299 0-35 15.701-35 35v198.727h-6.667c-2.292 0-4.167 1.875-4.167 4.167h-3.666c-2.017 0-3.667 1.65-3.667 3.667 0 2.018 1.65 3.667 3.667 3.667z"/><path d="m200.756 100.674h144.404c13.785 0 25 11.215 25 25v198.727h-6.667c-2.292 0-4.167 1.875-4.167 4.167h-3.667c-2.017 0-3.667 1.65-3.667 3.667s1.65 3.667 3.667 3.667h39c2.017 0 3.667-1.65 3.667-3.667s-1.65-3.667-3.667-3.667h-3.667c0-2.292-1.875-4.167-4.167-4.167h-6.667v-198.727c0-19.299-15.701-35-35-35h-139.816l-4.347 9.562c-.07.153-.163.29-.239.438z"/><path d="m184.337 92.662c-1.829 4.022-.051 8.765 3.972 10.594 1.073.488 2.198.719 3.306.719 3.041 0 5.947-1.743 7.287-4.691l13.525-29.749 33.297-4.567c4.378-.601 7.439-4.636 6.839-9.013s-4.639-7.443-9.013-6.839l-37.667 5.167c-2.721.373-5.06 2.115-6.195 4.615z"/></g></svg>