<svg id="Layer_5" enable-background="new 0 0 62 62.118" height="512" viewBox="0 0 62 62.118" width="512" xmlns="http://www.w3.org/2000/svg"><g><circle cx="31" cy="33.118" r="1"/><path d="m62 14.794v-1.253c0-3.726-2.07-7.075-5.403-8.743l-1.597-.798-1.597.798c-3.333 1.668-5.403 5.017-5.403 8.743v1.253c0 3.969 2.383 7.503 6 9.014v10.31h-14.958c-.006 0-.012 0-.018 0h-.024v.002c-.239 0-.474.03-.706.081-.041-.231-.083-.463-.112-.696l-.167-1.337c.148-.705.131-1.418-.015-2.107v-10.253c3.617-1.511 6-5.046 6-9.014v-1.253c0-3.726-2.07-7.075-5.403-8.743l-1.597-.798-1.597.798c-3.333 1.668-5.403 5.017-5.403 8.743v1.253c0 3.969 2.383 7.503 6 9.014v7.161c-.522-.377-1.113-.66-1.757-.821-.508-.127-1.026.157-1.191.653l-.772 2.316h-.378c-3.874-3.271-8.572-5.272-13.625-5.777l-1.274-.127.003-1.479.127-.064c2.387-1.192 3.869-3.592 3.869-6.261v-.292h.998c1.654 0 3-1.346 3-3 0-.572-.169-1.102-.448-1.557.29-.779.448-1.61.448-2.442v-1c0-3.859-3.141-7-7-7h-10c-3.859 0-7 3.141-7 7 0 1.073.253 2.118.72 3.073-.443.523-.72 1.19-.72 1.927 0 1.654 1.346 3 3 3h1.001v.293c.001 2.668 1.483 5.066 3.872 6.261l.129.064v1.522c-5.191 1.002-9.002 5.546-9.002 10.917v1.943c0 1.902.765 3.626 2 4.889v3.111c0 1.958.81 3.728 2.111 5h-4.111v6h11v3.031c-.62.833-1 1.854-1 2.969v1h8 2 6v-1c0-1.116-.38-2.136-1-2.969v-10.031c0-2.286-1.107-4.313-2.806-5.591 1.048-.657 1.752-1.801 1.794-3.116l2.781.394c.626.089 1.202.352 1.699.726l-1.203.601-.05.555c-.164 1.824.702 3.556 2.259 4.519l.475.293.053-.026-.002 7.924-.419.14c-1.544.515-2.581 1.954-2.581 3.581 0 1.103.897 2 2 2h2c0 1.103.897 2 2 2h5c1.103 0 2-.897 2-2v-3.983c.846.432 1.885.845 3.151 1.182-.71.722-1.151 1.71-1.151 2.801 0 1.103.897 2 2 2h6.739c3.322 0 6.124-2.245 6.983-5.296.389.185.819.296 1.277.296 1.654 0 3-1.346 3-3s-1.346-3-3-3c-.652 0-1.251.214-1.744.569-.654-1.345-1.707-2.486-3.074-3.222l-9.117-4.909c-.367-.197-.724-.411-1.07-.643-.734-.489-1.393-1.071-2.013-1.693 1.113-1.173 1.356-3.056.488-4.51l-.354-.592h19.885v-2h-6v-10.31c3.617-1.511 6-5.045 6-9.014zm-30-4v-1.253c0-2.963 1.646-5.628 4.298-6.954l.702-.351.702.351c2.652 1.326 4.298 3.991 4.298 6.954v1.253c0 2.864-1.563 5.439-4 6.791v-11.467h-2v11.467c-2.437-1.352-4-3.928-4-6.791zm-14.172 14.512-2.01 3.216-1.404-1.404 1.956-1.958zm4.172-12.188h-.999v-2h.999c.552 0 1 .448 1 1s-.448 1-1 1zm-18 0c-.552 0-1-.448-1-1s.448-1 1-1h1v2zm1-4h-1c-.19 0-.374.022-.554.056-.292-.644-.446-1.342-.446-2.056 0-2.757 2.243-5 5-5h10c2.757 0 5 2.243 5 5v1c0 .384-.047.768-.135 1.142-.276-.083-.562-.142-.865-.142h-.999-1c-1.544 0-2.978-.767-3.834-2.052l-1.011-1.519-.863.863c-1.746 1.746-4.066 2.707-6.535 2.707h-1.758-1zm2.001 6.293-.001-4.293h.758c2.604 0 5.073-.88 7.068-2.498 1.04 1.312 2.531 2.172 4.175 2.423v4.367c0 1.906-1.059 3.62-2.767 4.473l-.126.064c-.683.34-1.106 1.025-1.106 1.789l-.001 1.965-2.001 2.002-1.998-1.999v-1.968c0-.764-.424-1.449-1.108-1.79l-.129-.064c-1.704-.853-2.763-2.566-2.764-4.471zm2.653 9.774 1.932 1.933-1.404 1.404-1.884-3.015c.437-.141.891-.247 1.356-.322zm-3.193 1.157 3.358 5.372 3.181-3.182 3.182 3.182 3.815-6.105c3.286.608 6.368 1.921 9.088 3.855-1.782.611-3.227 1.997-3.877 3.821l-1.937.484c-.094.024-.181.061-.271.093v-4.744h-2v6.096c-.267-.059-.543-.096-.828-.096-.943 0-1.835.339-2.535.959l-8.637-.864v-1.218c0-1.539-.854-2.922-2.232-3.611l-.321-.16-.893 1.789.32.16c.694.348 1.126 1.046 1.126 1.822v.123h-4.997c.02-3.289 1.785-6.187 4.458-7.776zm-2.461 17.776v-1.685c.911.435 1.926.685 3 .685h4 1c2.757 0 5 2.243 5 5v8.424c-.614-.269-1.288-.424-2-.424s-1.386.154-2 .424v-7.188c0-.998.555-1.896 1.447-2.342l-.895-1.789c-1.503.752-2.452 2.231-2.536 3.895h-2.016c-2.757 0-5-2.243-5-5zm-2 9v-2h7 2v2zm10.171 7c.413-1.164 1.525-2 2.829-2s2.416.836 2.829 2zm7.728 0c-.108-.53-.318-1.018-.58-1.473.493-.335 1.075-.527 1.681-.527 1.304 0 2.416.836 2.829 2zm3.101-12v8.424c-.614-.269-1.288-.424-2-.424-.696 0-1.375.148-2 .421v-8.421c0-1.958-.81-3.728-2.111-5h.111 1c2.757 0 5 2.243 5 5zm-6-7h-5-1-4c-2.757 0-5-2.243-5-5h4.586l-1.293 1.293 1.414 1.414 1.665-1.665 10 1 .507-.507c.34-.34.812-.535 1.293-.535 1.008 0 1.828.82 1.828 1.828v.344c0 1.008-.82 1.828-1.828 1.828h-2.172zm10.05-3.294-3.415-.484c-.154-.33-.357-.63-.594-.901.088-.352.352-.638.716-.73l2.485-.621c.358-.089.639-.369.728-.728.478-1.909 2.186-3.242 4.153-3.242h1.877c.431 0 .813-.275.948-.684l.664-1.991c1.144.69 1.758 2.07 1.418 3.432-.03.12-.038.245-.022.367l.189 1.512c.066.535.171 1.065.293 1.588-.29.416-.457.909-.479 1.417l-5.616 2.808c-.881-.935-2.058-1.56-3.345-1.743zm2.159 4.572 7.432-3.716 1.028 1.722-7.566 3.783c-.51-.466-.828-1.101-.894-1.789zm29.791 10.722c.552 0 1 .448 1 1s-.448 1-1 1-1-.448-1-1 .448-1 1-1zm-16.115-8.541c.398.266.813.515 1.232.74l9.116 4.909c1.707.919 2.767 2.694 2.767 4.631 0 2.9-2.36 5.261-5.261 5.261h-6.739c0-1.103.897-2 2-2h4c.464 0 .867-.319.974-.771s-.111-.917-.526-1.124l-2.635-1.317c-.501-.25-.813-.758-.813-1.373 0-.78.635-1.415 1.414-1.415h1.586v-2h-1.586c-1.883 0-3.414 1.532-3.414 3.463 0 .85.314 1.632.839 2.248-2.809-.418-4.657-1.228-5.839-1.999v-3.712h-2v10h-5c0-.766.488-1.442 1.214-1.684l1.786-.595v-7.866c0-.763.424-1.448 1.105-1.789l.342-.171-.895-1.789-.342.171c-1.362.681-2.21 2.052-2.21 3.578v6.425l-.419.14c-.853.284-1.542.857-1.996 1.581h-2.585c0-.766.488-1.442 1.214-1.684l1.103-.367c.408-.137.683-.519.683-.95l.001-9.646 7.115-3.557c.143.063.291.114.444.148.161.036.323.051.484.053.843.931 1.793 1.762 2.841 2.461zm-3.6-8.429c.385.084.718.332.937.698l.531.889c.458.769.251 1.825-.452 2.309-.122.083-.237.082-.313.065-.122-.026-.229-.109-.304-.233l-1.593-2.667c-.168-.281-.095-.678.155-.85.231-.159.494-.241.76-.241.094 0 .187.01.279.03zm10.715-21.354v-1.253c0-2.963 1.646-5.628 4.298-6.954l.702-.351.702.351c2.652 1.326 4.298 3.991 4.298 6.954v1.253c0 2.864-1.563 5.439-4 6.791v-11.467h-2v11.467c-2.437-1.352-4-3.928-4-6.791z"/></g></svg>