<svg id="Layer_3" height="512" viewBox="0 0 64 64" width="512" xmlns="http://www.w3.org/2000/svg" data-name="Layer 3"><path d="m60 15h-16.181a12 12 0 1 0 -23.638 0h-16.181a3 3 0 0 0 -3 3v4a3 3 0 0 0 3 3v29a3 3 0 0 0 3 3h2.08a6.991 6.991 0 0 0 13.84 0h21.08v5a1 1 0 0 0 1 1h8a1 1 0 0 0 1-1v-5h3a3 3 0 0 0 3-3v-29a3 3 0 0 0 3-3v-4a3 3 0 0 0 -3-3zm-28-12a10 10 0 1 1 -10 10 10.011 10.011 0 0 1 10-10zm-29 19v-4a1 1 0 0 1 1-1h16.7a12.052 12.052 0 0 0 4.681 6h-21.381a1 1 0 0 1 -1-1zm3 32v-3h5.11a6.98 6.98 0 0 0 -2.03 4h-2.08a1 1 0 0 1 -1-1zm24-5h-18v-20h18zm-14 12a5 5 0 1 1 5-5 5.006 5.006 0 0 1 -5 5zm36 0h-6v-4h6zm5-6h-34.08a6.98 6.98 0 0 0 -2.03-4h37.11v3a1 1 0 0 1 -1 1zm1-6h-26v-21a1 1 0 0 0 -1-1h-20a1 1 0 0 0 -1 1v21h-4v-24h52zm3-27a1 1 0 0 1 -1 1h-21.381a12.052 12.052 0 0 0 4.681-6h16.7a1 1 0 0 1 1 1z"/><path d="m15 39h12a1 1 0 0 0 1-1v-6a1 1 0 0 0 -1-1h-12a1 1 0 0 0 -1 1v6a1 1 0 0 0 1 1zm1-6h10v4h-10z"/><path d="m38 44h3v2a1 1 0 0 0 1 1h10a1 1 0 0 0 1-1v-18a1 1 0 0 0 -1-1h-10a1 1 0 0 0 -1 1v2h-3a1 1 0 0 0 -1 1v4a1 1 0 0 0 1 1h3v2h-3a1 1 0 0 0 -1 1v4a1 1 0 0 0 1 1zm5-15h8v16h-8zm-4 5v-2h2v2zm0 6h2v2h-2z"/><path d="m26 16h5v4a1 1 0 0 0 1.832.555l6-9a1 1 0 0 0 -.832-1.555h-5v-4a1 1 0 0 0 -1.832-.555l-6 9a1 1 0 0 0 .832 1.555zm5-6.7v1.7a1 1 0 0 0 1 1h4.131l-3.131 4.7v-1.7a1 1 0 0 0 -1-1h-4.131z"/><path d="m45 32h4v2h-4z"/><path d="m45 40h4v2h-4z"/><path d="m16 53a3 3 0 1 0 3 3 3 3 0 0 0 -3-3zm0 4a1 1 0 1 1 1-1 1 1 0 0 1 -1 1z"/></svg>