<?xml version="1.0" encoding="iso-8859-1"?>
<!-- Generator: Adobe Illustrator 18.0.0, SVG Export Plug-In . SVG Version: 6.00 Build 0)  -->
<!DOCTYPE svg PUBLIC "-//W3C//DTD SVG 1.1//EN" "http://www.w3.org/Graphics/SVG/1.1/DTD/svg11.dtd">
<svg version="1.1" id="Capa_1" xmlns="http://www.w3.org/2000/svg" xmlns:xlink="http://www.w3.org/1999/xlink" x="0px" y="0px"
	 viewBox="0 0 272.884 272.884" style="enable-background:new 0 0 272.884 272.884;" xml:space="preserve">
<g>
	<path d="M237.396,211.343h-6.067v-42.538c0-8.849-7.199-16.047-16.047-16.047h-42.801V81.169c0-8.621-7.014-15.635-15.635-15.635
		h-13.838c-8.621,0-15.635,7.014-15.635,15.635v71.589H84.572c-0.639,0-1.267,0.048-1.887,0.121l5.952-4.15l22.898-1.181
		c2.976-0.154,5.388-2.467,5.665-5.434l5-53.535c0.148-1.589-0.343-3.172-1.365-4.399c-1.021-1.226-2.49-1.995-4.08-2.136
		c-7.288-0.646-14.396,1.586-20.009,6.285c-5.612,4.699-9.058,11.301-9.704,18.592c-0.004,0.051-0.008,0.103-0.012,0.154
		l-1.846,29.432l-0.593,0.414l-32.304,1.666c-2.452,0.126-4.58,1.734-5.371,4.059l-9.172,26.944L2.568,194.118
		c-2.718,1.896-3.385,5.635-1.489,8.354c1.167,1.673,3.031,2.568,4.927,2.568c1.185,0,2.381-0.35,3.427-1.079l21.78-15.188
		l-4.921,14.456c-1.068,3.137,0.609,6.545,3.746,7.613c0.641,0.218,1.293,0.322,1.934,0.322c2.498,0,4.83-1.572,5.679-4.068
		l10.184-29.914l22.456-15.659c-1.121,2.189-1.766,4.66-1.766,7.283v42.538h-6.757c-3.314,0-6,2.687-6,6s2.686,6,6,6h175.629
		c3.314,0,6-2.687,6-6S240.71,211.343,237.396,211.343z M99.001,107.91c0.379-4.07,2.312-7.754,5.448-10.38
		c1.538-1.288,3.275-2.246,5.127-2.847l-3.843,41.149l-8.512,0.438L99.001,107.91z M56.965,150.362l9.018-0.465l-11.618,8.101
		L56.965,150.362z M139.372,81.169c0-2.004,1.631-3.635,3.635-3.635h13.838c2.004,0,3.635,1.631,3.635,3.635v71.589h-21.108V81.169z
		 M133.372,164.758h33.108h48.801c2.232,0,4.047,1.815,4.047,4.047v0.487H80.524v-0.487c0-2.232,1.816-4.047,4.048-4.047H133.372z
		 M80.524,181.292h138.805v30.051H80.524V181.292z"/>
	<path d="M106.139,80.608c0.465,0.041,0.926,0.062,1.384,0.062c7.966,0,14.776-6.108,15.492-14.192
		c0.757-8.548-5.582-16.119-14.13-16.876c-8.549-0.754-16.12,5.582-16.877,14.129c0,0,0,0,0,0
		C91.252,72.28,97.591,79.851,106.139,80.608z M107.827,61.555c1.958,0.173,3.409,1.907,3.236,3.864
		c-0.174,1.958-1.916,3.403-3.864,3.236c-1.958-0.173-3.41-1.908-3.236-3.865C104.136,62.832,105.872,61.385,107.827,61.555z"/>
	<path d="M181.35,77.038c2.828,2.367,6.321,3.632,9.965,3.632c0.464,0,0.932-0.021,1.4-0.062c4.141-0.367,7.892-2.325,10.56-5.512
		c2.669-3.188,3.937-7.224,3.569-11.365v0c-0.757-8.547-8.323-14.883-16.877-14.13c-8.549,0.758-14.887,8.329-14.129,16.876
		C176.205,70.619,178.162,74.369,181.35,77.038z M188.608,62.817c0.611-0.73,1.47-1.178,2.418-1.262
		c0.106-0.009,0.212-0.014,0.317-0.014c1.825,0,3.384,1.398,3.548,3.25c0,0,0,0,0,0c0.084,0.948-0.206,1.873-0.817,2.603
		c-0.611,0.73-1.47,1.178-2.418,1.262c-0.948,0.082-1.873-0.206-2.603-0.818c-0.73-0.611-1.178-1.47-1.262-2.418
		C187.707,64.471,187.997,63.547,188.608,62.817z"/>
	<path d="M272.562,203.228l-15.5-45.531l3.997,1.732c0.777,0.337,1.587,0.496,2.383,0.496c2.319,0,4.527-1.353,5.508-3.615
		c1.317-3.041-0.079-6.574-3.119-7.892l-14.023-6.078c-0.869-2.155-2.9-3.634-5.241-3.754l-32.874-1.695l-1.87-29.817
		c-0.003-0.051-0.007-0.103-0.012-0.154c-0.646-7.291-4.092-13.894-9.704-18.592c-5.612-4.698-12.719-6.928-20.009-6.285
		c-1.59,0.141-3.059,0.91-4.08,2.136c-1.022,1.227-1.513,2.81-1.365,4.399l5,53.535c0.277,2.967,2.689,5.28,5.665,5.434l54.57,2.813
		l19.314,56.734c0.85,2.496,3.181,4.068,5.679,4.068c0.641,0,1.293-0.104,1.934-0.322
		C271.953,209.774,273.63,206.365,272.562,203.228z M193.12,135.831l-3.843-41.149c1.852,0.602,3.59,1.56,5.127,2.847
		c3.137,2.626,5.069,6.31,5.448,10.38l1.779,28.36L193.12,135.831z"/>
</g>
<g>
</g>
<g>
</g>
<g>
</g>
<g>
</g>
<g>
</g>
<g>
</g>
<g>
</g>
<g>
</g>
<g>
</g>
<g>
</g>
<g>
</g>
<g>
</g>
<g>
</g>
<g>
</g>
<g>
</g>
</svg>
