<svg id="outline" height="512" viewBox="0 0 512 512" width="512" xmlns="http://www.w3.org/2000/svg"><path d="m32 160v101.7109c0 10.8464 6.6033 20.178 16 24.1899v9.3521c0 17.7686 6.1128 35.1943 17.2124 49.0684 8.7256 10.9072 11.5786 25.418 7.6318 38.8164l-20.7983 70.6016c-.7129 2.4189-.2432 5.0322 1.2676 7.0518 1.5103 2.0195 3.8843 3.209 6.4062 3.209h188.2803c2.5718 0 4.9863-1.2363 6.4897-3.3223 1.5039-2.0859 1.9131-4.7676 1.0996-7.207l-7.0498-21.1514c-5.2125-15.636-8.0544-31.8701-8.4775-48.3193h167.9379c39.7012 0 72-32.2988 72-72s-32.2988-72-72-72h-279.9999v-16h148.936c19.3345 0 35.064-15.7295 35.064-35.0645v-44.9475c10.0502-7.5461 16-19.3523 16-31.988 0-22.0557-17.9438-40-40-40s-40 17.9443-40 40c0 12.623 6.0347 24.4827 16 31.9834v32.0166h-136v-16c4.4185 0 8-3.582 8-8v-14.6523c0-13.9766-11.3711-25.3477-25.3481-25.3477h-61.3038c-13.9771 0-25.3481 11.3711-25.3481 25.3477v14.6523c0 4.418 3.5815 8 8 8zm56.1919 227.6592c5.4229-18.4092 1.5034-38.3467-10.4854-53.333-8.8389-11.0479-13.7065-24.9238-13.7065-39.0732v-7.2529h48v39.4893c0 22.366 13.062 41.7373 31.9573 50.8909-.4371 18.5471-5.9602 36.5242-16.0681 52.1296l-11.3284 17.4902h-46.1443l17.7754-60.3408zm239.8081-99.6592v48h-29.8053c.2169-.7544.4291-1.511.6207-2.2773l11.4309-45.7227zm80 0c13.2339 0 24 10.7666 24 24s-10.7661 24-24 24h-32v-48zm-48 48h-16v-48h16zm-76.707-6.1582c-5.6162 22.4668-25.7134 38.1582-48.8716 38.1582h-65.9102c-22.3379 0-40.5112-18.1729-40.5112-40.5107v-39.4893h165.7539zm-147.6694 118.1582 5.6948-8.793c10.8904-16.813 17.1917-36.0015 18.4383-55.8879 2.8542.4458 5.7773.6809 8.7546.6809h55.5444c.4263 18.1724 3.5478 36.1089 9.3052 53.3789l3.54 10.6211zm328.3765-136c0 30.8789-25.1216 56-56 56h-130.3287c5.2954-4.5466 9.8819-9.9343 13.5462-16h116.7825c22.0562 0 40-17.9443 40-40s-17.9438-40-40-40h-88v-2.8379c0-4.7344-1.1414-9.2048-3.1521-13.1621h91.1521c30.8784 0 56 25.1211 56 56zm-173.1616-56c7.2573 0 13.1616 5.9043 13.1616 13.1621v2.8379h-176.0001v-16h162.8384zm-2.8384-168c13.2334 0 24 10.7666 24 24 0 1.3494-.1222 2.6807-.342 3.9873-1.9159-11.3291-11.7922-19.9873-23.658-19.9873-11.8582 0-21.7292 8.6472-23.6541 19.9658-.2198-1.3008-.3459-2.6248-.3459-3.9658 0-13.2334 10.7666-24 24-24zm-16 104c4.4185 0 8-3.582 8-8v-64c0-4.4111 3.5889-8 8-8s8 3.5889 8 8v68.9355c0 10.5117-8.5522 19.0645-19.064 19.0645h-148.9361v-16h144zm-160 80h-53.711c-5.6733 0-10.2891-4.6152-10.2891-10.2891v-101.7109h64v112zm-72.0001-134.6523c0-5.1543 4.1934-9.3477 9.3481-9.3477h61.3037c5.1548 0 9.3481 4.1934 9.3481 9.3477v6.6523h-79.9999z"/></svg>