<svg id="Layer_1" viewBox="0 0 64 64" xmlns="http://www.w3.org/2000/svg" data-name="Layer 1"><path d="m37.28 28.019v2.122c0 .552.448 1 1 1s1-.448 1-1v-2.122c0-.552-.448-1-1-1s-1 .448-1 1z"/><path d="m46.634 16.777c0-4.606-3.748-8.354-8.354-8.354s-8.354 3.748-8.354 8.354 3.748 8.354 8.354 8.354 8.354-3.748 8.354-8.354zm-8.354 6.354c-3.503 0-6.354-2.851-6.354-6.354s2.851-6.354 6.354-6.354 6.354 2.851 6.354 6.354-2.851 6.354-6.354 6.354z"/><path d="m39.28 5.535v-2.122c0-.552-.448-1-1-1s-1 .448-1 1v2.122c0 .552.448 1 1 1s1-.448 1-1z"/><path d="m46.936 9.535 1.5-1.5c.391-.391.391-1.023 0-1.414s-1.023-.391-1.414 0l-1.5 1.5c-.391.391-.391 1.023 0 1.414.195.195.451.293.707.293s.512-.098.707-.293z"/><path d="m49.522 17.777h2.121c.552 0 1-.448 1-1s-.448-1-1-1h-2.121c-.552 0-1 .448-1 1s.448 1 1 1z"/><path d="m47.022 26.933c.195.195.451.293.707.293s.512-.098.707-.293c.391-.391.391-1.023 0-1.414l-1.5-1.5c-.391-.391-1.023-.391-1.414 0s-.391 1.023 0 1.414z"/><path d="m28.831 27.226c.256 0 .512-.098.707-.293l1.5-1.5c.391-.391.391-1.023 0-1.414s-1.023-.391-1.414 0l-1.5 1.5c-.391.391-.391 1.023 0 1.414.195.195.451.293.707.293z"/><path d="m27.038 15.777h-2.121c-.552 0-1 .448-1 1s.448 1 1 1h2.121c.552 0 1-.448 1-1s-.448-1-1-1z"/><path d="m29.624 9.535c.195.195.451.293.707.293s.512-.098.707-.293c.391-.391.391-1.023 0-1.414l-1.5-1.5c-.391-.391-1.023-.391-1.414 0s-.391 1.023 0 1.414z"/><path d="m18.033 45.199c1.431 1.431 3.34 2.219 5.375 2.219h2.055l-3.839 12.883c-.09.303-.032.63.157.883s.486.402.802.402h5.569c.442 0 .832-.291.958-.714l4.01-13.454h12.942l4.009 13.454c.126.424.516.714.958.714h5.569c.316 0 .613-.149.802-.402.188-.253.247-.581.157-.883l-3.839-12.883h4.494c2.089 0 3.789-1.7 3.789-3.789s-1.7-3.777-3.789-3.777l-34.83-.015-14.924-14.912c-1.449-1.451-3.912-1.439-5.35 0-.715.714-1.108 1.664-1.108 2.674s.394 1.96 1.108 2.675l14.925 14.924zm9.373 14.388h-3.482l3.626-12.167h3.482zm24.369 0-3.626-12.167h3.482l3.626 12.167zm-47.252-33.248c.683-.684 1.827-.695 2.521 0l14.924 14.912c.393.393.891.6 1.44.6h34.804c.986 0 1.789.797 1.789 1.777 0 .986-.802 1.789-1.789 1.789h-34.804c-1.5 0-2.907-.58-3.96-1.633l-14.925-14.924c-.337-.337-.522-.785-.522-1.261s.186-.923.523-1.26z"/></svg>