<svg id="Layer_1" enable-background="new 0 0 100 100" viewBox="0 0 100 100" xmlns="http://www.w3.org/2000/svg"><g><path d="m89.827 61.814-6.755-9.768h3.426c.539 0 .976-.437.976-.976v-7.819c0-.539-.437-.976-.976-.976h-10.201l-4.122-5.957c-.183-.264-.483-.42-.803-.42h-42.744c-.32 0-.62.157-.803.42l-4.122 5.957h-10.201c-.539 0-.976.437-.976.976v7.819c0 .539.437.976.976.976h3.437l-6.766 9.767c-.207.299-.231.687-.062 1.009.168.321.501.523.864.523h5.949v24.149c0 .539.437.976.976.976h4.831c.539 0 .976-.437.976-.976v-24.149h3.725v7.945c0 .539.437.976.976.976h4.831c.539 0 .976-.437.976-.976v-7.945h9.172c-.874 2.122-1.024 4.432-.325 6.507.187.553-.029 1.193-.535 1.594l-2.713 2.144c-1.369 1.082-1.676 3.055-.683 4.4.596.804 1.503 1.275 2.492 1.291.018.001.036.001.053.001.969 0 1.867-.434 2.471-1.197l2.215-2.804c.398-.506 1.038-.725 1.593-.535 3.355 1.129 7.32.055 10.108-2.735 2.456-2.456 3.501-5.733 3.07-8.664h4.655v7.945c0 .539.437.976.976.976h4.831c.539 0 .976-.437.976-.976v-7.945h3.725v24.149c0 .539.437.976.976.976h4.828c.539 0 .976-.437.976-.976v-24.151h5.949c.363 0 .696-.201.864-.523.168-.321.144-.71-.062-1.008zm-60.687-23.965h41.72l3.063 4.426h-47.846zm-14.662 6.378h71.044v5.868h-71.044zm7.278 42.291h-2.88v-23.173h2.88zm10.506-16.204h-2.88v-6.969h2.88zm16.314 2.58c-1.329-.445-2.837.025-3.747 1.176l-2.214 2.803c-.234.297-.635.457-.962.455-.221-.004-.639-.074-.954-.499-.367-.498-.22-1.281.323-1.71l2.713-2.144c1.152-.91 1.623-2.417 1.175-3.747-.259-.77-.351-1.586-.32-2.41l6.397 6.396c-.825.032-1.641-.06-2.411-.32zm8.106-2.265c-.994.993-2.165 1.704-3.387 2.134l-8.255-8.253c.431-1.222 1.141-2.394 2.134-3.388 1.72-1.72 3.919-2.605 5.983-2.605 1.657 0 3.227.57 4.393 1.737 2.621 2.621 2.231 7.276-.868 10.375zm13.935-.315h-2.88v-6.969h2.88zm10.507 16.204h-2.88v-23.173h2.88zm.976-25.125h-4.831-5.676-4.831-6.169c-.382-.926-.928-1.784-1.663-2.52-3.384-3.382-9.276-2.99-13.135.869-.511.511-.944 1.072-1.336 1.651h-11.221-4.831-5.676-4.831-5.062l6.475-9.347h61.386l6.465 9.347z"/><path d="m37.377 25.512c0 2.273 1.85 4.123 4.123 4.123.959 0 1.832-.343 2.533-.894 2.46 1.415 5.32 1.785 7.801.961.548-.182 1.186.03 1.588.538l2.215 2.816c.605.755 1.5 1.185 2.464 1.185.018 0 .036 0 .053-.001.988-.016 1.899-.486 2.501-1.292.987-1.333.681-3.306-.689-4.405l-2.71-2.127c-.504-.405-.718-1.051-.532-1.608 1.129-3.357.051-7.325-2.745-10.107-3.862-3.861-9.748-4.25-13.126-.871-2.138 2.136-2.823 5.321-1.899 8.462-.953.756-1.577 1.911-1.577 3.22zm1.951 0c0-1.198.974-2.172 2.172-2.172s2.172.974 2.172 2.172c0 1.197-.974 2.172-2.172 2.172-1.198-.001-2.172-.975-2.172-2.172zm19.427 4.56c.545.438.697 1.223.337 1.712-.323.431-.746.502-.968.506-.008 0-.014 0-.02 0-.368 0-.71-.165-.938-.447l-2.212-2.811c-.912-1.155-2.421-1.627-3.741-1.18-.768.255-1.588.359-2.42.327l6.403-6.403c.031.825-.061 1.641-.321 2.414-.442 1.33.024 2.837 1.17 3.756zm-16.521-14.862c2.619-2.616 7.268-2.226 10.368.873.996.991 1.709 2.162 2.141 3.384l-8.261 8.261c-.417-.145-.831-.314-1.231-.527.234-.517.371-1.086.371-1.689 0-2.274-1.85-4.123-4.123-4.123-.261 0-.515.03-.764.077-.6-2.359-.063-4.694 1.499-6.256z"/></g></svg>