<svg enable-background="new 0 0 512 512" height="512" viewBox="0 0 512 512" width="512" xmlns="http://www.w3.org/2000/svg"><g id="_x31_8_Way"><g><path d="m146.129 300.247h219.742c78.698 0 142.72-64.021 142.72-142.72s-64.022-142.725-142.72-142.725h-357.197c-2.906 0-5.262 2.354-5.262 5.262v77.974c0 2.909 2.356 5.262 5.262 5.262h357.197c29.899 0 54.221 24.328 54.221 54.226s-24.323 54.226-54.221 54.226h-219.742c-78.696 0-142.719 64.026-142.719 142.725s64.024 142.72 142.719 142.72h357.2c2.909 0 5.262-2.354 5.262-5.262v-77.974c0-2.909-2.354-5.262-5.262-5.262h-357.2c-29.899 0-54.224-24.323-54.224-54.221 0-29.904 24.325-54.231 54.224-54.231zm-64.749 54.231c0 35.7 29.045 64.746 64.748 64.746h351.937v67.449h-351.936c-72.894 0-132.195-59.304-132.195-132.195 0-72.896 59.301-132.2 132.195-132.2h219.742c35.7 0 64.746-29.045 64.746-64.751s-29.045-64.751-64.746-64.751h-351.935v-67.449h351.935c72.891 0 132.195 59.304 132.195 132.2 0 72.891-59.304 132.195-132.195 132.195h-219.742c-35.703 0-64.749 29.051-64.749 64.756z"/><path d="m471.755 458.213h5.262c2.909 0 5.262-2.354 5.262-5.262s-2.354-5.262-5.262-5.262h-5.262c-2.909 0-5.262 2.354-5.262 5.262s2.353 5.262 5.262 5.262z"/><path d="m290.642 53.792h-10.412c-2.909 0-5.262 2.354-5.262 5.262s2.354 5.262 5.262 5.262h10.412c2.909 0 5.262-2.354 5.262-5.262s-2.354-5.262-5.262-5.262z"/><path d="m417.574 247.474c3.16-1.819 6.259-3.829 9.204-5.971 2.354-1.706 2.873-5 1.161-7.349-1.701-2.354-4.995-2.868-7.349-1.161-2.647 1.922-5.432 3.731-8.269 5.365-2.518 1.449-3.387 4.666-1.932 7.184 1.447 2.518 4.671 3.385 7.185 1.932z"/><path d="m376.082 260.764c3.613-.349 7.261-.904 10.838-1.639 2.847-.586 4.682-3.366 4.096-6.213s-3.376-4.682-6.213-4.096c-3.222.663-6.496 1.156-9.738 1.475-2.893.283-5.01 2.852-4.728 5.745.272 2.823 2.762 4.999 5.745 4.728z"/><path d="m333.927 261.262h10.417c2.909 0 5.262-2.354 5.262-5.262s-2.354-5.262-5.262-5.262h-10.417c-2.909 0-5.262 2.354-5.262 5.262s2.354 5.262 5.262 5.262z"/><path d="m332.309 53.792h-10.417c-2.909 0-5.262 2.354-5.262 5.262s2.354 5.262 5.262 5.262h10.417c2.909 0 5.262-2.354 5.262-5.262s-2.354-5.262-5.262-5.262z"/><path d="m456.862 137.208c.637 2.866 3.483 4.622 6.28 3.988 2.837-.632 4.625-3.443 3.988-6.28-.791-3.556-1.783-7.107-2.94-10.561-.925-2.749-3.885-4.229-6.67-3.31-2.754.93-4.234 3.916-3.309 6.67 1.047 3.1 1.936 6.296 2.651 9.493z"/><path d="m416.084 66.732c-3.171-1.752-6.48-3.366-9.851-4.8-2.652-1.12-5.761.108-6.902 2.79-1.136 2.672.113 5.761 2.79 6.902 3.032 1.285 6.013 2.739 8.865 4.317 2.533 1.403 5.744.491 7.153-2.056 1.409-2.544.489-5.745-2.055-7.153z"/><path d="m458.64 166.613c-.313 3.248-.802 6.526-1.459 9.743-.581 2.847 1.254 5.627 4.101 6.208 2.872.583 5.631-1.274 6.208-4.101.735-3.582 1.28-7.231 1.624-10.843.277-2.893-1.84-5.463-4.733-5.74-3.023-.339-5.469 1.85-5.741 4.733z"/><path d="m374.392 54.136c-5.583-.449-9.35-.322-10.833-.344-2.909 0-5.262 2.354-5.262 5.262s2.354 5.262 5.262 5.262c1.443.021 4.925-.098 9.98.313 3.046.21 5.445-2.038 5.673-4.82.231-2.898-1.927-5.437-4.82-5.673z"/><path d="m446.759 203.87c-1.65 2.857-3.448 5.648-5.36 8.284-1.701 2.354-1.172 5.643 1.182 7.349 2.335 1.69 5.628 1.19 7.349-1.182 2.117-2.929 4.121-6.028 5.946-9.199 1.454-2.518.586-5.735-1.932-7.184-2.519-1.459-5.741-.586-7.185 1.932z"/><path d="m440.499 101.666c1.714 2.285 4.997 2.818 7.369 1.048 2.323-1.742 2.79-5.041 1.048-7.369-2.184-2.909-4.548-5.74-7.03-8.407-1.984-2.133-5.314-2.251-7.436-.272-2.128 1.979-2.251 5.309-.272 7.436 2.231 2.4 4.358 4.944 6.321 7.564z"/><path d="m248.978 53.792h-10.417c-2.906 0-5.262 2.354-5.262 5.262s2.356 5.262 5.262 5.262h10.417c2.906 0 5.262-2.354 5.262-5.262s-2.356-5.262-5.262-5.262z"/><path d="m96.276 445.469c3.199 1.752 6.524 3.356 9.88 4.764 2.66 1.109 5.759-.125 6.886-2.826 1.123-2.677-.141-5.761-2.821-6.886-3.017-1.259-6.005-2.703-8.883-4.281-2.546-1.408-5.751-.463-7.143 2.081-1.401 2.548-.468 5.75 2.081 7.148z"/><path d="m207.313 53.792h-10.417c-2.906 0-5.262 2.354-5.262 5.262s2.356 5.262 5.262 5.262h10.417c2.906 0 5.262-2.354 5.262-5.262s-2.356-5.262-5.262-5.262z"/><path d="m135.494 251.272c-3.656.38-7.297.946-10.828 1.691-2.844.596-4.664 3.392-4.065 6.234.601 2.856 3.408 4.662 6.234 4.065 3.171-.668 6.447-1.177 9.738-1.516 2.891-.298 4.993-2.888 4.694-5.776-.298-2.894-2.877-4.955-5.773-4.698z"/><path d="m138.032 457.905c5.303.408 8.997.285 10.81.308 2.906 0 5.262-2.354 5.262-5.262s-2.356-5.262-5.262-5.262c-1.755-.021-5.174.094-10.003-.277-2.888-.236-5.427 1.943-5.65 4.841-.224 2.898 1.945 5.431 4.843 5.652z"/><path d="m292.261 261.262h10.417c2.909 0 5.262-2.354 5.262-5.262s-2.354-5.262-5.262-5.262h-10.417c-2.909 0-5.262 2.354-5.262 5.262s2.353 5.262 5.262 5.262z"/><path d="m221.759 458.213h10.414c2.906 0 5.262-2.354 5.262-5.262s-2.356-5.262-5.262-5.262h-10.414c-2.906 0-5.262 2.354-5.262 5.262s2.356 5.262 5.262 5.262z"/><path d="m180.092 458.213h10.417c2.906 0 5.262-2.354 5.262-5.262s-2.356-5.262-5.262-5.262h-10.417c-2.906 0-5.262 2.354-5.262 5.262s2.356 5.262 5.262 5.262z"/><path d="m55.218 375.162c-.642-2.837-3.451-4.605-6.295-3.972-2.834.642-4.61 3.464-3.967 6.295.807 3.561 1.811 7.112 2.988 10.555.931 2.727 3.895 4.22 6.681 3.279 2.752-.94 4.219-3.931 3.279-6.681-1.057-3.093-1.962-6.279-2.686-9.476z"/><path d="m48.085 350.547c2.688 0 4.982-2.045 5.234-4.774.303-3.253.781-6.537 1.423-9.754.57-2.852-1.28-5.622-4.129-6.192-2.842-.591-5.622 1.28-6.19 4.127-.714 3.582-1.249 7.231-1.583 10.843-.285 3.072 2.125 5.75 5.245 5.75z"/><path d="m94.066 264.731c-3.153 1.84-6.239 3.854-9.168 6.002-2.346 1.716-2.857 5.005-1.141 7.354 1.723 2.354 5.03 2.847 7.354 1.136 2.639-1.927 5.414-3.741 8.253-5.396 2.51-1.465 3.361-4.687 1.899-7.195-1.465-2.512-4.687-3.36-7.197-1.901z"/><path d="m65.059 308.443c1.611-2.832 3.402-5.622 5.324-8.299 1.693-2.359 1.154-5.648-1.205-7.344-2.369-1.701-5.65-1.151-7.346 1.208-2.135 2.975-4.127 6.079-5.92 9.235-1.436 2.523-.555 5.74 1.971 7.174 2.536 1.442 5.748.542 7.176-1.974z"/><path d="m71.724 410.637c-1.755-2.318-5.052-2.78-7.372-1.018-2.318 1.752-2.775 5.052-1.02 7.369 2.199 2.909 4.576 5.725 7.061 8.382 1.984 2.117 5.307 2.232 7.439.247 2.12-1.989 2.23-5.319.244-7.441-2.235-2.39-4.373-4.923-6.352-7.539z"/><path d="m263.426 458.213h10.417c2.909 0 5.262-2.354 5.262-5.262s-2.354-5.262-5.262-5.262h-10.417c-2.906 0-5.262 2.354-5.262 5.262s2.356 5.262 5.262 5.262z"/><path d="m208.927 261.262h10.417c2.906 0 5.262-2.354 5.262-5.262s-2.356-5.262-5.262-5.262h-10.417c-2.906 0-5.262 2.354-5.262 5.262s2.356 5.262 5.262 5.262z"/><path d="m82.313 53.792h-10.417c-2.906 0-5.262 2.354-5.262 5.262s2.356 5.262 5.262 5.262h10.417c2.906 0 5.262-2.354 5.262-5.262s-2.356-5.262-5.262-5.262z"/><path d="m250.594 261.262h10.417c2.909 0 5.262-2.354 5.262-5.262s-2.354-5.262-5.262-5.262h-10.417c-2.906 0-5.262 2.354-5.262 5.262s2.356 5.262 5.262 5.262z"/><path d="m123.98 53.792h-10.417c-2.906 0-5.262 2.354-5.262 5.262s2.356 5.262 5.262 5.262h10.417c2.906 0 5.262-2.354 5.262-5.262s-2.356-5.262-5.262-5.262z"/><path d="m165.647 53.792h-10.417c-2.906 0-5.262 2.354-5.262 5.262s2.356 5.262 5.262 5.262h10.417c2.906 0 5.262-2.354 5.262-5.262s-2.356-5.262-5.262-5.262z"/><path d="m346.754 458.213h10.417c2.909 0 5.262-2.354 5.262-5.262s-2.354-5.262-5.262-5.262h-10.417c-2.909 0-5.262 2.354-5.262 5.262s2.354 5.262 5.262 5.262z"/><path d="m167.26 261.262h10.417c2.906 0 5.262-2.354 5.262-5.262s-2.356-5.262-5.262-5.262h-10.417c-2.906 0-5.262 2.354-5.262 5.262s2.356 5.262 5.262 5.262z"/><path d="m305.087 458.213h10.417c2.909 0 5.262-2.354 5.262-5.262s-2.354-5.262-5.262-5.262h-10.417c-2.909 0-5.262 2.354-5.262 5.262s2.354 5.262 5.262 5.262z"/><path d="m388.421 458.213h10.417c2.909 0 5.262-2.354 5.262-5.262s-2.354-5.262-5.262-5.262h-10.417c-2.909 0-5.262 2.354-5.262 5.262s2.353 5.262 5.262 5.262z"/><path d="m430.088 458.213h10.417c2.909 0 5.262-2.354 5.262-5.262s-2.354-5.262-5.262-5.262h-10.417c-2.909 0-5.262 2.354-5.262 5.262s2.353 5.262 5.262 5.262z"/><path d="m40.245 53.792h-5.262c-2.906 0-5.262 2.354-5.262 5.262s2.356 5.262 5.262 5.262h5.262c2.906 0 5.262-2.354 5.262-5.262s-2.355-5.262-5.262-5.262z"/></g></g></svg>