<?xml version="1.0" encoding="UTF-8"?>
<svg xmlns="http://www.w3.org/2000/svg" id="Line_Expand" data-name="Line Expand" viewBox="0 0 64 64" width="512" height="512"><path d="M43.789,58.22q-.39.03-.789.03H39.764a.75.75,0,0,0,0,1.5H43c.3,0,.6-.012.9-.034a.752.752,0,0,0,.691-.806A.761.761,0,0,0,43.789,58.22Z"/><path d="M53.25,48v.1a.71.71,0,0,0,.75.7.794.794,0,0,0,.75-.8,11.718,11.718,0,0,0-.76-4.165.75.75,0,1,0-1.4.531A10.231,10.231,0,0,1,53.25,48Z"/><path d="M33.636,58.25H29.551a.75.75,0,0,0,0,1.5h4.085a.75.75,0,0,0,0-1.5Z"/><path d="M49.071,56.26a.75.75,0,0,0,.889,1.209,11.765,11.765,0,0,0,2.961-3.17.75.75,0,0,0-1.266-.8A10.239,10.239,0,0,1,49.071,56.26Z"/><path d="M13.212,58.25H9.127a.75.75,0,1,0,0,1.5h4.085a.75.75,0,1,0,0-1.5Z"/><path d="M23.424,58.25H19.339a.75.75,0,0,0,0,1.5h4.085a.75.75,0,1,0,0-1.5Z"/><path d="M21.772,26.686a.75.75,0,1,0-1.5.1,11.609,11.609,0,0,0,1.08,4.2.749.749,0,0,0,.68.432.736.736,0,0,0,.318-.071.749.749,0,0,0,.36-1A10.155,10.155,0,0,1,21.772,26.686Z"/><path d="M30.214,14.385a.75.75,0,0,0,.111,1.491.727.727,0,0,0,.113-.009A10.429,10.429,0,0,1,32,15.75h2.4a.75.75,0,0,0,0-1.5H32A11.814,11.814,0,0,0,30.214,14.385Z"/><path d="M40.531,15.75h4.085a.75.75,0,0,0,0-1.5H40.531a.75.75,0,0,0,0,1.5Z"/><path d="M45.838,38.147a10.169,10.169,0,0,1,3.378,1.7.75.75,0,0,0,.91-1.192,11.654,11.654,0,0,0-3.874-1.951.75.75,0,1,0-.414,1.441Z"/><path d="M25.6,35.855a11.643,11.643,0,0,0,4.012,1.652.722.722,0,0,0,.153.015.75.75,0,0,0,.15-1.484,10.169,10.169,0,0,1-3.5-1.44.75.75,0,1,0-.818,1.257Z"/><path d="M35.873,37.75h4.085a.75.75,0,0,0,0-1.5H35.873a.75.75,0,1,0,0,1.5Z"/><path d="M24.346,17.085a11.723,11.723,0,0,0-2.715,3.384.749.749,0,0,0,.307,1.014.749.749,0,0,0,1.015-.307,10.267,10.267,0,0,1,2.369-2.952.75.75,0,0,0-.976-1.139Z"/><path d="M50.743,15.75h4.085a.75.75,0,0,0,0-1.5H50.743a.75.75,0,1,0,0,1.5Z"/><path d="M12.75,43A4.75,4.75,0,1,0,8,47.75,4.756,4.756,0,0,0,12.75,43Zm-8,0A3.25,3.25,0,1,1,8,46.25,3.254,3.254,0,0,1,4.75,43Z"/><path d="M63,10.25H55.75V6.75H63a.752.752,0,0,0,.587-1.222L61.961,3.5l1.622-2.028A.752.752,0,0,0,63,.25H55a.75.75,0,0,0-.75.75v9.25H32a15.75,15.75,0,0,0,0,31.5H43a6.25,6.25,0,0,1,0,12.5H10.556c2.138-2.626,5.194-7.1,5.194-11.25A7.75,7.75,0,0,0,.25,43c0,4.145,3.056,8.624,5.194,11.25H1A.75.75,0,0,0,.25,55v8a.75.75,0,0,0,.75.75H43a15.75,15.75,0,0,0,0-31.5H32a6.25,6.25,0,0,1,0-12.5H63a.75.75,0,0,0,.75-.75V11A.75.75,0,0,0,63,10.25Zm-7.25-8.5h5.689L60.414,3.031a.752.752,0,0,0,0,.938L61.439,5.25H55.75ZM1.75,43a6.25,6.25,0,0,1,12.5,0C14.25,47.676,9.6,53.162,8,54.907,6.4,53.162,1.75,47.676,1.75,43Zm60.5-28.75H61a.75.75,0,0,0,0,1.5h1.25v2.5H32a7.75,7.75,0,0,0,0,15.5H43a14.25,14.25,0,0,1,0,28.5H1.75v-2.5H3a.75.75,0,0,0,0-1.5H1.75v-2.5H6.733c.41.452.683.727.737.78a.748.748,0,0,0,1.06,0c.054-.053.327-.328.737-.78H43a7.75,7.75,0,0,0,0-15.5H32a14.25,14.25,0,0,1,0-28.5H62.25Z"/></svg>
