<svg id="Layer_3" enable-background="new 0 0 64 64" height="512" viewBox="0 0 64 64" width="512" xmlns="http://www.w3.org/2000/svg"><g fill="rgb(0,0,0)"><circle cx="48" cy="43" r="1"/><g><path d="m53.969 16.688c-.138-.536-.682-.854-1.218-.72l-2 .514c-.534.138-.856.683-.72 1.217.116.452.522.751.968.751.083 0 .166-.01.25-.031l2-.514c.534-.137.856-.682.72-1.217z"/><path d="m63 35h-4c-.553 0-1 .448-1 1v14c0 .551-.448 1-1 1h-2v-3c0-1.103-.897-2-2-2h-1.029c.113-.15.236-.291.333-.455.68-1.15.871-2.495.539-3.789-.292-1.135-.965-2.062-1.834-2.72 2.148-.992 3.358-3.402 2.75-5.775l-.249-.968.969-.249c2.328-.599 4.284-2.067 5.508-4.137s1.567-4.491.97-6.819l-1.244-4.843 2.906-.746c.534-.138.856-.683.72-1.217l-.746-2.906c-2.06-8.011-10.254-12.854-18.262-10.797l-15.496 3.98-.746-2.905c-.138-.536-.684-.852-1.218-.72l-7.749 1.99c-.257.066-.477.231-.611.46-.136.228-.174.5-.108.758l.746 2.905-18.403 4.726c-.534.138-.856.683-.72 1.217l.497 1.938c.536 2.087 2.115 3.629 4.035 4.228.087 2.581.52 5.463 1.261 8.35 1.058 4.117 2.63 7.855 4.426 10.524 2.102 3.122 3.902 3.936 5.208 3.936.278 0 .535-.037.767-.096.105-.027.212-.063.321-.104.055-.005.109-.007.164-.021l10.169-2.612h.001s.001 0 .001 0l11.137-2.86.248.968c.579 2.254 2.616 3.757 4.845 3.757.115 0 .232-.014.347-.022-.459 1.027-.579 2.162-.296 3.267.169.659.475 1.244.862 1.756h-1.019c-1.103 0-2 .897-2 2v3c0 1.103.897 2 2 2h1v1c0 2.757 2.243 5 5 5h7v4c0 .552.447 1 1 1h6c.553 0 1-.448 1-1v-5-21.999c0-.552-.447-1-1-1zm-36.6-31.88.497 1.937-5.811 1.493-.497-1.937zm-8.788 32.328c-.227 2.525-.951 4.244-1.891 4.485-.938.245-2.401-.916-3.817-3.019-1.672-2.485-3.146-6.003-4.147-9.905-.674-2.624-1.071-5.228-1.178-7.581.414-.017.832-.074 1.249-.181l.723-.186c.06 1.77.327 4.277 1.142 7.45 1.347 5.242 3.136 8.264 4.083 9.599.19.269.496.421.815.421.083 0 .166-.01.249-.031.401-.103.697-.443.744-.854.187-1.625.299-5.133-1.048-10.379-.679-2.641-1.579-5.055-2.602-7.075l1.983-.509c1.014 2.085 1.897 4.524 2.556 7.087 1.004 3.902 1.408 7.694 1.139 10.678zm-7.01-15.45c.641 1.401 1.367 3.312 1.998 5.767.621 2.42.915 4.431 1.032 6.027-.667-1.455-1.38-3.359-2.001-5.778-.627-2.44-.913-4.459-1.029-6.016zm15.775 17.198-7.516 1.93c.344-.88.611-2.018.744-3.5.288-3.205-.136-7.237-1.193-11.354-.654-2.545-1.527-4.972-2.525-7.095l8.681-2.23c1.015 2.088 1.901 4.515 2.561 7.085 2.233 8.701 1.068 14.696-.752 15.164zm12.107-3.109c-.001 0-.001 0-.001 0l-8.993 2.31c1.339-3.424.979-9.399-.424-14.862-.656-2.551-1.529-4.969-2.528-7.093l1.631-.419c2.136-.55 4.32.743 4.869 2.878.398 1.552 1.378 2.857 2.758 3.672.938.554 1.982.838 3.044.838.5 0 1.005-.063 1.503-.191l6.907-1.774c.534-.138.856-.683.72-1.217-.138-.535-.683-.856-1.218-.72l-6.907 1.774c-1.035.267-2.11.113-3.031-.431-.92-.543-1.572-1.413-1.838-2.448-.824-3.205-4.103-5.14-7.305-4.318l-20.341 5.224c-2.137.547-4.32-.743-4.869-2.879l-.249-.969 18.402-4.726h.001l7.749-1.99c.001 0 .002-.001.003-.001l16.462-4.228c6.938-1.786 14.042 2.415 15.825 9.357l.498 1.938-2.905.746h-.001s0 0-.001 0l-1.847.474c-.535.138-.857.683-.72 1.218.139.536.686.854 1.218.72l.879-.226 1.243 4.843c.961 3.738-1.3 7.561-5.038 8.521l-1.935.497c-.001 0-.002 0-.003 0s-.001.001-.002.001zm5.367 4.816c-1.602.409-3.241-.558-3.652-2.159l-.248-.968 11.623-2.985.249.968c.411 1.603-.558 3.241-2.16 3.652zm6.731 5.624c-.407.69-1.06 1.179-1.836 1.378-.774.198-1.583.085-2.272-.323-.69-.408-1.18-1.06-1.379-1.836s-.085-1.583.323-2.273c.407-.69 1.06-1.179 1.836-1.378.249-.064.501-.096.752-.096.529 0 1.053.142 1.521.418.69.408 1.18 1.06 1.379 1.836.198.777.084 1.584-.324 2.274zm-5.582 6.473h-2v-3h4.995.006.008 4.991l.001 3zm17 11h-4v-3h4zm0-5h-5-8c-1.654 0-3-1.346-3-3v-1h7 4c1.654 0 3-1.346 3-3v-13h2z"/></g></g></svg>