<?xml version="1.0" encoding="UTF-8"?>
<svg xmlns="http://www.w3.org/2000/svg" xmlns:xlink="http://www.w3.org/1999/xlink" version="1.1" id="Capa_1" x="0px" y="0px" viewBox="0 0 512 512" style="enable-background:new 0 0 512 512;" xml:space="preserve" width="512" height="512">
<g>
	<path style="fill:none;stroke:#000000;stroke-width:15;stroke-linecap:round;stroke-linejoin:round;stroke-miterlimit:10;" d="&#10;&#9;&#9;M481.434,359.458c7.11-5.004,11.755-13.274,11.755-22.629c0-15.272-12.38-27.653-27.653-27.653&#10;&#9;&#9;c-12.436,0-22.955,8.21-26.433,19.505"/>
	<path style="fill:none;stroke:#000000;stroke-width:15;stroke-linecap:round;stroke-linejoin:round;stroke-miterlimit:10;" d="&#10;&#9;&#9;M447.04,342.966c-1.429-4.042-3.591-8.03-6.84-11.279c-6.814-6.814-16.875-8.843-23.881-9.371&#10;&#9;&#9;c-4.582-0.345-8.395,3.467-8.049,8.049c0.528,7.007,2.557,17.067,9.371,23.881c1.21,1.21,2.522,2.269,3.901,3.195"/>
	<path style="fill:none;stroke:#000000;stroke-width:15;stroke-linecap:round;stroke-linejoin:round;stroke-miterlimit:10;" d="&#10;&#9;&#9;M485.536,374.375c-2.293-16.985-16.848-30.079-34.462-30.079c-19.206,0-34.776,15.57-34.776,34.776c0,2.919,0.36,5.755,1.037,8.464&#10;&#9;&#9;"/>
	<path style="fill:none;stroke:#000000;stroke-width:15;stroke-linecap:round;stroke-linejoin:round;stroke-miterlimit:10;" d="&#10;&#9;&#9;M454.713,399.326c1.586-4.484,3.983-8.908,7.588-12.512c7.56-7.56,18.721-9.811,26.494-10.397c5.083-0.383,9.313,3.847,8.93,8.93&#10;&#9;&#9;c-0.586,7.773-2.837,18.934-10.397,26.494c-2.29,2.29-4.911,4.093-7.668,5.51"/>
	<path style="fill:none;stroke:#000000;stroke-width:15;stroke-linecap:round;stroke-linejoin:round;stroke-miterlimit:10;" d="&#10;&#9;&#9;M435.851,404.055c-1.398-2.67-3.163-5.206-5.387-7.43c-7.56-7.56-18.721-9.811-26.494-10.397c-5.083-0.383-9.313,3.847-8.93,8.93&#10;&#9;&#9;c0.586,7.773,2.837,18.934,10.397,26.494c3.964,3.964,8.918,6.468,13.854,8.038"/>
	<path style="fill:none;stroke:#000000;stroke-width:15;stroke-linecap:round;stroke-linejoin:round;stroke-miterlimit:10;" d="&#10;&#9;&#9;M470.063,456.32c7.396-5.535,12.183-14.366,12.183-24.315c0-16.763-13.589-30.351-30.352-30.351s-30.351,13.589-30.351,30.351&#10;&#9;&#9;c0,9.526,4.388,18.027,11.254,23.592"/>
	
		<line style="fill:none;stroke:#000000;stroke-width:15;stroke-linecap:round;stroke-linejoin:round;stroke-miterlimit:10;" x1="476.231" y1="223.112" x2="476.231" y2="306.157"/>
	
		<line style="fill:none;stroke:#000000;stroke-width:15;stroke-linecap:round;stroke-linejoin:round;stroke-miterlimit:10;" x1="425.294" y1="223.112" x2="425.294" y2="319.476"/>
	<path style="fill:none;stroke:#000000;stroke-width:15;stroke-linecap:round;stroke-linejoin:round;stroke-miterlimit:10;" d="&#10;&#9;&#9;M30.566,359.458c-7.11-5.004-11.755-13.274-11.755-22.629c0-15.272,12.38-27.653,27.653-27.653c12.436,0,22.955,8.21,26.433,19.505&#10;&#9;&#9;"/>
	<path style="fill:none;stroke:#000000;stroke-width:15;stroke-linecap:round;stroke-linejoin:round;stroke-miterlimit:10;" d="&#10;&#9;&#9;M64.96,342.966c1.429-4.042,3.591-8.03,6.84-11.279c6.814-6.814,16.875-8.843,23.881-9.371c4.582-0.345,8.394,3.467,8.049,8.049&#10;&#9;&#9;c-0.528,7.007-2.557,17.067-9.371,23.881c-1.21,1.21-2.522,2.269-3.901,3.195"/>
	<path style="fill:none;stroke:#000000;stroke-width:15;stroke-linecap:round;stroke-linejoin:round;stroke-miterlimit:10;" d="&#10;&#9;&#9;M26.464,374.375c2.293-16.985,16.848-30.079,34.462-30.079c19.206,0,34.776,15.57,34.776,34.776c0,2.919-0.36,5.755-1.037,8.464"/>
	<path style="fill:none;stroke:#000000;stroke-width:15;stroke-linecap:round;stroke-linejoin:round;stroke-miterlimit:10;" d="&#10;&#9;&#9;M57.287,399.326c-1.586-4.484-3.983-8.908-7.588-12.512c-7.56-7.56-18.721-9.811-26.494-10.397c-5.083-0.383-9.313,3.847-8.93,8.93&#10;&#9;&#9;c0.586,7.773,2.837,18.934,10.397,26.494c2.29,2.29,4.911,4.093,7.668,5.51"/>
	<path style="fill:none;stroke:#000000;stroke-width:15;stroke-linecap:round;stroke-linejoin:round;stroke-miterlimit:10;" d="&#10;&#9;&#9;M76.149,404.055c1.398-2.67,3.163-5.206,5.387-7.43c7.56-7.56,18.721-9.811,26.494-10.397c5.083-0.383,9.313,3.847,8.93,8.93&#10;&#9;&#9;c-0.586,7.773-2.837,18.934-10.397,26.494c-3.964,3.964-8.918,6.468-13.854,8.038"/>
	<path style="fill:none;stroke:#000000;stroke-width:15;stroke-linecap:round;stroke-linejoin:round;stroke-miterlimit:10;" d="&#10;&#9;&#9;M41.937,456.32c-7.396-5.535-12.183-14.366-12.183-24.315c0-16.763,13.589-30.351,30.351-30.351s30.351,13.589,30.351,30.351&#10;&#9;&#9;c0,9.526-4.388,18.027-11.254,23.592"/>
	
		<line style="fill:none;stroke:#000000;stroke-width:15;stroke-linecap:round;stroke-linejoin:round;stroke-miterlimit:10;" x1="35.769" y1="223.112" x2="35.769" y2="306.157"/>
	
		<line style="fill:none;stroke:#000000;stroke-width:15;stroke-linecap:round;stroke-linejoin:round;stroke-miterlimit:10;" x1="86.706" y1="223.112" x2="86.706" y2="319.476"/>
	<path style="fill:none;stroke:#000000;stroke-width:15;stroke-linecap:round;stroke-linejoin:round;stroke-miterlimit:10;" d="&#10;&#9;&#9;M336.911,503.381H7.5v-25.236c0-11.621,9.421-21.042,21.042-21.042h454.916c11.621,0,21.042,9.421,21.042,21.042v25.236H372.911"/>
	<path style="fill:none;stroke:#000000;stroke-width:15;stroke-linecap:round;stroke-linejoin:round;stroke-miterlimit:10;" d="&#10;&#9;&#9;M186.164,223.112h297.732c7.205,0,10.592-8.904,5.208-13.692L323.607,62.24H188.393L22.896,209.419&#10;&#9;&#9;c-5.384,4.788-1.997,13.692,5.208,13.692h123.06"/>
	<path style="fill:none;stroke:#000000;stroke-width:15;stroke-linecap:round;stroke-linejoin:round;stroke-miterlimit:10;" d="&#10;&#9;&#9;M323.925,62.24H188.075v0c0-29.614,24.007-53.622,53.622-53.622h28.606C299.918,8.619,323.925,32.626,323.925,62.24L323.925,62.24z&#10;&#9;&#9;"/>
	<path style="fill:none;stroke:#000000;stroke-width:15;stroke-linecap:round;stroke-linejoin:round;stroke-miterlimit:10;" d="&#10;&#9;&#9;M362.159,372.403H149.841c-5.28,0-9.561-4.28-9.561-9.561v-12.724c0-5.28,4.28-9.561,9.561-9.561h212.318&#10;&#9;&#9;c5.28,0,9.561,4.28,9.561,9.561v12.724C371.719,368.122,367.439,372.403,362.159,372.403z"/>
	
		<rect x="238.602" y="372.403" style="fill:none;stroke:#000000;stroke-width:15;stroke-linecap:round;stroke-linejoin:round;stroke-miterlimit:10;" width="34.796" height="84.7"/>
	<path style="fill:none;stroke:#000000;stroke-width:15;stroke-linecap:round;stroke-linejoin:round;stroke-miterlimit:10;" d="&#10;&#9;&#9;M198.197,457.103h-42.35v-33.151c0-5.08,4.118-9.199,9.199-9.199h23.953c5.08,0,9.199,4.118,9.199,9.199V457.103z"/>
	<path style="fill:none;stroke:#000000;stroke-width:15;stroke-linecap:round;stroke-linejoin:round;stroke-miterlimit:10;" d="&#10;&#9;&#9;M352.894,457.103h-42.35v-33.151c0-5.08,4.118-9.199,9.199-9.199h23.953c5.08,0,9.199,4.118,9.199,9.199V457.103z"/>
	
		<line style="fill:none;stroke:#000000;stroke-width:15;stroke-linecap:round;stroke-linejoin:round;stroke-miterlimit:10;" x1="199.918" y1="110.698" x2="312.082" y2="110.698"/>
	
		<line style="fill:none;stroke:#000000;stroke-width:15;stroke-linecap:round;stroke-linejoin:round;stroke-miterlimit:10;" x1="139.089" y1="154.225" x2="372.911" y2="154.225"/>
</g>















</svg>
