<svg id="Layer_1" viewBox="0 0 512 512" xmlns="http://www.w3.org/2000/svg" data-name="Layer 1"><path d="m52.948 361.362h24.012s.007 0 .01 0h117.056s.006 0 .01 0h24.012c4.418 0 8-3.582 8-8v-165.1c0-4.418-3.582-8-8-8h-165.1c-4.418 0-8 3.582-8 8v165.1c0 4.418 3.582 8 8 8zm60.504-118.926c-.013-3.689 1.203-6.633 3.828-9.262 2.618-2.623 5.564-3.844 9.27-3.844h17.896c3.706 0 6.651 1.222 9.27 3.844 2.625 2.629 3.841 5.573 3.828 9.271l-.019 7.958c0 .439.034.874.104 1.302h-44.261c.069-.428.104-.863.104-1.302l-.019-7.967zm72.574 102.926h-14.123v-32.245l3.716 1.225c6.419 2.117 10.406 7.146 10.406 13.125v17.895zm-50.528-58.47c-9.896 0-17.002-9.205-18.812-19.187h37.624c-1.81 9.982-8.917 19.187-18.812 19.187zm11.08 17.874 9.325 3.075v16.684h-44.303v-15.532l12.817-4.227c7.559-2.493 14.6-2.493 22.16 0zm-34.978 35.759h44.303v4.838h-44.303zm-16-8v12.838h-10.631v-17.895c0-5.979 3.988-11.008 10.407-13.125l.224-.074zm-34.652-136.262h149.1v149.1h-8.022v-17.895c0-12.918-8.398-24.034-21.396-28.32l-21.16-6.978c5.451-5.887 9.091-13.59 10.556-21.555 2.892-.529 5.314-2.615 6.204-5.499l2.172-7.037c.87-2.818.119-5.886-1.954-7.983l-2.917-2.951.011-4.651c.028-7.89-2.913-15.021-8.505-20.623-5.577-5.587-12.698-8.541-20.593-8.541h-17.896c-7.895 0-15.016 2.953-20.594 8.541-5.591 5.602-8.532 12.732-8.504 20.613l.011 4.66-2.917 2.951c-2.073 2.097-2.824 5.165-1.954 7.983l2.172 7.037c.891 2.885 3.312 4.971 6.205 5.5 1.465 7.965 5.105 15.669 10.556 21.555l-21.16 6.978c-12.998 4.286-21.396 15.402-21.396 28.32v17.895h-8.021v-149.1zm113.514 202.703-23.619-2.717-9.884-21.624c-1.302-2.848-4.145-4.674-7.276-4.674s-5.975 1.827-7.276 4.674l-9.883 21.624-23.62 2.717c-3.11.358-5.726 2.498-6.694 5.476s-.109 6.247 2.197 8.364l17.512 16.082-4.715 23.303c-.621 3.069.606 6.218 3.139 8.059s5.907 2.034 8.634.495l20.706-11.685 20.707 11.685c1.225.691 2.58 1.033 3.931 1.033 1.657 0 3.308-.514 4.703-1.528 2.533-1.84 3.76-4.99 3.139-8.059l-4.715-23.303 17.511-16.082c2.306-2.118 3.165-5.386 2.197-8.364s-3.583-5.118-6.694-5.476zm-27.162 21.191c-2.064 1.895-2.985 4.732-2.43 7.479l2.139 10.572-9.395-5.301c-1.22-.688-2.576-1.033-3.932-1.033s-2.711.344-3.932 1.033l-9.394 5.301 2.139-10.572c.555-2.747-.366-5.583-2.43-7.479l-7.945-7.296 10.717-1.233c2.784-.32 5.197-2.074 6.361-4.622l4.484-9.811 4.484 9.811c1.165 2.548 3.578 4.302 6.361 4.622l10.716 1.232-7.945 7.297zm353.699 50.207h-176.099v-93.748l181.756-181.756c3.124-3.124 3.124-8.189 0-11.313l-28.782-28.782c-3.124-3.124-8.189-3.124-11.313 0l-200.149 200.149c-3.125 3.124-3.125 8.189 0 11.313l10.389 10.389v93.748h-26.752v-298.102h3.582c7.921 0 14.366-6.445 14.366-14.366v-19.368c0-7.921-6.445-14.366-14.366-14.366h-110.132v-42.653c4.959-2.121 9.489-.968 17.469 1.392 6.064 1.792 13.088 3.869 21.544 3.869 4.589 0 9.601-.612 15.109-2.213 4.025-1.17 6.464-5.248 5.592-9.348-2.234-10.496-1.615-14.44-.832-19.435.576-3.67 1.228-7.829 1.002-14.311-.086-2.466-1.305-4.755-3.304-6.203-1.999-1.447-4.553-1.89-6.924-1.202-11.151 3.243-19.166.873-27.651-1.635-6.952-2.056-14.546-4.297-22.912-2.479-1.334-2.558-4.007-4.308-7.093-4.308-4.418 0-8 3.582-8 8v90.525h-110.133c-7.921 0-14.366 6.445-14.366 14.366v19.368c0 7.921 6.445 14.366 14.366 14.366h3.582v298.101h-9.948c-4.418 0-8 3.582-8 8s3.582 8 8 8h490c4.418 0 8-3.582 8-8s-3.582-8-8-8zm-340.032-422.597c7.073 2.091 15.454 4.568 25.889 3.686-.09.617-.186 1.227-.283 1.843-.71 4.526-1.438 9.171-.396 17.284-7.742.802-14.065-1.069-20.674-3.022-5.153-1.523-10.658-3.15-16.569-3.15-1.774 0-3.587.146-5.436.487v-18.521c4.959-2.123 9.488-.964 17.469 1.395zm-141.967 92.395h232.996v16.1h-232.996zm215.048 32.1v298.1h-197.1v-298.1zm190.837 81.741-14.611 14.611-7.383-27.554 14.611-14.611zm5.681-40.618 14.611-14.611 7.383 27.554-14.611 14.611zm-33.356 68.293-14.611 14.611-7.383-27.554 14.611-14.611zm-27.675 27.675-14.611 14.611-7.383-27.553 14.611-14.611 7.383 27.554zm-27.675 27.675-14.611 14.611-7.383-27.554 14.611-14.611 7.383 27.553zm130.358-165.295 17.468 17.468-24.062 24.061-7.383-27.554 13.976-13.976zm-165.416 165.416 7.383 27.554-13.334 13.334-17.468-17.468 23.42-23.42zm-14.001 133.213v-77.748l2.393 2.393c1.562 1.562 3.609 2.343 5.657 2.343s4.095-.781 5.657-2.343l2.394-2.394v77.748h-16.1z"/></svg>