<svg clip-rule="evenodd" fill-rule="evenodd" height="1.707in" image-rendering="optimizeQuality" shape-rendering="geometricPrecision" text-rendering="geometricPrecision" viewBox="0 0 1707 1707" width="1.707in" xmlns="http://www.w3.org/2000/svg"><g id="Layer_x0020_1"><path d="m213 170h-37c0 25 7 66-29 66s-29-41-29-66c-25 0-66 6-66-29 0-36 41-30 66-30 0-25-7-66 29-66s29 41 29 66c25 0 66-6 66 30 0 16-13 29-29 29zm1464 1537h-1648c-16 0-29-13-29-30v-151c0-16 13-29 29-29h117v-113c-23 0-63 6-63-29v-162l-81-211c-7-19 7-40 27-40h104c12 0 23 8 27 19l76 197h222c16 0 30 13 30 29v168c0 35-40 29-64 29v113h201v-254c-28 0-71 7-71-29v-132c0-16 13-29 29-29h179v-323l-494-207h-239c-30 0-40-40-14-55l824-464c9-5 21-5 30 0l823 464c26 15 15 55-15 55h-239l-494 207v323h180c16 0 29 13 29 29v132c0 36-43 29-72 29v254h201v-113c-23 0-63 6-63-29v-168c0-16 13-29 29-29h222l76-197c5-11 16-19 28-19h103c21 0 35 21 28 40l-82 211v162c0 35-39 29-63 29v113h117c17 0 30 13 30 29v151c0 17-13 30-30 30zm-1472-210h161v-113h-161zm479 0h78v-254h-78zm260 0h79v-254h-79zm397 0h161v-113h-161zm-1283 151h1590v-93h-1590zm82-1183h199l311-288zm1227 0h199l-509-288zm-80 58h-135l-104 100zm-219 0h-124v119zm-425 0h-4l123 119v-119zm-89 0h-134l238 100zm-129-58h199l143-316zm658 0h198l-341-316zm-395 0h331l-166-365zm133 778v254h65v-254zm65-190v-530h-65v530zm-274 132h482v-74h-482zm666 141h287v-110h-287zm255-168h41l61-157h-41zm-1391 168h287v-110h-287zm-9-168h41l-61-157h-41zm1143-211c-36 0-30-41-30-66-25 0-66 7-66-29 0-35 41-29 66-29 0-25-6-66 30-66 35 0 29 41 29 66 25 0 66-6 66 29 0 36-41 29-66 29 0 25 6 66-29 66zm-845 0c-36 0-29-41-29-66-25 0-66 7-66-29 0-35 41-29 66-29 0-25-7-66 29-66s29 41 29 66c25 0 66-6 66 29 0 36-41 29-66 29 0 25 7 66-29 66zm1129-711c-36 0-29-41-29-66-25 0-67 6-67-29 0-36 42-30 67-30 0-25-7-66 29-66 35 0 29 41 29 66 25 0 66-6 66 30 0 35-41 29-66 29 0 25 6 66-29 66z"/></g></svg>