<?xml version="1.0"?>
<svg xmlns="http://www.w3.org/2000/svg" id="Layer_1" data-name="Layer 1" viewBox="0 0 512 512"><path d="M262.226,292.264l-.026,64.821a6.374,6.374,0,0,1-12.054,2.871l-20.331-40.222c-6.078-12-28.918-2.949-20.356,13.994l20.356,40.247c7.657,15.132,15.65,25.892,29.953,37.067,8.381,6.544,9.6,12.182,10.554,23.046.491,5.768.181,38.308.181,46.611a2.523,2.523,0,0,0,2.483,2.509H389.073a2.528,2.528,0,0,0,2.509-2.509V410.86c0-10.087,7.294-13.734,7.294-27.107V245.861a12.286,12.286,0,1,0-24.572,0v46.4c0,8.407-12.778,8.407-12.778,0v-46.4c0-10.761-13.14-16.5-20.977-8.666a12.243,12.243,0,0,0-3.6,8.666v46.4c0,8.407-12.778,8.407-12.778,0v-46.4c0-10.761-13.166-16.5-20.977-8.666a12.265,12.265,0,0,0-3.621,8.666v46.4c0,8.407-12.779,8.407-12.779,0V185.618c0-13.243-24.572-12.933-24.572,0Zm-12.778-78.219a62,62,0,0,1,10.01-123.2c46.068,0,75.84,48.5,55.586,89.445a62.167,62.167,0,0,1-15.467,19.787V224.03a25.039,25.039,0,0,1,30.987,5.147,25,25,0,0,1,37.351,0,25.14,25.14,0,0,1,15.6-8.2V50.416a21.721,21.721,0,0,0-21.624-21.65H157a21.721,21.721,0,0,0-21.625,21.65v204.86A21.715,21.715,0,0,0,157,276.9h92.445Zm49.792-32.2a49.232,49.232,0,1,0-49.792,19.218V185.618c0-27.857,44.929-30.806,49.792-3.776Zm-60.423,58.535a6.389,6.389,0,0,1,0,12.778H165.538a6.386,6.386,0,0,1-6.389-6.389V58.926a6.386,6.386,0,0,1,6.389-6.389H353.352a6.386,6.386,0,0,1,6.389,6.389v140.66a6.389,6.389,0,0,1-12.778,0V65.315H171.927V240.377Zm218.595-171.8a6.39,6.39,0,0,1,11.743-5.044,232.856,232.856,0,0,1,3.052,176.407,6.377,6.377,0,0,1-11.873-4.656,219.528,219.528,0,0,0-2.922-166.707ZM421.3,84.145A6.379,6.379,0,0,1,433.02,79.1a193.477,193.477,0,0,1,2.534,146.505,6.376,6.376,0,1,1-11.872-4.656A180.269,180.269,0,0,0,421.3,84.145ZM91.432,228.427a6.375,6.375,0,0,1-11.666,5.147A193.454,193.454,0,0,1,76.9,84.172a6.357,6.357,0,1,1,11.821,4.681,180.418,180.418,0,0,0,2.716,139.574ZM55.3,244a6.376,6.376,0,1,1-11.666,5.148,232.708,232.708,0,0,1-3.388-179.3,6.357,6.357,0,1,1,11.82,4.681A219.781,219.781,0,0,0,55.3,244Zm194.151,45.68H157a34.487,34.487,0,0,1-34.4-34.4V50.416a34.487,34.487,0,0,1,34.4-34.4H361.888a34.486,34.486,0,0,1,34.4,34.4V222.762a25.14,25.14,0,0,1,15.364,23.1V383.753c0,15.8-7.294,21.805-7.294,27.107V480.7a15.3,15.3,0,0,1-15.287,15.287H272.986A15.345,15.345,0,0,1,257.725,480.7l-.362-46.43c-.078-7.191-2.044-10.553-5.432-13.191-15.882-12.416-25.038-24.625-33.5-41.386L198.1,339.47c-16.218-32.074,29.513-52.327,43.093-25.478l8.251,16.347Z"/></svg>
