<svg xmlns="http://www.w3.org/2000/svg" version="1.1" xmlns:xlink="http://www.w3.org/1999/xlink" width="512" height="512" x="0" y="0" viewBox="0 0 128 128" style="enable-background:new 0 0 512 512" xml:space="preserve"><g><path d="M113 54c0-8.271-6.729-15-15-15s-15 6.729-15 15 6.729 15 15 15 15-6.729 15-15zm-27.949 1H88a1 1 0 0 0 0-2h-2.949C85.539 46.63 90.63 41.539 97 41.051V44a1 1 0 0 0 2 0v-2.949c6.37.488 11.461 5.579 11.949 11.949H108a1 1 0 0 0 0 2h2.949c-.488 6.37-5.579 11.461-11.949 11.949V64a1 1 0 0 0-2 0v2.949C90.63 66.461 85.539 61.37 85.051 55z" fill="#000000" opacity="1" data-original="#000000"></path><path d="M126 107h-22v-8.142A3.995 3.995 0 0 0 106.858 96H111a2.996 2.996 0 0 0 2.816-2h4.956l-.766 6.89a1.014 1.014 0 0 0-.006.11c0 2.206 1.794 4 4 4s4-1.794 4-4a1 1 0 0 0-.006-.11l-.787-7.086C126.294 92.886 127 91.531 127 90s-.706-2.886-1.794-3.804l.787-7.085A.827.827 0 0 0 126 79c0-2.206-1.794-4-4-4s-4 1.794-4 4a1 1 0 0 0 .006.11l.766 6.89h-4.956A2.996 2.996 0 0 0 111 84h-4c0-1.858-1.28-3.411-3-3.858v-8.128c7.542-2.519 13-9.635 13-18.014 0-10.477-8.523-19-19-19s-19 8.523-19 19c0 8.379 5.458 15.494 13 18.014v8.128c-1.72.447-3 2-3 3.858v11c0 1.858 1.28 3.411 3 3.858V107h-6.161a2.909 2.909 0 0 0-2.754-2h-2.17a2.91 2.91 0 0 0-2.754 2H68V94.839a2.909 2.909 0 0 0 2-2.754v-2.17a2.91 2.91 0 0 0-2-2.754V34.839a2.909 2.909 0 0 0 2-2.754v-2.17a2.91 2.91 0 0 0-2-2.754V2a1 1 0 0 0-1-1H53a1 1 0 0 0-1 1v25.161a2.909 2.909 0 0 0-2 2.754v2.17a2.91 2.91 0 0 0 2 2.754V51H27c-.551 0-1-.449-1-1V37.863a2.82 2.82 0 0 0 2-2.688v-2.349a2.82 2.82 0 0 0-2-2.688V17c0-8.822-7.178-16-16-16H2a1 1 0 0 0-1 1v14a1 1 0 0 0 1 1h7c.551 0 1 .449 1 1v12.137a2.82 2.82 0 0 0-2 2.688v2.349a2.82 2.82 0 0 0 2 2.688V51c0 8.822 7.178 16 16 16h26v20.161a2.909 2.909 0 0 0-2 2.754v2.17a2.91 2.91 0 0 0 2 2.754V107H40.839a2.909 2.909 0 0 0-2.754-2h-2.17a2.91 2.91 0 0 0-2.754 2H22v-4a2.996 2.996 0 0 0-2-2.816v-4.956l6.89.766A1 1 0 0 0 27 96c2.206 0 4-1.794 4-4s-1.794-4-4-4a1 1 0 0 0-.11.006l-7.085.787C18.886 87.706 17.531 87 16 87s-2.886.706-3.804 1.794l-7.086-.788A1 1 0 0 0 5 88c-2.206 0-4 1.794-4 4s1.794 4 4 4a1 1 0 0 0 .11-.006l6.89-.766v4.956A2.996 2.996 0 0 0 10 103v4H2a1 1 0 0 0-1 1v14a1 1 0 0 0 1 1h31.161a2.909 2.909 0 0 0 2.754 2h2.17a2.91 2.91 0 0 0 2.754-2h37.323a2.909 2.909 0 0 0 2.754 2h2.17a2.91 2.91 0 0 0 2.754-2H126a1 1 0 0 0 1-1v-14a1 1 0 0 0-1-1zm-1-17c0 1.654-1.346 3-3 3s-3-1.346-3-3 1.346-3 3-3 3 1.346 3 3zm-7.576 2H114v-4h3.424c-.269.614-.424 1.288-.424 2s.154 1.386.424 2zm6.576 9.05c-.027 1.08-.914 1.95-2 1.95s-1.973-.87-2-1.95l.694-6.245c.419.114.851.195 1.306.195s.887-.081 1.306-.195zM122 77c1.086 0 1.973.87 2 1.95l-.694 6.245c-.419-.114-.851-.195-1.306-.195s-.887.081-1.306.195L120 78.95a2.003 2.003 0 0 1 2-1.95zm-11 9c.551 0 1 .449 1 1v6c0 .551-.449 1-1 1h-4v-8zM81 54c0-9.374 7.626-17 17-17s17 7.626 17 17-7.626 17-17 17-17-7.626-17-17zm17 19a18.97 18.97 0 0 0 4-.432V80h-8v-7.432A18.97 18.97 0 0 0 98 73zm-7 22V84c0-1.103.897-2 2-2h10c1.103 0 2 .897 2 2v11c0 1.103-.897 2-2 2H93c-1.103 0-2-.897-2-2zm3 4h8v8h-8zm-16 10v12H41v-12zM66 35v52H54V35zm0-32v24H54V3zM52 29.915c0-.504.411-.915.915-.915h14.17c.504 0 .915.411.915.915v2.17a.917.917 0 0 1-.915.915h-14.17a.917.917 0 0 1-.915-.915zM9 15H3V3h7c7.72 0 14 6.28 14 14v13H12V18c0-1.654-1.346-3-3-3zm1 17.826c0-.455.371-.826.826-.826h14.349c.454 0 .825.371.825.826v2.349a.827.827 0 0 1-.826.825H10.826a.828.828 0 0 1-.826-.826zM26 65c-7.72 0-14-6.28-14-14V38h12v12c0 1.654 1.346 3 3 3h25v12zm26 24.915c0-.504.411-.915.915-.915h14.17c.504 0 .915.411.915.915v2.17a.917.917 0 0 1-.915.915h-14.17a.917.917 0 0 1-.915-.915zM54 95h12v12H54zm-38 2a4.95 4.95 0 0 0 2-.424V100h-4v-3.424A4.95 4.95 0 0 0 16 97zm11.05-7c1.08.027 1.95.914 1.95 2s-.87 1.973-1.95 2l-6.245-.694c.114-.419.195-.851.195-1.306s-.081-.887-.195-1.306zM16 89c1.654 0 3 1.346 3 3s-1.346 3-3 3-3-1.346-3-3 1.346-3 3-3zM4.95 94C3.87 93.973 3 93.086 3 92s.87-1.973 1.95-2l6.245.694c-.114.419-.195.851-.195 1.306s.081.887.195 1.306zm7.05 9c0-.551.449-1 1-1h6c.551 0 1 .449 1 1v4h-8zm-9 6h30v12H3zm36 13.085a.917.917 0 0 1-.915.915h-2.17a.917.917 0 0 1-.915-.915v-14.17c0-.504.411-.915.915-.915h2.17c.504 0 .915.411.915.915zm45 0a.917.917 0 0 1-.915.915h-2.17a.917.917 0 0 1-.915-.915v-14.17c0-.504.411-.915.915-.915h2.17c.504 0 .915.411.915.915zM125 121H86v-12h39z" fill="#000000" opacity="1" data-original="#000000"></path><path d="M98 57a2.95 2.95 0 0 0 1.285-.301l3.008 3.008a.997.997 0 0 0 1.414 0 .999.999 0 0 0 0-1.414l-3.008-3.008A2.95 2.95 0 0 0 101 54c0-1.654-1.346-3-3-3a2.95 2.95 0 0 0-1.285.301l-3.008-3.008a.999.999 0 1 0-1.414 1.414l3.008 3.008A2.95 2.95 0 0 0 95 54c0 1.654 1.346 3 3 3zm1-3c0 .551-.449 1-1 1s-1-.449-1-1 .449-1 1-1 1 .449 1 1z" fill="#000000" opacity="1" data-original="#000000"></path></g></svg>