<svg id="Capa_1" enable-background="new 0 0 512.002 512.002" height="512" viewBox="0 0 512.002 512.002" width="512" xmlns="http://www.w3.org/2000/svg"><g><path d="m142.262 47.511 10.664-10.664c2.929-2.93 2.929-7.678 0-10.607-2.929-2.928-7.678-2.928-10.606 0l-10.664 10.664c-2.929 2.93-2.929 7.678 0 10.607 2.928 2.929 7.677 2.928 10.606 0zm156.605 27.233c2.926.373 8.559 1.713 13.409 6.495 4.463 4.4 5.985 9.525 6.495 12.188.677 3.533 3.768 6.088 7.365 6.089h.001c3.597 0 6.688-2.554 7.365-6.087.512-2.665 2.035-7.792 6.496-12.19 4.851-4.782 10.483-6.122 13.409-6.495 4.108-.523 7.016-4.278 6.491-8.388-.523-4.109-4.277-7.018-8.388-6.491-4.804.611-14.055 2.814-22.044 10.693-1.243 1.226-2.349 2.485-3.33 3.753-.981-1.268-2.086-2.527-3.33-3.754-7.989-7.878-17.24-10.081-22.044-10.692-4.111-.531-7.864 2.382-8.388 6.491-.522 4.11 2.385 7.865 6.493 8.388zm-167.212 56.912c-2.929 2.93-2.929 7.678 0 10.607l10.664 10.664c2.929 2.928 7.678 2.929 10.606 0 2.929-2.93 2.929-7.678 0-10.607l-10.664-10.664c-2.928-2.927-7.677-2.927-10.606 0zm-42.072-101.573c4.142 0 7.5-3.357 7.5-7.5v-15.081c0-4.143-3.358-7.5-7.5-7.5s-7.5 3.357-7.5 7.5v15.081c0 4.143 3.358 7.5 7.5 7.5zm59.5 59.5c0 4.143 3.358 7.5 7.5 7.5h15.081c4.142 0 7.5-3.357 7.5-7.5s-3.358-7.5-7.5-7.5h-15.081c-4.142 0-7.5 3.358-7.5 7.5zm47.51-74.641c2.349.3 6.87 1.375 10.759 5.21 3.581 3.531 4.802 7.644 5.211 9.781.677 3.534 3.768 6.089 7.366 6.089s6.689-2.555 7.366-6.089c.409-2.138 1.631-6.251 5.21-9.78 3.891-3.836 8.412-4.911 10.76-5.211 4.109-.523 7.015-4.279 6.492-8.388-.524-4.109-4.278-7.02-8.388-6.491-4.226.538-12.365 2.477-19.396 9.409-.735.725-1.415 1.463-2.044 2.208-.629-.745-1.31-1.483-2.045-2.209-7.03-6.932-15.169-8.87-19.395-9.408-4.115-.532-7.864 2.382-8.388 6.491-.523 4.108 2.383 7.864 6.492 8.388zm-107.01 119.141c24.538 0 44.5-19.963 44.5-44.5s-19.962-44.5-44.5-44.5-44.5 19.963-44.5 44.5 19.962 44.5 44.5 44.5zm0-74c16.267 0 29.5 13.233 29.5 29.5s-13.233 29.5-29.5 29.5-29.5-13.233-29.5-29.5 13.233-29.5 29.5-29.5zm-82.082 37h15.082c4.142 0 7.5-3.357 7.5-7.5s-3.358-7.5-7.5-7.5h-15.082c-4.142 0-7.5 3.357-7.5 7.5s3.358 7.5 7.5 7.5zm487 350.919h-60.662v-110.437c19.839-1.707 38.283-10.163 52.646-24.329 16.454-16.226 25.516-37.888 25.516-60.995 0-20.646-7.45-40.59-20.979-56.157-4.739-5.453-6.112-13.103-3.585-19.965 2.7-7.332 4.042-15.04 3.988-22.911-.234-34.835-28.748-63.825-63.562-64.624-17.668-.411-34.38 6.171-47.015 18.519-12.639 12.352-19.599 28.884-19.599 46.553 0 7.688 1.332 15.218 3.959 22.379 2.527 6.894 1.084 14.671-3.769 20.298-13.224 15.335-20.597 34.939-20.762 55.204-.033 4.142 3.297 7.526 7.439 7.561h.062c4.114 0 7.465-3.317 7.499-7.439.136-16.714 6.216-32.883 17.121-45.529 8.405-9.747 10.893-23.258 6.491-35.259-2.018-5.502-3.041-11.294-3.041-17.214 0-13.597 5.356-26.32 15.082-35.825 9.723-9.502 22.583-14.547 36.188-14.25 26.786.614 48.726 22.923 48.905 49.73.042 6.062-.989 11.991-3.064 17.624-4.419 11.998-1.99 25.404 6.339 34.989 11.156 12.838 17.301 29.287 17.301 46.317 0 19.062-7.475 36.93-21.048 50.315-11.533 11.373-26.236 18.287-42.114 19.941v-41.684l14.021-14.021c2.929-2.93 2.929-7.678 0-10.607-2.93-2.928-7.678-2.928-10.607 0l-3.413 3.413v-38.785l14.021-14.021c2.929-2.93 2.929-7.678 0-10.607-2.93-2.928-7.678-2.928-10.607 0l-3.413 3.413v-45.118c0-4.143-3.357-7.5-7.5-7.5s-7.5 3.357-7.5 7.5v29.536l-2.831-2.831c-2.93-2.928-7.678-2.928-10.607 0-2.929 2.93-2.929 7.678 0 10.607l13.438 13.438v38.785l-2.831-2.831c-2.93-2.928-7.678-2.928-10.607 0-2.929 2.93-2.929 7.678 0 10.607l13.438 13.438v57.256c-24.329-2.645-46.102-18.072-56.616-40.645-1.75-3.754-6.212-5.377-9.966-3.632-3.755 1.749-5.381 6.211-3.632 9.966 12.962 27.827 40.073 46.697 70.214 49.39v110.436h-106.008v-27.005h4.479c7.995 0 14.5-6.505 14.5-14.5v-5.438c0-11.208-8.239-20.527-18.979-22.223v-14.785h4.479c7.995 0 14.5-6.505 14.5-14.5v-27.666c0-2.538-.659-4.923-1.81-7 1.151-2.077 1.81-4.462 1.81-7v-27.666c0-7.995-6.505-14.5-14.5-14.5h-4.479v-18.346c0-5.721-2.229-11.092-6.267-15.114-4.035-4.034-9.402-6.256-15.113-6.256-11.783 0-21.37 9.587-21.37 21.37v18.346h-207.89v-18.346c0-11.783-9.586-21.37-21.37-21.37-5.701 0-11.068 2.218-15.124 6.257-4.034 4.036-6.256 9.403-6.256 15.113v18.346h-4.94c-7.995 0-14.5 6.505-14.5 14.5v27.666c0 2.538.659 4.923 1.81 7-1.151 2.077-1.81 4.462-1.81 7v27.666c0 7.995 6.505 14.5 14.5 14.5h4.94v14.722c-10.964 1.499-19.44 10.918-19.44 22.287v5.438c0 7.995 6.505 14.5 14.5 14.5h4.94v27.005c-10.265-.65-19.437 6.887-19.44 17.5v29c0 9.649 7.851 17.5 17.5 17.5h477c9.649 0 17.5-7.851 17.5-17.5v-29c0-9.649-7.85-17.5-17.5-17.5zm-209.42-200.63c0-3.513 2.857-6.37 6.37-6.37 1.705 0 3.305.661 4.517 1.873 1.201 1.197 1.863 2.794 1.863 4.497v18.346h-12.75zm-250.64 0c0-1.704.662-3.306 1.853-4.496 1.213-1.209 2.821-1.874 4.527-1.874 3.513 0 6.37 2.857 6.37 6.37v18.346h-12.75zm-19.44 33.346h301.809v26.666h-301.809zm0 68.332v-26.666h301.809v26.666h-185.527c-4.142 0-7.5 3.357-7.5 7.5s3.358 7.5 7.5 7.5h138.798v14.509h-207.89v-14.509h34.092c4.142 0 7.5-3.357 7.5-7.5s-3.358-7.5-7.5-7.5zm282.83 15v14.509h-12.75v-14.509zm-250.64 0v14.509h-12.75v-14.509zm-32.19 41.947v-4.938c0-4.136 3.364-7.5 7.5-7.5h286.809c4.136 0 7.5 3.364 7.5 7.5v4.938zm282.83 15v27.005h-12.75v-27.005zm-27.75 0v27.005h-207.89v-27.005zm-222.89 0v27.005h-12.75v-27.005zm449.81 73.505c0 1.379-1.121 2.5-2.5 2.5h-477c-1.378 0-2.5-1.121-2.5-2.5v-29c0-1.379 1.122-2.5 2.5-2.5h477c1.379 0 2.5 1.121 2.5 2.5zm-460.098-446.991c2.929 2.928 7.678 2.929 10.606 0 2.929-2.93 2.929-7.678 0-10.607l-10.664-10.665c-2.929-2.928-7.678-2.928-10.606 0-2.929 2.93-2.929 7.678 0 10.607zm45.18 109.072v15.082c0 4.143 3.358 7.5 7.5 7.5s7.5-3.357 7.5-7.5v-15.082c0-4.143-3.358-7.5-7.5-7.5s-7.5 3.358-7.5 7.5zm-45.18-24.927-10.664 10.664c-2.929 2.93-2.929 7.678 0 10.607 2.928 2.929 7.677 2.928 10.606 0l10.664-10.664c2.929-2.93 2.929-7.678 0-10.607-2.928-2.927-7.677-2.927-10.606 0z"/></g></svg>