<svg id="Layer_1" enable-background="new 0 0 48 48" viewBox="0 0 48 48" xmlns="http://www.w3.org/2000/svg"><g><path d="m25.5.5-25 9.7v37.3h7.6 9.8 4.6 3 22v-32.5h-22zm-14.4 44v-3.7h3.8v3.7zm11.4 0h-4.6v-6.7h-9.8v6.7h-4.6v-32.3l19-7.4v10.2zm22-26.5v26.6h-19v-26.6z"/><path d="m6.5 13.8h3v4.4h-3z"/><path d="m6.5 21.9h3v4.4h-3z"/><path d="m6.5 30h3v4.4h-3z"/><path d="m11.5 13.8h3v4.4h-3z"/><path d="m11.5 21.9h3v4.4h-3z"/><path d="m11.5 30h3v4.4h-3z"/><path d="m16.5 13.8h3v4.4h-3z"/><path d="m16.5 21.9h3v4.4h-3z"/><path d="m16.5 30h3v4.4h-3z"/><path d="m28.5 21h3v4.4h-3z"/><path d="m28.5 29.1h3v4.4h-3z"/><path d="m28.5 37.2h3v4.4h-3z"/><path d="m33.5 21h3v4.4h-3z"/><path d="m33.5 29.1h3v4.4h-3z"/><path d="m33.5 37.2h3v4.4h-3z"/><path d="m38.5 21h3v4.4h-3z"/><path d="m38.5 29.1h3v4.4h-3z"/><path d="m38.5 37.2h3v4.4h-3z"/></g></svg>