<svg id="Capa_1" enable-background="new 0 0 512.063 512.063" height="512" viewBox="0 0 512.063 512.063" width="512" xmlns="http://www.w3.org/2000/svg"><path d="m159.815 247.314c18.426-.098 33.337-15.167 33.24-33.594-.048-8.926-3.568-17.299-9.913-23.577-6.302-6.236-14.64-9.663-23.499-9.663-.06 0-.122.001-.183.001-8.926.047-17.299 3.568-23.578 9.913-6.278 6.345-9.709 14.755-9.662 23.682.048 8.926 3.568 17.299 9.913 23.577 6.302 6.235 14.64 9.663 23.498 9.663.061-.001.123-.002.184-.002zm-18.595-33.319c-.026-4.919 1.865-9.554 5.325-13.051 3.461-3.497 8.075-5.437 12.995-5.463.034-.001.067-.001.101-.001 4.882 0 9.478 1.889 12.951 5.325 3.497 3.46 5.438 8.075 5.463 12.994.026 4.919-1.865 9.555-5.325 13.052s-8.075 5.437-12.994 5.463c-.034.001-.067.001-.101.001-4.882 0-9.478-1.889-12.951-5.325-3.497-3.461-5.438-8.076-5.464-12.995z"/><path d="m511.416 334.058c-.018-3.154-2.005-5.959-4.975-7.021-3.999-1.43-8.098-2.682-12.225-3.749.91-4.882 1.372-9.884 1.345-14.96-.229-43.134-35.392-78.065-78.475-78.065-.14 0-.283 0-.423.001-20.963.111-40.627 8.379-55.372 23.281-11.84 11.966-19.356 27.062-21.806 43.399l-12.001-20.217c-8.003-13.482-23.33-21.854-40.008-21.854-.011 0-.023 0-.035 0l-2.05.001-.182-34.145 12.412-.066c4.142-.022 7.482-3.398 7.46-7.54-.022-4.143-3.444-7.482-7.54-7.46l-65.002.345s-.342-44.301-.353-44.363c-.067-.373-.159-.736-.278-1.087-.014-.042-.031-.083-.046-.125-.273-.76-.664-1.462-1.153-2.085-.017-.021-.028-.046-.045-.067l-55.578-69.373c-3.949-4.93-9.834-7.753-16.153-7.704-.339.002-.678.012-1.015.03-5.862.315-11.251 3.081-14.935 7.693-.04.05-.081.101-.12.152v.001l-30.135 38.444c-6.97-5.923-15.83-9.223-25.121-9.223-.069 0-.14 0-.208.001-3.808.02-7.525.582-11.107 1.677-8.188-7.825-19.028-12.212-30.504-12.212-.08 0-.161 0-.24 0-24.385.13-44.119 20.075-43.99 44.464.003.597.019 1.198.045 1.805.952 21.303 18.614 37.916 40.257 37.915.074 0 .15 0 .225-.001l44.591-.237.15 16.995c.036 4.142 3.435 7.49 7.566 7.433 4.142-.037 7.47-3.424 7.433-7.566l-.331-37.449 115.857-.615.475 89.349-115.884.615-.116-21.873c-.022-4.128-3.376-7.46-7.499-7.46-.014 0-.027 0-.041 0-4.142.022-7.482 3.398-7.46 7.54l.156 29.373.152 28.583c0 .014.002.027.002.04 0 .012-.002.024-.001.036l.462 29.644c-3.598-2.747-7.414-4.13-11.439-4.13-.031 0-.063 0-.094 0-23.904.126-33.764 49.129-36.203 63.985-20.431 2.425-36.279 19.901-36.168 40.954.037 7.039 1.848 13.796 5.17 19.749-1.664.749-3.198 1.793-4.52 3.129-2.821 2.851-4.363 6.63-4.342 10.641l.069 13.087c.045 8.253 6.772 14.937 15.015 14.936h.081l481.96-2.56c8.279-.045 14.98-6.817 14.936-15.096zm-14.97 5.45.568 103.527c-.039 0-.077-.006-.116-.005l-8.009.043-.158-29.768c-.011-1.989-.811-3.892-2.225-5.292-1.414-1.399-3.358-2.207-5.315-2.168l-56.89.303-.102-19.257c18.425-1.647 35.51-9.645 48.67-22.946 7.55-7.631 13.334-16.539 17.179-26.225 2.143.546 4.282 1.13 6.398 1.788zm-278.541-64.648.031 5.827-.002 7.756-31.94.17c-.014 0-.027 0-.041 0-.002 0-.003 0-.005 0l-55.227.294c-.002 0-.003 0-.005 0s-.003 0-.005 0l-28.617.152-.072-13.584zm-39.116 77.225-40.163.213-.108-16.716 40.182-.213zm-40.066 15.214 40.145-.213.089 16.716-40.126.212zm39.897-46.93-40.199.213-.108-16.716 40.219-.213zm-63.267 88.394c-.496-16.412-4.181-36.18-9.83-52.411-.832-2.391-1.688-4.65-2.564-6.793l-.709-45.501 21.062-.112.692 106.961c-2.704-1.132-5.613-1.868-8.651-2.144zm23.714 16.248c.014-.193.027-.386.026-.582l-.165-25.415 40.108-.212.244 45.916-37.922.202c.534-2.258.807-4.588.795-6.949-.025-4.655-1.137-9.052-3.086-12.96zm55.214 19.627-.749-141.065 24.525-.13.749 141.065zm39.525-.21-.733-138.01 34.205-.023h.019c9.032 0 17.243 4.38 21.429 11.433l40.653 68.483c-5.454-1.215-11.037-1.824-16.74-1.811-35.473.189-65.953 25.301-73.002 59.897zm78.912-44.928c8.289-.018 16.35 1.59 23.946 4.855 1.224.526 2.514.694 3.758.56l18.415 31.021c1.687 2.842 3.714 5.44 5.992 7.796l-109.787.583c6.759-26.061 30.367-44.67 57.676-44.815zm96.573 4.907c-4.963-1.904-9.137-5.26-11.751-9.664l-7.258-12.227c6.067 2.202 12.41 3.663 18.916 4.311zm15.089 16.741 49.391-.263.114 21.507-49.391.262zm-70.781-112.065c-.09-16.956 6.428-32.933 18.354-44.986 11.926-12.054 27.833-18.742 44.789-18.832.115-.001.226-.001.342-.001 34.846 0 63.29 28.257 63.476 63.144.09 16.957-6.428 32.933-18.355 44.986-10.34 10.451-23.673 16.859-38.087 18.44l-.227-42.667 19.248-19.454c2.913-2.944 2.888-7.693-.057-10.606-2.943-2.912-7.692-2.889-10.606.057l-8.698 8.79-.057-10.78c-.022-4.142-3.436-7.459-7.54-7.46-4.142.022-7.482 3.398-7.46 7.54l.161 30.339-8.114-8.028c-2.945-2.913-7.693-2.887-10.606.057s-2.888 7.693.057 10.606l18.776 18.578.122 22.91c-12.935-1.619-25.027-7.165-34.774-16.05l-18.963-31.944c-1.152-4.765-1.755-9.685-1.781-14.639zm-66.148-39.208h.024c11.409 0 21.796 5.559 27.109 14.511l47.256 79.606c.09.168.189.331.292.493l22.508 37.917c5.305 8.937 14.323 15.228 24.732 17.656l.12 22.677-10.464.056c-.063 0-.124 0-.186 0-11.413 0-21.788-5.548-27.108-14.511l-70.112-118.108c-6.876-11.583-20.027-18.775-34.328-18.775-.009 0-.02 0-.028 0l-34.275.023-.057-10.766.003-10.741zm-17.061-14.989-11.253.008-.181-34.024 11.253-.06zm-26.434-33.936.18 33.955-11.338.008-.18-33.902zm-89.288-122.616c1.442-1.84 3.34-2.124 4.344-2.129 1.017.023 2.905.259 4.367 2.083l45.878 57.266-99.857.53zm-112.663 78.616c-13.468.076-24.833-10.508-25.417-23.581-.018-.41-.028-.819-.031-1.221-.085-16.115 12.956-29.295 29.07-29.381h.158c8.811 0 17.058 3.919 22.649 10.767 2.179 2.67 5.896 3.512 9.012 2.04 3.155-1.489 6.53-2.253 10.033-2.272 5.952-.045 11.607 2.142 15.98 6.049l-15.435 19.689c-.019.025-.032.053-.051.078-.22.288-.418.59-.593.905-.021.038-.045.073-.066.111-.172.321-.314.656-.437.999-.025.069-.05.138-.073.207-.111.339-.262 15.374-.262 15.374zm22.642 175.461c4.888-11.121 9.553-15.172 11.496-15.183h.008c2.647 0 9.105 6.523 15.206 24.053 4.626 13.292 7.883 29.715 8.791 43.695-4.677-2.429-9.913-3.74-15.314-3.74-.059 0-.119.001-.178.001-2.479.013-4.917.296-7.294.845-5.627-7.392-13.562-12.603-22.478-14.877 2.146-12.919 5.63-25.392 9.763-34.794zm-20.063 48.507h.14c9.573 0 18.343 5.229 22.91 13.67 1.872 3.461 6.099 4.886 9.687 3.266 2.343-1.059 4.838-1.604 7.416-1.617 5.385-.013 10.463 2.301 13.969 6.391 2.099 2.447 5.527 3.279 8.514 2.068 1.712-.694 3.516-1.051 5.365-1.06h.079c7.955 0 14.449 6.451 14.491 14.415.013 2.451-.597 4.835-1.742 6.954l-98.902.525c-4.959-4.849-7.78-11.424-7.818-18.441-.078-14.355 11.538-26.095 25.891-26.171zm452.462 70.232-481.976 2.544-.053-13.103 7.151-.038c.601.153 1.216.257 1.844.257h.04l472.942-2.763.064 13.103s-.004 0-.012 0z"/><path d="m299.427 119.85h.131l41.368-.219c4.142-.022 7.482-3.397 7.46-7.54-.022-4.129-3.376-7.46-7.499-7.46-.014 0-.027 0-.04 0l-41.369.219c-.017 0-.033 0-.05 0-4.938 0-8.996-3.874-9.054-8.685l-.001-.105c-.055-10.326 8.306-18.945 18.638-19.213 3.611-.094 6.643-2.749 7.211-6.316 2.958-18.544 18.755-32.076 37.563-32.176h.211c18.808 0 34.655 13.408 37.725 31.955.662 3.998 4.381 6.749 8.395 6.209.967-.129 1.748-.191 2.458-.195h.101c6.728 0 13.034 3.597 16.477 9.403 1.351 2.279 3.804 3.676 6.452 3.676h.04l20.564-.109h.04c4.056 0 7.367 3.289 7.388 7.35.022 4.075-3.276 7.407-7.35 7.429l-79.413.422c-4.083.022-7.399 3.307-7.459 7.39s3.157 7.464 7.238 7.606l3.976.138c.637.021 1.252-.035 1.846-.163l73.892-.392c12.345-.066 22.335-10.163 22.27-22.508-.066-12.306-10.096-22.27-22.387-22.27-.04 0-.082 0-.122 0l-16.608.088c-5.94-7.539-14.866-12.298-24.474-12.975-6.598-22.432-27.096-38.052-51.045-38.052-.096 0-.196 0-.293.001-24.244.129-44.896 16.296-51.091 39.195-15.557 3.244-27.328 17.217-27.241 33.61l.003.216c.155 12.967 10.933 23.471 24.049 23.471z"/></svg>