<svg xmlns="http://www.w3.org/2000/svg" version="1.1" xmlns:xlink="http://www.w3.org/1999/xlink" width="512" height="512" x="0" y="0" viewBox="0 0 512 512" style="enable-background:new 0 0 512 512" xml:space="preserve"><g><circle cx="184.68" cy="51.086" r="24.688" style="stroke-width:15;stroke-linecap:round;stroke-linejoin:round;stroke-miterlimit:10;" fill="none" stroke="#2c9fda" stroke-width="15" stroke-linecap="round" stroke-linejoin="round" stroke-miterlimit="10" data-original="#000000" opacity="1"></circle><path d="M159.578 195.099c-37.066 0-28.861 102.726-28.861 128.143-24.358 25.417-79.536 20.797-93.195 0-4.793-36.037-3.969-181.095 122.056-128.143z" style="stroke-width:15;stroke-linecap:round;stroke-linejoin:round;stroke-miterlimit:10;" fill="none" stroke="#2c9fda" stroke-width="15" stroke-linecap="round" stroke-linejoin="round" stroke-miterlimit="10" data-original="#000000" opacity="1"></path><path d="m57.919 336.847 7.378 31.971c4.507 19.532 21.9 33.369 41.946 33.369h96.577M135.839 485.602c77.118-109.043 192.09-97.366 295.083-251.569M67.018 129.874c-8.265 11.693-13.108 25.925-12.963 41.17a70.533 70.533 0 0 0 4.469 24.114M401.202 166.599c-.875-16.67-7.521-31.809-17.982-43.458 18.319-2.143 32.281-18.55 30.457-37.823-1.582-16.725-15.303-30.066-32.063-31.224-20.273-1.401-37.154 14.63-37.154 34.604 0 4.55.885 8.892 2.478 12.873a70.849 70.849 0 0 0-16.334-1.917c-22.292 0-42.163 10.322-55.118 26.444-4.879 6.072-13.96 6.918-19.817 1.783-7.714-6.763-17.819-10.863-28.884-10.863a43.654 43.654 0 0 0-27.914 10.037c-5.953 4.922-14.682 4.228-19.605-1.725-12.968-15.682-32.571-25.675-54.509-25.675-11.165 0-21.762 2.673-31.199 7.389" style="stroke-width:15;stroke-linecap:round;stroke-linejoin:round;stroke-miterlimit:10;" fill="none" stroke="#2c9fda" stroke-width="15" stroke-linecap="round" stroke-linejoin="round" stroke-miterlimit="10" data-original="#000000" opacity="1"></path><path d="M465.515 333.923c44.083-66.759 53.011-148.353 15.268-241.953-24.886 64.429-96.313 71.438-175.261 134.608l-11.125 78.046-16.024-54.318-45.296 52.209a110.948 110.948 0 0 0-27.361 66.78l-2.787 48.339 64.501 24.275a110.945 110.945 0 0 0 87.098-3.82l43.024-20.657-41.704-34.011 60.448 6.835c10.157-9.095 19.516-18.585 28.045-28.453M72.97 195.157H40.751c-18.364 0-33.251 14.887-33.251 33.251 0 17.821 14.021 32.366 31.633 33.21M130.431 261.66h138.09M350.616 195.157H158.231" style="stroke-width:15;stroke-linecap:round;stroke-linejoin:round;stroke-miterlimit:10;" fill="none" stroke="#2c9fda" stroke-width="15" stroke-linecap="round" stroke-linejoin="round" stroke-miterlimit="10" data-original="#000000" opacity="1"></path></g></svg>