<svg xmlns="http://www.w3.org/2000/svg" version="1.1" xmlns:xlink="http://www.w3.org/1999/xlink" width="512" height="512" x="0" y="0" viewBox="0 0 64 64" style="enable-background:new 0 0 512 512" xml:space="preserve" class=""><g><path d="M37.002 54H13.968v-4h18.034a1 1 0 1 0 0-2H13.968v-2h16.034a1 1 0 1 0 0-2H13.968V20.932a1 1 0 0 0-1-1H4.002V7.407l16.106-3.202c.597 4.93 4.806 8.761 9.894 8.761s9.297-3.832 9.894-8.761l16.106 3.202V19.93h-8.966a1 1 0 0 0-1 1V29a1 1 0 1 0 2 0V21.93h8.966a1 1 0 0 0 1-1V6.587a.999.999 0 0 0-.805-.98L39.163 2.02a.997.997 0 0 0-1.195.98c0 4.393-3.573 7.966-7.966 7.966s-7.966-3.573-7.966-7.965a1 1 0 0 0-1.195-.98L2.807 5.605a.999.999 0 0 0-.805.98v14.345a1 1 0 0 0 1 1h8.966v33.07a1 1 0 0 0 1 1h24.034a1 1 0 1 0 0-2z" fill="#2c9fda" opacity="1" data-original="#000000" class=""></path><path d="M61.994 40.513c-.001-.052-.002-.104-.012-.156-.007-.038-.02-.073-.031-.11-.01-.033-.016-.069-.03-.102l-3.23-7.538a.999.999 0 0 0-.92-.606H37.31a1 1 0 0 0-.869.504l-4.307 7.538c-.003.004-.003.01-.006.014-.003.005-.008.01-.01.015-.018.033-.025.069-.038.103-.017.044-.037.087-.048.132-.01.04-.011.081-.016.123-.005.046-.012.092-.01.139 0 .04.01.08.016.12.007.047.013.093.027.14.011.038.03.073.045.11.015.034.024.07.043.102.007.012.017.02.025.032.006.01.008.02.015.03l14 20.462c.032.047.072.085.11.125.016.016.027.034.044.05l.03.024c.017.014.036.024.054.037.054.04.109.075.169.103.01.004.016.012.025.017.009.003.018.002.026.005.022.009.045.015.067.022.098.031.197.053.3.053s.202-.022.3-.053c.022-.007.044-.013.067-.022.008-.003.017-.002.026-.005.01-.005.016-.013.025-.017a.995.995 0 0 0 .169-.103c.018-.013.037-.023.054-.037l.03-.025c.017-.015.028-.033.044-.049.038-.04.078-.078.11-.125l14-20.462.003-.005.007-.009c.047-.07.083-.147.11-.226.007-.02.008-.04.013-.06.018-.063.033-.126.037-.191.003-.033-.002-.066-.003-.1zm-12.408-.974h-5.168l2.584-4.523zM37.89 34h7.388l-2.54 4.446-.624 1.092h-7.388zm-2.993 7.538h6.986l2.831 13.448.273 1.298zm12.105 14.607L43.927 41.54h6.15zm2.015.139.273-1.298 2.831-13.448h6.985zm2.873-16.746-.624-1.092-2.54-4.446h8.386l2.373 5.538z" fill="#2c9fda" opacity="1" data-original="#000000" class=""></path></g></svg>