<svg xmlns="http://www.w3.org/2000/svg" version="1.1" xmlns:xlink="http://www.w3.org/1999/xlink" width="512" height="512" x="0" y="0" viewBox="0 0 1024 1024" style="enable-background:new 0 0 512 512" xml:space="preserve" class=""><g><path d="M564.88 939.96c-.2 0-.4-.01-.6-.02a7.48 7.48 0 0 1-5.2-2.73c-23.19-28.34-38.61-61.38-47.16-101-7.25-33.6-8.82-67.26-10-104.62l-11.2-353.37c-23.06 28.72-52.8 53.38-81.73 77.38-7.37 6.12-14.99 12.44-22.34 18.69-41.14 35.03-77.24 93.16-87.78 141.36a7.499 7.499 0 0 1-7.14 5.89c-3.44.07-6.52-2.2-7.42-5.53-20.69-76.14-41.35-173.19-17.19-248.5 5.87-18.29 14.17-36 22.19-53.13 4.66-9.94 9.48-20.23 13.71-30.4 12.25-29.47 18.86-52.86 13.99-78.42a7.499 7.499 0 0 1 4.79-8.45c19.77-7.22 36.27-19.81 52.22-31.98 4.61-3.52 9.37-7.15 14.07-10.54l91.33-65.78c8.95-6.45 18.2-13.11 29.28-17.87 12.85-5.52 26.32-7.29 37.91-4.98 1.14.23 2.21.72 3.13 1.43 30.51 23.67 60.89 48.03 90.27 71.59 25.73 20.64 54.9 44.02 69.24 74.69 11.86 25.36 12.3 52.59 12.73 78.93l.04 2.7c2.86 171.31 28.84 342.6 77.2 509.11a7.56 7.56 0 0 1-.46 5.39c-18.86 38.59-66.15 58.95-109.92 73.79-5.1 1.73-10.24 3.43-15.39 5.14-37.6 12.47-76.48 25.36-103.57 49.35a7.597 7.597 0 0 1-5 1.88zM502.5 276.45l14.41 454.66c1.96 61.73 4.17 131.43 49.09 190.65 28.74-22.74 66.3-35.19 102.71-47.26 5.12-1.7 10.23-3.39 15.3-5.11 39.82-13.49 82.6-31.59 99.97-63.65-48.2-166.9-74.09-338.52-76.96-510.18l-.04-2.71c-.4-24.76-.81-50.36-11.32-72.82-12.86-27.5-40.58-49.73-65.04-69.34-28.86-23.14-58.69-47.06-88.61-70.3-8.29-1.24-17.94.28-27.4 4.34-9.57 4.11-18.14 10.28-26.43 16.26l-91.33 65.78c-4.53 3.26-9 6.68-13.74 10.29-15.34 11.7-31.15 23.76-50.39 31.87 3.89 29.84-5.65 56.24-15.86 80.82-4.36 10.48-9.25 20.92-13.98 31.01-7.83 16.7-15.92 33.97-21.49 51.35-20.35 63.44-6.79 144.73 10.58 214.01 16.31-44.65 48.8-92.46 84.95-123.25 7.42-6.32 15.08-12.67 22.49-18.82 33.27-27.6 67.64-56.1 90.54-90.01l-2.44-77.12z" fill="#2c9fda" opacity="1" data-original="#000000"></path><path d="m272.33 410.67-12.28-8.62c26.08-37.16 66.55-65.94 105.69-93.77 7.69-5.47 14.95-10.63 22.14-15.88 40.44-29.54 85.38-64.99 106.88-112.08l13.65 6.23c-23 50.39-69.7 87.31-111.68 117.97-7.27 5.31-14.91 10.74-22.29 15.99-38.11 27.09-77.51 55.11-102.11 90.16zM278.88 531.96l-14.27-4.63c10.96-33.79 35.64-55.82 62.12-77.24 2.56-2.07 5.14-4.14 7.72-6.21 23.63-18.96 48.06-38.57 62.23-63.54l13.04 7.4c-15.59 27.47-41.16 47.99-65.89 67.83-2.57 2.06-5.13 4.12-7.68 6.18-24.65 19.95-47.58 40.34-57.27 70.21zM684.89 794.41l-14.76-2.66c11.01-61.18 9.3-74.25 2.93-122.9l-.04-.3c-3.3-25.18-8.23-50.74-13-75.44-4.51-23.37-9.18-47.53-12.5-71.53-11.93-86.2-7.26-172.97 13.88-257.92l14.56 3.62c-20.67 83.09-25.24 167.96-13.58 252.25 3.27 23.61 7.89 47.57 12.37 70.74 4.81 24.93 9.79 50.71 13.15 76.34l.04.3c6.43 49.19 8.37 64.03-3.05 127.5zM617.26 815.3l-14.83-2.23c10.53-70.16-1.06-127.28-14.48-193.42-3.3-16.29-6.72-33.13-9.92-50.76-16.26-89.61-26.39-184.43 9.22-270.75l13.87 5.72c-34.14 82.74-24.18 174.99-8.33 262.35 3.17 17.47 6.57 34.24 9.86 50.45 13.7 67.55 25.53 125.87 14.61 198.64zM547.69 903.75l-10.94-10.26c22.72-24.22 59.62-37.13 86.56-46.56 24.47-8.56 53.59-19.12 84.02-32.48 27.16-11.92 50.96-33.05 65.32-57.98l13 7.49c-15.92 27.64-42.27 51.05-72.29 64.23-30.9 13.57-60.36 24.25-85.1 32.91-26.89 9.39-60.36 21.11-80.57 42.65zM317.89 207.97c-7.55-12.81-7.49-27.89-7.39-50.72.01-2.82.03-5.79.03-8.9.12-15.49-2.62-20.72-9.26-33.37-.81-1.54-1.66-3.17-2.56-4.92-.99-1.92-1.1-4.16-.32-6.17s2.39-3.58 4.42-4.32c7.66-2.79 13.89-5.09 20.11-7.38 6.29-2.32 12.57-4.63 20.31-7.45 3.55-1.29 7.5.25 9.23 3.61 1.61 3.12 3.06 6 4.4 8.68 7.12 14.18 10.7 21.3 19.75 27.07 13.79 8.79 23.77 8.09 37.57 7.12 2.9-.2 5.91-.41 9.1-.54l.61 14.99c-2.98.12-5.87.32-8.66.52-14.77 1.04-28.71 2.01-46.68-9.44-12.54-7.99-17.53-17.93-25.09-32.99-.43-.86-.87-1.74-1.33-2.64-5.03 1.84-9.52 3.5-14.02 5.15-3.92 1.45-7.85 2.89-12.13 4.46 6.08 11.69 9.69 19.84 9.55 37.68 0 3.08-.01 6.06-.03 8.91-.09 21.06-.15 33.78 5.31 43.03zM331.7 959.04c-6.36 0-11.87-2.5-16.82-4.74-3.44-1.56-6.68-3.03-9.77-3.48-4.12-.59-8.76.54-13.67 1.74-5.06 1.23-10.8 2.63-16.87 2.3-7.51-.41-13.93-3.32-19.61-5.89-1.29-.58-2.57-1.16-3.86-1.71-6.69-2.84-12.3-3.55-15.81-1.98a7.5 7.5 0 0 1-10.54-6.33c-2.26-32.24 10.45-61.97 22.74-90.73 7.18-16.79 14.6-34.16 18.62-51.38 6.39-27.36 7.59-59.23 8.76-90.05 1.21-31.94 2.46-64.96 9.35-94.46l14.61 3.41c-6.56 28.09-7.78 60.39-8.96 91.62-1.19 31.53-2.43 64.13-9.14 92.89-4.32 18.5-12 36.47-19.43 53.86-10.93 25.57-21.31 49.86-21.78 75.36h.14c5.27 0 11.11 1.33 17.32 3.97 1.39.59 2.78 1.22 4.18 1.85 4.9 2.22 9.53 4.32 14.23 4.57 3.85.2 8.06-.81 12.51-1.9 5.8-1.41 12.37-3.01 19.35-2.01 5.21.75 9.8 2.83 13.84 4.66 4.58 2.08 8.52 3.87 12.1 3.28 2.66-.44 5.15-2.3 8.03-4.46 3.81-2.85 8.12-6.08 14.21-7.2 8.45-1.55 15.57 1.7 21.85 4.56 4.1 1.87 7.98 3.64 11.62 3.79 4.62.19 9.05-2.06 14.2-4.68 5.07-2.58 10.82-5.5 17.61-6.29 7.6-.89 14.72 1.09 21 2.84 5.49 1.53 10.67 2.96 15.37 2.37 4.44-.57 8.97-2.41 13.77-4.36 6.91-2.81 14.75-5.99 23.49-5.51 2.2.12 5.17 1.04 13.09 3.64 1.8.59 4.22 1.38 6.61 2.13-7.87-56.35-21.69-103.98-35.07-150.14-2.25-7.77-4.49-15.48-6.68-23.16-.97-3.41-2.01-6.94-3.08-10.58-7.44-25.27-16.7-56.71-15.32-90.43 1.45-35.45 10.74-56.72 27.61-95.33 4.1-9.39 8.75-20.02 13.87-32.19l13.83 5.82c-5.16 12.26-9.83 22.95-13.95 32.38-16.66 38.15-25.03 57.3-26.37 89.94-1.28 31.24 7.59 61.37 14.72 85.58 1.08 3.68 2.14 7.26 3.12 10.71 2.18 7.66 4.41 15.34 6.66 23.09 14.39 49.6 29.26 100.88 36.95 163.11a7.5 7.5 0 0 1-5.59 8.19c-3.56.91-7.65-.16-21.98-4.86-3.42-1.12-8.06-2.65-9.48-2.93-5.32-.24-10.89 2.04-16.78 4.44-5.48 2.23-11.14 4.53-17.52 5.35-7.7.98-14.92-1.02-21.29-2.79-5.43-1.51-10.57-2.94-15.24-2.39-4.13.48-8.22 2.56-12.55 4.76-6.14 3.12-13.11 6.65-21.64 6.29-6.57-.28-12.22-2.86-17.2-5.13-4.89-2.23-9.11-4.16-12.91-3.46-2.63.48-5.09 2.32-7.93 4.46-3.7 2.77-8.3 6.22-14.58 7.25-1.36.24-2.67.34-3.94.34z" fill="#2c9fda" opacity="1" data-original="#000000"></path><path d="m315.09 862.77-14.02-5.32c29.39-77.46 28.96-109.48 28.19-167.6l-.01-.4c-.08-6.24-.21-12.75-.35-19.47-1.15-57.57-2.58-129.21 21.47-180.32l13.57 6.39c-22.56 47.93-21.17 117.63-20.05 173.64.13 6.76.27 13.3.35 19.57v.4c.78 57.98 1.24 92.99-29.15 173.11z" fill="#2c9fda" opacity="1" data-original="#000000"></path><path d="m392.67 857.27-14.99-.43c1.01-35.53-5.72-73.68-12.23-110.57-4.08-23.1-8.29-46.99-10.5-69.81-3.2-33.04-5.97-68.51-4.56-104.05 1.8-45.45 9.92-80.61 24.84-107.47l13.12 7.28c-32.45 58.46-23 155.95-18.46 202.8 2.16 22.24 6.32 45.84 10.34 68.65 6.63 37.63 13.5 76.54 12.44 113.6z" fill="#2c9fda" opacity="1" data-original="#000000"></path><path d="M441.17 850.8c-6.6-41.3-19.94-83.44-32.85-124.18-6.1-19.25-12.4-39.15-17.9-58.68-9.71-34.49-15.38-75.25-15.56-111.82-.22-45.77 8.03-84.13 23.86-110.93l12.92 7.63c-30.8 52.14-25.1 145.96-6.78 211.05 5.43 19.29 11.7 39.08 17.76 58.21 13.07 41.27 26.58 83.94 33.36 126.34zM326.88 254.63l-5.05-14.13c41.56-14.85 78.8-43.56 114.81-71.33 2.5-1.93 5-3.85 7.49-5.77 4.36-3.35 8.84-6.85 13.58-10.56 40.19-31.42 85.73-67.04 120.63-61.77l-2.24 14.83c-28.51-4.32-73.22 30.66-109.15 58.75-4.76 3.72-9.26 7.24-13.67 10.63-2.48 1.91-4.97 3.83-7.47 5.75-36.95 28.5-75.14 57.95-118.93 73.6zM577.28 906.11c-4.41 0-8-3.59-8-8s3.59-8 8-8 8 3.59 8 8-3.59 8-8 8zm0-15c-3.86 0-7 3.14-7 7s3.14 7 7 7 7-3.14 7-7-3.14-7-7-7zM606.28 891.11c-4.41 0-8-3.59-8-8s3.59-8 8-8 8 3.59 8 8-3.59 8-8 8zm0-15c-3.86 0-7 3.14-7 7s3.14 7 7 7 7-3.14 7-7-3.14-7-7-7zM638.78 879.36c-4.41 0-8-3.59-8-8s3.59-8 8-8 8 3.59 8 8-3.59 8-8 8zm0-15c-3.86 0-7 3.14-7 7s3.14 7 7 7 7-3.14 7-7-3.14-7-7-7zM670.53 868.61c-4.41 0-8-3.59-8-8s3.59-8 8-8 8 3.59 8 8-3.59 8-8 8zm0-15c-3.86 0-7 3.14-7 7s3.14 7 7 7 7-3.14 7-7-3.14-7-7-7zM701.53 857.11c-4.41 0-8-3.59-8-8s3.59-8 8-8 8 3.59 8 8-3.59 8-8 8zm0-15c-3.86 0-7 3.14-7 7s3.14 7 7 7 7-3.14 7-7-3.14-7-7-7zM732.53 842.86c-4.41 0-8-3.59-8-8s3.59-8 8-8 8 3.59 8 8-3.59 8-8 8zm0-15c-3.86 0-7 3.14-7 7s3.14 7 7 7 7-3.14 7-7-3.14-7-7-7zM760.28 822.69c-4.41 0-8-3.59-8-8s3.59-8 8-8 8 3.59 8 8-3.59 8-8 8zm0-15c-3.86 0-7 3.14-7 7s3.14 7 7 7 7-3.14 7-7-3.14-7-7-7z" fill="#2c9fda" opacity="1" data-original="#000000"></path><path d="M355.01 219.66c-4.41 0-8-3.59-8-8s3.59-8 8-8 8 3.59 8 8-3.59 8-8 8zm0-15c-3.86 0-7 3.14-7 7s3.14 7 7 7 7-3.14 7-7-3.14-7-7-7zM383.89 200.16c-4.41 0-8-3.59-8-8s3.59-8 8-8 8 3.59 8 8-3.59 8-8 8zm0-15c-3.86 0-7 3.14-7 7s3.14 7 7 7 7-3.14 7-7-3.14-7-7-7zM411.01 180.81c-4.41 0-8-3.59-8-8s3.59-8 8-8 8 3.59 8 8-3.59 8-8 8zm0-15c-3.86 0-7 3.14-7 7s3.14 7 7 7 7-3.14 7-7-3.14-7-7-7zM436.51 161.66c-4.41 0-8-3.59-8-8s3.59-8 8-8 8 3.59 8 8-3.59 8-8 8zm0-15c-3.86 0-7 3.14-7 7s3.14 7 7 7 7-3.14 7-7-3.14-7-7-7zM462.51 142.16c-4.41 0-8-3.59-8-8s3.59-8 8-8 8 3.59 8 8-3.59 8-8 8zm0-15c-3.86 0-7 3.14-7 7s3.14 7 7 7 7-3.14 7-7-3.14-7-7-7zM489.01 122.91c-4.41 0-8-3.59-8-8s3.59-8 8-8 8 3.59 8 8-3.59 8-8 8zm0-15c-3.86 0-7 3.14-7 7s3.14 7 7 7 7-3.14 7-7-3.14-7-7-7zM518.51 104.06c-4.41 0-8-3.59-8-8s3.59-8 8-8 8 3.59 8 8-3.59 8-8 8zm0-15c-3.86 0-7 3.14-7 7s3.14 7 7 7 7-3.14 7-7-3.14-7-7-7zM276.31 919.34c-6.48 0-12.27-2.39-17.94-4.72-6.19-2.55-12.58-5.19-21.2-5.62l.75-14.98c11.2.56 19.5 3.98 26.17 6.73 8.14 3.36 11.96 4.74 17.19 2.47 2.11-.92 4.3-2.28 6.61-3.72 5.17-3.22 11.03-6.88 18.49-6.98h.3c6.44 0 11.81 2.7 16.56 5.09 3.61 1.81 7.01 3.54 9.92 3.49 3.14-.04 6.53-2.03 10.46-4.34 4.45-2.62 9.5-5.59 15.64-6.33 7.68-.92 14.37 1.9 20.27 4.39 4.08 1.72 7.93 3.34 11.41 3.46 4.85.17 10.04-2.57 15.52-5.45 6.6-3.47 14.07-7.39 22.82-7.18 6.56.17 12.29 2.66 17.35 4.86 3.82 1.67 7.43 3.24 10.82 3.59 6.15.64 12.67-2.53 19.58-5.87 1.71-.83 3.47-1.68 5.25-2.48 14.94-6.76 28.39-6.09 36.9 1.83l-10.22 10.98c-4.49-4.18-13.53-2.3-20.5.85-1.6.72-3.2 1.5-4.89 2.32-8.1 3.92-17.27 8.37-27.67 7.29-5.7-.59-10.79-2.8-15.27-4.76-4.17-1.82-8.1-3.53-11.73-3.62-4.82-.1-10 2.59-15.46 5.46-6.64 3.5-14.19 7.45-23 7.17-6.27-.21-11.84-2.56-16.75-4.63-4.79-2.02-8.92-3.77-12.65-3.32-3.02.36-6.33 2.31-9.82 4.36-5.04 2.97-10.76 6.33-17.9 6.41h-.26c-6.44 0-11.81-2.7-16.57-5.09-3.57-1.79-6.95-3.49-9.83-3.49h-.1c-3.27.04-6.73 2.21-10.75 4.71-2.67 1.67-5.44 3.39-8.57 4.75-3.88 1.7-7.5 2.37-10.93 2.37z" fill="#2c9fda" opacity="1" data-original="#000000"></path></g></svg>