<svg xmlns="http://www.w3.org/2000/svg" version="1.1" xmlns:xlink="http://www.w3.org/1999/xlink" width="512" height="512" x="0" y="0" viewBox="0 0 510.54 510.54" style="enable-background:new 0 0 512 512" xml:space="preserve" class=""><g><path d="M147.647 460.517H59.974a7.5 7.5 0 0 0-7.5 7.5 7.5 7.5 0 0 0 7.5 7.5h87.673a7.5 7.5 0 0 0 7.5-7.5 7.5 7.5 0 0 0-7.5-7.5z" fill="#2c9fda" opacity="1" data-original="#000000" class=""></path><path d="M503.04 310.227a7.5 7.5 0 0 0-7.5 7.5v118.747a278.978 278.978 0 0 1-26.904-3.453c-16.219-13.007-22.872-40.226-25.591-61.064-1.768-13.549-2.124-26.193-2.093-34.73a22.49 22.49 0 0 0 3.091.221c12.272 0 22.256-9.984 22.256-22.256a22.16 22.16 0 0 0-.313-3.709c4.401-4.131 6.97-9.925 6.97-16.197 0-10.975-7.985-20.119-18.451-21.931-3.241-8.326-11.33-14.164-20.744-14.164s-17.503 5.838-20.744 14.164c-10.465 1.812-18.451 10.956-18.451 21.931 0 6.273 2.569 12.066 6.97 16.197a22.265 22.265 0 0 0-.313 3.709c0 12.271 9.984 22.256 22.256 22.256.822 0 1.636-.051 2.443-.138-.095 20.434 1.994 62.193 18.789 90.263-19.873-5.57-38.381-13.468-55.35-23.695-21.565-12.997-40.756-29.756-57.234-49.928l26.926-59.596a7.5 7.5 0 0 0-13.67-6.176l-23.582 52.196c-26.583-37.639-37.059-74.878-39.802-86.196 4.564-5.632 12.842-17.936 11.218-31.509-2.172-18.163-21.039-29.941-21.84-30.434a7.508 7.508 0 0 0-9.246 1.105c-.664.668-16.221 16.564-14.049 34.727 1.694 14.167 13.545 24.45 19.058 28.522 2.582 11.234 13.224 51.021 42.233 92.192a260.59 260.59 0 0 0 7.992 10.737c.087.118.181.23.275.344 15.926 20.231 34.372 37.376 55.037 51.169-18.499-.257-35.564 1.106-44.37 1.977-3.083-6.316-9.063-10.97-16.204-12.206-3.241-8.326-11.33-14.164-20.744-14.164s-17.503 5.838-20.744 14.164c-10.465 1.811-18.45 10.956-18.45 21.931 0 6.273 2.568 12.066 6.97 16.197a22.256 22.256 0 0 0-.313 3.709c0 12.271 9.984 22.256 22.256 22.256 3.632 0 7.142-.87 10.281-2.509a22.165 22.165 0 0 0 10.281 2.509c12.271 0 22.255-9.984 22.255-22.256a22.16 22.16 0 0 0-.313-3.709 22.013 22.013 0 0 0 6.358-10.996c13.596-1.313 47.768-3.848 74.099.642 18.54 8.564 38.476 14.846 59.676 18.802.36.092.722.159 1.088.197 9.975 1.82 20.22 3.14 30.736 3.931v43.766H197.621c6.231-7.363 10-16.874 10-27.253V157.542a7.5 7.5 0 0 0-7.5-7.5 7.5 7.5 0 0 0-7.5 7.5v115.662c-2.633 5.694-15.577 30.628-46.451 46.708-13.682-6.079-29.255-22.119-37.857-32.202a22.143 22.143 0 0 0 4.847-13.842 22.16 22.16 0 0 0-.313-3.709c4.401-4.131 6.97-9.925 6.97-16.197 0-10.975-7.985-20.119-18.451-21.931-3.241-8.326-11.33-14.164-20.744-14.164-9.413 0-17.502 5.838-20.743 14.164-10.466 1.811-18.451 10.955-18.451 21.931 0 6.272 2.568 12.066 6.969 16.197a22.265 22.265 0 0 0-.313 3.709c0 12.271 9.984 22.256 22.256 22.256 3.632 0 7.141-.869 10.281-2.509a22.152 22.152 0 0 0 10.281 2.509 22.27 22.27 0 0 0 4.51-.46c5.962 7.16 18.934 21.709 33.399 31.546-9.262 3.051-19.716 5.255-31.481 6.18-4.346-6.037-13.775-16.805-26.916-18.881-18.062-2.848-34.538 12.094-35.23 12.731a7.501 7.501 0 0 0-1.453 9.198c.462.819 11.522 20.117 29.59 22.971a29.94 29.94 0 0 0 4.67.362c12.643-.001 23.837-7.673 28.402-11.281 43.296-2.858 70.866-21.461 86.448-36.737a123.036 123.036 0 0 0 9.777-10.792v134.802c-7.363-6.232-16.874-10-27.253-10H42.253c-10.379 0-19.89 3.768-27.253 10v-71.421a7.5 7.5 0 0 0-15 0v103.675c0 23.299 18.955 42.253 42.253 42.253H503.04a7.5 7.5 0 0 0 7.5-7.5V317.727a7.5 7.5 0 0 0-7.5-7.5zm-86.815 4.966c0-1.154.261-2.255.776-3.271a7.496 7.496 0 0 0-3.374-10.119 7.22 7.22 0 0 1-4.059-6.517c0-4.001 3.255-7.256 7.256-7.256.363 0 .73.027 1.092.082a7.501 7.501 0 0 0 8.6-7.041c.194-3.858 3.376-6.88 7.246-6.88s7.052 3.022 7.246 6.88a7.5 7.5 0 0 0 8.6 7.041 7.289 7.289 0 0 1 1.092-.082c4.001 0 7.256 3.255 7.256 7.256a7.222 7.222 0 0 1-4.059 6.517 7.5 7.5 0 0 0-3.374 10.119 7.165 7.165 0 0 1 .776 3.271c0 4.001-3.255 7.256-7.256 7.256a7.214 7.214 0 0 1-5.055-2.052l-.042-.037c-.103-.098-.212-.189-.32-.282-.079-.068-.156-.139-.237-.203-.101-.079-.209-.151-.314-.225-.095-.067-.187-.137-.284-.199-.096-.061-.197-.114-.296-.171-.112-.064-.221-.132-.335-.19-.095-.048-.194-.088-.291-.132-.124-.056-.246-.115-.371-.165-.096-.038-.196-.067-.294-.101-.132-.045-.263-.093-.397-.13-.096-.027-.195-.047-.293-.07-.141-.034-.282-.068-.424-.094-.096-.017-.193-.028-.291-.041a7.424 7.424 0 0 0-.446-.052c-.032-.003-.063-.009-.095-.011-.087-.006-.172-.002-.258-.005-.079-.003-.159-.011-.238-.011-.03 0-.06.004-.09.004a7.37 7.37 0 0 0-.538.025l-.122.01a7.41 7.41 0 0 0-.652.092l-.009.002a7.373 7.373 0 0 0-3.277 1.515 7.342 7.342 0 0 0-.496.437c-.014.013-.029.024-.042.037a7.218 7.218 0 0 1-5.055 2.052c-4.002-.003-7.256-3.258-7.256-7.259zM268.691 208.995c4.17 3.748 8.905 9.374 9.633 15.455.727 6.08-2.548 12.663-5.711 17.284-3.96-3.521-8.874-9.075-9.637-15.449-.727-6.083 2.55-12.669 5.715-17.29zm42.804 220.251a7.506 7.506 0 0 0-3.801 4.354 7.507 7.507 0 0 0 .424 5.765 7.165 7.165 0 0 1 .777 3.273c0 4.001-3.255 7.256-7.255 7.256a7.216 7.216 0 0 1-5.054-2.052 7.475 7.475 0 0 0-5.228-2.122 7.479 7.479 0 0 0-5.228 2.122 7.214 7.214 0 0 1-5.054 2.052c-4.001 0-7.256-3.255-7.256-7.256 0-1.154.261-2.256.777-3.273a7.498 7.498 0 0 0-3.376-10.119 7.218 7.218 0 0 1-4.058-6.515c0-4.001 3.255-7.256 7.256-7.256.367 0 .735.027 1.092.081a7.501 7.501 0 0 0 8.6-7.041 7.244 7.244 0 0 1 7.246-6.879 7.245 7.245 0 0 1 7.246 6.879 7.502 7.502 0 0 0 8.599 7.041 7.368 7.368 0 0 1 1.094-.081c4 0 7.255 3.255 7.255 7.256a7.214 7.214 0 0 1-4.056 6.515zM80.622 276.951a7.476 7.476 0 0 0-5.226 2.121 7.218 7.218 0 0 1-5.055 2.052c-4.001 0-7.256-3.255-7.256-7.256 0-1.153.261-2.254.776-3.271a7.496 7.496 0 0 0-3.374-10.119 7.22 7.22 0 0 1-4.059-6.517c0-4.001 3.255-7.256 7.255-7.256.363 0 .731.027 1.094.082a7.498 7.498 0 0 0 8.599-7.041 7.245 7.245 0 0 1 7.246-6.88 7.244 7.244 0 0 1 7.246 6.88 7.5 7.5 0 0 0 8.6 7.041 7.289 7.289 0 0 1 1.092-.082c4.001 0 7.256 3.255 7.256 7.256a7.222 7.222 0 0 1-4.059 6.517 7.5 7.5 0 0 0-3.374 10.119 7.165 7.165 0 0 1 .776 3.271c0 4.001-3.255 7.256-7.256 7.256a7.218 7.218 0 0 1-5.055-2.052 7.474 7.474 0 0 0-5.226-2.121zm-14.958 67.641c-6.049-.955-11.492-5.898-15.078-10.2 4.465-2.852 11.147-6.072 17.489-5.067 6.051.956 11.496 5.902 15.082 10.206-4.741 2.992-11.443 6.019-17.493 5.061zM15 468.017c0-15.028 12.226-27.254 27.253-27.254h123.114c15.027 0 27.253 12.226 27.253 27.254 0 15.027-12.226 27.253-27.253 27.253H42.253C27.226 495.27 15 483.044 15 468.017z" fill="#2c9fda" opacity="1" data-original="#000000" class=""></path><path d="M503.04 39.27H207.483c-1.668-21.782-19.913-39-42.116-39H42.253C18.955.27 0 19.225 0 42.523v291.819c0 4.143 3.358 7.5 7.5 7.5s7.5-3.357 7.5-7.5v-230.67c20.2 27.023 61.053 73.252 114.607 90.6a7.493 7.493 0 0 0 2.313.367 7.502 7.502 0 0 0 2.31-14.636c-21.777-7.054-41.516-19.614-58.422-33.632 22.854-7.778 45.598-24.52 53.04-30.29 1.238.091 2.753.162 4.474.162 7.849 0 19.887-1.48 28.483-9.341h.001c13.499-12.345 12.085-34.542 12.018-35.48a7.501 7.501 0 0 0-6.284-6.872c-.93-.148-22.912-3.537-36.411 8.806-10.147 9.279-11.867 24.124-12.068 31.323a241.248 241.248 0 0 1-18.706 12.94c-14.437 8.99-27.433 14.771-37.885 16.895C36.459 109.799 19.316 84.097 15 77.338V42.523C15 27.496 27.226 15.27 42.253 15.27h123.114c15.027 0 27.253 12.226 27.253 27.253v85.019a7.5 7.5 0 0 0 7.5 7.5 7.5 7.5 0 0 0 7.5-7.5V54.27h80.881c6.486 10.26 26.004 39.103 50.58 56.556-4.318 4.062-7.03 9.813-7.03 16.195 0 6.273 2.568 12.066 6.97 16.197a22.265 22.265 0 0 0-.313 3.709c0 12.271 9.984 22.256 22.255 22.256 3.632 0 7.141-.869 10.281-2.509a22.152 22.152 0 0 0 10.281 2.509c12.272 0 22.256-9.984 22.256-22.256a22.15 22.15 0 0 0-.313-3.709c4.401-4.131 6.97-9.924 6.97-16.197 0-10.975-7.985-20.119-18.451-21.931-3.241-8.326-11.33-14.164-20.744-14.164-8.029 0-15.083 4.256-18.999 10.671-19.323-11.99-36.417-33.951-45.707-47.327H495.54v233.457a7.5 7.5 0 0 0 7.5 7.5 7.5 7.5 0 0 0 7.5-7.5V46.77a7.5 7.5 0 0 0-7.5-7.5zM141.251 84.424c4.521-4.135 11.784-5.306 17.384-5.425-.618 5.573-2.433 12.698-6.953 16.831-4.521 4.135-11.784 5.306-17.384 5.425.618-5.573 2.433-12.698 6.953-16.831zm229.996 21.502a7.244 7.244 0 0 1 7.246 6.88 7.5 7.5 0 0 0 8.6 7.041 7.289 7.289 0 0 1 1.092-.082c4.001 0 7.256 3.255 7.256 7.256a7.219 7.219 0 0 1-4.058 6.515 7.496 7.496 0 0 0-3.8 4.355 7.507 7.507 0 0 0 .424 5.765 7.164 7.164 0 0 1 .777 3.272c0 4.001-3.255 7.256-7.256 7.256a7.22 7.22 0 0 1-5.055-2.052 7.476 7.476 0 0 0-5.226-2.121 7.478 7.478 0 0 0-5.227 2.121 7.218 7.218 0 0 1-5.055 2.052c-4 0-7.255-3.255-7.255-7.256a7.16 7.16 0 0 1 .777-3.272 7.504 7.504 0 0 0-3.377-10.12 7.218 7.218 0 0 1-4.058-6.515c0-4.001 3.255-7.256 7.255-7.256.363 0 .73.027 1.092.082.043.006.086.007.129.012.16.021.319.035.48.045.097.006.194.013.291.016.068.002.136.011.204.011.071 0 .141-.013.212-.015a7.72 7.72 0 0 0 .609-.043c.111-.012.223-.021.333-.038.296-.046.589-.107.877-.188.075-.021.146-.05.22-.073a7.49 7.49 0 0 0 .959-.375c.21-.099.415-.209.617-.329.074-.044.15-.083.222-.13.244-.156.482-.324.708-.509.014-.012.026-.025.04-.036.065-.054.124-.114.187-.17a7.604 7.604 0 0 0 .724-.738c.167-.197.324-.401.47-.613.036-.053.077-.102.112-.156.178-.274.335-.561.476-.855.014-.029.032-.053.045-.082.038-.081.065-.164.099-.246.049-.116.098-.231.141-.35.049-.135.091-.271.132-.408.031-.104.064-.206.09-.311.041-.16.072-.321.102-.482.016-.086.035-.171.048-.258.028-.186.044-.372.058-.557.004-.055.014-.109.017-.164a7.244 7.244 0 0 1 7.246-6.879z" fill="#2c9fda" opacity="1" data-original="#000000" class=""></path><path d="M80.549 251.083c-4.913 0-8.909 3.997-8.909 8.909 0 4.912 3.997 8.909 8.909 8.909s8.909-3.997 8.909-8.909c.001-4.911-3.996-8.909-8.909-8.909zM442.598 301.318c0-4.912-3.996-8.909-8.909-8.909s-8.909 3.997-8.909 8.909c0 4.912 3.997 8.909 8.909 8.909s8.909-3.997 8.909-8.909zM291.286 419.852c-4.913 0-8.909 3.997-8.909 8.909s3.997 8.909 8.909 8.909c4.913 0 8.909-3.997 8.909-8.909s-3.997-8.909-8.909-8.909z" fill="#2c9fda" opacity="1" data-original="#000000" class=""></path><circle cx="371.173" cy="133.052" r="8.909" fill="#2c9fda" opacity="1" data-original="#000000" class=""></circle></g></svg>