<svg xmlns="http://www.w3.org/2000/svg" version="1.1" xmlns:xlink="http://www.w3.org/1999/xlink" width="512" height="512" x="0" y="0" viewBox="0 0 64 64" style="enable-background:new 0 0 512 512" xml:space="preserve" class=""><g><path d="M53.664 11.776a3.781 3.781 0 0 0-2.337-3.1L41.141 4.506l-1.093-1.18A1.139 1.139 0 0 0 39.313 3H24.684a1.118 1.118 0 0 0-.734.321l-1.098 1.187-10.18 4.169a3.783 3.783 0 0 0-2.337 3.099L5.586 56.49c-.07.57.416 1.12.995 1.105h6.507l-.265 1.475a1 1 0 0 0 .762 1.152c2.363.538 4.458.768 6.313.768 6.833 0 10.398-3.105 12.088-5.347 3.144 4.54 10.493 6.604 18.428 4.577a1 1 0 0 0 .762-1.153l-.265-1.472h6.508c.574.01 1.07-.532.994-1.105l-4.749-44.714zm-21.77 16.431L27.215 9.87h9.518zM37.26 7.87H26.703L25.971 5h12.046zm-13.31 2.482a1 1 0 0 0-.563-.704l-1.8-.825L24.17 6.03l5.165 20.24-7.874-12.515 2.256-2.533a.999.999 0 0 0 .232-.87zM39.815 6.02l2.595 2.804-1.799.824a1.002 1.002 0 0 0-.33 1.574l2.251 2.53-8.071 12.566 5.354-20.298zM14.963 58.471 17.4 44.925h5.303c1.315-.028 1.315-1.974 0-2h-4.944l.981-5.452c.018-.103-2.154-16.442-2.154-16.442a1 1 0 0 0-1.982.266l2.14 15.975-3.296 18.323H7.693l4.632-43.608a1.784 1.784 0 0 1 1.105-1.46l6.206-2.541-.454.492c-.46.474-.29 1.327.318 1.587l1.824.836-1.856 2.084a1 1 0 0 0-.1 1.198l11.99 19.055v19.63c-.464 1.08-3.98 8.06-16.395 5.603zm35.588-2.876-3.3-18.32 2.151-15.983a1 1 0 0 0-1.982-.267s-2.183 16.348-2.164 16.45l.98 5.45h-5.673c-1.31.016-1.316 1.981 0 2h6.033l2.438 13.546C38.74 60.525 34.6 56.206 33.132 53.78c.181-.422.206-.394.225-.721V32.95c0-.189-.293-.756-.293-.756l11.562-18a1 1 0 0 0-.095-1.205l-1.856-2.087 1.825-.837c.607-.255.778-1.119.316-1.588l-.455-.492 6.208 2.542c.614.252 1.037.81 1.107 1.46l4.63 43.608h-5.755z" fill="#2c9fda" opacity="1" data-original="#000000" class=""></path><path d="M28.365 33.653c-1.709.03-1.708 2.542 0 2.57 1.708-.029 1.708-2.54 0-2.57zM28.365 40.947c-1.709.03-1.708 2.542 0 2.57 1.708-.029 1.708-2.54 0-2.57z" fill="#2c9fda" opacity="1" data-original="#000000" class=""></path></g></svg>